
<svg width="298px" height="111px" viewBox="0 0 298 111" version="1.1" xmlns="http://www.w3.org/2000/svg" xmlns:xlink="http://www.w3.org/1999/xlink">
    <!-- Generator: Sketch 48.2 (47327) - http://www.bohemiancoding.com/sketch -->
    <desc>Created with Sketch.</desc>
    <defs></defs>
    <g id="Page-1" stroke="none" stroke-width="1" fill="none" fill-rule="evenodd">
        <g id="Group" fill="#000000">
            <polygon id="Fill-5" points="131.186375 110.289312 148.960375 110.289312 148.960375 27.1643125 131.186375 27.1643125"></polygon>
            <polygon id="Fill-6" points="163.065375 110.289312 180.837375 110.289312 180.837375 27.1643125 163.065375 27.1643125"></polygon>
            <polygon id="Fill-7" points="194.940375 110.289312 212.712375 110.289312 212.712375 27.1643125 194.940375 27.1643125"></polygon>
            <path d="M227.393375,27.6213125 L254.794375,27.7363125 C259.380375,27.7363125 273.372375,27.8503125 283.346375,35.1833125 C293.777375,42.8703125 297.447375,55.9453125 297.447375,67.7493125 C297.447375,93.2053125 283.803375,106.500312 268.092375,109.372312 C264.999375,109.944312 261.561375,110.289312 253.192375,110.289312 L227.393375,110.289312 L227.393375,27.6213125 Z M245.393375,96.6423125 C247.342375,96.7623125 250.323375,96.8763125 252.385375,96.8763125 C259.954375,96.8763125 266.493375,96.3053125 271.653375,91.1433125 C278.645375,84.1473125 279.102375,71.7603125 279.102375,67.7493125 C279.102375,56.0573125 275.088375,45.2793125 263.971375,42.1853125 C260.301375,41.1543125 255.598375,40.5823125 245.393375,41.0333125 L245.393375,96.6423125 Z" id="Fill-8"></path>
            <path d="M0.654296875,35.9960938 L0.654296875,22.9882812 L2.5,22.9882812 L2.5,35.9960938 L0.654296875,35.9960938 Z M5.90136719,35.9960938 L5.90136719,26.4511719 L7.6328125,26.4511719 L7.6328125,28.2441406 C8.54687957,26.9081964 9.666009,26.2402344 10.9902344,26.2402344 C11.8164104,26.2402344 12.4755835,26.5024388 12.9677734,27.0268555 C13.4599634,27.5512722 13.7060547,28.255855 13.7060547,29.140625 L13.7060547,35.9960938 L11.9746094,35.9960938 L11.9746094,29.703125 C11.9746094,28.9941371 11.8706065,28.488771 11.6625977,28.1870117 C11.4545888,27.8852524 11.110354,27.734375 10.6298828,27.734375 C9.56933063,27.734375 8.57031719,28.428704 7.6328125,29.8173828 L7.6328125,35.9960938 L5.90136719,35.9960938 Z M19.9375,36.2158203 C19.0585894,36.2158203 18.3730493,35.9638697 17.8808594,35.4599609 C17.3886694,34.9560522 17.1425781,34.2558639 17.1425781,33.359375 L17.1425781,27.7519531 L15.9472656,27.7519531 L15.9472656,26.4511719 L17.1425781,26.4511719 L17.1425781,24.7197266 L18.8740234,24.5527344 L18.8740234,26.4511719 L21.3701172,26.4511719 L21.3701172,27.7519531 L18.8740234,27.7519531 L18.8740234,33.0429688 C18.8740234,34.2910219 19.4130805,34.9150391 20.4912109,34.9150391 C20.7197277,34.9150391 20.9980452,34.8769535 21.3261719,34.8007812 L21.3261719,35.9960938 C20.7929661,36.1425789 20.3300801,36.2158203 19.9375,36.2158203 Z M30.8007812,35.6884766 C29.6406192,36.0400408 28.6474651,36.2158203 27.8212891,36.2158203 C26.415032,36.2158203 25.2680708,35.7485398 24.3803711,34.8139648 C23.4926713,33.8793899 23.0488281,32.6679762 23.0488281,31.1796875 C23.0488281,29.7324146 23.4399375,28.5459031 24.222168,27.6201172 C25.0043984,26.6943313 26.0048767,26.2314453 27.2236328,26.2314453 C28.3779355,26.2314453 29.2700164,26.6415975 29.8999023,27.4619141 C30.5297883,28.2822307 30.8447266,29.4482346 30.8447266,30.9599609 L30.8359375,31.4960938 L24.8154297,31.4960938 C25.0673841,33.7636832 26.1777245,34.8974609 28.1464844,34.8974609 C28.8671911,34.8974609 29.7519479,34.7041035 30.8007812,34.3173828 L30.8007812,35.6884766 Z M24.8945313,30.1953125 L29.1044922,30.1953125 C29.1044922,28.419913 28.4423894,27.5322266 27.1181641,27.5322266 C25.7880793,27.5322266 25.0468758,28.419913 24.8945313,30.1953125 Z M33.8330078,35.9960938 L33.8330078,26.4511719 L35.5644531,26.4511719 L35.5644531,28.2441406 C36.2500034,26.9081964 37.2460872,26.2402344 38.5527344,26.2402344 C38.7285165,26.2402344 38.913085,26.2548827 39.1064453,26.2841797 L39.1064453,27.9013672 C38.8076157,27.8017573 38.5439465,27.7519531 38.3154297,27.7519531 C37.2197211,27.7519531 36.3027381,28.4023372 35.5644531,29.703125 L35.5644531,35.9960938 L33.8330078,35.9960938 Z M41.1982422,35.9960938 L41.1982422,26.4511719 L42.9296875,26.4511719 L42.9296875,28.2441406 C43.8437546,26.9081964 44.962884,26.2402344 46.2871094,26.2402344 C47.1132854,26.2402344 47.7724585,26.5024388 48.2646484,27.0268555 C48.7568384,27.5512722 49.0029297,28.255855 49.0029297,29.140625 L49.0029297,35.9960938 L47.2714844,35.9960938 L47.2714844,29.703125 C47.2714844,28.9941371 47.1674815,28.488771 46.9594727,28.1870117 C46.7514638,27.8852524 46.407229,27.734375 45.9267578,27.734375 C44.8662056,27.734375 43.8671922,28.428704 42.9296875,29.8173828 L42.9296875,35.9960938 L41.1982422,35.9960938 Z M57.2910156,34.7832031 C56.2539011,35.738286 55.2548876,36.2158203 54.2939453,36.2158203 C53.5029257,36.2158203 52.8466823,35.9682642 52.3251953,35.4731445 C51.8037083,34.9780249 51.5429688,34.3525428 51.5429688,33.5966797 C51.5429688,32.5537057 51.9809527,31.7524442 52.8569336,31.1928711 C53.7329145,30.633298 54.9882731,30.3535156 56.6230469,30.3535156 L57.0361328,30.3535156 L57.0361328,29.2021484 C57.0361328,28.094721 56.4677791,27.5410156 55.3310547,27.5410156 C54.4169876,27.5410156 53.4296928,27.8222628 52.3691406,28.3847656 L52.3691406,26.9521484 C53.5351621,26.4775367 54.6279246,26.2402344 55.6474609,26.2402344 C56.7138725,26.2402344 57.5004857,26.4804663 58.0073242,26.9609375 C58.5141627,27.4414087 58.7675781,28.1884715 58.7675781,29.2021484 L58.7675781,33.5263672 C58.7675781,34.5166065 59.0722626,35.0117188 59.6816406,35.0117188 C59.7578129,35.0117188 59.8691399,35.0000001 60.015625,34.9765625 L60.1386719,35.9345703 C59.7460918,36.1220713 59.3125024,36.2158203 58.8378906,36.2158203 C58.0292928,36.2158203 57.513673,35.738286 57.2910156,34.7832031 Z M57.0361328,33.8427734 L57.0361328,31.3730469 L56.4560547,31.3554688 C55.5068312,31.3554688 54.7392607,31.5356427 54.1533203,31.8959961 C53.5673799,32.2563495 53.2744141,32.7294893 53.2744141,33.3154297 C53.2744141,33.7314474 53.420897,34.0830064 53.7138672,34.3701172 C54.0068374,34.657228 54.3642557,34.8007812 54.7861328,34.8007812 C55.5068395,34.8007812 56.256832,34.4814485 57.0361328,33.8427734 Z M65.1748047,36.2158203 C64.295894,36.2158203 63.610354,35.9638697 63.1181641,35.4599609 C62.6259741,34.9560522 62.3798828,34.2558639 62.3798828,33.359375 L62.3798828,27.7519531 L61.1845703,27.7519531 L61.1845703,26.4511719 L62.3798828,26.4511719 L62.3798828,24.7197266 L64.1113281,24.5527344 L64.1113281,26.4511719 L66.6074219,26.4511719 L66.6074219,27.7519531 L64.1113281,27.7519531 L64.1113281,33.0429688 C64.1113281,34.2910219 64.6503852,34.9150391 65.7285156,34.9150391 C65.9570324,34.9150391 66.2353499,34.8769535 66.5634766,34.8007812 L66.5634766,35.9960938 C66.0302708,36.1425789 65.5673848,36.2158203 65.1748047,36.2158203 Z M69.0419922,35.9960938 L69.0419922,26.4511719 L70.7734375,26.4511719 L70.7734375,35.9960938 L69.0419922,35.9960938 Z M69.0419922,24.7197266 L69.0419922,22.9882812 L70.7734375,22.9882812 L70.7734375,24.7197266 L69.0419922,24.7197266 Z M77.9804688,36.2158203 C76.6152275,36.2158203 75.5253947,35.7631881 74.7109375,34.8579102 C73.8964803,33.9526322 73.4892578,32.7412185 73.4892578,31.2236328 C73.4892578,29.6884689 73.8979451,28.4741256 74.715332,27.5805664 C75.5327189,26.6870073 76.6415946,26.2402344 78.0419922,26.2402344 C79.4423898,26.2402344 80.5512654,26.6870073 81.3686523,27.5805664 C82.1860392,28.4741256 82.5947266,29.6826096 82.5947266,31.2060547 C82.5947266,32.7646562 82.1845744,33.9892534 81.3642578,34.8798828 C80.5439412,35.7705123 79.4160228,36.2158203 77.9804688,36.2158203 Z M78.0068359,34.9150391 C79.8408295,34.9150391 80.7578125,33.6787233 80.7578125,31.2060547 C80.7578125,28.7626831 79.8525481,27.5410156 78.0419922,27.5410156 C76.2372957,27.5410156 75.3349609,28.7685424 75.3349609,31.2236328 C75.3349609,33.6845826 76.225577,34.9150391 78.0068359,34.9150391 Z M85.3017578,35.9960938 L85.3017578,26.4511719 L87.0332031,26.4511719 L87.0332031,28.2441406 C87.9472702,26.9081964 89.0663996,26.2402344 90.390625,26.2402344 C91.216801,26.2402344 91.8759741,26.5024388 92.3681641,27.0268555 C92.860354,27.5512722 93.1064453,28.255855 93.1064453,29.140625 L93.1064453,35.9960938 L91.375,35.9960938 L91.375,29.703125 C91.375,28.9941371 91.2709971,28.488771 91.0629883,28.1870117 C90.8549794,27.8852524 90.5107446,27.734375 90.0302734,27.734375 C88.9697213,27.734375 87.9707078,28.428704 87.0332031,29.8173828 L87.0332031,35.9960938 L85.3017578,35.9960938 Z M101.394531,34.7832031 C100.357417,35.738286 99.3584032,36.2158203 98.3974609,36.2158203 C97.6064414,36.2158203 96.9501979,35.9682642 96.4287109,35.4731445 C95.907224,34.9780249 95.6464844,34.3525428 95.6464844,33.5966797 C95.6464844,32.5537057 96.0844683,31.7524442 96.9604492,31.1928711 C97.8364302,30.633298 99.0917887,30.3535156 100.726563,30.3535156 L101.139648,30.3535156 L101.139648,29.2021484 C101.139648,28.094721 100.571295,27.5410156 99.4345703,27.5410156 C98.5205032,27.5410156 97.5332084,27.8222628 96.4726563,28.3847656 L96.4726563,26.9521484 C97.6386777,26.4775367 98.7314402,26.2402344 99.7509766,26.2402344 C100.817388,26.2402344 101.604001,26.4804663 102.11084,26.9609375 C102.617678,27.4414087 102.871094,28.1884715 102.871094,29.2021484 L102.871094,33.5263672 C102.871094,34.5166065 103.175778,35.0117188 103.785156,35.0117188 C103.861329,35.0117188 103.972656,35.0000001 104.119141,34.9765625 L104.242188,35.9345703 C103.849607,36.1220713 103.416018,36.2158203 102.941406,36.2158203 C102.132808,36.2158203 101.617189,35.738286 101.394531,34.7832031 Z M101.139648,33.8427734 L101.139648,31.3730469 L100.55957,31.3554688 C99.6103468,31.3554688 98.8427764,31.5356427 98.2568359,31.8959961 C97.6708955,32.2563495 97.3779297,32.7294893 97.3779297,33.3154297 C97.3779297,33.7314474 97.5244126,34.0830064 97.8173828,34.3701172 C98.110353,34.657228 98.4677713,34.8007812 98.8896484,34.8007812 C99.6103552,34.8007812 100.360348,34.4814485 101.139648,33.8427734 Z M106.413086,35.9960938 L106.413086,22.1181641 L108.144531,22.1181641 L108.144531,35.9960938 L106.413086,35.9960938 Z" id="International"></path>
            <path d="M0.654296875,58.4960938 L0.654296875,45.4882812 L2.5,45.4882812 L2.5,58.4960938 L0.654296875,58.4960938 Z M5.90136719,58.4960938 L5.90136719,48.9511719 L7.6328125,48.9511719 L7.6328125,50.7441406 C8.54687957,49.4081964 9.666009,48.7402344 10.9902344,48.7402344 C11.8164104,48.7402344 12.4755835,49.0024388 12.9677734,49.5268555 C13.4599634,50.0512722 13.7060547,50.755855 13.7060547,51.640625 L13.7060547,58.4960938 L11.9746094,58.4960938 L11.9746094,52.203125 C11.9746094,51.4941371 11.8706065,50.988771 11.6625977,50.6870117 C11.4545888,50.3852524 11.110354,50.234375 10.6298828,50.234375 C9.56933063,50.234375 8.57031719,50.928704 7.6328125,52.3173828 L7.6328125,58.4960938 L5.90136719,58.4960938 Z M19.6035156,58.7158203 C18.812496,58.7158203 17.8515682,58.5312518 16.7207031,58.1621094 L16.7207031,56.5712891 C17.8515682,57.1337919 18.8359333,57.4150391 19.6738281,57.4150391 C20.1718775,57.4150391 20.5849593,57.2802748 20.9130859,57.0107422 C21.2412126,56.7412096 21.4052734,56.4042989 21.4052734,56 C21.4052734,55.4082002 20.9453171,54.9189472 20.0253906,54.5322266 L19.0146484,54.1015625 C17.5205003,53.4804656 16.7734375,52.5869199 16.7734375,51.4208984 C16.7734375,50.588863 17.0678681,49.9340844 17.6567383,49.456543 C18.2456084,48.9790015 19.0527292,48.7402344 20.078125,48.7402344 C20.6113308,48.7402344 21.2705039,48.8134758 22.0556641,48.9599609 L22.4160156,49.0302734 L22.4160156,50.4716797 C21.4492139,50.1845689 20.6816435,50.0410156 20.1132812,50.0410156 C18.9999944,50.0410156 18.4433594,50.4453085 18.4433594,51.2539062 C18.4433594,51.7753932 18.8652302,52.214842 19.7089844,52.5722656 L20.5439453,52.9238281 C21.4873094,53.3222676 22.1552715,53.7426736 22.5478516,54.1850586 C22.9404317,54.6274436 23.1367188,55.1796842 23.1367188,55.8417969 C23.1367188,56.6796917 22.8056674,57.3681614 22.1435547,57.9072266 C21.481442,58.4462918 20.6347708,58.7158203 19.6035156,58.7158203 Z M29.1132812,58.7158203 C28.2343706,58.7158203 27.5488306,58.4638697 27.0566406,57.9599609 C26.5644507,57.4560522 26.3183594,56.7558639 26.3183594,55.859375 L26.3183594,50.2519531 L25.1230469,50.2519531 L25.1230469,48.9511719 L26.3183594,48.9511719 L26.3183594,47.2197266 L28.0498047,47.0527344 L28.0498047,48.9511719 L30.5458984,48.9511719 L30.5458984,50.2519531 L28.0498047,50.2519531 L28.0498047,55.5429688 C28.0498047,56.7910219 28.5888618,57.4150391 29.6669922,57.4150391 C29.895509,57.4150391 30.1738265,57.3769535 30.5019531,57.3007812 L30.5019531,58.4960938 C29.9687473,58.6425789 29.5058613,58.7158203 29.1132812,58.7158203 Z M32.9804688,58.4960938 L32.9804688,48.9511719 L34.7119141,48.9511719 L34.7119141,58.4960938 L32.9804688,58.4960938 Z M32.9804688,47.2197266 L32.9804688,45.4882812 L34.7119141,45.4882812 L34.7119141,47.2197266 L32.9804688,47.2197266 Z M41.0488281,58.7158203 C40.1699175,58.7158203 39.4843775,58.4638697 38.9921875,57.9599609 C38.4999975,57.4560522 38.2539062,56.7558639 38.2539062,55.859375 L38.2539062,50.2519531 L37.0585938,50.2519531 L37.0585938,48.9511719 L38.2539062,48.9511719 L38.2539062,47.2197266 L39.9853516,47.0527344 L39.9853516,48.9511719 L42.4814453,48.9511719 L42.4814453,50.2519531 L39.9853516,50.2519531 L39.9853516,55.5429688 C39.9853516,56.7910219 40.5244087,57.4150391 41.6025391,57.4150391 C41.8310558,57.4150391 42.1093734,57.3769535 42.4375,57.3007812 L42.4375,58.4960938 C41.9042942,58.6425789 41.4414082,58.7158203 41.0488281,58.7158203 Z M50.8837891,58.4960938 L50.8837891,56.703125 C49.9638626,58.0449286 48.8476628,58.7158203 47.5351562,58.7158203 C46.7031208,58.7158203 46.0410181,58.4536159 45.5488281,57.9291992 C45.0566382,57.4047825 44.8105469,56.6972701 44.8105469,55.8066406 L44.8105469,48.9511719 L46.5419922,48.9511719 L46.5419922,55.2441406 C46.5419922,55.9589879 46.6459951,56.4672836 46.8540039,56.769043 C47.0620128,57.0708023 47.4091773,57.2216797 47.8955078,57.2216797 C48.9502006,57.2216797 49.9462844,56.5273507 50.8837891,55.1386719 L50.8837891,48.9511719 L52.6152344,48.9511719 L52.6152344,58.4960938 L50.8837891,58.4960938 Z M58.9521484,58.7158203 C58.0732378,58.7158203 57.3876978,58.4638697 56.8955078,57.9599609 C56.4033179,57.4560522 56.1572266,56.7558639 56.1572266,55.859375 L56.1572266,50.2519531 L54.9619141,50.2519531 L54.9619141,48.9511719 L56.1572266,48.9511719 L56.1572266,47.2197266 L57.8886719,47.0527344 L57.8886719,48.9511719 L60.3847656,48.9511719 L60.3847656,50.2519531 L57.8886719,50.2519531 L57.8886719,55.5429688 C57.8886719,56.7910219 58.427729,57.4150391 59.5058594,57.4150391 C59.7343761,57.4150391 60.0126937,57.3769535 60.3408203,57.3007812 L60.3408203,58.4960938 C59.8076145,58.6425789 59.3447285,58.7158203 58.9521484,58.7158203 Z M69.8154297,58.1884766 C68.6552676,58.5400408 67.6621135,58.7158203 66.8359375,58.7158203 C65.4296805,58.7158203 64.2827193,58.2485398 63.3950195,57.3139648 C62.5073198,56.3793899 62.0634766,55.1679762 62.0634766,53.6796875 C62.0634766,52.2324146 62.4545859,51.0459031 63.2368164,50.1201172 C64.0190469,49.1943313 65.0195252,48.7314453 66.2382812,48.7314453 C67.3925839,48.7314453 68.2846648,49.1415975 68.9145508,49.9619141 C69.5444367,50.7822307 69.859375,51.9482346 69.859375,53.4599609 L69.8505859,53.9960938 L63.8300781,53.9960938 C64.0820325,56.2636832 65.192373,57.3974609 67.1611328,57.3974609 C67.8818395,57.3974609 68.7665963,57.2041035 69.8154297,56.8173828 L69.8154297,58.1884766 Z M63.9091797,52.6953125 L68.1191406,52.6953125 C68.1191406,50.919913 67.4570379,50.0322266 66.1328125,50.0322266 C64.8027277,50.0322266 64.0615242,50.919913 63.9091797,52.6953125 Z M80.6083984,50.2519531 L80.6083984,58.4960938 L78.8681641,58.4960938 L78.8681641,50.2519531 L77.5146484,50.2519531 L77.5146484,48.9511719 L78.8681641,48.9511719 L78.8681641,47.8085938 C78.8681641,45.5351449 79.9052631,44.3984375 81.9794922,44.3984375 C82.5595732,44.3984375 83.2187463,44.4951162 83.9570313,44.6884766 L83.9570313,46.0595703 C83.1777305,45.8193347 82.5537133,45.6992188 82.0849609,45.6992188 C81.5165987,45.6992188 81.128419,45.8354479 80.9204102,46.1079102 C80.7124013,46.3803725 80.6083984,46.8857385 80.6083984,47.6240234 L80.6083984,48.9511719 L82.9902344,48.9511719 L82.9902344,50.2519531 L80.6083984,50.2519531 Z M88.8964844,58.7158203 C87.5312432,58.7158203 86.4414103,58.2631881 85.6269531,57.3579102 C84.8124959,56.4526322 84.4052734,55.2412185 84.4052734,53.7236328 C84.4052734,52.1884689 84.8139608,50.9741256 85.6313477,50.0805664 C86.4487346,49.1870073 87.5576102,48.7402344 88.9580078,48.7402344 C90.3584054,48.7402344 91.4672811,49.1870073 92.284668,50.0805664 C93.1020549,50.9741256 93.5107422,52.1826096 93.5107422,53.7060547 C93.5107422,55.2646562 93.10059,56.4892534 92.2802734,57.3798828 C91.4599568,58.2705123 90.3320384,58.7158203 88.8964844,58.7158203 Z M88.9228516,57.4150391 C90.7568451,57.4150391 91.6738281,56.1787233 91.6738281,53.7060547 C91.6738281,51.2626831 90.7685637,50.0410156 88.9580078,50.0410156 C87.1533113,50.0410156 86.2509766,51.2685424 86.2509766,53.7236328 C86.2509766,56.1845826 87.1415927,57.4150391 88.9228516,57.4150391 Z M96.2177734,58.4960938 L96.2177734,48.9511719 L97.9492188,48.9511719 L97.9492188,50.7441406 C98.6347691,49.4081964 99.6308528,48.7402344 100.9375,48.7402344 C101.113282,48.7402344 101.297851,48.7548827 101.491211,48.7841797 L101.491211,50.4013672 C101.192381,50.3017573 100.928712,50.2519531 100.700195,50.2519531 C99.6044867,50.2519531 98.6875037,50.9023372 97.9492188,52.203125 L97.9492188,58.4960938 L96.2177734,58.4960938 Z" id="Institute-for"></path>
            <path d="M0.663085938,13.4960938 L0.663085938,0.48828125 L4.98730469,0.48828125 C6.27637363,0.48828125 7.31786712,0.631834502 8.11181641,0.918945312 C8.90576569,1.20605612 9.59277054,1.69237938 10.1728516,2.37792969 C11.092778,3.46777889 11.5527344,4.90331141 11.5527344,6.68457031 C11.5527344,8.8466905 10.981451,10.522455 9.83886719,11.7119141 C8.69628335,12.9013731 7.087901,13.4960938 5.01367188,13.4960938 L0.663085938,13.4960938 Z M2.50878906,12.1162109 L4.87304687,12.1162109 C6.56055531,12.1162109 7.75585586,11.6621139 8.45898437,10.7539062 C9.21484753,9.78710454 9.59277344,8.48926596 9.59277344,6.86035156 C9.59277344,5.33104704 9.22070685,4.12988718 8.4765625,3.25683594 C8.02538837,2.72363015 7.48633126,2.3588877 6.859375,2.16259766 C6.23241874,1.96630761 5.2890688,1.86816406 4.02929687,1.86816406 L2.50878906,1.86816406 L2.50878906,12.1162109 Z M21.1943359,13.1884766 C20.0341739,13.5400408 19.0410198,13.7158203 18.2148437,13.7158203 C16.8085867,13.7158203 15.6616255,13.2485398 14.7739258,12.3139648 C13.886226,11.3793899 13.4423828,10.1679762 13.4423828,8.6796875 C13.4423828,7.23241464 13.8334922,6.04590307 14.6157227,5.12011719 C15.3979531,4.19433131 16.3984314,3.73144531 17.6171875,3.73144531 C18.7714901,3.73144531 19.6635711,4.14159746 20.293457,4.96191406 C20.923343,5.78223066 21.2382812,6.94823463 21.2382812,8.45996094 L21.2294922,8.99609375 L15.2089844,8.99609375 C15.4609388,11.2636832 16.5712792,12.3974609 18.5400391,12.3974609 C19.2607458,12.3974609 20.1455026,12.2041035 21.1943359,11.8173828 L21.1943359,13.1884766 Z M15.2880859,7.6953125 L19.4980469,7.6953125 C19.4980469,5.919913 18.8359441,5.03222656 17.5117188,5.03222656 C16.181634,5.03222656 15.4404304,5.919913 15.2880859,7.6953125 Z M26.7578125,13.7158203 C25.9667929,13.7158203 25.005865,13.5312518 23.875,13.1621094 L23.875,11.5712891 C25.005865,12.1337919 25.9902302,12.4150391 26.828125,12.4150391 C27.3261744,12.4150391 27.7392562,12.2802748 28.0673828,12.0107422 C28.3955095,11.7412096 28.5595703,11.4042989 28.5595703,11 C28.5595703,10.4082002 28.099614,9.91894725 27.1796875,9.53222656 L26.1689453,9.1015625 C24.6747972,8.48046564 23.9277344,7.58691989 23.9277344,6.42089844 C23.9277344,5.58886303 24.222165,4.93408442 24.8110352,4.45654297 C25.3999053,3.97900152 26.2070261,3.74023438 27.2324219,3.74023438 C27.7656277,3.74023438 28.4248008,3.81347583 29.2099609,3.95996094 L29.5703125,4.03027344 L29.5703125,5.47167969 C28.6035108,5.18456888 27.8359403,5.04101562 27.2675781,5.04101562 C26.1542913,5.04101562 25.5976562,5.44530846 25.5976562,6.25390625 C25.5976562,6.77539323 26.019527,7.21484196 26.8632812,7.57226562 L27.6982422,7.92382812 C28.6416063,8.32226762 29.3095683,8.74267357 29.7021484,9.18505859 C30.0947285,9.62744362 30.2910156,10.1796842 30.2910156,10.8417969 C30.2910156,11.6796917 29.9599642,12.3681614 29.2978516,12.9072266 C28.6357389,13.4462918 27.7890677,13.7158203 26.7578125,13.7158203 Z M33.4023437,13.4960938 L33.4023437,3.95117188 L35.1337891,3.95117188 L35.1337891,13.4960938 L33.4023437,13.4960938 Z M33.4023437,2.21972656 L33.4023437,0.48828125 L35.1337891,0.48828125 L35.1337891,2.21972656 L33.4023437,2.21972656 Z M38.640625,16.6689453 L38.8427734,15.1660156 C39.8447316,15.6406274 40.8320264,15.8779297 41.8046875,15.8779297 C43.7558691,15.8779297 44.7314453,14.8437603 44.7314453,12.7753906 L44.7314453,11.2724609 C44.0927702,12.6084051 43.0439526,13.2763672 41.5849609,13.2763672 C40.4423771,13.2763672 39.5341831,12.8603557 38.8603516,12.0283203 C38.1865201,11.1962849 37.8496094,10.0742258 37.8496094,8.66210938 C37.8496094,7.20897711 38.2333946,6.0253952 39.0009766,5.11132812 C39.7685585,4.19726105 40.7617127,3.74023438 41.9804687,3.74023438 C43.0468803,3.74023438 43.9638633,4.17382379 44.7314453,5.04101562 L44.7314453,3.95117188 L46.4716797,3.95117188 L46.4716797,10.8945312 C46.4716797,12.3886793 46.3940437,13.4946253 46.2387695,14.2124023 C46.0834953,14.9301794 45.7919943,15.5175758 45.3642578,15.9746094 C44.6083947,16.7773478 43.4336017,17.1787109 41.8398437,17.1787109 C40.7265569,17.1787109 39.6601613,17.0087908 38.640625,16.6689453 Z M44.7314453,10.1914062 L44.7314453,6.22753906 C43.9697228,5.43651948 43.1406295,5.04101563 42.2441406,5.04101563 C41.4472616,5.04101563 40.8232444,5.36034837 40.3720703,5.99902344 C39.9208962,6.63769851 39.6953125,7.51366631 39.6953125,8.62695312 C39.6953125,10.7187605 40.4306567,11.7646484 41.9013672,11.7646484 C42.9033253,11.7646484 43.8466753,11.2402396 44.7314453,10.1914062 Z M49.8291016,13.4960938 L49.8291016,3.95117188 L51.5605469,3.95117188 L51.5605469,5.74414062 C52.4746139,4.40819645 53.5937434,3.74023438 54.9179687,3.74023438 C55.7441448,3.74023438 56.4033179,4.00243878 56.8955078,4.52685547 C57.3876978,5.05127215 57.6337891,5.75585495 57.6337891,6.640625 L57.6337891,13.4960938 L55.9023437,13.4960938 L55.9023437,7.203125 C55.9023437,6.49413708 55.7983409,5.98877104 55.590332,5.68701172 C55.3823232,5.3852524 55.0380883,5.234375 54.5576172,5.234375 C53.497065,5.234375 52.4980516,5.92870399 51.5605469,7.31738281 L51.5605469,13.4960938 L49.8291016,13.4960938 Z" id="Design"></path>
        </g>
    </g>
</svg>