<svg width="295px" height="246px" viewBox="0 0 295 246" version="1.1" xmlns="http://www.w3.org/2000/svg" xmlns:xlink="http://www.w3.org/1999/xlink">
    <!-- Generator: Sketch 49 (51002) - http://www.bohemiancoding.com/sketch -->
    <desc>Created with Sketch.</desc>
    <defs></defs>
    <g id="Page-1" stroke="none" stroke-width="1" fill="none" fill-rule="evenodd">
        <g id="ocad" transform="translate(22.000000, 24.000000)" fill="#1C1B19" fill-rule="nonzero">
            <path d="M16.74,80.234 C17.856,80.234 18.873,80.023 19.797,79.609 C20.723,79.187 21.504,78.627 22.148,77.914 C22.785,77.207 23.291,76.377 23.654,75.426 C24.02,74.478 24.203,73.48 24.203,72.418 L24.203,72.336 C24.203,71.277 24.02,70.273 23.654,69.324 C23.291,68.375 22.773,67.543 22.105,66.816 C21.434,66.094 20.637,65.516 19.711,65.082 C18.793,64.652 17.773,64.435 16.656,64.435 C15.539,64.435 14.525,64.644 13.613,65.062 C12.709,65.48 11.926,66.043 11.268,66.758 C10.613,67.469 10.107,68.293 9.762,69.242 C9.414,70.189 9.234,71.191 9.234,72.252 L9.234,72.336 C9.234,73.394 9.422,74.398 9.781,75.348 C10.145,76.293 10.656,77.129 11.312,77.851 C11.969,78.578 12.758,79.154 13.68,79.588 C14.605,80.021 15.625,80.234 16.74,80.234 Z M16.68,87.551 C14.418,87.551 12.332,87.156 10.406,86.359 C8.484,85.566 6.826,84.484 5.432,83.117 C4.037,81.756 2.945,80.15 2.152,78.309 C1.356,76.473 0.957,74.512 0.957,72.418 L0.957,72.336 C0.957,70.246 1.356,68.277 2.152,66.422 C2.945,64.574 4.055,62.949 5.477,61.57 C6.895,60.191 8.566,59.101 10.492,58.312 C12.416,57.519 14.504,57.125 16.758,57.125 C19.016,57.125 21.106,57.519 23.031,58.312 C24.953,59.101 26.609,60.191 28.002,61.553 C29.397,62.918 30.488,64.519 31.283,66.355 C32.078,68.199 32.477,70.166 32.477,72.252 L32.477,72.336 C32.477,74.43 32.078,76.398 31.283,78.246 C30.488,80.105 29.383,81.719 27.961,83.098 C26.537,84.475 24.867,85.566 22.941,86.359 C21.027,87.156 18.932,87.551 16.68,87.551 Z" id="Fill-4"></path>
            <path d="M62.856,87.551 C60.766,87.551 58.803,87.17 56.963,86.418 C55.127,85.668 53.529,84.617 52.176,83.266 C50.826,81.914 49.754,80.312 48.959,78.453 C48.162,76.601 47.764,74.594 47.764,72.418 L47.764,72.336 C47.764,70.215 48.16,68.232 48.936,66.379 C49.719,64.529 50.793,62.912 52.156,61.531 C53.522,60.148 55.146,59.07 57.025,58.293 C58.908,57.512 60.963,57.125 63.19,57.125 C64.697,57.125 66.063,57.266 67.285,57.562 C68.51,57.851 69.637,58.269 70.65,58.812 C71.674,59.361 72.588,60.008 73.41,60.754 C74.229,61.508 74.967,62.336 75.606,63.223 L69.5,67.951 C68.668,66.891 67.744,66.055 66.746,65.437 C65.74,64.832 64.527,64.519 63.109,64.519 C62.082,64.519 61.135,64.719 60.289,65.125 C59.436,65.527 58.703,66.078 58.092,66.777 C57.482,67.473 57.002,68.293 56.646,69.242 C56.305,70.189 56.125,71.191 56.125,72.252 L56.125,72.336 C56.125,73.422 56.305,74.445 56.646,75.406 C57.002,76.367 57.482,77.197 58.092,77.891 C58.703,78.59 59.436,79.142 60.289,79.547 C61.135,79.951 62.082,80.15 63.109,80.15 C63.857,80.15 64.551,80.07 65.176,79.902 C65.809,79.73 66.373,79.488 66.887,79.168 C67.408,78.848 67.895,78.473 68.354,78.039 C68.811,77.609 69.268,77.129 69.713,76.598 L75.812,80.947 C75.119,81.894 74.354,82.773 73.533,83.582 C72.711,84.383 71.779,85.086 70.736,85.668 C69.688,86.254 68.523,86.715 67.223,87.047 C65.928,87.379 64.475,87.551 62.856,87.551" id="Fill-5"></path>
            <path d="M60.674,125.584 C63.105,125.584 65.066,124.939 66.545,123.656 C68.031,122.385 68.771,120.551 68.771,118.187 L68.771,118.101 C68.771,115.758 68.031,113.941 66.545,112.648 C65.066,111.351 63.105,110.701 60.674,110.701 L57.359,110.701 L57.359,125.584 L60.674,125.584 Z M49.254,103.512 L60.535,103.512 C63.156,103.512 65.49,103.869 67.539,104.578 C69.59,105.289 71.314,106.285 72.721,107.566 C74.125,108.844 75.199,110.373 75.941,112.142 C76.672,113.912 77.045,115.857 77.045,117.976 L77.045,118.06 C77.045,120.18 76.67,122.127 75.92,123.932 C75.164,125.73 74.08,127.281 72.656,128.586 C71.238,129.902 69.486,130.922 67.412,131.666 C65.338,132.404 62.992,132.773 60.369,132.773 L49.254,132.773 L49.254,103.512 Z" id="Fill-6"></path>
            <path d="M128.84,199.969 C126.863,199.969 125.086,199.723 123.508,199.219 C121.93,198.719 120.582,197.947 119.479,196.91 C118.371,195.871 117.523,194.551 116.934,192.961 C116.34,191.371 116.043,189.492 116.043,187.332 L116.043,171.814 L123.861,171.814 L123.861,187.176 C123.861,189.182 124.32,190.656 125.234,191.617 C126.146,192.582 127.379,193.06 128.922,193.06 C130.459,193.06 131.684,192.598 132.602,191.678 C133.516,190.758 133.975,189.322 133.975,187.377 L133.975,171.814 L141.791,171.814 L141.791,187.141 C141.791,189.375 141.48,191.303 140.863,192.92 C140.242,194.539 139.377,195.871 138.258,196.91 C137.139,197.947 135.785,198.719 134.188,199.219 C132.598,199.723 130.813,199.969 128.84,199.969" id="Fill-7"></path>
            <path d="M122.622,11.164 C123.158,11.164 123.648,11.063 124.09,10.862 C124.533,10.662 124.909,10.392 125.217,10.05 C125.525,9.709 125.767,9.311 125.941,8.856 C126.115,8.402 126.203,7.921 126.203,7.412 L126.203,7.372 C126.203,6.864 126.115,6.382 125.941,5.928 C125.767,5.473 125.519,5.071 125.197,4.724 C124.875,4.376 124.493,4.099 124.05,3.892 C123.607,3.684 123.118,3.58 122.581,3.58 C122.045,3.58 121.559,3.68 121.123,3.881 C120.687,4.082 120.311,4.352 119.996,4.693 C119.681,5.035 119.439,5.432 119.272,5.888 C119.104,6.342 119.02,6.823 119.02,7.332 L119.02,7.372 C119.02,7.881 119.108,8.362 119.282,8.816 C119.456,9.271 119.701,9.673 120.017,10.02 C120.331,10.368 120.71,10.645 121.153,10.852 C121.596,11.06 122.085,11.164 122.622,11.164 Z M122.592,14.675 C121.508,14.675 120.505,14.483 119.582,14.102 C118.66,13.721 117.864,13.203 117.195,12.548 C116.526,11.892 116.001,11.123 115.62,10.241 C115.239,9.358 115.048,8.415 115.048,7.412 L115.048,7.372 C115.048,6.369 115.239,5.423 115.62,4.533 C116.001,3.643 116.533,2.868 117.215,2.206 C117.897,1.544 118.7,1.022 119.623,0.642 C120.545,0.26 121.548,0.069 122.632,0.069 C123.715,0.069 124.718,0.26 125.641,0.642 C126.564,1.022 127.359,1.541 128.028,2.196 C128.697,2.851 129.222,3.62 129.604,4.503 C129.984,5.386 130.175,6.329 130.175,7.332 L130.175,7.372 C130.175,8.375 129.984,9.321 129.604,10.211 C129.222,11.1 128.69,11.876 128.008,12.538 C127.326,13.2 126.524,13.721 125.601,14.102 C124.678,14.483 123.675,14.675 122.592,14.675 Z" id="Fill-8"></path>
            <path d="M139.773,14.675 C138.77,14.675 137.827,14.494 136.944,14.133 C136.061,13.771 135.295,13.267 134.647,12.618 C133.998,11.97 133.483,11.2 133.102,10.31 C132.721,9.422 132.53,8.455 132.53,7.412 L132.53,7.372 C132.53,6.355 132.718,5.402 133.092,4.513 C133.466,3.624 133.981,2.848 134.637,2.185 C135.292,1.523 136.071,1.006 136.974,0.631 C137.877,0.257 138.863,0.069 139.933,0.069 C140.655,0.069 141.311,0.139 141.899,0.28 C142.488,0.421 143.026,0.621 143.514,0.882 C144.002,1.142 144.444,1.454 144.838,1.814 C145.232,2.176 145.583,2.57 145.892,2.998 L142.962,5.266 C142.561,4.757 142.12,4.356 141.639,4.061 C141.157,3.767 140.575,3.62 139.893,3.62 C139.398,3.62 138.947,3.718 138.539,3.911 C138.131,4.105 137.78,4.369 137.486,4.704 C137.191,5.038 136.96,5.432 136.794,5.888 C136.626,6.342 136.543,6.823 136.543,7.332 L136.543,7.372 C136.543,7.893 136.626,8.385 136.794,8.846 C136.96,9.307 137.191,9.706 137.486,10.04 C137.78,10.375 138.131,10.639 138.539,10.833 C138.947,11.026 139.398,11.123 139.893,11.123 C140.254,11.123 140.585,11.083 140.886,11.003 C141.187,10.923 141.461,10.805 141.708,10.652 C141.956,10.498 142.19,10.318 142.411,10.11 C142.631,9.903 142.849,9.673 143.063,9.418 L145.992,11.505 C145.657,11.96 145.293,12.381 144.898,12.768 C144.504,13.156 144.056,13.491 143.554,13.771 C143.053,14.053 142.491,14.273 141.869,14.434 C141.247,14.594 140.548,14.675 139.773,14.675" id="Fill-9"></path>
            <path d="M156.642,8.877 L155.077,4.884 L153.492,8.877 L156.642,8.877 Z M153.231,0.25 L156.983,0.25 L162.961,14.393 L158.789,14.393 L157.766,11.886 L152.349,11.886 L151.346,14.393 L147.253,14.393 L153.231,0.25 Z" id="Fill-10"></path>
            <path d="M170.651,10.943 C171.819,10.943 172.759,10.636 173.47,10.02 C174.182,9.405 174.538,8.529 174.538,7.392 L174.538,7.351 C174.538,6.228 174.182,5.355 173.47,4.733 C172.759,4.112 171.819,3.801 170.651,3.801 L169.061,3.801 L169.061,10.943 L170.651,10.943 Z M165.169,0.35 L170.585,0.35 C171.842,0.35 172.962,0.52 173.946,0.862 C174.929,1.203 175.758,1.682 176.433,2.296 C177.108,2.912 177.623,3.643 177.978,4.493 C178.332,5.343 178.51,6.275 178.51,7.292 L178.51,7.332 C178.51,8.349 178.329,9.288 177.968,10.15 C177.607,11.013 177.085,11.759 176.403,12.388 C175.721,13.017 174.882,13.508 173.885,13.862 C172.889,14.217 171.762,14.393 170.505,14.393 L165.169,14.393 L165.169,0.35 Z" id="Fill-11"></path>
            <path d="M121.85,36.828 C120.846,36.828 119.943,36.701 119.141,36.447 C118.338,36.193 117.657,35.802 117.095,35.273 C116.533,34.745 116.102,34.076 115.801,33.267 C115.5,32.458 115.35,31.505 115.35,30.408 L115.35,22.524 L119.322,22.524 L119.322,30.328 C119.322,31.345 119.554,32.096 120.018,32.585 C120.483,33.073 121.106,33.317 121.89,33.317 C122.672,33.317 123.296,33.084 123.761,32.615 C124.225,32.147 124.457,31.418 124.457,30.429 L124.457,22.524 L128.43,22.524 L128.43,30.309 C128.43,31.445 128.272,32.425 127.958,33.247 C127.644,34.069 127.203,34.745 126.634,35.273 C126.065,35.802 125.377,36.193 124.568,36.447 C123.758,36.701 122.852,36.828 121.85,36.828" id="Fill-12"></path>
            <polyline id="Fill-13" points="131.952 22.524 135.591 22.524 141.381 29.947 141.381 22.524 145.213 22.524 145.213 36.567 141.795 36.567 135.784 28.863 135.784 36.567 131.952 36.567 131.952 22.524"></polyline>
            <polygon id="Fill-14" points="148.923 36.567 152.835 36.567 152.835 22.524 148.923 22.524"></polygon>
            <polyline id="Fill-15" points="155.072 22.524 159.425 22.524 162.615 31.411 165.805 22.524 170.078 22.524 164.38 36.668 160.769 36.668 155.072 22.524"></polyline>
            <polyline id="Fill-16" points="172.274 22.524 183.549 22.524 183.549 25.834 176.106 25.834 176.106 27.961 182.847 27.961 182.847 31.03 176.106 31.03 176.106 33.257 183.649 33.257 183.649 36.567 172.274 36.567 172.274 22.524"></polyline>
            <path d="M193.391,29.264 C194.06,29.264 194.575,29.114 194.936,28.813 C195.297,28.513 195.477,28.108 195.477,27.6 L195.477,27.559 C195.477,26.998 195.29,26.58 194.916,26.306 C194.541,26.032 194.026,25.894 193.371,25.894 L190.823,25.894 L190.823,29.264 L193.391,29.264 Z M186.931,22.524 L193.572,22.524 C194.655,22.524 195.571,22.658 196.32,22.926 C197.069,23.193 197.678,23.567 198.146,24.049 C198.975,24.851 199.39,25.941 199.39,27.319 L199.39,27.359 C199.39,28.442 199.129,29.339 198.607,30.047 C198.085,30.757 197.383,31.298 196.501,31.672 L199.851,36.567 L195.357,36.567 L192.529,32.314 L190.823,32.314 L190.823,36.567 L186.931,36.567 L186.931,22.524 Z" id="Fill-17"></path>
            <path d="M207.912,36.809 C206.654,36.809 205.461,36.613 204.331,36.223 C203.2,35.833 202.201,35.247 201.331,34.467 L203.498,31.873 C204.902,32.996 206.42,33.559 208.052,33.559 C208.574,33.559 208.972,33.475 209.246,33.307 C209.52,33.141 209.657,32.904 209.657,32.596 L209.657,32.557 C209.657,32.41 209.623,32.28 209.557,32.166 C209.49,32.053 209.366,31.942 209.186,31.836 C209.005,31.729 208.764,31.626 208.463,31.525 C208.163,31.426 207.771,31.322 207.29,31.215 C206.54,31.042 205.845,30.851 205.203,30.644 C204.561,30.437 204.003,30.171 203.528,29.843 C203.053,29.517 202.679,29.109 202.405,28.622 C202.13,28.135 201.994,27.53 201.994,26.809 L201.994,26.769 C201.994,26.115 202.117,25.514 202.365,24.967 C202.612,24.42 202.973,23.945 203.448,23.545 C203.922,23.144 204.494,22.834 205.163,22.614 C205.832,22.393 206.587,22.283 207.43,22.283 C208.634,22.283 209.707,22.441 210.65,22.758 C211.593,23.074 212.446,23.542 213.208,24.161 L211.262,26.918 C210.62,26.463 209.961,26.118 209.286,25.885 C208.61,25.65 207.958,25.533 207.33,25.533 C206.862,25.533 206.511,25.62 206.277,25.794 C206.042,25.968 205.926,26.18 205.926,26.434 L205.926,26.475 C205.926,26.635 205.962,26.775 206.036,26.895 C206.109,27.016 206.236,27.126 206.417,27.225 C206.598,27.326 206.845,27.426 207.159,27.526 C207.474,27.626 207.872,27.729 208.353,27.837 C209.156,28.01 209.881,28.214 210.53,28.447 C211.178,28.681 211.73,28.965 212.185,29.299 C212.639,29.632 212.987,30.036 213.228,30.51 C213.469,30.984 213.589,31.548 213.589,32.202 L213.589,32.242 C213.589,32.963 213.452,33.604 213.178,34.165 C212.904,34.725 212.519,35.203 212.024,35.596 C211.529,35.99 210.934,36.291 210.239,36.498 C209.543,36.705 208.768,36.809 207.912,36.809" id="Fill-18"></path>
            <polygon id="Fill-19" points="216.621 36.567 220.533 36.567 220.533 22.524 216.621 22.524"></polygon>
            <polyline id="Fill-20" points="227.15 25.934 222.938 25.934 222.938 22.524 235.255 22.524 235.255 25.934 231.042 25.934 231.042 36.567 227.15 36.567 227.15 25.934"></polyline>
            <polyline id="Fill-21" points="242.323 31.311 236.987 22.524 241.42 22.524 244.309 27.639 247.218 22.524 251.572 22.524 246.235 31.251 246.235 36.567 242.323 36.567 242.323 31.311"></polyline>
            <path d="M13.123,121.904 L16.652,113.059 L20.154,121.904 L13.123,121.904 Z M20.625,103.41 L12.813,103.41 L0.352,132.875 L8.883,132.875 L10.758,128.185 L22.473,128.185 L24.387,132.875 L33.082,132.875 L20.625,103.41 Z" id="Fill-22"></path>
        </g>
        <path d="M187.648,246 L114.188,246 L114.188,180.777 L0,180.777 L0,58.445 L114.188,58.445 L114.188,0.871 L294.016,0.871 L294.016,180.777 L187.648,180.777 L187.648,246 Z M122.236,172.535 L285.773,172.535 L285.773,9.109 L122.236,9.109 L122.236,172.535 Z M122.236,237.758 L179.6,237.758 L179.6,180.777 L122.236,180.777 L122.236,237.758 Z M8.049,172.535 L114.188,172.535 L114.188,66.685 L8.049,66.685 L8.049,172.535 Z" id="Fill-1" fill="#1C1B19" fill-rule="nonzero"></path>
    </g>
</svg>