<svg width="168px" height="72px" viewBox="0 0 168 72" version="1.1" xmlns="http://www.w3.org/2000/svg" xmlns:xlink="http://www.w3.org/1999/xlink">
    <!-- Generator: Sketch 48.2 (47327) - http://www.bohemiancoding.com/sketch -->
    <desc>Created with Sketch.</desc>
    <defs>
        <polygon id="path-1" points="0 0.655 167.673 0.655 167.673 71.94 0 71.94"></polygon>
    </defs>
    <g id="Page-1" stroke="none" stroke-width="1" fill="none" fill-rule="evenodd">
        <g id="Group">
            <mask id="mask-2" fill="white">
                <use xlink:href="#path-1"></use>
            </mask>
            <g id="Clip-2"></g>
            <path d="M155.798,70.955 L167.578,70.955 L167.578,20.51 L155.798,20.51 L155.798,70.955 Z M155.703,11.77 L167.673,11.77 L167.673,1.605 L155.703,1.605 L155.703,11.77 Z M123.024,62.12 C115.519,62.12 110.959,56.8 110.959,46.16 C110.959,34.95 114.569,29.25 123.404,29.25 C127.584,29.25 132.144,31.435 135.279,35.52 L135.279,55.755 C132.524,59.08 127.869,62.12 123.024,62.12 Z M119.224,71.715 C126.729,71.715 131.574,68.39 135.279,64.115 C135.279,66.68 135.754,69.53 136.419,70.955 L148.484,70.955 C147.344,68.39 146.964,64.685 146.964,58.605 L146.964,0.655 L135.279,0.655 L135.279,25.925 C131.574,21.745 126.254,19.56 120.839,19.56 C107.919,19.56 99.274,28.395 99.274,45.875 C99.274,63.355 107.729,71.715 119.224,71.715 Z M72.295,62.405 C68.115,62.405 63.555,60.22 60.42,56.135 L60.42,35.9 C63.175,32.575 67.83,29.535 72.675,29.535 C80.18,29.535 84.74,35.14 84.74,45.78 C84.74,56.99 81.13,62.405 72.295,62.405 Z M74.86,71.715 C87.78,71.715 96.425,63.165 96.425,45.685 C96.425,28.205 87.97,19.56 76.475,19.56 C68.97,19.56 63.745,23.17 60.42,27.16 L60.42,0.655 L48.735,0.655 L48.735,70.955 L60.42,70.955 L60.42,65.35 C64.125,69.53 69.445,71.715 74.86,71.715 Z M22.23,72 C33.725,72 43.32,67.06 43.32,56.42 C43.32,44.64 32.775,42.455 24.13,40.555 C18.145,39.225 13.11,37.99 13.11,33.905 C13.11,31.055 15.2,28.775 21.66,28.775 C26.22,28.775 32.205,31.245 35.91,34.285 L41.515,26.685 C36.29,22.315 30.4,19.56 20.805,19.56 C9.69,19.56 2.09,25.545 2.09,34.38 C2.09,46.065 12.445,48.345 21.09,50.34 C27.17,51.765 32.3,53 32.3,57.085 C32.3,61.265 28.5,62.88 22.23,62.88 C15.77,62.88 10.165,60.125 6.365,56.895 L0,64.02 C4.56,68.675 12.92,72 22.23,72 Z" id="Fill-1" fill="#000000" mask="url(#mask-2)"></path>
        </g>
    </g>
</svg>