<?xml version="1.0" encoding="UTF-8"?>
<svg id="Layer_1" data-name="Layer 1" xmlns="http://www.w3.org/2000/svg" viewBox="0 0 200 200">
  <g>
    <path d="M104.37,2.94h10.83c0,.75.08,1.42.08,2.17v95.71c0,2.42-.17,4.91-.5,7.33-.67,4.33-2.75,6.75-6.83,7-4.25.33-8.66.42-12.91,0-4.33-.42-6.5-3-7-7.58-.25-2-.42-4.08-.42-6.16V2.94h11.66v98.62c0,1.83,1,2.5,2.58,2.5s2.33-.83,2.33-2.5V2.94h.17Z"/>
    <path d="M52.39,101.81c0,2.08-.17,4.08-.42,6.08-.5,4.33-2.75,7-6.83,7.25-4.25.33-8.66.42-12.91,0-4.33-.42-6.41-3-7-7.66-.17-1.5-.33-3-.33-4.5V14.43c0-1.5.17-3,.33-4.5.58-4.91,3.08-7.5,8.16-7.83,3.91-.25,7.83,0,11.74.25,3.83.33,6,2.75,6.66,6.75.25,1.5.42,3,.42,4.5v32.98h-10.75v-29.99c0-1.33,0-2.67-1.67-3.08-2.08-.5-3.25.33-3.42,2.58v85.29c0,1.75.92,2.58,2.58,2.58s2.42-.92,2.42-2.67v-27.99c0-.83,0,.67,0-.25h10.75"/>
    <path d="M85.21,114.8h-11.66c-.33-5-.67-9.91-.92-14.99h-6.58c-.25,4.91-.5,9.83-.83,14.91h-10.41c2.42-37.23,4.83-74.47,7.25-111.78h15.91c2.42,37.32,4.83,74.47,7.25,111.86ZM69.39,19.93c-.83,20.24-1.75,47.73-2.5,67.97h5.08c-.92-20.32-1.67-47.73-2.58-67.97Z"/>
    <path d="M13.83,103.31h8.58v11.41H2.33V2.94h11.49v100.37Z"/>
  </g>
  <rect x="2" y="123.8" width="113.36" height="11.58"/>
  <g>
    <path d="M129.69,16.18l-3.83-11.24v8.91c.08,0,.08,2.33.08,2.33h-.75V3.1h.83l3.75,11.24V5.44c-.08,0-.08-2.33-.08-2.33h.75v13.08h-.75Z"/>
    <path d="M134.77,16.26h-.67c-1.5,0-2.33-.75-2.33-2.17V5.1c0-1.42.75-2.08,2.33-2.08h.67c1.5,0,2.33.75,2.33,2.08v9c0,1.42-.75,2.17-2.33,2.17ZM134.77,3.69h-.67c-1,0-1.58.5-1.58,1.42v9.08c0,.92.5,1.42,1.58,1.42h.67c1,0,1.58-.5,1.58-1.42V5.1c0-.92-.5-1.42-1.58-1.42Z"/>
    <path d="M143.35,11.77v4.41h-.75v-4.33c0-1.08-.58-1.67-1.75-1.67h-1.58v6h-.75V3.1h2.58c1.5,0,2.25.75,2.25,2.17v2.58c0,1.25-.58,1.83-1.42,2.08.83.08,1.42.67,1.42,1.83h0ZM141.02,3.77h-1.75v5.75h1.58c1.17,0,1.75-.58,1.75-1.67v-2.67c0-.92-.58-1.42-1.58-1.42Z"/>
    <path d="M145.52,4.77v8.66c.08,0,.08,2.75.08,2.75h-.75V3.1h1l2.83,11.74,2.83-11.74h1v13.08h-.75V4.85c.08,0-2.83,11.33-2.83,11.33h-.67s-2.75-11.41-2.75-11.41Z"/>
    <path d="M159.18,16.18h-.75l-.5-2.75h-3.33l-.5,2.75h-.75l2.5-13.16h.83l2.5,13.16ZM154.76,12.68h3l-1.5-8.33-1.5,8.33Z"/>
    <path d="M164.67,16.18l-3.83-11.24v8.91c.08,0,.08,2.33.08,2.33h-.75V3.1h.83l3.75,11.24V5.44c-.08,0-.08-2.33-.08-2.33h.75v13.08h-.75Z"/>
    <path d="M173.67,11.6v2.5c0,1.42-.75,2.17-2.33,2.17h-2.67V3.1h2.67c1.5,0,2.25.75,2.25,2.17v2.25c0,1.25-.5,1.83-1.42,2.08.92.17,1.5.75,1.5,2ZM171.34,3.77h-1.83v5.41h1.58c1.17,0,1.83-.5,1.83-1.58v-2.42c0-.92-.58-1.42-1.58-1.42ZM169.51,15.43h1.92c1,0,1.5-.5,1.5-1.42v-2.58c0-1.08-.67-1.67-1.83-1.67h-1.58v5.66h0Z"/>
    <path d="M175.42,16.18h-.83v-1.5h.83v1.5Z"/>
    <path d="M126.03,22.76v12.41h3.08v.67h-3.83v-13.08h.75Z"/>
    <path d="M133.86,22.76v.67h-3.17v5.41h3.08v.67h-3.08v5.66h3.25v.67h-4v-13.08h3.91Z"/>
    <path d="M136.94,35.92l-2.42-13.16h.75l2,11.74,2.08-11.74h.75l-2.42,13.16s-.75,0-.75,0Z"/>
    <path d="M145.1,22.76v.67h-3.17v5.41h3.08v.67h-3.08v5.66h3.25v.67h-4v-13.08h3.91Z"/>
    <path d="M150.85,35.84l-3.83-11.24v8.91c.08,0,.08,2.33.08,2.33h-.75v-13.08h.83l3.75,11.24v-8.91c-.08,0-.08-2.33-.08-2.33h.75v13.08h-.75Z"/>
    <path d="M154.6,35.84v-12.41h-2.25v-.67h5.33v.67h-2.33v12.41h-.75Z"/>
    <path d="M162.68,28.84v-6.08h.75v13.08h-.75v-6.33h-3.58v6.33h-.75v-13.08h.75v6.08h3.58Z"/>
    <path d="M170.26,35.84h-.75l-.5-2.75h-3.33l-.5,2.75h-.67l2.5-13.16h.83l2.42,13.16h0ZM165.84,32.34h3l-1.5-8.33-1.5,8.33Z"/>
    <path d="M172.09,22.76v12.41h3.08v.67h-3.83v-13.08h.75Z"/>
    <path d="M130.94,50.16v2.83c0,1.75-.92,2.58-2.75,2.58h-.58c-1.83,0-2.75-.83-2.75-2.58v-8.91c0-1.75.92-2.58,2.75-2.58h.58c1.83,0,2.67.83,2.67,2.5v2.5h-1.67v-2.5c0-.75-.33-1.08-1.08-1.08h-.42c-.75,0-1.08.33-1.08,1.08v9.08c0,.75.33,1.08,1.08,1.08h.5c.75,0,1.08-.33,1.08-1.08v-2.92h1.67Z"/>
    <path d="M137.02,41.67v1.5h-2.92v4.58h2.83v1.42h-2.83v4.91h3v1.5h-4.66v-13.91s4.58,0,4.58,0Z"/>
    <path d="M140.02,44.67v10.83h-1.58v-13.83h2.33l2.42,10v-10h1.58v13.91h-2.08s-2.67-10.91-2.67-10.91Z"/>
    <path d="M148.02,55.5v-12.41h-2.17v-1.5h6.08v1.5h-2.17v12.41h-1.75,0Z"/>
    <path d="M157.51,41.67v1.5h-2.92v4.58h2.83v1.42h-2.83v4.91h3v1.5h-4.75v-13.91h4.66,0Z"/>
    <path d="M164.84,50.83v4.66h-1.67v-4.58c0-.83-.42-1.25-1.25-1.25h-1.25v5.83h-1.67v-13.83h3.17c1.83,0,2.75.83,2.75,2.58v2.58c0,1.25-.5,1.83-1.33,2.17.83.25,1.25.75,1.25,1.83ZM162.01,43.08h-1.42v5.16h1.25c.83,0,1.25-.42,1.25-1.17v-3c0-.67-.33-1-1.08-1Z"/>
    <path d="M129.44,61.33v1.5h-2.83v4.66h2.75v1.42h-2.75v6.33h-1.67v-13.91h4.5Z"/>
    <path d="M134.11,75.32h-.67c-1.83,0-2.75-.83-2.75-2.58v-9c0-1.75.92-2.58,2.75-2.58h.67c1.83,0,2.75.83,2.75,2.58v9c0,1.75-.92,2.58-2.75,2.58ZM134.11,62.66h-.5c-.75,0-1.08.33-1.08,1.08v9.08c0,.75.33,1.08,1.08,1.08h.5c.75,0,1.08-.33,1.08-1.08v-9.16c0-.67-.33-1-1.08-1Z"/>
    <path d="M144.27,70.49v4.66h-1.67v-4.58c0-.83-.42-1.25-1.25-1.25h-1.25v5.83h-1.67v-13.83h3.17c1.83,0,2.75.83,2.75,2.58v2.58c0,1.25-.5,1.83-1.33,2.17.92.25,1.25.75,1.25,1.83ZM141.52,62.74h-1.42v5.16h1.25c.83,0,1.25-.42,1.25-1.17v-3c0-.67-.33-1-1.08-1Z"/>
    <path d="M129.52,94.89l-.33-2.33h-2.75l-.33,2.33h-1.58l2.25-13.91h2.17l2.25,13.91h-1.67ZM126.69,91.15h2.25l-1.17-7.66-1.08,7.66Z"/>
    <path d="M132.36,80.98h2.75c2.17,0,3.25,1,3.25,3.08v7.75c0,2.08-1.08,3.08-3.25,3.08h-2.75s0-13.91,0-13.91ZM134.02,93.39h1c1.17,0,1.67-.5,1.67-1.58v-7.75c0-1.08-.5-1.58-1.67-1.58h-1v10.91Z"/>
    <path d="M141.6,94.89l-2.33-13.91h1.67l1.58,10.58,1.58-10.58h1.67l-2.33,13.91h-1.83,0Z"/>
    <path d="M150.85,94.89l-.33-2.33h-2.67l-.33,2.33h-1.58l2.25-13.91h2.17l2.25,13.91h-1.75ZM148.02,91.15h2.25l-1.17-7.66-1.08,7.66Z"/>
    <path d="M155.26,83.98v10.83h-1.58v-13.83h2.33l2.42,10v-10h1.58v13.91h-2.08s-2.67-10.91-2.67-10.91Z"/>
    <path d="M167.59,89.56v2.83c0,1.75-.92,2.58-2.75,2.58h-.58c-1.83,0-2.75-.83-2.75-2.58v-8.91c0-1.75.92-2.58,2.75-2.58h.58c1.83,0,2.67.83,2.67,2.5v2.5h-1.67v-2.5c0-.75-.33-1.08-1.08-1.08h-.42c-.75,0-1.08.33-1.08,1.08v9.08c0,.75.33,1.08,1.08,1.08h.5c.75,0,1.08-.33,1.08-1.08v-2.92s1.67,0,1.67,0Z"/>
    <path d="M173.67,80.98v1.5h-2.92v4.58h2.83v1.42h-2.83v4.91h3v1.5h-4.66v-13.91s4.58,0,4.58,0Z"/>
    <path d="M175.09,80.98h2.75c2.17,0,3.25,1,3.25,3.08v7.75c0,2.08-1.08,3.08-3.25,3.08h-2.75s0-13.91,0-13.91ZM176.84,93.39h1c1.17,0,1.67-.5,1.67-1.58v-7.75c0-1.08-.5-1.58-1.67-1.58h-1v10.91Z"/>
    <path d="M130.94,112.05c0,1.75-.92,2.58-2.75,2.58h-.5c-1.83,0-2.75-.83-2.75-2.58v-11.41h1.67v11.49c0,.75.33,1.08,1.08,1.08h.42c.75,0,1.08-.33,1.08-1.08v-11.49h1.67v11.41h.08Z"/>
    <path d="M138.35,109.89v4.66h-1.67v-4.58c0-.83-.42-1.25-1.25-1.25h-1.25v5.83h-1.67v-13.91h3.17c1.83,0,2.75.83,2.75,2.58v2.58c0,1.25-.5,1.83-1.33,2.17.83.25,1.25.83,1.25,1.92ZM135.52,102.14h-1.42v5.16h1.25c.83,0,1.25-.42,1.25-1.17v-3c.08-.67-.25-1-1.08-1Z"/>
    <path d="M145.77,109.64v2.33c0,1.75-.92,2.58-2.75,2.58h-3.08v-13.91h3.08c1.83,0,2.75.83,2.75,2.58v2.08c0,1.25-.42,1.83-1.25,2.17.75.25,1.25.92,1.25,2.17h0ZM142.93,102.06h-1.33v4.66h1.25c.83,0,1.25-.42,1.25-1.17v-2.42c0-.67-.42-1.08-1.17-1.08ZM141.6,113.14h1.42c.75,0,1.08-.33,1.08-1.08v-2.75c0-.83-.42-1.17-1.25-1.17h-1.25v5h0Z"/>
    <path d="M151.68,114.55l-.33-2.33h-2.75l-.33,2.33h-1.58l2.25-13.91h2.17l2.25,13.91h-1.67ZM148.85,110.8h2.25l-1.17-7.66-1.08,7.66Z"/>
    <path d="M156.1,103.64v10.83h-1.58v-13.91h2.33l2.42,10v-10h1.58v13.91h-2.08l-2.67-10.83Z"/>
    <path d="M164.09,114.55h-1.67v-13.91h1.67v13.91Z"/>
    <path d="M171.59,110.05v2c0,1.75-.92,2.58-2.75,2.58h-.5c-1.83,0-2.67-.83-2.67-2.5v-2.92h1.67v3c0,.75.33,1.08,1.08,1.08h.33c.75,0,1.08-.33,1.08-1.08v-2.08c0-.67-.25-1-.75-1.33l-2.08-1.42c-1.08-.75-1.42-1.42-1.42-2.58v-1.67c0-1.75.92-2.58,2.75-2.58h.42c1.83,0,2.67.83,2.67,2.5v2.5h-1.67v-2.58c0-.75-.33-1.08-1.08-1.08h-.33c-.75,0-1.08.33-1.08,1.08v1.75c0,.67.25,1,.75,1.33l2,1.42c1.17.75,1.58,1.42,1.58,2.58h0Z"/>
    <path d="M182,100.64v13.91h-1.67v-11.49l-2,11.49h-1.75l-2-11.49v11.49h-1.58v-13.91h2.67l1.83,10.91,1.83-10.91s2.67,0,2.67,0Z"/>
  </g>
</svg>