<?xml version="1.0" encoding="UTF-8"?>
<svg id="Layer_1" data-name="Layer 1" xmlns="http://www.w3.org/2000/svg" viewBox="0 0 400 125">
  <path d="M50.05,5.45v17.63h-17.65V5.45h17.65M52.99,2.5h-23.53v23.52h23.53V2.5h0Z"/>
  <rect x="17.69" y="2.49" width="7.84" height="23.53"/>
  <rect x="17.69" y="28.97" width="7.84" height="15.69"/>
  <rect x="2" y="28.97" width="7.84" height="15.69"/>
  <rect x="37.3" y="10.33" width="7.84" height="7.84"/>
  <rect x="2" y="22.1" width="15.69" height="3.92"/>
  <rect x="2" y="10.33" width="7.84" height="12.75"/>
  <rect x="9.84" y="44.65" width="7.84" height="7.84"/>
  <rect x="29.46" y="48.58" width="23.53" height="3.92"/>
  <rect x="29.46" y="28.97" width="23.53" height="3.92"/>
  <rect x="37.3" y="28.97" width="7.84" height="20.59"/>
  <g>
    <path d="M62.54,22.01l2.35-1.71c.89,1.59,2.04,2.27,3.4,2.27,2.06,0,3.11-1.13,3.11-4.19V4.1h3.4v14.58c0,3.78-1.82,6.85-6.12,6.85-2.85,0-4.83-1.2-6.13-3.51h0Z"/>
    <path d="M78.76,17.3c0-5.24,3.52-8.27,7.42-8.27s7.42,3.03,7.42,8.27-3.52,8.24-7.42,8.24-7.42-3.03-7.42-8.24ZM90.14,17.3c0-3.29-1.53-5.51-3.95-5.51s-3.95,2.21-3.95,5.51,1.53,5.48,3.95,5.48,3.95-2.18,3.95-5.48Z"/>
    <path d="M97.21,19.31v-9.9h3.37v9.47c0,2.7.78,3.76,2.61,3.76s2.43-.69,3.72-2.33v-10.9h3.37v15.73h-2.76l-.26-2.36h-.1c-1.41,1.67-2.94,2.75-5.1,2.75-3.36,0-4.83-2.23-4.83-6.22h-.02Z"/>
    <path d="M114.71,9.41h2.76l.26,2.82h.1c1.11-2.04,2.76-3.21,4.48-3.21s1.26.1,1.75.32l-.6,2.93c-.54-.16-.94-.26-1.59-.26-1.27,0-2.81.89-3.8,3.37v9.76h-3.37v-15.72h.01Z"/>
    <path d="M126.97,9.41h2.76l.26,2.17h.1c1.44-1.41,3.04-2.56,5.2-2.56,3.36,0,4.83,2.23,4.83,6.22v9.9h-3.37v-9.47c0-2.7-.78-3.76-2.61-3.76s-2.43.73-3.81,2.1v11.12h-3.37v-15.73h.02Z"/>
    <path d="M143.47,20.96c0-3.39,2.84-5.13,9.38-5.84-.03-1.8-.72-3.38-2.99-3.38s-3.17.75-4.51,1.59l-1.25-2.26c1.65-1.05,3.86-2.06,6.37-2.06,3.9,0,5.74,2.46,5.74,6.7v9.42h-2.76l-.26-1.79h-.1c-1.44,1.22-3.09,2.17-4.99,2.17-2.71,0-4.64-1.8-4.64-4.57h0ZM152.85,21.04v-3.8c-4.59.57-6.12,1.74-6.12,3.46s1.04,2.17,2.42,2.17,2.42-.66,3.7-1.82h0Z"/>
    <path d="M160.58,21.38V2.38h3.37v19.2c0,.88.39,1.2.77,1.2s.29,0,.58-.07l.42,2.53c-.42.16-.99.29-1.82.29-2.42,0-3.33-1.56-3.33-4.15h.01Z"/>
    <path d="M176.28,17.3c0-5.24,3.52-8.27,7.42-8.27s7.42,3.03,7.42,8.27-3.52,8.24-7.42,8.24-7.42-3.03-7.42-8.24ZM187.66,17.3c0-3.29-1.53-5.51-3.95-5.51s-3.95,2.21-3.95,5.51,1.53,5.48,3.95,5.48,3.95-2.18,3.95-5.48Z"/>
    <path d="M193.19,9.57l2.29-.16h6.35v2.69h-8.64v-2.53h0ZM195.31,7.51c0-3.25,1.48-5.51,5.02-5.51s2.09.26,2.8.54l-.66,2.53c-.58-.25-1.19-.38-1.73-.38-1.36,0-2.07.89-2.07,2.79v17.67h-3.37V7.51h.01Z"/>
    <path d="M210.38,4.1h3.6l3.11,10.84c.7,2.42,1.18,4.47,1.91,6.87h.13c.73-2.42,1.22-4.47,1.91-6.89l3.06-10.83h3.46l-6.57,21.04h-4l-6.59-21.04h-.01Z"/>
    <path d="M230.13,4.53c0-1.18.92-1.97,2.14-1.97s2.14.8,2.14,1.97-.92,1.97-2.14,1.97-2.14-.82-2.14-1.97ZM230.57,9.41h3.37v15.73h-3.37v-15.73Z"/>
    <path d="M237.04,23.34l1.59-2.16c1.38,1.09,2.75,1.79,4.45,1.79s2.7-.9,2.7-2.06-1.75-2.05-3.45-2.69c-2.11-.78-4.51-1.94-4.51-4.58s2.15-4.63,5.63-4.63,3.86.86,5.12,1.84l-1.56,2.09c-1.1-.81-2.2-1.38-3.5-1.38s-2.52.85-2.52,1.91,1.62,1.83,3.36,2.46c2.17.82,4.6,1.81,4.6,4.76s-2.1,4.82-5.99,4.82c-2.18,0-4.41-.93-5.93-2.19v.02Z"/>
    <path d="M252.14,19.31v-9.9h3.37v9.47c0,2.7.78,3.76,2.61,3.76s2.43-.69,3.72-2.33v-10.9h3.37v15.73h-2.77l-.26-2.36h-.1c-1.41,1.67-2.95,2.75-5.1,2.75-3.36,0-4.83-2.23-4.83-6.22h-.01Z"/>
    <path d="M268.73,20.96c0-3.39,2.84-5.13,9.38-5.84-.03-1.8-.72-3.38-2.99-3.38s-3.17.75-4.51,1.59l-1.25-2.26c1.65-1.05,3.87-2.06,6.37-2.06,3.9,0,5.74,2.46,5.74,6.7v9.42h-2.77l-.26-1.79h-.1c-1.44,1.22-3.09,2.17-4.99,2.17-2.71,0-4.64-1.8-4.64-4.57h.01ZM278.13,21.04v-3.8c-4.59.57-6.12,1.74-6.12,3.46s1.04,2.17,2.42,2.17,2.42-.66,3.7-1.82h0Z"/>
    <path d="M285.84,21.38V2.38h3.37v19.2c0,.88.39,1.2.77,1.2s.29,0,.58-.07l.42,2.53c-.42.16-.99.29-1.82.29-2.42,0-3.33-1.56-3.33-4.15h.01Z"/>
    <path d="M293.41,4.53c0-1.18.92-1.97,2.14-1.97s2.14.8,2.14,1.97-.92,1.97-2.14,1.97-2.14-.82-2.14-1.97ZM293.85,9.41h3.37v15.73h-3.37v-15.73Z"/>
    <path d="M300.7,23.34l7.69-11.24h-6.83v-2.69h11.06v1.8l-7.69,11.24h7.94v2.69h-12.17v-1.8h0Z"/>
    <path d="M315.48,20.96c0-3.39,2.84-5.13,9.38-5.84-.03-1.8-.72-3.38-2.99-3.38s-3.17.75-4.51,1.59l-1.25-2.26c1.65-1.05,3.87-2.06,6.37-2.06,3.9,0,5.74,2.46,5.74,6.7v9.42h-2.77l-.26-1.79h-.1c-1.44,1.22-3.09,2.17-4.99,2.17-2.71,0-4.64-1.8-4.64-4.57h.01ZM324.87,21.04v-3.8c-4.59.57-6.12,1.74-6.12,3.46s1.04,2.17,2.42,2.17,2.42-.66,3.7-1.82h0Z"/>
    <path d="M332.98,19.98v-7.88h-2.28v-2.53l2.44-.16.4-4.34h2.8v4.34h4.1v2.69h-4.1v7.89c0,1.87.69,2.84,2.3,2.84s1.21-.19,1.69-.38l.59,2.49c-.86.28-1.95.58-3.12.58-3.54,0-4.82-2.24-4.82-5.55h-.01Z"/>
    <path d="M343.67,4.53c0-1.18.92-1.97,2.14-1.97s2.14.8,2.14,1.97-.92,1.97-2.14,1.97-2.14-.82-2.14-1.97ZM344.12,9.41h3.37v15.73h-3.37v-15.73Z"/>
    <path d="M351.06,17.3c0-5.24,3.52-8.27,7.42-8.27s7.42,3.03,7.42,8.27-3.52,8.24-7.42,8.24-7.42-3.03-7.42-8.24ZM362.44,17.3c0-3.29-1.53-5.51-3.97-5.51s-3.97,2.21-3.97,5.51,1.53,5.48,3.97,5.48,3.97-2.18,3.97-5.48Z"/>
    <path d="M369.62,9.41h2.77l.26,2.17h.1c1.44-1.41,3.04-2.56,5.2-2.56,3.36,0,4.83,2.23,4.83,6.22v9.9h-3.37v-9.47c0-2.7-.78-3.76-2.61-3.76s-2.43.73-3.81,2.1v11.12h-3.37v-15.73h.01Z"/>
  </g>
  <g>
    <path d="M65.33,48.41c0-3.39,2.84-5.13,9.38-5.83-.03-1.8-.71-3.38-2.99-3.38s-3.17.75-4.51,1.59l-1.25-2.26c1.63-1.05,3.87-2.06,6.37-2.06,3.9,0,5.74,2.46,5.74,6.7v9.42h-2.76l-.26-1.79h-.1c-1.44,1.22-3.09,2.17-4.99,2.17-2.71,0-4.64-1.8-4.64-4.57h0ZM74.71,48.5v-3.8c-4.59.57-6.12,1.74-6.12,3.46s1.04,2.17,2.42,2.17,2.42-.66,3.7-1.82h0Z"/>
    <path d="M82.45,36.86h2.76l.26,2.17h.1c1.44-1.41,3.05-2.56,5.2-2.56,3.36,0,4.83,2.23,4.83,6.22v9.9h-3.37v-9.47c0-2.7-.78-3.76-2.61-3.76s-2.43.72-3.81,2.1v11.12h-3.37v-15.73h.02Z"/>
    <path d="M99.33,44.75c0-5.12,3.21-8.27,6.71-8.27s2.94.68,4.22,1.75l-.13-2.59v-5.82h3.37v22.77h-2.76l-.26-1.75h-.1c-1.19,1.19-2.82,2.14-4.57,2.14-3.92,0-6.46-3.03-6.46-8.24h-.02ZM110.11,48.3v-7.63c-1.17-1.04-2.27-1.42-3.4-1.42-2.16,0-3.92,2.07-3.92,5.45s1.38,5.48,3.81,5.48c1.3,0,2.4-.59,3.52-1.88h-.01Z"/>
    <path d="M126.89,31.56h3.4v21.04h-3.4v-21.04Z"/>
    <path d="M135.03,36.86h2.76l.26,2.17h.1c1.44-1.41,3.04-2.56,5.2-2.56,3.36,0,4.83,2.23,4.83,6.22v9.9h-3.37v-9.47c0-2.7-.78-3.76-2.61-3.76s-2.43.72-3.81,2.1v11.12h-3.37v-15.73h.02Z"/>
    <path d="M152.94,47.43v-7.88h-2.28v-2.53l2.44-.16.4-4.34h2.8v4.34h4.1v2.69h-4.1v7.89c0,1.87.69,2.84,2.3,2.84s1.21-.19,1.69-.38l.59,2.49c-.86.28-1.95.58-3.13.58-3.54,0-4.82-2.24-4.82-5.56h0Z"/>
    <path d="M162.34,44.75c0-5.12,3.52-8.27,7.19-8.27s6.43,3.02,6.43,7.44-.07,1.32-.15,1.7h-10.18c.27,2.96,2.15,4.74,4.83,4.74s2.58-.45,3.74-1.18l1.15,2.12c-1.46.98-3.29,1.68-5.33,1.68-4.29,0-7.68-3.05-7.68-8.24ZM173.04,43.3c0-2.66-1.19-4.21-3.43-4.21s-3.68,1.5-4.01,4.21h7.44Z"/>
    <path d="M179.67,36.86h2.76l.26,2.82h.1c1.11-2.04,2.76-3.21,4.48-3.21s1.26.1,1.75.33l-.6,2.93c-.54-.16-.94-.26-1.59-.26-1.27,0-2.81.89-3.8,3.37v9.76h-3.37v-15.73h.01Z"/>
    <path d="M190.98,48.41c0-3.39,2.84-5.13,9.38-5.83-.03-1.8-.72-3.38-2.99-3.38s-3.17.75-4.51,1.59l-1.25-2.26c1.65-1.05,3.87-2.06,6.37-2.06,3.9,0,5.74,2.46,5.74,6.7v9.42h-2.76l-.26-1.79h-.1c-1.44,1.22-3.09,2.17-4.99,2.17-2.71,0-4.64-1.8-4.64-4.57h0ZM200.36,48.5v-3.8c-4.59.57-6.12,1.74-6.12,3.46s1.04,2.17,2.42,2.17,2.42-.66,3.7-1.82h0Z"/>
    <path d="M207.32,44.75c0-5.24,3.65-8.27,7.79-8.27s3.48.8,4.6,1.8l-1.66,2.19c-.86-.76-1.71-1.23-2.78-1.23-2.64,0-4.5,2.21-4.5,5.51s1.81,5.48,4.39,5.48,2.47-.63,3.4-1.43l1.39,2.23c-1.45,1.3-3.3,1.96-5.12,1.96-4.26,0-7.52-3.03-7.52-8.24h0Z"/>
    <path d="M224.53,47.43v-7.88h-2.28v-2.53l2.44-.16.4-4.34h2.8v4.34h4.1v2.69h-4.1v7.89c0,1.87.69,2.84,2.3,2.84s1.21-.19,1.69-.38l.59,2.49c-.86.28-1.95.58-3.12.58-3.54,0-4.82-2.24-4.82-5.56h-.01Z"/>
    <path d="M235.23,31.98c0-1.18.92-1.97,2.14-1.97s2.14.8,2.14,1.97-.92,1.97-2.14,1.97-2.14-.82-2.14-1.97ZM235.67,36.86h3.37v15.73h-3.37v-15.73Z"/>
    <path d="M242.61,44.75c0-5.24,3.52-8.27,7.42-8.27s7.42,3.03,7.42,8.27-3.52,8.24-7.42,8.24-7.42-3.03-7.42-8.24ZM253.99,44.75c0-3.29-1.53-5.51-3.97-5.51s-3.97,2.21-3.97,5.51,1.53,5.48,3.97,5.48,3.97-2.18,3.97-5.48Z"/>
    <path d="M261.17,36.86h2.77l.26,2.17h.1c1.44-1.41,3.04-2.56,5.2-2.56,3.36,0,4.83,2.23,4.83,6.22v9.9h-3.37v-9.47c0-2.7-.78-3.76-2.61-3.76s-2.43.72-3.81,2.1v11.12h-3.37v-15.73h.01Z"/>
  </g>
</svg>