<?xml version="1.0" encoding="UTF-8"?>
<svg id="Layer_1" data-name="Layer 1" xmlns="http://www.w3.org/2000/svg" viewBox="0 0 350 125">
  <g>
    <path d="M44.67,2C21.09,2,2,21.09,2,44.58s19.09,42.67,42.67,42.67,42.67-19.09,42.67-42.67S68.15,2,44.67,2ZM73.98,73.98c-7.8,7.8-18.29,12.19-29.4,12.19s-21.51-4.3-29.4-12.19c-7.8-7.8-12.19-18.29-12.19-29.4S7.29,23.07,15.18,15.18c7.89-7.8,18.38-12.1,29.49-12.1s21.51,4.3,29.4,12.19c7.8,7.8,12.19,18.29,12.19,29.4s-4.3,21.51-12.19,29.4l-.09-.09Z"/>
    <path d="M44.67,4.51C22.53,4.51,4.6,22.44,4.6,44.58s17.93,40.07,40.07,40.07,40.07-17.93,40.07-40.07S66.72,4.51,44.67,4.51ZM72.64,72.64c-7.44,7.44-17.39,11.56-27.97,11.56s-20.53-4.12-27.97-11.56c-7.44-7.44-11.56-17.39-11.56-27.97s4.12-20.53,11.56-27.97c7.44-7.44,17.39-11.56,27.97-11.56s20.53,4.12,27.97,11.56c7.44,7.44,11.56,17.39,11.56,27.97s-4.12,20.53-11.56,27.97Z"/>
    <path d="M44.67,14.01c-16.85,0-30.57,13.71-30.57,30.57s13.71,30.57,30.57,30.57,30.57-13.71,30.57-30.57-13.71-30.57-30.57-30.57ZM44.67,74.7c-16.67,0-30.12-13.45-30.12-30.12s13.45-30.12,30.12-30.12,30.12,13.45,30.12,30.12-13.45,30.12-30.12,30.12Z"/>
    <path d="M44.67,15.98c-15.78,0-28.68,12.82-28.68,28.68s12.82,28.68,28.68,28.68,28.68-12.82,28.68-28.68-12.82-28.68-28.68-28.68ZM48.25,22.17c.27.54.54,1.17.54,1.79s0,.18,0,.27v.27c0,.18-.09.27-.27.45h0c-.18.27-.54.36-.9.36s-.63,0-.81-.18v-.36h0v-.54c0-.54-.27-1.08-.54-1.61.27-.99.81-1.97,1.34-2.69,0,.99.18,1.7.54,2.33l.09-.09ZM48.97,22.89c.09-.36.18-.72.18-1.08.63.72.9,1.34.9,2.06s0,.18,0,.36h0v.63h0s-.09.09-.18.18h0c-.18.18-.45.27-.81.27s-.09,0-.18,0c.09-.09.18-.27.27-.45,0-.09,0-.18.09-.36v-.63c0-.45-.09-.81-.27-1.17v.18ZM60,60.35c.99,0,1.88-.36,2.51-.99.45-.45.63-.9.72-1.43.09,0,.18.09.27.18h0c.18-.63,0-1.17-.45-1.88-.54-.72-1.52-1.17-2.78-1.17h0c-1.43,0-2.15.63-2.51,1.17-.45.72-.45,1.61-.27,2.06h0c.09-.09.27-.27.45-.36.81.72,2.06.81,2.96.63.45,0,.81-.27.99-.54.09-.18.18-.36,0-.63-.18-.45-.99-.63-1.52-.54-.54,0-.9.27-1.7.99h0v-1.25c.27-.36.99-.81,1.7-.81h0c.63,0,1.17.09,1.43.36.18.18.45.63.63,1.08.27.63.18.99-.18,1.52-.36.45-1.25.99-2.33.99s-1.88-.27-2.6-.81h0c-.45-.54-.54-1.08-.27-3.05.36-2.51.27-5.47,0-7.53-.18-2.06-.63-4.39-.9-5.74-.09-.54-.18-.99-.27-1.08,0-.63.27-1.17.72-1.61.54-.45,1.17-.72,1.97-.72,1.43,0,2.24.45,2.51,1.34v1.25c0,1.52.09,4.03.54,6.99.63,4.66,1.43,6.36,1.88,7.44.27.63.54,1.08.54,1.88,0,.72-.18,1.34-.63,1.88-.9.9-2.69,1.43-4.84,1.43h-1.52c0-.27.09-.54.09-.81v-.27h-.27c-.72.27-1.34.54-1.88.9-1.17-.09-2.15-.27-3.14-.45-2.06-.36-4.03-.63-6.72-.63-3.85,0-7.17.45-9.86.9-.9-.72-1.97-1.08-3.05-1.34.27-.36.45-.81.54-1.25.09-.63,0-1.43-.09-2.69-.18-1.88-.27-4.12.09-7.26.36-2.96.63-4.84.81-5.74,0-.18,0-.36.09-.45,1.43-.18,2.78-.36,4.12-.54,2.15-.36,4.21-.63,6.01-.63,3.32,0,5.83.36,8.07.72,1.34.18,2.51.36,3.68.45,0,.18,0,.36.09.54.36,1.25.72,3.68.9,5.74.18,2.06.18,5.02-.18,7.44-.36,2.51-.18,2.87.45,3.5.72.81,1.97.99,2.87,1.08h.27l.09-.27ZM66.09,34.36c1.7,1.43,2.69,3.32,2.69,5.11,0,1.25-.45,2.24-.9,2.87-.27.18-.45.45-.63.63.27-1.7.36-4.3,0-5.56h0c.18,1.08.27,2.96-.45,6.01-.27-.9-.63-1.7-.99-2.33-.27-1.43,0-2.69.27-3.85.18-.99.36-2.06.27-2.87h-.27ZM68.15,49.15h-.09c-1.25.81-2.69,2.6-3.68,4.03.45-.9.72-1.97.72-3.05v-.18c.18-.18.36-.45.54-.63.36-.36,1.17-.81,1.97-1.34.99-.54,2.06-1.17,2.78-1.88-.18,1.43-.81,4.39-2.6,6.19h-.18c-.99.27-1.88.54-2.6.9,1.25-1.88,2.06-2.78,3.23-3.94v-.09h-.09ZM68.96,46.64c-.54.36-.99.63-1.52.99-.09,0-.18.09-.27.18-.09,0-.18,0-.36.09.63-1.43,1.25-2.69,2.06-4.03v-.09h-.09c-.63.81-1.43,1.79-2.33,3.85h0c.36-1.08.45-2.24.27-3.32.45-.99,1.34-1.61,2.33-2.42.45-.36.99-.99,1.43-1.34.18,2.42.09,4.57-1.61,6.1h.09ZM65.37,48.97h0s-.09.09-.18.18c0-1.7-.18-4.48-.72-6.1h0c.27,1.61.36,2.96.45,4.75-.36-.81-.81-1.7-1.52-2.42-.18-1.43,0-2.87.18-4.21.09-.81.18-1.52.27-2.24,1.52,1.79,4.3,6.19,1.79,9.95l-.27.09ZM64.75,50.14c0,1.61-.63,3.05-1.34,3.94-.09-.36-.18-.72-.36-1.08.18-1.7.18-3.59,0-4.39h0v3.14c-.18-.9-.36-1.88-.54-3.23,0-.54-.18-1.08-.18-1.61.18-.63.27-1.25.27-1.88,1.52,1.34,2.42,3.23,2.42,5.02l-.27.09ZM55.51,62.24h-.09c-.72.72-2.06,2.24-3.32,3.76.36-.81.63-1.7.72-2.78.99-1.17,2.33-2.06,4.03-2.69-.36,2.6-1.34,4.57-3.05,6.01h-1.7c.54-.72,1.17-1.43,1.7-2.15.63-.72,1.17-1.43,1.61-2.06v-.09h.09ZM50.32,65.02h-.09c-.63,1.34-1.52,2.69-2.78,3.85-.18-3.68,1.79-4.93,3.94-6.27.45-.27.81-.54,1.25-.9,0,2.6-.81,6.36-4.75,7.53,1.25-1.52,1.97-2.51,2.51-4.12v-.09h-.09ZM47.54,60.44c1.17,0,2.15.18,3.14.36l.18,1.7c-1.25.81-2.42,1.61-3.14,2.96l-.18-4.93v-.09ZM57.04,61.61h1.61c-.63.54-1.34.99-2.15,1.52.18-.54.36-1.08.45-1.61l.09.09ZM59.37,61.61c.81,0,1.43-.09,2.06-.27-.18.27-.45.63-.72.9-1.17.18-2.15.45-3.05.81.63-.45,1.25-.99,1.7-1.43ZM43.86,60.35h.63v6.72h.18c.09,0,0,0,0,0v-6.72h.72l-.18,4.75h0l.27-4.75h.63l-.54,7.98h-2.24l-.54-7.98h.54l.27,4.93h0l-.18-4.93h.45ZM43.77,68.69h1.7c.63,0,.72,0,.81.09.18.09.18.18.18.36s0,.27-.18.36c0,0-.18.09-.81.09h-1.88c-.54,0-.72,0-.81-.09-.18-.09-.18-.18-.18-.36s0-.27.18-.36c.09,0,.18-.09.81-.09h.18ZM38.93,64.84c.45.63,1.61,2.69,2.42,4.3h0c-.72-.72-1.52-1.25-2.24-1.61-1.88-1.88-1.97-4.39-1.97-5.74.45.45.9.81,1.43,1.17,1.88,1.43,3.76,2.69,3.41,6.19-.09-.27-.27-.54-.54-.99-.09-.18-.27-.45-.45-.81-.45-.81-1.25-2.24-1.88-2.69h-.09v.09l-.09.09ZM33.55,65.02c.72.81,1.7,1.43,2.96,1.97h-2.78c-1.34-.63-2.33-1.61-3.14-2.96,2.33-.27,4.48-.09,6.54,1.25.27.72.54,1.34.99,1.88-1.97-.54-3.41-1.43-4.48-2.15h-.09v.09-.09ZM23.15,55.34c.45.36.99.9,1.61,1.61-.09.36-.18.81-.09,1.25,0,.27,0,.45.09.72h-.36c-.63-.36-1.25-.9-1.79-1.7-.27-.45-.54-.9-.81-1.34-.36-.72-.81-1.52-1.43-2.24.27,0,.63.09.99.18,1.43.18,3.14.45,4.21,1.34-.09.27-.18.54-.27.72-.09.27-.18.54-.27.81-.54-.54-1.08-.99-1.61-1.34h-.09v.09l-.18-.09ZM26.11,48.88h-.09c-.45,1.25-.9,2.96-.81,5.47-2.33-3.68-.09-7.17,1.7-9.14,0,.63.18,1.25.36,1.97,0,.54-.18,1.08-.27,1.7-.54,2.6-.99,4.3-1.43,5.47-.18-1.52,0-3.32.45-5.38h0l.09-.09ZM26.2,45.47c-.72.81-1.17,1.52-1.52,2.24h0c.27-1.79.54-4.39.36-5.38h0c.09.9-.18,3.14-.63,5.11,0,0-.09-.18-.18-.27-.18-.63-.45-1.17-.81-1.7-.18-.72,0-1.43.27-2.33.18-.54.36-.72.54-1.52.27-.9.63-2.06.81-3.05,0,0,0,.18.09.27.9,1.97,1.97,4.3,1.25,6.54l-.18.09ZM23.07,43.14c-.18.63-.36,1.17-.36,1.7-.72-1.7-1.17-3.5-1.25-5.65h0c-.18,1.79.27,3.76.81,5.2-.27-.27-.63-.45-.99-.63-2.06-3.05-.54-7.26.36-9.05.18.63.45,1.7.72,2.42.63,1.52,1.25,3.23,1.25,5.2-.09.27-.27.54-.36.9l-.18-.09ZM23.96,49.96c-.81-1.52-2.42-3.94-3.59-4.93h-.09v.09c1.17,1.43,2.06,2.87,3.23,4.84-.72-.81-1.61-1.43-2.42-1.88-.36-.27-.72-.45-1.08-.72-.81-1.08-1.08-2.33-1.08-4.12,3.76,1.17,5.38,3.32,5.11,6.72h-.09ZM20.73,48.43c1.08.72,2.33,1.52,3.14,2.87,0,.72.18,1.43.45,2.06h0c-.81-.9-1.52-1.79-3.41-3.41h-.09v.09c.27.27.63.72,1.08,1.17.72.81,1.61,1.79,2.24,2.6-.54-.18-1.17-.36-1.79-.45-.72-.36-1.43-.81-1.97-1.43-1.08-1.25-1.7-3.14-1.61-5.2.45.54,1.34,1.17,2.06,1.61l-.09.09ZM25.57,55.96c.45-1.17,1.25-2.96,1.97-6.99.63-3.14.63-5.65.54-7.17v-1.52c.45-1.17,1.88-1.61,2.96-1.43,1.88.36,2.33,1.79,2.42,2.33,0,.36,0,.63-.18,1.25-.18.9-.54,2.78-.9,5.74-.36,3.14-.36,5.38-.18,7.26.09,1.08.18,1.97,0,2.51-.09.54-.36.99-.63,1.25-.54,0-1.08-.09-1.61-.18,0,0-.18,0-.18.09v.27c0,.09.18.27.27.36h-.63c-.99,0-2.06-.45-2.51-1.17-.36-.45-.36-.81-.18-1.52.09-.36.36-.81.63-.99.27-.27.81-.36,1.43-.36.9,0,1.7.36,1.97.72,0,.36,0,.72-.09,1.17h0c-.54-.45-1.43-.72-2.06-.72s0,0,0,0c-.45,0-.9.18-1.08.36-.09.09-.18.27-.18.45,0,.45.27.99,1.43.99s0,0,0,0c1.08,0,2.06-.36,2.42-.72.18,0,.36.18.54.36h0c.18-.54.18-1.34-.36-1.97-.36-.54-1.08-1.08-2.51-1.08s0,0-.09,0c-1.08,0-2.15.45-2.78,1.17-.9.9-.63,2.69,0,3.14h0c0-.09.09-.27.18-.36.63.9,1.7,1.34,3.05,1.34s0,0,.09,0c.36,0,.72,0,.99-.09,0,.09.18.27.18.45.09.18.27.45.36.72-.63.09-1.17.18-1.61.18-2.06,0-4.21-1.08-4.39-3.59,0-.9.18-1.34.54-2.24h.18ZM30.42,59.64c2.24.18,4.66.63,6.19,3.32,0,.54.18,1.17.27,1.61-.18-.09-.36-.18-.54-.27-1.97-2.33-3.05-3.05-4.03-3.41h0v.09c.72.45,1.97,1.25,3.14,2.78-.9-.36-1.88-.45-2.78-.54-.72-.9-1.25-1.88-1.61-2.69l-.54-1.08-.09.18ZM38.39,62.51l.18-1.7c.99-.09,2.06-.27,3.14-.27l-.18,4.93c-.72-1.17-1.79-1.97-2.87-2.69-.09,0-.18-.18-.27-.18v-.09ZM42.34,35.35c0-.18.09-.36.36-.36.18,0,.27.09.36.36l.18,5.29h-.54l-.27-5.29h-.09ZM44.22,35.44c0-.36.18-.45.36-.45s.36.18.36.54v5.2h-.72v-5.29ZM46.1,40.63l.18-5.29c0-.27.09-.36.36-.36.18,0,.36.18.27.36l-.27,5.38h-.54v-.09ZM46.91,40.63l.27-5.56c0-.45-.09-.72-.63-.72s-.63.27-.72.72v5.47h-.72v-5.47c.09-.18,0-.45-.09-.54s-.36-.18-.54-.18-.45,0-.54.18-.18.36-.18.54v5.47h-.45v-5.47c-.18-.54-.27-.72-.81-.72s-.36,0-.54.18c-.09.18-.18.36-.18.54l.27,5.47h-.54l-.45-6.99h6.63l-.45,6.99h-.54l.18.09ZM47.9,33.1h-6.54c-.36,0-.45-.09-.54-.27-.09-.27-.18-.36-.18-.54h7.89c0,.09,0,.27-.18.54-.09.18-.18.27-.54.27h.09ZM40.54,31.94c-.36,0-.36-.18-.36-.45h0c0-.27.18-.54.36-.54h8.16c.27,0,.36.18.36.45h0c0,.27-.18.45-.36.45h-8.07l-.09.09ZM40.1,28.62h.72v.27c.09.45,0,.63-.18.72h-.18s-.36-.99-.36-.99ZM48.34,28.08s-.18,0-.18.18v.54c-.18.45-.18.9.36,1.17l.36.18v.45h-8.69v-.36q-.09-.09,0-.18l.45-.18c.54-.27.54-.81.54-1.17v-.54c-.18,0-.18-.18-.27-.18h-1.08c-.36,0-.36-.09-.45-.18v-.36h10.67v.36c-.09.09-.18.18-.45.18h-1.17l-.09.09ZM49.15,28.62l-.36,1.08h-.09c-.27-.18-.36-.36-.27-.81v-.36h.72v.09ZM49.6,27.1h-9.86c-1.52,0-1.61,0-1.7-.09-.09,0-.18-.18-.18-.45s0-.36.18-.45.54-.18,2.51-.18h8.25c1.97,0,2.33,0,2.51.18.09,0,.18.18.18.45s0,.36-.18.45-.18.09-1.7.09ZM40.37,23.42c0,.27-.09.45-.09.72v.72c0,.18.18.36.27.45-.09.09-.27.18-.54.18s-.27,0-.45-.09h0s-.18,0-.18-.18h0v-.09h0v-.18h0v-.18h0v-.18h0v-.27c0-.81.36-1.79.99-2.51-.09.72.09,1.43.27,1.79l-.27-.18ZM41.35,19.39c.54.27,1.08.81,1.43,1.43,0,.27-.18.45-.27.72-.18.54-.45,1.08-.45,1.79v.45h0v.36h0c0,.27.18.45.27.72,0,.09.09.18.18.27h0c-.18,0-.36.09-.63.09-.72,0-1.08-.54-1.17-1.08v-.27c0-.54.09-.72.36-1.17h0c.72-1.52.81-2.6.18-3.41l.09.09ZM46.46,24.14v.72h0c-.18.36-.54.45-.99.45s-.81-.18-.99-.54v-.18h0v-.81c0-.54.18-1.17.36-1.79.09-.36.27-.81.27-1.08.09.18.27.36.36.54.54.72,1.25,1.7,1.25,2.6l-.27.09ZM46.1,22.08c-.18-.27-.36-.54-.63-.81-.27-.36-.54-.72-.9-1.17h0c0,.72-.18,1.34-.45,1.97-.18.54-.45,1.17-.45,1.79s0,.18,0,.36v.27c0,.09,0,.27.09.36,0,.09.09.18.18.27-.27,0-.54-.18-.72-.36h0c-.27-.27-.45-.63-.54-.99h0v-.18h0v-.18h0v-.18c0-.54.18-1.08.36-1.61.27-.63.45-1.34.45-2.24s-.45-1.79-.9-2.24c2.24.81,3.32,2.6,3.76,4.21-.09.18-.18.45-.27.63v.09ZM21.27,29.97l15.51-5.11h0l-13.63,2.6c.81-1.08,1.7-2.06,2.69-2.96l11.38-1.43h0l-8.78-.54c.99-.72,2.06-1.43,3.14-1.97l6.45.9h0l-4.21-1.79c.99-.45,1.97-.81,3.05-1.08l2.51,1.52h0v-.09l-1.34-1.79c1.25-.27,2.6-.54,3.94-.63.63.54.99,1.34.99,2.06s0,.72-.09,1.08c-.72-.99-1.61-1.52-2.42-1.7h0c.72.72.99,1.34.81,2.15,0,.63-.36,1.08-.54,1.61,0,0,0,.18-.09.18-.27-.54-.36-1.08,0-1.97h0c-1.08.63-1.88,2.51-1.88,3.76s.18.99.45,1.17c-.99,0-1.17,0-1.34.18-.27.18-.36.36-.36.72s0,.54.36.72c.18.09.27.18,1.08.18l.18.63c.09.36.36.45.63.45l.45,1.34c-.09,0-.27.27-.18.54h0l.18.45h0c-.09.18-.18.36-.18.54h0c0,.45.18.72.45.81,0,.27,0,.54.18.81.09.18.27.27.45.36l.45,7.26c-.54,0-1.08.09-1.61.18l.36-4.66h0l-1.25,4.93c-.27,0-.63,0-.9.09-.54,0-1.08.18-1.7.27l2.87-8.43v-.09h-.09l-4.93,8.43h0c0-.54-.36-1.61-1.61-2.33l5.74-8.61v-.09h-.09l-7.8,8.25c-1.08,0-2.06.63-2.51,1.7,0,.18-.09.54-.09.99l-.99,1.08c-.27-.9-.63-1.79-.99-2.6l11.2-10.94v-.09h-.09l-13.71,9.68c-.18-.54-.36-.99-.54-1.52-.18-.36-.27-.81-.45-1.17l14.16-8.69v-.09h-.09l-16.94,7.08c.54-1.34,1.25-2.69,2.06-3.94l-.27-.36ZM17.78,38.39l2.42-1.52c-.36,1.17-.63,2.51-.54,3.94l-2.51,1.79c.09-1.43.27-2.87.63-4.21ZM17.96,51.57c-.27-1.17-.54-2.42-.72-3.59l1.17-1.08c-.09,1.34,0,2.6.54,3.68,0,0-.99.99-.99.99ZM22.53,60.98c-.9-1.17-1.7-2.51-2.33-3.76l.99-1.52c0,.09.09.18.18.27.27.54.54.99.81,1.43.36.54.81.99,1.25,1.34-.18,0-.45,0-.63-.09h-.27v.27c.18.36.36.72.63,1.08l-.54.99h-.09ZM22.89,59.1c.63.09,1.25.18,1.88.27.36,1.17,1.17,2.15,2.6,2.6h-.27c-.36,0-.72,0-1.08.09-1.34-.72-2.51-1.79-3.05-2.96h-.09ZM25.66,62.42c.45,0,.81,0,1.25-.09.45,0,.99-.09,1.43-.09h.9c.27,0,0,0,.09,0h.9c.36,0,.72,0,1.08.18.18.36.45.72.72,1.08-.45,0-.9,0-1.34.09-.63-.09-1.25-.18-2.06-.18h0c.45.09.9.18,1.25.27h0c.36.63.72,1.25,1.17,1.7-1.97-.09-3.94-.9-5.65-3.14l.27.18ZM31.4,68.69c-1.34-.72-2.6-1.52-3.76-2.51l.45-1.25c.99.54,2.15.9,3.59.9.09.09.27.18.36.27l-.63,2.51v.09ZM36.6,70.75c-1.79-.36-3.23-1.7-4.3-3.68.81.27,1.79.36,2.78.36,1.88,0,3.94,0,5.92,2.15h0c-1.43.18-3.76,0-5.47-.81h-.09v.09c1.17,1.08,3.23,1.25,4.84,1.25s.36,0,.45,0c-.9.54-2.42.99-4.12.63ZM42.88,71.47c-.27.09-1.25.45-1.7.54-.54.18-.81,0-.9-.18-.09-.27,0-.45.45-.63.27-.09,1.97-.81,2.42-.9-.09.27-.18.45-.18.72v.36l-.09.09ZM44.67,72.46c-.9,0-1.43-.54-1.43-1.52s0-.54.18-.81c.45,0,1.79-.09,2.42,0,.18.27.18.54.18.81,0,.99-.54,1.52-1.43,1.52h.09ZM49.06,71.83c0,.18-.36.27-.9.18-.45-.09-1.43-.45-1.7-.54v-.36c0-.27,0-.54-.18-.72.45.18,2.15.81,2.42.9.45.18.54.36.45.63l-.09-.09ZM48.79,69.95c1.52-.81,3.41-1.34,5.56-1.43h0c-1.52-.18-3.23,0-4.93.63.72-.45,1.43-.99,1.97-1.88,1.34-.45,2.78-.27,4.12,0,.63.09,1.43.09,2.06.18-1.7,1.97-5.02,4.57-8.78,2.69v-.18ZM59.1,67.97l-.36-1.17c1.61-.45,2.87-1.25,3.76-2.24l.27.72c-1.17.99-2.42,1.97-3.68,2.78v-.09ZM55.51,66.72c-.36,0-.72-.09-1.08-.18,1.52-1.08,4.12-2.06,6.36-2.6h0c-1.79.18-3.76.9-5.47,1.79.27-.36.54-.72.72-1.17,1.88-1.34,4.48-2.06,7.62-1.97-1.97,3.05-4.75,4.48-8.16,4.21v-.09ZM63.13,62.15h-1.79c.18-.27.45-.54.63-.81,1.79-.72,3.05-1.52,3.94-2.6v-.09h-.09c-.36.36-.9.72-1.61,1.17.45-.54.63-1.17.54-1.88h0c.36,0,.81-.09,1.17-.18.63,0,1.25-.27,1.88-.45-.72,2.15-2.15,4.3-4.57,4.84h-.09ZM67.35,60.18l-.27-.54c.45-.72.81-1.52,1.17-2.6v-.18h-.18c-.45.09-.81.18-1.34.27.72-.45,1.43-.99,1.97-1.61l.81,1.17c-.63,1.25-1.25,2.42-2.06,3.5h-.09ZM65.11,57.4h-.45c0-.45-.18-.81-.36-1.17,1.08-.63,2.42-1.52,3.05-2.24v-.09h-.09c-.72.63-1.7,1.25-3.14,1.97-.18-.36-.36-.72-.54-1.25.36-.36.81-.72,1.43-1.08.72-.36,1.7-.72,2.69-.99.72-.18,1.61-.54,2.33-.72-.36,1.88-2.15,4.57-4.93,5.47v.09ZM71.38,51.12l-1.43-1.52c.45-1.08.72-2.15.81-3.32l1.25,1.17c-.09,1.25-.36,2.51-.63,3.68ZM72.01,42.16l-1.25-.81c0-.36,0-.63-.09-.99,0,0,0-.18-.09-.18h-.18c-.18.18-.36.36-.54.54l-.81-.54v-.63c0-.9-.18-2.15-.99-3.41l3.23,1.88c.36,1.34.54,2.69.63,4.03l.09.09ZM52.56,25.31l15.69,5.11c.72,1.17,1.25,2.33,1.79,3.5l-16.94-6.81h-.09v.09l12.73,7.44c0,.81-.09,1.61-.27,2.51v.36l-12.64-8.52h-.09v.09l10.67,10.04c0,.63-.09,1.34-.18,1.97,0,.36-.09.72-.18,1.08l-1.25-1.34v-.63c-.18-.9-.9-1.43-2.15-1.61l-7.98-8.34h-.09v.09l5.92,8.52c-.27.09-.54.27-.72.54-.45.45-.72.99-.81,1.61l-5.02-8.25h-.09v.09l3.32,8.52c-.54,0-1.08-.18-1.7-.27-.36,0-.72-.09-1.08-.18l-1.61-5.38h0l.45,5.11c-.54,0-1.17-.18-1.79-.18l.45-7.35c.18,0,.36-.18.45-.36.09-.27.18-.54.18-.81.27-.09.45-.36.45-.72h0c0-.36,0-.54-.18-.63l.18-.45h0c0-.27,0-.45-.18-.54l.45-1.34c.36,0,.54-.09.63-.45l.18-.63c.81,0,.9,0,1.08-.18.27-.18.36-.45.36-.72s-.09-.54-.36-.72c-.18-.09-.36-.18-1.34-.18.36-.27.45-.72.45-1.43,0-1.17-.63-2.33-1.52-3.05h0c0,.36,0,.72-.18,1.17,0,0,0-.18-.09-.18-.36-.81-.81-1.7-.45-3.05h0c-.45.45-.99.99-1.34,1.7-.63-1.52-1.79-2.87-3.68-3.59h1.61c.81,0,1.61,0,2.42.09l-.36,1.34h0l1.08-1.34c.63,0,1.34.18,1.97.27l-.99,1.43v.09h0l1.79-1.34c.72.18,1.34.36,1.97.54l-2.24,1.88v.09h0l3.5-1.52c.9.36,1.7.72,2.51,1.08l-5.2,2.06v.09h0l6.9-1.34h0c1.08.63,2.15,1.34,3.14,2.06l-9.05.63h0l10.85.72c1.08.99,2.06,2.06,2.96,3.14l-13.63-2.24h0l-.63.63Z"/>
    <g>
      <path d="M41.44,46.1h.9c.09,0,.18,0,.18.18v.18c0,.09,0,.18-.18.18h-1.34c-.09,0-.18,0-.18-.18v-2.33c0-.09,0-.18.18-.18h.27c.09,0,.18,0,.18.18v1.97Z"/>
      <path d="M44.31,46.64h-.27q-.18,0-.27-.18c-.36-.99-.54-1.43-.9-2.42,0-.09,0-.18.09-.18h.27q.18,0,.27.18c.27.72.36.99.63,1.7.27-.72.36-.99.63-1.7,0-.18.09-.18.27-.18h.27c.09,0,.18,0,.09.18-.36.99-.54,1.43-.9,2.42,0,.18-.09.18-.27.18h.09Z"/>
      <path d="M46.46,46.64h-.36s-.09-.09,0-.18c.36-.45.45-.72.81-1.25-.27-.45-.45-.72-.72-1.17v-.18h.36q.18,0,.27.18c.18.27.27.45.36.72.18-.27.27-.36.36-.63,0-.09.09-.18.27-.18h.36s.09.09,0,.18c-.27.45-.45.63-.72,1.08.27.54.45.81.81,1.34v.18h-.36q-.18,0-.27-.18c-.18-.36-.27-.54-.45-.81-.18.27-.27.45-.45.81,0,.09-.18.18-.27.18v-.09Z"/>
      <path d="M36.33,52.2h-.27q-.18,0-.27-.18c-.45-.9-.63-1.34-.99-2.24,0-.09,0-.18.09-.18h.36q.18,0,.27.18c.27.63.45.99.72,1.61.27-.72.36-1.08.54-1.79,0-.18.09-.18.27-.18h.27c.09,0,.18,0,.09.18-.36.99-.45,1.52-.81,2.51,0,.18-.09.18-.27.18v-.09Z"/>
      <path d="M38.66,51.84c-.09,0-.18,0-.18-.18v-2.33c0-.09,0-.18.18-.18.63,0,.9,0,1.52-.09.09,0,.18,0,.18.18v.18c0,.09,0,.18-.18.18-.45,0-.63,0-1.08.09v.45h.72c.09,0,.18,0,.18.18v.18c0,.09,0,.18-.18.18h-.72v.54c.45,0,.63,0,1.08-.09.09,0,.18,0,.18.18v.18c0,.09,0,.18-.18.18-.63,0-.99,0-1.61.09l.09.09Z"/>
      <path d="M41.98,51.66h-.27c-.09,0-.18,0-.18-.18v-2.33c0-.09,0-.18.18-.18h.9c.54,0,.99.27.99.81,0,.36-.18.63-.45.72.18.36.36.63.54.99,0,0,0,.18-.09.18h-.36q-.18,0-.27-.18c-.18-.36-.27-.54-.45-.81h-.27v.81c0,.09,0,.18-.18.18h-.09ZM42.61,49.42h-.45v.63h.45c.18,0,.27-.18.27-.36s-.09-.27-.27-.27Z"/>
      <path d="M44.85,51.57c-.09,0-.18,0-.18-.18v-2.33c0-.09,0-.18.18-.18h.27c.09,0,.18,0,.18.18v2.33c0,.09,0,.18-.18.18h-.27Z"/>
      <path d="M47.27,51.66c-.09,0-.18,0-.18-.18v-1.97h-.63c-.09,0-.18,0-.18-.18v-.18c0-.09,0-.18.18-.18h1.88c.09,0,.18,0,.18.18v.18c0,.09,0,.18-.18.18h-.63v1.97c0,.09,0,.18-.18.18h-.27Z"/>
      <path d="M49.33,51.75h-.27c-.09,0-.18-.09-.09-.18.45-.9.63-1.34.99-2.33,0-.18.09-.18.27-.18h.27q.18,0,.27.18c.36.99.54,1.52.9,2.51,0,.09,0,.18-.09.18h-.36q-.18,0-.27-.18t-.09-.36c-.45,0-.63,0-1.08-.09,0,.09,0,.18-.18.36,0,.18-.09.18-.27.18v-.09ZM50.58,50.85c-.09-.36-.18-.54-.27-.9-.18.36-.18.54-.36.9h.63Z"/>
      <path d="M37.77,56.86h-.27c-.18,0-.27,0-.27-.18-.45-.9-.63-1.34-.99-2.24,0-.09,0-.18.09-.18h.36q.18,0,.27.18c.27.63.45.99.72,1.61.27-.72.36-1.08.63-1.79,0-.18.09-.18.27-.18h.27c.09,0,.18,0,.18.18-.36.99-.54,1.52-.9,2.51,0,.18-.09.18-.27.18l-.09-.09Z"/>
      <path d="M40.19,56.68q-.18,0-.18-.18v-2.33c0-.09,0-.18.18-.18h.27c.09,0,.18,0,.18.18v2.33c0,.09,0,.18-.18.18h-.27Z"/>
      <path d="M42.34,56.59h-.27q-.18,0-.18-.18v-2.33c0-.09,0-.18.18-.18h.9c.63,0,.99.36.99.81,0,.36-.18.63-.45.72.18.36.36.63.54.99,0,0,0,.18-.09.18h-.36q-.18,0-.27-.18c-.18-.36-.27-.54-.45-.81h-.36v.81c0,.09,0,.18-.18.18ZM42.96,54.35h-.45v.63h.45c.18,0,.27-.09.27-.27s-.09-.27-.27-.27v-.09Z"/>
      <path d="M45.65,56.59q-.18,0-.18-.18v-1.97h-.63c-.09,0-.18,0-.18-.18v-.18c0-.09,0-.18.18-.18h1.97c.09,0,.18,0,.18.18v.18c0,.09,0,.18-.18.18h-.63v1.97c0,.09,0,.18-.18.18h-.36Z"/>
      <path d="M49.06,56.68h-.27q-.18,0-.27-.18c-.36-.99-.54-1.43-.9-2.42,0-.09,0-.18.09-.18h.36q.18,0,.27.18c.27.72.36,1.08.63,1.7.27-.63.45-.99.63-1.61,0-.18.09-.18.27-.18h.27c.09,0,.18.09.09.18-.36.9-.54,1.43-.99,2.33,0,.18-.09.18-.27.18h.09Z"/>
      <g>
        <path d="M53.27,51.75c.18,0,.27,0,.27-.18,0-.09,0-.18-.18-.27-.09,0-.45-.27-.54-.36-.27-.18-.45-.45-.45-.72,0-.45.45-.81.9-.72.27,0,.54.09.72.27v.27s-.09.09-.09.18-.18.09-.27,0-.18-.18-.36-.18-.27,0-.27.18c0,.09,0,.18.18.27.09,0,.45.27.54.36.27.18.45.45.45.72,0,.54-.45.81-.99.72-.36,0-.63-.18-.9-.45-.09-.09-.09-.18,0-.27l.18-.18h.27c.18.18.36.27.45.27l.09.09Z"/>
        <path d="M51.93,56.41c.18,0,.27,0,.27-.18,0-.09,0-.18-.18-.27-.09,0-.45-.27-.54-.36-.27-.18-.45-.45-.36-.72,0-.45.45-.81.9-.72.27,0,.54.09.72.27v.27s-.09.09-.09.18-.18.09-.27,0c-.09,0-.18-.18-.36-.18s-.27,0-.27.18c0,.09,0,.18.18.27.09,0,.45.27.54.36.27.18.45.45.45.72,0,.54-.45.81-.99.72-.36,0-.63-.18-.81-.36-.09-.09-.09-.18,0-.27l.18-.18c0-.09.18,0,.27,0,.18.18.36.27.45.27h-.09Z"/>
      </g>
    </g>
    <g>
      <path d="M8.63,48.52q0,.18-.18.18h-.36q-.18,0-.18-.18v-2.06h-.27c-.09.09-.18,0-.18,0v-.27c0-.18,0-.27.18-.27h.27c.09-.09.27-.18.36-.18h.18q.18,0,.18.18s0,2.6,0,2.6Z"/>
      <path d="M10.78,48.88c-.72,0-1.17-.45-1.17-.9s.18-.54.45-.72c-.27-.18-.45-.36-.45-.72,0-.45.45-.9,1.17-.9s1.17.36,1.17.9-.18.54-.45.72c.27.18.45.45.45.72,0,.45-.45.9-1.17.9ZM10.78,47.54c-.27,0-.45.18-.45.36s.18.36.45.36.45-.18.45-.36-.18-.36-.45-.36ZM10.34,46.64c0,.18.18.36.45.36s.45-.18.45-.36-.18-.36-.45-.36-.45.18-.45.36Z"/>
    </g>
    <g>
      <path d="M77.57,48.79v-.27c-.18-.09-.18-.27,0-.27.45-.18.72-.45.9-.72-.18.09-.36.18-.54.18-.63,0-.99-.45-.99-.99s.45-1.08,1.25-1.08,1.17.45,1.17,1.17-.54,1.61-1.43,2.06c-.18,0-.27,0-.27-.09h-.09ZM77.57,46.73c0,.27.18.45.45.45s.45-.18.45-.45-.18-.45-.45-.45-.45.18-.45.45Z"/>
      <path d="M81.15,48.88c-.72,0-1.17-.45-1.17-.9s.18-.54.45-.72c-.27-.18-.45-.36-.45-.72,0-.45.45-.9,1.17-.9s1.17.36,1.17.9-.18.54-.45.72c.27.18.45.45.45.72,0,.45-.45.9-1.17.9ZM81.15,47.54c-.27,0-.45.18-.45.36s.18.36.45.36.45-.18.45-.36-.18-.36-.45-.36ZM80.7,46.64c0,.18.18.36.45.36s.45-.18.45-.36-.18-.36-.45-.36-.45.18-.45.36Z"/>
    </g>
    <path d="M44.04,28.08h-1.88s-.09,0-.09.09v.18s0,.63.09.9c.09.45.54.72,1.08.72s.9-.27.99-.81c0-.36.09-.9.09-.9v-.18h-.27ZM43.77,29.16c0,.36-.27.45-.63.45s-.63-.18-.72-.45v-.45c.36-.18,1.08-.27,1.52,0v.54l-.18-.09Z"/>
    <path d="M47.09,28.08h-2.15v.36c0,.36,0,.45.09.81,0,.54.45.81.99.81s0,0,0,0c.54,0,.9-.27,1.08-.81.09-.36.09-.9.09-.99v-.18h-.18.09ZM46.82,29.16c0,.36-.36.45-.72.54-.36,0-.63-.18-.63-.45v-.54c.45-.18,1.17-.18,1.52,0v.54l-.18-.09Z"/>
    <path d="M23.78,69.68l.18-.18c-.36-.36-.81-.72-1.25-1.08l-.18.18c.18.36.18.72-.45,1.34l-1.17,1.25c-.72.81-1.7.9-2.51.09-.72-.72-.63-1.61.18-2.42l1.43-1.34c.54-.54.72-.54,1.08-.27l.18-.18c-.54-.54-.99-1.08-1.43-1.61l-.18.18c.18.36.18.45-.36,1.08l-1.52,1.43c-.9.9-1.25,2.24,0,3.59,1.34,1.34,2.69.99,3.59,0l1.17-1.25c.63-.63.99-.72,1.34-.63l-.09-.18Z"/>
    <path d="M29.52,73.53v-.27c-.36-.27-.81-.54-1.34-.81v.18c.09.27.18.63-.27,1.43l-.99,1.7-.99-4.48c0-.36-.18-.45-.27-.54-.27-.18-.72-.54-1.17-.81l-.18.18c.18.18.18.36.27.9,0,.18,0,.36-.09.54l-1.52,2.24c-.54.72-.81.81-1.17.72l-.18.18c.45.36.9.72,1.34.99l.18-.18c-.27-.27-.27-.54.27-1.34l1.34-1.97,1.17,5.47.36.18,2.06-3.41c.45-.81.81-.9,1.17-.9h0Z"/>
    <path d="M30.68,74.07c.36.27.36.36,0,1.08l-1.25,2.78c-.36.72-.45.81-.81.72v.27c.54.36,1.25.63,1.97.9v-.27c-.27-.27-.27-.36,0-1.08l1.17-2.87c.27-.72.45-.81.81-.72v-.27c-.54-.27-1.25-.54-1.88-.9v.36Z"/>
    <path d="M37.77,76.49c.45.18.54.45.18.9l-2.15,2.6-.63-3.32c0-.45,0-.72.45-.72v-.27c-.63-.18-1.34-.45-2.15-.72v.27c.18.18.27.45.36,1.17l1.08,5.02h.36l3.23-3.76c.45-.54.81-.81,1.08-.81v-.27c-.54,0-1.17-.18-1.7-.36v.27h-.09Z"/>
    <path d="M44.31,81.69c-.36.18-.9.27-1.88.18q-.72,0-.81-.09v-.27c0-.54.09-1.25.18-1.97,1.08,0,1.34.09,1.52.18.27.09.36.27.36.45h.27v-1.61h-.27c0,.18-.18.36-.36.45h-1.43c0-.54.09-1.08.09-1.25s0-.27.09-.36h.81c1.17,0,1.43.18,2.06.72l.18-.18-.36-.99h-2.06c-.9,0-1.7-.09-2.33-.27v.27c.36.09.45.27.36,1.08l-.27,3.05c0,.81-.18.9-.63.9v.27c.63,0,1.79.18,2.51.27h2.69l.36-1.43h-.27c-.27.18-.45.45-.81.63Z"/>
    <path d="M52.38,81.33c-.54.09-1.08-.72-1.97-1.7.9-.36,1.43-.99,1.34-1.7-.09-.99-.9-1.52-2.6-1.25-.99.18-2.06.27-2.69.27v.27c.45,0,.54.18.63.9l.27,3.05c0,.81,0,.9-.36.99v.27c.54,0,1.52-.09,2.24-.18v-.27c-.45,0-.54-.09-.63-.9v-.99h.45c1.34,1.43,1.97,2.15,3.05,1.97.45,0,.81-.36.9-.72l-.18-.18c-.09.09-.18.18-.36.18h-.09ZM49.33,79.45c-.36,0-.72,0-.99.09l-.27-2.24c.27,0,.45,0,.72-.09.99-.09,1.52.27,1.61.99.09.72-.27,1.17-1.08,1.25Z"/>
    <path d="M55.87,77.21c-1.17.18-1.88.27-2.06-.45-.09-.36.09-.81.81-1.08.9-.27,1.61,0,2.33.45l.18-.18-.81-1.17h-.18s-.09.09-.18.18c-.45.18-.72,0-1.52.27-1.08.36-1.79,1.25-1.52,2.33.36,1.25,1.61,1.08,2.69.99,1.17-.18,1.79-.27,1.97.45.09.36-.09.9-.9,1.17-1.17.36-2.06.18-2.96-.54l-.18.18.81,1.34h.18c0-.09.18-.18.27-.18.54-.18.9,0,2.06-.36.99-.36,1.88-1.25,1.52-2.42-.36-1.17-1.52-1.08-2.6-.99h.09Z"/>
    <path d="M61.34,77.21l-1.34-2.78c-.36-.72-.36-.81,0-1.08v-.27c-.72.36-1.43.63-2.06.99v.27c.54-.09.63,0,.99.63l1.34,2.78c.36.72.36.81,0,1.08v.27c.81-.27,1.43-.63,2.15-.99v-.27c-.54.09-.63,0-.99-.63h-.09Z"/>
    <path d="M65.91,74.43l-1.88-2.69c-.27-.36-.18-.45,0-.63.45-.27,1.08-.36,1.88-.18l.18-.18-1.17-.9c-.54.45-1.17.9-1.97,1.43-.81.54-1.43.9-2.06,1.34l.36,1.43h.27c.09-.9.45-1.52.81-1.79.27-.18.36-.18.63.18l1.88,2.78c.45.63.45.81.18,1.08l.18.18c.63-.45,1.25-.81,1.88-1.25l-.18-.18c-.36.18-.54.09-.99-.54v-.09Z"/>
    <path d="M71.11,69.86l-.9-.9-.27-2.33c-.09-.81-.09-1.25,0-1.52l-.18-.18c-.36.45-.81.99-1.25,1.43l.18.18c.36-.27.63,0,.72.45l.18,1.79-1.88-.27c-.45,0-.63-.27-.45-.54l-.18-.18c-.54.54-1.17,1.08-1.79,1.61l.18.18h1.08l2.87.36.81.81c.54.54.63.72.36,1.08l.18.18,1.61-1.61-.18-.18c-.36.27-.45.18-1.08-.36Z"/>
    <path d="M11.23,28.53h.54l2.33,1.25c.81.45.99.72.9,1.08h.27c.27-.36.45-.9.72-1.34h-.27c-.27.09-.63.18-1.43-.27l-2.15-1.17,5.38-1.34.18-.27-3.41-2.15c-.81-.45-.9-.81-.81-1.17l-.18-.18c-.36.45-.63.9-.9,1.43l.18.18c.27-.27.54-.27,1.34.27l1.79,1.08-4.48,1.08c-.36,0-.45.18-.45.27-.09.27-.54,1.08-.72,1.43h.27c.09,0,.27-.18.81-.27l.09.09Z"/>
    <path d="M16.43,23.42c1.17,1.08,2.96,1.08,4.21-.27,1.17-1.34.99-3.14-.18-4.21-1.17-1.08-2.96-1.08-4.21.27-1.17,1.34-.99,3.14.18,4.21ZM16.7,19.57c.72-.72,1.88-.72,3.05.36,1.17.99,1.25,2.15.63,2.87-.72.72-1.88.72-3.05-.36-1.17-.99-1.25-2.15-.63-2.87Z"/>
    <path d="M21.09,16.52l1.88,2.42c.54.63.54.81.27,1.08l.18.18c.45-.45,1.08-.9,1.7-1.34l-.18-.18c-.36.18-.45.18-.99-.45l-.63-.81c.18-.09.27-.27.45-.36,1.88.63,2.78.99,3.68.36.36-.27.54-.72.54-1.08h-.27c0,.09-.09.27-.27.36-.54.36-1.43-.18-2.69-.54.63-.72.81-1.43.36-2.06-.54-.72-1.52-.99-3.14.18-.63.45-1.7,1.34-2.15,1.7l.18.18c.36-.18.54-.18.99.45l.09-.09ZM22.26,14.64c.81-.63,1.43-.54,1.88,0s.36,1.17-.36,1.61c-.27.18-.54.36-.81.54l-1.34-1.79c.18-.18.36-.36.63-.54v.18Z"/>
    <path d="M26.2,13.2c.18-.9.54-1.43.99-1.7.27-.18.36-.18.63.18.54.99,1.43,2.87,1.61,3.23.18.45.18.72-.18.9v.27c.81-.36,1.52-.72,2.24-.99v-.27c-.45.09-.63,0-.9-.45-.18-.36-1.08-2.15-1.61-3.23-.18-.36-.18-.45.18-.63.54-.18,1.08-.09,1.88.27l.18-.18-.99-1.08c-.81.36-1.52.63-2.33,1.08-.81.36-1.52.81-2.24,1.17l.27,1.43s.27,0,.27,0Z"/>
    <path d="M32.48,10.07l.9,2.96c.27.81.18.9-.18,1.08v.27c.72-.27,1.52-.45,2.15-.72v-.27c-.45,0-.63,0-.81-.81l-.45-1.43c.81-.27,1.79-.54,2.6-.72l.36,1.43c.18.81.09.9-.27,1.08v.27c.72-.18,1.52-.36,2.15-.45v-.27c-.45,0-.54,0-.72-.9l-.63-2.96c-.18-.81-.09-.9.27-1.08v-.27c-.72.09-1.52.27-2.24.45v.27c.45,0,.54,0,.72.81l.27.99c-.9.27-1.7.45-2.6.72l-.27-.99c-.27-.81-.18-.9.18-1.08v-.27c-.81.18-1.61.45-2.24.72v.27c.45,0,.63,0,.81.81v.09Z"/>
    <path d="M40.46,8.27l.27,3.05c0,.81,0,.9-.36,1.08v.27c.72,0,1.52-.18,2.42-.18h2.33l.45-1.43h-.27c-.27.18-.54.45-.81.63-.27.18-.63.27-1.52.27h-.81s-.09-.18-.09-.36c0-.27-.09-1.08-.18-1.97h1.52c.27,0,.36.27.36.45h.27v-1.61h-.27c0,.18-.09.36-.36.45-.18,0-.45.09-1.52.18,0-.45,0-.9-.09-1.25v-.27s.09,0,.63-.09c1.25,0,1.79,0,2.51.54l.18-.18-.45-.99h-2.24c-.72,0-1.88.18-2.6.27v.27c.45,0,.54.18.63.9Z"/>
    <path d="M47.63,12.22c-.45-.18-.54-.45-.27-.9l.45-.72c.36,0,.72,0,1.08.09.36,0,.72.09,1.17.18l.27.81c.09.36,0,.72-.36.72v.27c.63.09,1.43.27,2.24.45v-.27c-.27-.18-.36-.36-.54-1.08l-1.43-4.3c-.09-.27-.18-.36-.36-.36-.54,0-.99-.09-1.43-.18v.27c.18,0,.27.09.45.27s.18.27.09.45l-2.15,3.23c-.36.63-.72.9-.99.9v.27c.54,0,1.17,0,1.79.09v-.27.09ZM49.15,8.45l.63,1.97c-.27,0-.54,0-.9-.09-.27,0-.54,0-.81-.09l1.08-1.7v-.09Z"/>
    <path d="M53.45,13.29c.54.18.72.54,1.7.9.99.36,2.24.18,2.69-.99.36-1.17-.63-1.79-1.61-2.33-.99-.63-1.61-.9-1.34-1.52.09-.36.63-.63,1.34-.36.9.27,1.25.9,1.61,1.79h.27v-1.43h-.36c-.45-.18-.54-.45-1.34-.72-1.08-.36-2.24,0-2.6.99-.36,1.17.63,1.79,1.52,2.33.99.63,1.61.9,1.43,1.52-.09.36-.63.63-1.43.45-1.08-.36-1.61-1.08-1.97-2.15h-.27l-.18,1.61h.09c.09,0,.27,0,.36.09l.09-.18Z"/>
    <path d="M60.8,16.34c-.27-.27-.36-.45-.18-.9.18-.36,1.17-2.15,1.7-3.14.18-.36.27-.36.63-.18.45.27.72.81.9,1.7h.27l.36-1.43c-.72-.45-1.43-.9-2.24-1.25-.72-.36-1.52-.81-2.24-1.08l-.99,1.08.18.18c.81-.36,1.43-.36,1.97-.18.36.18.36.27.18.63-.54,1.08-1.43,2.78-1.7,3.14-.27.45-.45.54-.81.36v.27c.54.36,1.34.72,1.97,1.08,0,0,0-.27,0-.27Z"/>
    <path d="M63.67,17.06c-.45.63-.63.72-.99.54l-.18.18c.54.36,1.25.9,1.88,1.43.63.45,1.17.9,1.79,1.43l1.34-.72v-.18h-1.25c-.36,0-.63-.18-1.34-.81-.54-.36-.54-.45-.54-.54,0,0,0-.18.18-.36.09-.18.63-.9,1.17-1.61.72.45.99.72,1.08.99.09.27.09.36,0,.63l.18.18,1.08-1.25-.18-.18c-.18.09-.27.18-.63.09-.18,0-.45-.18-1.25-.81.27-.36.54-.72.81-.99.09-.09.18-.18.27-.18,0,0,.09,0,.54.36.99.81,1.34,1.17,1.52,2.06h.27l.27-1.08c-.54-.45-1.08-.9-1.7-1.43-.63-.45-1.52-1.17-2.06-1.52l-.18.18c.27.27.27.45-.18,1.08l-1.79,2.42-.09.09Z"/>
    <path d="M67.44,21.45l-.18.18c.45.45.99.99,1.52,1.61l.18-.18c-.18-.36-.18-.45.36-.99l.72-.63c.09.09.27.27.36.45-.54,1.97-.81,2.78,0,3.68.27.36.72.54,1.08.45v-.27c-.18,0-.27,0-.36-.18-.36-.45,0-1.34.36-2.6.81.63,1.52.72,2.15.18.72-.63.9-1.61-.45-3.05-.54-.63-1.43-1.52-1.88-1.97l-.18.18c.18.36.18.45-.36.99l-2.24,2.06c-.63.54-.72.54-1.08.27v-.18ZM72.19,19.48c.18.18.36.36.54.63.63.72.63,1.43,0,1.88-.54.45-1.08.45-1.7-.27-.27-.27-.45-.54-.63-.72l1.7-1.52h.09Z"/>
    <path d="M71.56,26.38l-.18.18c.27.45.63.9.9,1.43h.18c0-.45,0-.81.81-1.25l2.06-1.25-1.61,5.29.18.36,3.59-1.79c.81-.45,1.17-.36,1.43,0h.27c-.27-.63-.45-1.17-.72-1.61h-.27c0,.45,0,.72-.9,1.17l-1.88.99,1.43-4.39c.09-.36,0-.45,0-.54-.18-.27-.63-.99-.9-1.34l-.18.18v.9c0,.18-.09.27-.36.45l-2.33,1.43c-.81.45-1.17.45-1.43.18l-.09-.36Z"/>
  </g>
  <g>
    <path d="M115.66,70.13l-4.84,1.25c-.81-2.06-2.06-3.05-4.21-3.05s-4.75,2.24-4.75,6.36,1.7,6.45,4.84,6.45,3.76-1.25,4.66-3.5l4.75,1.43c-1.61,4.12-5.29,6.19-9.59,6.19s-9.86-3.05-9.86-10.58,4.75-10.49,9.95-10.49,7.44,1.61,9.05,6.01v-.09Z"/>
    <path d="M133.95,77.03c0,4.84-3.23,8.07-8.25,8.07s-8.25-3.32-8.25-8.07,3.14-8.07,8.25-8.07,8.25,3.5,8.25,8.07ZM122.38,77.03c0,2.96,1.17,4.39,3.23,4.39s3.23-1.43,3.23-4.39-1.25-4.3-3.23-4.3-3.23,1.25-3.23,4.3Z"/>
    <path d="M140.76,84.74h-4.84v-20.08h4.84v20.08Z"/>
    <path d="M148.38,84.74h-4.84v-20.08h4.84v20.08Z"/>
    <path d="M165.86,77.39v.9h-10.49c.18,2.24,1.43,3.32,3.32,3.32s2.51-.81,3.23-1.88l3.76,1.79c-1.52,2.33-3.85,3.68-7.26,3.68-5.02,0-8.07-3.41-8.07-8.07s2.87-8.07,7.8-8.07,7.71,3.23,7.71,8.43v-.09ZM155.37,75.32h5.65c-.09-2.15-1.17-3.05-2.87-3.05s-2.69.9-2.78,3.05Z"/>
    <path d="M182.98,71.65c-1.08,0-1.52,0-2.15.27.54.72.72,1.52.72,2.33,0,2.78-2.24,5.02-6.9,5.02s-2.06-.18-2.96-.45c-.27.27-.36.54-.36.9,0,.63.45.99,1.88.99h2.51c4.57,0,6.72,1.97,6.72,4.66s-2.69,4.93-8.07,4.93-7.53-1.7-7.53-3.94.81-2.33,2.24-2.96c-1.08-.63-1.52-1.61-1.52-2.6s.81-2.15,1.97-2.87c-1.34-.81-2.15-2.15-2.15-3.76,0-2.87,2.33-5.2,7.08-5.2s3.05.36,4.12.81c.99-1.17,2.42-1.97,4.57-1.97v3.85h-.18ZM171.6,84.29c-.54.36-.81.81-.81,1.34,0,.9.63,1.43,3.41,1.43s3.32-.54,3.32-1.52-.72-1.25-2.6-1.25h-3.32ZM172.04,74.07c0,1.17.9,1.97,2.42,1.97s2.42-.72,2.42-1.97-.9-1.97-2.42-1.97-2.42.81-2.42,2.06v-.09Z"/>
    <path d="M198.94,77.39v.9h-10.49c.18,2.24,1.43,3.32,3.32,3.32s2.51-.81,3.23-1.88l3.76,1.79c-1.52,2.33-3.85,3.68-7.26,3.68-5.02,0-8.07-3.41-8.07-8.07s2.87-8.07,7.8-8.07,7.71,3.23,7.71,8.43v-.09ZM188.45,75.32h5.65c-.09-2.15-1.17-3.05-2.87-3.05s-2.69.9-2.78,3.05Z"/>
    <path d="M222.78,77.03c0,4.84-3.23,8.07-8.25,8.07s-8.25-3.32-8.25-8.07,3.14-8.07,8.25-8.07,8.25,3.5,8.25,8.07ZM211.22,77.03c0,2.96,1.17,4.39,3.23,4.39s3.23-1.43,3.23-4.39-1.25-4.3-3.23-4.3-3.23,1.25-3.23,4.3Z"/>
    <path d="M234.43,64.75v3.32c-.81-.27-1.79-.45-2.69-.45s-1.61.27-1.61,1.25v.9h3.68v3.41h-3.68v11.56h-4.84v-11.56h-2.06v-3.41h2.06v-1.25c0-2.6,1.61-4.39,5.38-4.39s2.69.27,3.76.63h0Z"/>
    <path d="M252.45,81.78h-7.08l-.81,2.96h-5.11l6.36-20.08h6.36l6.45,20.08h-5.38l-.81-2.96h0ZM248.95,68.42l-2.51,9.41h4.93l-2.42-9.41Z"/>
    <path d="M269.75,69.05v4.57h-.99c-2.33,0-4.12.99-4.12,5.2v6.01h-4.84v-15.33h4.66v2.51c1.08-2.15,2.51-2.87,4.12-2.87s.81,0,1.17,0v-.09Z"/>
    <path d="M277.28,69.77h3.59v3.41h-3.59v6.27c0,1.25.36,1.79,1.7,1.79s1.34-.09,2.06-.27v3.59c-.99.36-2.15.54-3.5.54-3.85,0-5.2-1.79-5.2-4.93v-7.08h-2.06v-3.41h2.06v-3.94h4.84v3.94l.09.09Z"/>
    <path d="M296.28,71.29l-2.33,2.6c-1.34-1.08-2.6-1.52-4.12-1.52s-2.15.45-2.15,1.17.45,1.08,3.59,1.7c3.68.72,5.38,2.15,5.38,4.93s-2.6,4.93-7.17,4.93-5.83-1.08-7.62-2.6l2.33-2.78c1.61,1.34,3.23,1.88,4.75,1.88s2.69-.45,2.69-1.25-.27-1.08-3.41-1.7c-3.68-.72-5.38-2.06-5.38-4.75s3.05-4.93,6.9-4.93,5.2.99,6.72,2.33h-.18Z"/>
    <path d="M304.62,82.32c0,2.69-1.52,5.38-3.59,7.44l-2.51-1.34c.81-1.34,1.34-2.42,1.43-3.94-.9-.63-1.52-1.25-1.52-2.51s1.25-2.69,2.96-2.69,3.05,1.34,3.05,3.14l.18-.09Z"/>
    <path d="M119.52,114.32h-4.84v-14.34l-3.76,14.34h-4.66l-4.12-14.07v14.07h-4.57v-20.08h6.99l4.03,14.34,3.59-14.34h7.35v20.08h0Z"/>
    <path d="M137.26,106.97v.9h-10.49c.18,2.24,1.43,3.32,3.32,3.32s2.51-.81,3.23-1.88l3.76,1.79c-1.52,2.33-3.85,3.68-7.26,3.68-5.02,0-8.07-3.41-8.07-8.07s2.87-8.07,7.8-8.07,7.71,3.23,7.71,8.43v-.09ZM126.78,104.91h5.65c-.09-2.15-1.17-3.05-2.87-3.05s-2.69.9-2.78,3.05Z"/>
    <path d="M154.39,114.32h-4.66v-1.61c-1.08,1.34-2.69,1.97-4.48,1.97-4.03,0-6.72-3.32-6.72-8.07s3.05-8.07,6.9-8.07,3.14.54,4.03,1.61v-5.92h4.84v20.08h.09ZM143.72,106.7c0,2.87,1.17,4.3,3.14,4.3s3.05-1.34,3.05-4.3-1.25-4.39-3.05-4.39-3.14,1.52-3.14,4.39Z"/>
    <path d="M162.45,94.33c0,1.43-1.25,2.6-2.78,2.6s-2.78-1.17-2.78-2.6,1.25-2.6,2.78-2.6,2.78,1.17,2.78,2.6ZM162.09,114.32h-4.84v-15.33h4.84v15.33Z"/>
    <path d="M178.23,103.38v7.53c0,1.25,0,2.33.54,3.41h-4.66c-.27-.45-.45-.99-.54-1.52-1.08,1.43-2.6,1.88-4.39,1.88-3.23,0-5.11-1.97-5.11-4.66s1.79-4.66,6.45-5.29l2.87-.36v-.72c0-1.34-.36-1.88-1.88-1.88s-2.06.54-2.06,1.79h-4.75c.09-3.32,2.6-5.02,6.9-5.02s6.63,1.79,6.63,4.84h0ZM171.69,107.5c-1.97.27-2.69.9-2.69,1.97s.63,1.61,1.79,1.61,2.69-1.08,2.69-2.51v-1.34l-1.79.27Z"/>
    <path d="M200.28,103.38v7.53c0,1.25,0,2.33.54,3.41h-4.66c-.27-.45-.45-.99-.54-1.52-1.08,1.43-2.6,1.88-4.39,1.88-3.23,0-5.11-1.97-5.11-4.66s1.79-4.66,6.45-5.29l2.87-.36v-.72c0-1.34-.36-1.88-1.88-1.88s-2.06.54-2.06,1.79h-4.75c.09-3.32,2.6-5.02,6.9-5.02s6.63,1.79,6.63,4.84h0ZM193.74,107.5c-1.97.27-2.69.9-2.69,1.97s.63,1.61,1.79,1.61,2.69-1.08,2.69-2.51v-1.34l-1.79.27Z"/>
    <path d="M217.58,104.28v10.04h-4.84v-8.61c0-2.06-.54-3.14-2.15-3.14s-2.78,1.34-2.78,3.41v8.34h-4.84v-15.33h4.66v2.06c1.17-1.79,2.78-2.51,4.84-2.51,3.23,0,5.02,2.06,5.02,5.74h.09Z"/>
    <path d="M235.24,114.32h-4.66v-1.61c-1.08,1.34-2.69,1.97-4.48,1.97-4.03,0-6.72-3.32-6.72-8.07s3.05-8.07,6.9-8.07,3.14.54,4.03,1.61v-5.92h4.84v20.08h.09ZM224.57,106.7c0,2.87,1.17,4.3,3.14,4.3s3.05-1.34,3.05-4.3-1.25-4.39-3.05-4.39-3.14,1.52-3.14,4.39Z"/>
    <path d="M262.04,104.01c0,7.89-5.2,10.31-10.04,10.31h-7.62v-20.08h6.81c5.74,0,10.94,2.51,10.94,9.77h-.09ZM249.31,98.27v12.01h2.6c2.33,0,4.84-1.08,4.84-6.27s-1.61-5.74-5.56-5.74h-1.88,0Z"/>
    <path d="M278.89,106.97v.9h-10.49c.18,2.24,1.43,3.32,3.32,3.32s2.51-.81,3.23-1.88l3.76,1.79c-1.52,2.33-3.85,3.68-7.26,3.68-5.02,0-8.07-3.41-8.07-8.07s2.87-8.07,7.8-8.07,7.71,3.23,7.71,8.43v-.09ZM268.41,104.91h5.65c-.09-2.15-1.17-3.05-2.87-3.05s-2.69.9-2.78,3.05h0Z"/>
    <path d="M294.04,100.87l-2.33,2.6c-1.34-1.08-2.6-1.52-4.12-1.52s-2.15.45-2.15,1.17.45,1.08,3.59,1.7c3.68.72,5.38,2.15,5.38,4.93s-2.6,4.93-7.17,4.93-5.83-1.08-7.62-2.6l2.33-2.78c1.61,1.34,3.23,1.88,4.75,1.88s2.69-.45,2.69-1.25-.27-1.08-3.41-1.7c-3.68-.72-5.38-2.06-5.38-4.75s3.05-4.93,6.9-4.93,5.2.99,6.72,2.33h-.18Z"/>
    <path d="M301.39,94.33c0,1.43-1.25,2.6-2.78,2.6s-2.78-1.17-2.78-2.6,1.25-2.6,2.78-2.6,2.78,1.17,2.78,2.6ZM301.12,114.32h-4.84v-15.33h4.84v15.33Z"/>
    <path d="M319.05,101.23c-1.08,0-1.52,0-2.15.27.54.72.72,1.52.72,2.33,0,2.78-2.24,5.02-6.9,5.02s-2.06-.18-2.96-.45c-.27.27-.36.54-.36.9,0,.63.45.99,1.88.99h2.51c4.57,0,6.72,1.97,6.72,4.66s-2.69,4.93-8.07,4.93-7.53-1.7-7.53-3.94.81-2.33,2.24-2.96c-1.08-.63-1.52-1.61-1.52-2.6s.81-2.15,1.97-2.87c-1.34-.81-2.15-2.15-2.15-3.76,0-2.87,2.33-5.2,7.08-5.2s3.05.36,4.12.81c.99-1.17,2.42-1.97,4.57-1.97v3.85h-.18ZM307.67,113.87c-.54.36-.81.81-.81,1.34,0,.9.63,1.43,3.41,1.43s3.32-.54,3.32-1.52-.72-1.25-2.6-1.25h-3.32ZM308.12,103.65c0,1.17.9,1.97,2.42,1.97s2.42-.72,2.42-1.97-.9-1.97-2.42-1.97-2.42.81-2.42,2.06v-.09Z"/>
    <path d="M335.1,104.28v10.04h-4.84v-8.61c0-2.06-.54-3.14-2.15-3.14s-2.78,1.34-2.78,3.41v8.34h-4.84v-15.33h4.66v2.06c1.17-1.79,2.78-2.51,4.84-2.51,3.23,0,5.02,2.06,5.02,5.74h.09Z"/>
  </g>
  <g>
    <path d="M295.57,52.29l3.32-7.44c.63-1.43.9-1.79,1.52-1.97v-.54h-3.5v.54c1.17.27,1.25.81.72,2.06l-1.34,3.23-1.7-3.76c-.36-.81-.27-1.34.9-1.43v-.54h-4.66v.54c.54.18.81.36,1.25,1.34l2.96,6.36-.54,1.08c-.27.63-.54,1.08-.81,1.34-.18-.72-.63-1.08-1.25-1.08s-1.17.45-1.17,1.25.72,1.43,1.43,1.43c1.17,0,1.88-.54,2.69-2.51M290.82,50.05l-.27-.54c-.45.18-.9.36-1.25.36-.81,0-1.08-.45-1.08-.99v-5.38h2.24v-.99h-2.24v-1.61h-.36l-3.23,2.06v.54h1.25v5.83c0,1.17.63,1.79,1.97,1.79s1.97-.36,2.87-.99M284.09,50.32c-1.08-.18-1.25-.36-1.25-1.34v-6.81h-.9l-2.6,1.7v.36h1.25v4.75c0,.99-.18,1.17-1.25,1.34v.54h4.75v-.54ZM281.49,40.81c.72,0,1.34-.63,1.34-1.34s-.54-1.25-1.25-1.25-1.34.63-1.34,1.34.54,1.25,1.25,1.25M278.45,48.25c0-1.61-1.34-2.15-2.69-2.6-1.25-.45-2.15-.63-2.15-1.61s.36-.99,1.08-.99,1.7.54,2.69,1.61l.45-.18-.72-2.24h-.27l-.36.27c-.54-.18-1.08-.36-1.7-.36-1.88,0-3.14,1.08-3.14,2.69s1.34,2.15,2.69,2.51c1.25.45,2.15.63,2.15,1.61s-.45,1.08-1.25,1.08-2.06-.81-3.23-2.15l-.45.18.72,2.78h.27l.54-.36c.63.27,1.25.45,1.97.45,1.79,0,3.32-1.08,3.32-2.78M269.12,50.32c-1.17-.18-1.34-.45-1.34-1.52v-3.68c.36-.63.72-1.08,1.08-1.43,0,.72.45,1.17,1.08,1.17s1.17-.45,1.17-1.43-.45-1.25-1.25-1.25-1.52.72-2.15,1.79v-1.79h-.81l-2.6,1.7v.36h1.25v4.75c0,.99-.18,1.25-1.17,1.34v.54h4.75v-.54h0ZM258.01,45.47c0-1.43.63-2.33,1.79-2.33s1.34.63,1.52,1.7l-3.32,1.17v-.63M263.57,49.24l-.45-.36c-.45.54-1.17.9-2.06.9-1.61,0-2.6-1.25-2.87-2.87l5.29-1.79c-.09-1.88-1.52-2.87-3.23-2.87s-4.3,1.97-4.3,4.48,1.61,4.3,4.3,4.3c1.7,0,2.69-.72,3.32-1.79M254.24,44.94c.63-1.43.9-1.79,1.52-1.97v-.54h-3.5v.54c1.17.27,1.25.81.72,2.06l-1.34,3.23-1.7-3.76c-.36-.81-.27-1.34.9-1.43v-.54h-4.66v.54c.54.18.81.36,1.25,1.34l3.05,6.54h.9l2.78-6.1.09.09ZM246.18,50.4c-1.08-.18-1.25-.36-1.25-1.34v-6.81h-.9l-2.6,1.7v.36h1.25v4.75c0,.99-.18,1.17-1.25,1.34v.54h4.75v-.54ZM243.67,40.9c.72,0,1.34-.63,1.34-1.34s-.54-1.25-1.25-1.25-1.34.63-1.34,1.34.54,1.25,1.25,1.25M234.7,50.4c-.99-.18-1.17-.36-1.17-1.34v-4.12c.9-.81,1.61-1.17,2.24-1.17s1.08.45,1.17,1.25v4.03c0,.99-.18,1.25-1.17,1.34v.54h4.57v-.54c-.99-.18-1.17-.36-1.17-1.34v-4.21c0-1.43-.63-2.42-2.42-2.42s-2.15.72-3.23,1.61v-1.7h-.81l-2.6,1.7v.36h1.25v4.75c0,.99-.18,1.25-1.17,1.34v.54h4.57v-.54l-.09-.09ZM215.25,40.01v5.29c0,3.41,1.79,5.83,6.36,5.83s6.36-2.42,6.27-5.83v-4.3c0-2.06.54-2.6,1.61-2.87v-.54h-4.3v.54c.99.27,1.61.81,1.61,2.87v4.3c0,3.05-1.52,4.39-4.57,4.39s-4.57-1.34-4.57-4.39v-5.38c0-1.34.36-1.61,1.52-1.7v-.63h-5.38v.63c1.17.18,1.43.36,1.43,1.7"/>
    <path d="M201.09,50.4c-.99-.18-1.17-.36-1.17-1.34v-4.12c.9-.81,1.61-1.17,2.24-1.17s1.08.45,1.17,1.25v4.03c0,.99-.18,1.25-1.17,1.34v.54h4.57v-.54c-.99-.18-1.17-.36-1.17-1.34v-4.21c0-1.43-.63-2.42-2.42-2.42s-2.15.72-3.23,1.61v-1.7h-.81l-2.6,1.7v.36h1.25v4.75c0,.99-.18,1.25-1.17,1.34v.54h4.57v-.54l-.09-.09ZM194.01,50.49c-1.17-.18-1.34-.45-1.34-1.52v-3.68c.36-.63.72-1.08,1.08-1.43,0,.72.45,1.17,1.08,1.17s1.17-.45,1.17-1.43-.45-1.25-1.25-1.25-1.52.72-2.15,1.79v-1.79h-.81l-2.6,1.7v.36h1.25v4.75c0,.99-.18,1.25-1.17,1.34v.54h4.75v-.54h0ZM182.8,45.65c0-1.43.63-2.33,1.79-2.33s1.34.63,1.52,1.7l-3.32,1.17v-.63M188.45,49.42l-.45-.36c-.45.54-1.17.9-2.06.9-1.61,0-2.6-1.25-2.87-2.87l5.29-1.79c-.09-1.88-1.52-2.87-3.23-2.87-2.51,0-4.3,1.97-4.3,4.48s1.61,4.3,4.3,4.3c1.7,0,2.69-.72,3.32-1.79M180.2,50.23l-.27-.54c-.45.18-.9.36-1.25.36-.81,0-1.08-.45-1.08-.99v-5.38h2.24v-.99h-2.24v-1.61h-.36l-3.23,2.06v.54h1.25v5.83c0,1.17.63,1.79,1.97,1.79s1.97-.36,2.87-.99M173.48,48.43c0-1.61-1.34-2.15-2.69-2.6-1.25-.45-2.15-.63-2.15-1.61s.36-.99,1.08-.99,1.7.54,2.69,1.61l.45-.18-.72-2.24h-.27l-.36.27c-.54-.18-1.08-.36-1.7-.36-1.88,0-3.14,1.08-3.14,2.69s1.34,2.15,2.69,2.51c1.25.45,2.15.63,2.15,1.61s-.45,1.08-1.25,1.08-2.06-.81-3.23-2.15l-.45.18.72,2.78h.27l.54-.36c.63.27,1.25.45,1.97.45,1.79,0,3.32-1.08,3.32-2.78M159.76,48.79c0-.9.45-1.34,2.51-1.88v2.6c-.45.36-.9.54-1.34.54-.72,0-1.08-.36-1.08-1.25M163.71,51.21c.81,0,1.61-.36,2.15-.72l-.18-.54c-.9.18-1.17,0-1.17-.54v-4.75c0-1.43-.63-2.15-2.6-2.15s-3.94,1.25-3.94,2.33.36.99.99.99,1.08-.45,1.17-.99,0-.99-.36-1.17c.45-.18.9-.36,1.34-.36.81,0,1.17.27,1.17.99v1.79c-3.14.81-4.66,1.52-4.66,3.14s.81,1.97,2.15,1.97,1.79-.36,2.6-.99c.09.63.54.9,1.25.9M151.07,45.74c0-1.43.63-2.33,1.79-2.33s1.34.63,1.52,1.7l-3.32,1.17v-.63M156.72,49.51l-.45-.36c-.45.54-1.17.9-2.06.9-1.61,0-2.6-1.25-2.87-2.87l5.29-1.79c-.09-1.88-1.52-2.87-3.23-2.87s-4.3,1.97-4.3,4.48,1.61,4.3,4.3,4.3c1.7,0,2.69-.72,3.32-1.79M142.55,50.58c-.99-.18-1.17-.36-1.17-1.34v-4.12c.81-.81,1.52-1.17,2.24-1.17s1.08.45,1.17,1.25v4.03c0,.99-.18,1.25-1.17,1.34v.54h4.57v-.54c-.99-.18-1.17-.36-1.17-1.34v-4.21c0-1.43-.63-2.42-2.42-2.42s-2.15.63-3.23,1.52v-7.08h-.63l-2.87,1.88v.36h1.25v9.95c0,.99-.18,1.25-1.17,1.34v.54h4.57v-.54ZM137.44,50.32l-.27-.54c-.45.18-.9.36-1.25.36-.81,0-1.08-.45-1.08-.99v-5.38h2.24v-.99h-2.24v-1.61h-.36l-3.23,2.06v.54h1.25v5.83c0,1.17.63,1.79,1.97,1.79s1.97-.36,2.87-.99M128.75,50.58c-1.17-.18-1.34-.45-1.34-1.52v-3.68c.36-.63.72-1.08,1.08-1.43,0,.72.45,1.17,1.08,1.17s1.17-.45,1.17-1.43-.45-1.25-1.25-1.25-1.52.72-2.15,1.79v-1.79h-.81l-2.6,1.7v.36h1.25v4.75c0,.99-.18,1.25-1.17,1.34v.54h4.75v-.54h0ZM115.84,46.01c0-1.61.72-2.6,2.15-2.6s2.42,2.33,2.42,4.39c0,1.61-.72,2.6-2.15,2.6s-2.42-2.33-2.42-4.39M122.65,46.82c0-2.33-1.61-4.3-4.39-4.3s-4.57,2.06-4.57,4.48,1.61,4.3,4.39,4.3,4.57-2.06,4.57-4.48M111.09,41.26c0-2.06.54-2.6,1.61-2.87v-.54h-4.3v.54c.99.27,1.61.81,1.61,2.87v6.27l-9.05-9.14c-.54-.54-.72-.54-.99-.54h-3.32v.54c.72,0,1.17.36,1.97,1.17.27.27.54.54.54,1.08v7.08c0,2.06-.54,2.6-1.61,2.87v.54h4.3v-.54c-.99-.27-1.61-.81-1.61-2.87v-6.72l10.22,10.22h.72v-9.95h-.09Z"/>
  </g>
</svg>