<?xml version="1.0" encoding="UTF-8"?>
<svg id="Layer_1" data-name="Layer 1" xmlns="http://www.w3.org/2000/svg" viewBox="0 0 400 125">
  <g>
    <g>
      <polygon points="175.92 12.05 173.23 3.38 170.6 3.38 170.6 15.04 172.35 15.04 172.35 6.3 175.05 15.04 176.72 15.04 179.49 6.22 179.49 15.04 181.24 15.04 181.24 3.38 178.54 3.38 175.92 12.05"/>
      <rect x="184.15" y="3.38" width="1.75" height="11.65"/>
      <polygon points="187.57 3.38 187.57 4.99 190.85 4.99 190.85 15.04 192.6 15.04 192.6 4.99 195.88 4.99 195.88 3.38 187.57 3.38"/>
    </g>
    <path d="M170.6,25.74h4.37l5.61,18.13,5.46-18.13h4.44v21.85h-2.55v-19.96l-6.12,19.96h-2.55l-6.12-19.81v19.81h-2.55v-21.85Z"/>
    <path d="M204.25,25.23c1.53,0,2.84.29,4.08.8,1.17.51,2.18,1.31,3.06,2.26.8.95,1.46,2.18,1.89,3.64.44,1.46.66,2.99.66,4.81s-.22,3.35-.66,4.73-1.09,2.62-1.89,3.57c-.8.95-1.82,1.75-3.06,2.26-1.24.51-2.55.8-4.08.8s-2.84-.29-4.08-.8c-1.17-.51-2.18-1.31-3.06-2.26-.87-1.02-1.46-2.18-1.89-3.57s-.66-2.99-.66-4.73.22-3.35.66-4.81,1.09-2.62,1.89-3.64c.87-1.02,1.82-1.75,3.06-2.26,1.17-.51,2.55-.8,4.08-.8ZM204.25,45.63c2.26,0,4.01-.8,5.17-2.33,1.17-1.53,1.82-3.79,1.82-6.63s-.58-5.1-1.82-6.63-2.91-2.33-5.17-2.33-3.93.8-5.17,2.33c-1.24,1.53-1.82,3.79-1.82,6.63s.58,5.1,1.82,6.63c1.17,1.53,2.91,2.33,5.17,2.33Z"/>
    <path d="M218.38,25.74h8.67c1.24,0,2.18,0,2.99.22s1.46.36,2.04.66c.8.44,1.46,1.02,1.97,1.82s.73,1.75.73,2.69c0,1.6-.51,2.84-1.53,3.71s-2.48,1.46-4.3,1.53l6.19,11.22h-2.84l-6.19-11.14h-5.17v11.14h-2.55v-21.85ZM226.9,34.19c.95,0,1.75,0,2.4-.15s1.17-.29,1.6-.51.73-.58.87-.95c.15-.44.29-.87.29-1.46,0-1.17-.36-1.97-1.17-2.4-.73-.44-2.11-.73-4.01-.73h-5.97v6.26h5.97v-.07Z"/>
    <path d="M239.36,25.74h3.57l10.56,19.3v-19.3h2.55v21.85h-3.79l-10.41-18.86v18.86h-2.55v-21.85h.07Z"/>
    <path d="M262.59,25.74h2.55v21.85h-2.55v-21.85Z"/>
    <path d="M270.67,25.74h3.57l10.56,19.3v-19.3h2.55v21.85h-3.79l-10.41-18.86v18.86h-2.55v-21.85h.07Z"/>
    <path d="M308.54,36.3h-9.18v-2.26h11.73v9.32c-.73,1.46-1.82,2.62-3.28,3.42-1.46.8-3.13,1.24-5.03,1.24s-2.99-.29-4.3-.8c-1.24-.51-2.33-1.31-3.2-2.33-.87-1.02-1.53-2.26-2.04-3.71-.44-1.46-.73-3.06-.73-4.88s.22-3.28.66-4.59c.44-1.38,1.09-2.55,1.97-3.5s1.89-1.68,3.13-2.18c1.24-.51,2.55-.8,4.08-.8s3.06.36,4.3.95c1.17.66,2.26,1.68,3.28,3.06l-1.82,2.18c-1.02-2.69-2.99-4.01-5.83-4.01s-3.93.8-5.24,2.33c-1.24,1.53-1.89,3.71-1.89,6.48s.22,2.77.58,3.93c.36,1.17.87,2.18,1.6,3.06.66.87,1.53,1.46,2.48,1.97s2.04.66,3.2.66,2.18-.22,3.06-.66c.87-.44,1.75-1.17,2.48-2.11v-6.77Z"/>
    <path d="M317.43,39.94c.15,1.89.8,3.35,1.82,4.37,1.09,1.02,2.55,1.46,4.44,1.46s1.53-.07,2.18-.29c.66-.22,1.24-.51,1.68-.87.44-.36.8-.8,1.09-1.31s.36-1.09.36-1.75-.15-1.17-.36-1.68-.58-.95-1.09-1.24c-.22-.15-.44-.29-.66-.44-.22-.15-.44-.22-.73-.36-.29-.07-.58-.22-.95-.29-.36-.07-.8-.22-1.31-.36l-2.48-.66c-1.17-.29-2.04-.58-2.62-.87-.58-.29-1.17-.66-1.6-1.17-.87-.95-1.31-2.11-1.31-3.57s.66-3.28,1.89-4.3c1.31-1.02,3.06-1.53,5.39-1.53,3.93,0,6.55,1.46,7.87,4.44l-2.18,1.89c-.29-.87-.66-1.53-.95-1.97-.36-.44-.8-.87-1.31-1.24-.44-.29-1.02-.51-1.6-.66-.66-.15-1.31-.22-1.97-.22-1.38,0-2.48.29-3.28.87s-1.17,1.38-1.17,2.4,0,.87.15,1.17c.15.29.36.58.66.87.29.22.73.44,1.31.66.58.22,1.24.44,2.11.66l2.4.58c1.17.29,2.04.58,2.69.87.66.29,1.24.66,1.75,1.02,1.38,1.17,2.04,2.77,2.04,4.73s-.22,1.97-.58,2.77-.87,1.53-1.6,2.11-1.53,1.02-2.48,1.31c-1.02.29-2.11.44-3.28.44-2.4,0-4.3-.51-5.83-1.6-1.46-1.09-2.48-2.62-2.91-4.66l2.4-1.75v.15Z"/>
    <path d="M336.73,25.74h2.55v21.85h-2.55v-21.85Z"/>
    <path d="M345.69,25.74h5.39c.95,0,1.82,0,2.55.07.73,0,1.46.15,2.04.29s1.17.29,1.68.58.95.51,1.46.8c1.31.95,2.33,2.18,2.99,3.86.66,1.6,1.02,3.5,1.02,5.68s-.22,3.13-.58,4.44c-.44,1.31-1.02,2.4-1.75,3.28-.8.87-1.75,1.6-2.84,2.11s-2.4.73-3.79.73h-8.01v-21.85h-.15ZM351.51,45.33c.87,0,1.6,0,2.33-.07.66,0,1.24-.15,1.75-.29s.95-.29,1.31-.51.73-.44,1.02-.8c.73-.73,1.31-1.68,1.75-2.84.36-1.17.58-2.48.58-4.01s-.29-3.2-.8-4.52-1.24-2.33-2.18-3.06c-.66-.51-1.46-.87-2.33-1.09s-1.97-.36-3.35-.36h-3.28v17.41h3.28l-.07.15Z"/>
    <path d="M367.1,25.74h13.69v2.26h-11.14v5.61h9.76v2.26h-9.76v9.61h11.14v2.26h-13.69v-21.99Z"/>
    <path d="M176.07,58.52h3.13l7.94,21.85h-2.77l-2.04-5.68h-9.47l-1.97,5.68h-2.77l7.94-21.85ZM181.53,72.43l-3.93-11.07-3.93,11.07h7.87,0Z"/>
    <path d="M207.16,75.41c-1.53,3.64-4.22,5.46-8.16,5.46s-5.39-.95-6.99-2.91-2.4-4.73-2.4-8.38.8-6.55,2.4-8.59c1.6-1.97,3.93-2.99,6.92-2.99s3.35.44,4.73,1.24,2.4,1.97,3.06,3.42l-1.97,2.11c-.95-2.99-2.91-4.52-5.9-4.52s-3.79.8-4.95,2.4c-1.17,1.6-1.75,3.86-1.75,6.7s.58,5.17,1.82,6.77c1.24,1.6,2.91,2.4,5.1,2.4s4.95-1.68,5.97-4.95l2.04,1.82h.07Z"/>
    <path d="M216.85,58.52h3.13l7.94,21.85h-2.77l-2.04-5.68h-9.47l-1.97,5.68h-2.77l7.94-21.85ZM222.31,72.43l-3.93-11.07-3.93,11.07h7.87Z"/>
    <path d="M231.49,58.52h5.39c.95,0,1.82,0,2.55.07.73,0,1.46.15,2.04.29s1.17.29,1.68.58.95.51,1.46.8c1.31.95,2.33,2.18,2.99,3.86.66,1.6,1.02,3.5,1.02,5.68s-.22,3.13-.58,4.44c-.44,1.31-1.02,2.4-1.75,3.28-.8.87-1.75,1.6-2.84,2.11-1.09.51-2.4.73-3.79.73h-8.01v-21.85h-.15ZM237.32,78.11c.87,0,1.6,0,2.33-.07.66,0,1.24-.15,1.75-.29s.95-.29,1.31-.51c.36-.22.73-.44,1.02-.8.73-.73,1.31-1.68,1.75-2.84.36-1.17.58-2.48.58-4.01s-.29-3.2-.8-4.52-1.24-2.33-2.18-3.06c-.66-.51-1.46-.87-2.33-1.09s-1.97-.36-3.35-.36h-3.28v17.41h3.28l-.07.15Z"/>
    <path d="M252.83,58.52h13.69v2.26h-11.14v5.61h9.76v2.26h-9.76v9.61h11.14v2.26h-13.69v-21.99Z"/>
    <path d="M270.6,58.52h4.37l5.61,18.13,5.46-18.13h4.44v21.85h-2.55v-19.96l-6.12,19.96h-2.55l-6.12-19.81v19.81h-2.55v-21.85h0Z"/>
    <path d="M301.33,71.48l-7.5-12.96h3.06l5.83,10.2,5.61-10.2h2.99l-7.57,13.18v8.67h-2.55v-8.89h.15Z"/>
    <g>
      <polygon points="318.52 70.17 320.27 70.17 320.27 64.2 324.49 64.2 324.49 62.52 320.27 62.52 320.27 60.12 325.51 60.12 325.51 58.52 318.52 58.52 318.52 70.17"/>
      <path d="M335.78,59.9c-.44-.51-1.02-.95-1.68-1.24-.66-.29-1.38-.44-2.18-.44s-1.53.15-2.18.44-1.17.73-1.68,1.24c-.44.51-.8,1.17-1.02,1.89s-.36,1.6-.36,2.55.15,1.75.36,2.48.58,1.38,1.02,1.89,1.02.95,1.68,1.24c.66.29,1.38.44,2.18.44s1.53-.15,2.18-.44,1.17-.73,1.68-1.24c.44-.51.8-1.17,1.02-1.89s.36-1.6.36-2.48-.15-1.75-.36-2.55c-.22-.73-.58-1.38-1.02-1.89ZM335.27,64.34c0,1.38-.29,2.48-.87,3.2-.58.73-1.38,1.09-2.48,1.09s-1.89-.36-2.48-1.09-.87-1.82-.87-3.2.29-2.48.87-3.28c.58-.73,1.38-1.09,2.4-1.09s1.89.36,2.48,1.09.87,1.82.87,3.28h.07Z"/>
      <path d="M345.18,64.42c.8-.07,1.46-.36,1.97-.8.58-.51.87-1.24.87-2.11s-.15-1.02-.44-1.53c-.29-.44-.66-.8-1.09-1.02-.36-.15-.73-.29-1.09-.36-.36,0-.95-.07-1.53-.07h-4.66v11.65h1.75v-5.68h2.26l3.13,5.68h2.04l-3.2-5.75ZM340.95,60.12h2.84c.95,0,1.6.07,1.89.29s.44.51.44,1.02,0,.51-.15.66c0,.15-.22.29-.36.36-.22.07-.44.22-.73.22s-.73.07-1.17.07h-2.84v-2.69l.07.07Z"/>
    </g>
    <path d="M170.68,91.29h5.39c.95,0,1.82,0,2.55.07.73,0,1.46.15,2.04.29s1.17.29,1.68.58.95.51,1.46.8c1.31.95,2.33,2.18,2.99,3.86.66,1.6,1.02,3.5,1.02,5.68s-.22,3.13-.58,4.44c-.44,1.31-1.02,2.4-1.75,3.28-.8.87-1.75,1.6-2.84,2.11s-2.4.73-3.79.73h-8.01v-21.85h-.15ZM176.5,110.88c.87,0,1.6,0,2.33-.07.66,0,1.24-.15,1.75-.29s.95-.29,1.31-.51.73-.44,1.02-.8c.73-.73,1.31-1.68,1.75-2.84.36-1.17.58-2.48.58-4.01s-.29-3.2-.8-4.52-1.24-2.33-2.18-3.06c-.66-.51-1.46-.87-2.33-1.09s-1.97-.36-3.35-.36h-3.28v17.41h3.28l-.07.15Z"/>
    <path d="M192.02,91.29h13.69v2.26h-11.14v5.61h9.76v2.26h-9.76v9.61h11.14v2.26h-13.69v-21.99Z"/>
    <path d="M210.66,105.49c.15,1.89.8,3.35,1.82,4.37,1.09,1.02,2.55,1.46,4.44,1.46s1.53-.07,2.18-.29c.66-.22,1.24-.51,1.68-.87.44-.36.8-.8,1.09-1.31s.36-1.09.36-1.75-.15-1.17-.36-1.68-.58-.95-1.09-1.24c-.22-.15-.44-.29-.66-.44-.22-.15-.44-.22-.73-.36-.29-.07-.58-.22-.95-.29-.36-.07-.8-.22-1.31-.36l-2.48-.66c-1.17-.29-2.04-.58-2.62-.87-.58-.29-1.17-.66-1.6-1.17-.87-.95-1.31-2.11-1.31-3.57s.66-3.28,1.89-4.3c1.31-1.02,3.06-1.53,5.39-1.53,3.93,0,6.55,1.46,7.87,4.44l-2.18,1.89c-.29-.87-.66-1.53-.95-1.97-.36-.44-.8-.87-1.31-1.24-.44-.29-1.02-.51-1.6-.66-.66-.15-1.31-.22-1.97-.22-1.38,0-2.48.29-3.28.87s-1.17,1.38-1.17,2.4,0,.87.15,1.17c.15.29.36.58.66.87.29.22.73.44,1.31.66.58.22,1.24.44,2.11.66l2.4.58c1.17.29,2.04.58,2.69.87.66.29,1.24.66,1.75,1.02,1.38,1.17,2.04,2.77,2.04,4.73s-.22,1.97-.58,2.77-.87,1.53-1.6,2.11-1.53,1.02-2.48,1.31c-1.02.29-2.11.44-3.28.44-2.4,0-4.3-.51-5.83-1.6-1.46-1.09-2.48-2.62-2.91-4.66l2.4-1.75v.15Z"/>
    <path d="M229.89,91.29h2.55v21.85h-2.55v-21.85Z"/>
    <path d="M253.63,101.85h-9.18v-2.26h11.73v9.32c-.73,1.46-1.82,2.62-3.28,3.42-1.46.8-3.13,1.24-5.03,1.24s-2.99-.29-4.3-.8c-1.24-.51-2.33-1.31-3.2-2.33-.87-1.02-1.53-2.26-2.04-3.71-.44-1.46-.73-3.06-.73-4.88s.22-3.28.66-4.59c.44-1.38,1.09-2.55,1.97-3.5s1.89-1.68,3.13-2.18c1.24-.51,2.55-.8,4.08-.8s3.06.36,4.3.95c1.17.66,2.26,1.68,3.28,3.06l-1.82,2.18c-1.02-2.69-2.99-4.01-5.83-4.01s-3.93.8-5.24,2.33c-1.24,1.53-1.89,3.71-1.89,6.48s.22,2.77.58,3.93c.36,1.17.87,2.18,1.6,3.06.66.87,1.53,1.46,2.48,1.97s2.04.66,3.2.66,2.18-.22,3.06-.66c.87-.44,1.75-1.17,2.48-2.11v-6.77h0Z"/>
    <path d="M260.99,91.29h3.57l10.56,19.3v-19.3h2.55v21.85h-3.79l-10.41-18.86v18.86h-2.55v-21.85h.07Z"/>
  </g>
  <g>
    <path d="M50.36,2h-16.75l-7.28,32.12L18.9,2H2v112.67h48.29V2h.07ZM25.09,41.84h2.48L35.87,4.91h11.51v43.92H4.99V4.91h11.65s8.45,36.93,8.45,36.93ZM4.99,51.74h42.39v13.26h-13.84l-7.28,32.12-7.36-32.12H4.99v-13.26ZM47.45,111.83H4.91v-43.92h11.65l8.45,36.93h2.48l8.38-36.93h11.51v43.92h.07Z"/>
    <path d="M84.95,50.14V2h-14.2v48.07l-16.68,62.71-.66,1.89h48.58l-.66-1.89-16.39-62.71v.07ZM84.88,61.43l4.81,18.57-4.88-13.77v-4.81h.07ZM73.67,4.91h8.38v43.92h-8.38V4.91ZM73.3,51.74h8.67v13.26h-10.85l-5.17,14.42,7.36-27.68ZM57.5,111.83l15.66-43.92h9.25l15.44,43.92s-40.35,0-40.35,0Z"/>
    <path d="M148.03,78.18V2h-41v112.67h22.07c12.53,0,20.54-10.2,20.54-26s-.58-7.5-1.6-10.56v.07ZM129.53,65h-8.59l2.99-13.26h9.98V13.22h11.22v59.28c-3.5-4.81-8.89-7.5-15.66-7.5h.07ZM145.11,10.3h-14.13v38.53h-6.85V10.3h-14.13v-5.39h35.18v5.39h-.07ZM109.94,13.22h11.22v37.22l-3.28,14.49h-7.94V13.22ZM129.09,111.83h-19.15v-43.92h19.52c10.78,0,17.26,7.79,17.26,20.83s-6.77,23.09-17.63,23.09Z"/>
  </g>
</svg>