<?xml version="1.0" encoding="UTF-8"?>
<svg id="Layer_1" data-name="Layer 1" xmlns="http://www.w3.org/2000/svg" viewBox="0 0 240 125">
  <g>
    <path d="M2,2h2.22v10.37h-2.22V2Z"/>
    <path d="M6.11,6.44v-1.3h2.02v1.11c.26-.33.85-1.24,2.41-1.24s2.02.85,2.22,1.37c.13.46.2.78.2,2.15v3.91h-2.15v-4.5c0-.33,0-.59-.13-.78-.13-.33-.46-.59-1.04-.59s-.85.2-1.11.59c-.13.2-.26.52-.26,1.11v4.24h-2.15v-6.07Z"/>
    <path d="M19.03,12.24c-.72.2-1.3.26-1.63.26-2.15,0-2.15-1.37-2.15-1.96v-3.98h-1.37v-1.37h1.37v-1.44l2.09-.78v2.22h1.7v1.37h-1.7v3.26c0,.65,0,1.04.98,1.04s.46,0,.72,0c0,0,0,1.37,0,1.37Z"/>
    <path d="M22.09,9.31c0,.46,0,1.96,1.5,1.96s1.04-.2,1.24-.98h1.96c0,.33-.13.98-.72,1.57-.52.59-1.5.85-2.54.85s-1.76-.13-2.54-.91c-.65-.72-.91-1.63-.91-2.81s.26-2.54,1.5-3.39c.59-.39,1.24-.59,2.02-.59s2.28.39,2.94,1.76c.46.98.46,2.02.46,2.67h-4.83v-.13h-.07ZM24.77,7.94c0-.33,0-1.63-1.24-1.63s-1.3.78-1.37,1.63h2.61Z"/>
    <path d="M28.29,6.89c0-.33,0-1.37-.13-1.83h1.96v1.37c.33-.59.78-1.5,2.48-1.37v1.89c-2.15-.2-2.28.91-2.28,1.83v3.59h-2.09v-5.48h.07Z"/>
    <path d="M33.9,6.44v-1.3h2.02v1.11c.26-.33.85-1.24,2.41-1.24s2.02.85,2.22,1.37c.13.46.2.78.2,2.15v3.91h-2.15v-4.5c0-.33,0-.59-.13-.78-.13-.33-.46-.59-1.04-.59s-.85.2-1.11.59c-.13.2-.26.52-.26,1.11v4.24h-2.15v-6.07Z"/>
    <path d="M46.95,12.37v-.98c-.78,1.17-1.76,1.17-2.15,1.17-1.04,0-1.5-.33-1.83-.59-.46-.46-.65-1.04-.65-1.57s.2-1.63,1.5-2.22c.91-.39,2.15-.39,2.87-.39,0-.46,0-.72-.13-.98-.2-.52-.72-.59-.91-.59-.33,0-.59.13-.78.39-.13.26-.13.46-.13.65h-2.09c0-.39,0-1.17.78-1.7.65-.46,1.5-.59,2.22-.59s1.89.13,2.54.91c.46.59.52,1.44.52,1.76v2.94c0,.59,0,1.24.2,1.83h-1.89l-.07-.07ZM44.34,10.15c0,.46.33,1.04,1.04,1.04s.72-.2.91-.39c.39-.46.39-1.04.39-1.76-1.37-.13-2.35.33-2.35,1.17h0v-.07Z"/>
    <path d="M54.84,12.24c-.72.2-1.3.26-1.63.26-2.15,0-2.15-1.37-2.15-1.96v-3.98h-1.37v-1.37h1.37v-1.44l2.09-.78v2.22h1.7v1.37h-1.7v3.26c0,.65,0,1.04.98,1.04s.46,0,.72,0c0,0,0,1.37,0,1.37Z"/>
    <path d="M56.08,2.07h2.28v1.83h-2.28s0-1.83,0-1.83ZM56.15,5.13h2.09v7.24h-2.09v-7.24Z"/>
    <path d="M63.52,5c2.61,0,3.72,1.76,3.72,3.78s-1.17,3.85-3.78,3.85-3.72-1.3-3.72-3.78.91-3.85,3.72-3.85h.07ZM63.58,11.13c.91,0,1.57-.59,1.57-2.48s-.2-2.28-1.57-2.28-1.57,1.76-1.57,2.41c0,1.63.52,2.35,1.57,2.35Z"/>
    <path d="M68.87,6.44v-1.3h2.02v1.11c.26-.33.85-1.24,2.41-1.24s2.02.85,2.22,1.37c.13.46.2.78.2,2.15v3.91h-2.15v-4.5c0-.33,0-.59-.13-.78-.13-.33-.46-.59-1.04-.59s-.85.2-1.11.59c-.13.2-.26.52-.26,1.11v4.24h-2.15v-6.07Z"/>
    <path d="M81.92,12.37c-.07-.46-.07-.78-.07-.98-.78,1.17-1.76,1.17-2.15,1.17-1.04,0-1.5-.33-1.83-.59-.46-.46-.65-1.04-.65-1.57s.2-1.63,1.5-2.22c.91-.39,2.15-.39,2.87-.39,0-.46,0-.72-.13-.98-.2-.52-.72-.59-.91-.59-.33,0-.59.13-.78.39-.13.26-.13.46-.13.65h-2.09c0-.39,0-1.17.78-1.7.65-.46,1.5-.59,2.22-.59s1.89.13,2.54.91c.46.59.52,1.44.52,1.76v2.94c0,.59,0,1.24.2,1.83h-1.89v-.07ZM79.31,10.15c0,.46.33,1.04,1.04,1.04s.72-.2.91-.39c.39-.46.39-1.04.39-1.76-1.37-.13-2.35.33-2.35,1.17h0v-.07Z"/>
    <path d="M85.57,2h2.09v10.37h-2.09V2Z"/>
  </g>
  <g>
    <path d="M2,21.11h2.22v10.37h-2.22s0-10.37,0-10.37Z"/>
    <path d="M6.11,25.55v-1.3h2.02v1.11c.26-.33.85-1.24,2.41-1.24s2.02.85,2.22,1.37c.13.46.2.78.2,2.15v3.91h-2.15v-4.5c0-.33,0-.59-.13-.78-.13-.33-.46-.59-1.04-.59s-.85.2-1.11.59c-.13.2-.26.52-.26,1.11v4.24h-2.15s0-6.07,0-6.07Z"/>
    <path d="M16.29,29.4c0,.46.33.98,1.17.98s1.11-.46,1.11-.85-.2-.59-.98-.78l-1.3-.33c-.59-.2-1.83-.52-1.83-2.02s1.3-2.28,3.13-2.28,2.67.72,2.74,2.15h-1.96c0-.78-.72-.85-1.04-.85-.59,0-.98.26-.98.72s.33.59.98.78l1.3.33c1.3.33,1.96,1.04,1.96,2.02s-1.04,2.48-3.33,2.48-1.83-.2-2.48-.91c-.46-.52-.52-1.04-.52-1.44,0,0,2.02,0,2.02,0Z"/>
    <path d="M26.2,31.42c-.72.2-1.3.26-1.63.26-2.15,0-2.15-1.37-2.15-1.96v-3.98h-1.37v-1.37h1.37v-1.44l2.09-.78v2.22h1.7v1.37h-1.7v3.26c0,.65,0,1.04.98,1.04s.46,0,.72,0v1.37Z"/>
    <path d="M27.44,21.18h2.28v1.83h-2.28v-1.83ZM27.51,24.25h2.09v7.24h-2.09v-7.24Z"/>
    <path d="M35.73,31.42c-.72.2-1.3.26-1.63.26-2.15,0-2.15-1.37-2.15-1.96v-3.98h-1.37v-1.37h1.37v-1.44l2.09-.78v2.22h1.7v1.37h-1.7v3.26c0,.65,0,1.04.98,1.04s.46,0,.72,0v1.37Z"/>
    <path d="M39.12,24.31v4.31c0,.65,0,1.57,1.11,1.57s1.37-1.04,1.37-2.22v-3.65h2.15v7.24h-2.09v-.98c-.26.33-.85,1.17-2.22,1.17s-1.76-.46-2.15-.98c-.46-.59-.46-1.57-.46-1.96v-4.5h2.28Z"/>
    <path d="M50.08,31.42c-.72.2-1.3.26-1.63.26-2.15,0-2.15-1.37-2.15-1.96v-3.98h-1.37v-1.37h1.37v-1.44l2.09-.78v2.22h1.7v1.37h-1.7v3.26c0,.65,0,1.04.98,1.04s.46,0,.72,0c0,0,0,1.37,0,1.37Z"/>
    <path d="M53.08,28.42c0,.46,0,1.96,1.5,1.96s1.04-.2,1.24-.98h1.96c0,.33-.13.98-.72,1.57-.52.59-1.5.85-2.54.85s-1.76-.13-2.54-.91c-.65-.72-.91-1.63-.91-2.81s.26-2.54,1.5-3.39c.59-.39,1.24-.59,2.02-.59s2.28.39,2.94,1.76c.46.98.46,2.02.46,2.67h-4.83v-.13h-.07ZM55.76,27.12c0-.33,0-1.63-1.24-1.63s-1.3.78-1.37,1.63h2.61Z"/>
    <path d="M63.45,25.81h-1.04v-1.5h1.04v-.98c0-1.3.46-2.28,2.48-2.28s.52,0,1.17,0v1.5h-.46c-1.11,0-1.11.59-1.11.91v.85h1.37v1.5h-1.37v5.74h-2.09v-5.74h0Z"/>
    <path d="M71.48,24.12c2.61,0,3.72,1.76,3.72,3.78s-1.17,3.85-3.78,3.85-3.72-1.3-3.72-3.78.91-3.85,3.72-3.85h.07ZM71.48,30.31c.91,0,1.57-.59,1.57-2.48s-.2-2.28-1.57-2.28-1.57,1.76-1.57,2.41c0,1.63.52,2.35,1.57,2.35Z"/>
    <path d="M76.83,26.07c0-.33,0-1.37-.13-1.83h1.96v1.37c.33-.59.78-1.5,2.48-1.37v1.89c-2.15-.2-2.28.91-2.28,1.83v3.59h-2.09v-5.48h.07Z"/>
  </g>
  <g>
    <path d="M2,40.23h2.22v10.37h-2.22v-10.37Z"/>
    <path d="M6.11,44.67v-1.3h2.02v1.11c.26-.33.85-1.24,2.41-1.24s2.02.85,2.22,1.37c.13.46.2.78.2,2.15v3.91h-2.15v-4.5c0-.33,0-.59-.13-.78-.13-.33-.46-.59-1.04-.59s-.85.2-1.11.59c-.13.2-.26.52-.26,1.11v4.24h-2.15s0-6.07,0-6.07Z"/>
    <path d="M14.92,44.86h-1.04v-1.5h1.04v-.98c0-1.3.46-2.28,2.48-2.28s.52,0,1.17,0v1.5h-.46c-1.11,0-1.11.59-1.11.91v.85h1.37v1.5h-1.37v5.74h-2.09v-5.74h0Z"/>
    <path d="M22.94,43.17c2.61,0,3.72,1.76,3.72,3.78s-1.17,3.85-3.78,3.85-3.72-1.3-3.72-3.78.91-3.85,3.72-3.85h.07ZM23.01,49.36c.91,0,1.57-.59,1.57-2.48s-.2-2.28-1.57-2.28-1.57,1.76-1.57,2.41c0,1.63.52,2.35,1.57,2.35Z"/>
    <path d="M28.29,45.12c0-.33,0-1.37-.13-1.83h1.96v1.37c.33-.59.78-1.5,2.48-1.37v1.89c-2.15-.2-2.28.91-2.28,1.83v3.59h-2.09v-5.48h.07Z"/>
    <path d="M33.9,44.73v-1.37h2.02v.91c.33-.33.85-1.11,2.28-1.11s2.15,1.04,2.28,1.37c.59-1.17,1.57-1.37,2.35-1.37,1.44,0,2.02.85,2.22,1.17.39.65.33,1.5.33,2.15v4.04h-2.15v-4.24c0-.78-.13-1.63-1.24-1.63s-1.3,1.17-1.3,2.28v3.59h-2.15v-4.31c0-.59,0-1.57-1.17-1.57s-1.3,1.17-1.3,1.63v4.24h-2.15v-5.87h.07l-.07.07Z"/>
    <path d="M51.71,50.6v-.98c-.78,1.17-1.76,1.17-2.15,1.17-1.04,0-1.5-.33-1.83-.59-.46-.46-.65-1.04-.65-1.57s.2-1.63,1.5-2.22c.91-.39,2.15-.39,2.87-.39,0-.46,0-.72-.13-.98-.2-.52-.72-.59-.91-.59-.33,0-.59.13-.78.39-.13.26-.13.46-.13.65h-2.09c0-.39,0-1.17.78-1.7.65-.46,1.5-.59,2.22-.59s1.89.13,2.54.91c.46.59.52,1.44.52,1.76v2.94c0,.59,0,1.24.2,1.83h-1.89l-.07-.07ZM49.1,48.32c0,.46.33,1.04,1.04,1.04s.72-.2.91-.39c.39-.46.39-1.04.39-1.76-1.37-.13-2.35.33-2.35,1.17h0v-.07Z"/>
    <path d="M59.61,50.47c-.72.2-1.3.26-1.63.26-2.15,0-2.15-1.37-2.15-1.96v-3.98h-1.37v-1.37h1.37v-1.44l2.09-.78v2.22h1.7v1.37h-1.7v3.26c0,.65,0,1.04.98,1.04s.46,0,.72,0c0,0,0,1.37,0,1.37Z"/>
    <path d="M60.84,40.23h2.28v1.83h-2.28v-1.83ZM60.91,43.36h2.09v7.24h-2.09v-7.24Z"/>
    <path d="M68.28,43.17c2.61,0,3.72,1.76,3.72,3.78s-1.17,3.85-3.78,3.85-3.72-1.3-3.72-3.78.91-3.85,3.72-3.85h.07ZM68.28,49.36c.91,0,1.57-.59,1.57-2.48s-.2-2.28-1.57-2.28-1.57,1.76-1.57,2.41c0,1.63.52,2.35,1.57,2.35Z"/>
    <path d="M73.63,44.67v-1.3h2.02v1.11c.26-.33.85-1.24,2.41-1.24s2.02.85,2.22,1.37c.13.46.2.78.2,2.15v3.91h-2.15v-4.5c0-.33,0-.59-.13-.78-.13-.33-.46-.59-1.04-.59s-.85.2-1.11.59c-.13.2-.26.52-.26,1.11v4.24h-2.15s0-6.07,0-6.07Z"/>
  </g>
  <g>
    <path d="M2.07,57.91h3.39c.59,0,2.35,0,3.59.91,1.3.98,1.76,2.61,1.76,4.04,0,3.2-1.7,4.83-3.65,5.22-.39,0-.78.13-1.89.13h-3.2s0-10.31,0-10.31ZM4.35,66.52h.85c.91,0,1.76,0,2.41-.72.85-.85.91-2.41.91-2.94,0-1.44-.52-2.81-1.89-3.2-.46-.13-1.04-.2-2.35-.13v6.92h.07v.07Z"/>
    <path d="M14.13,65.15c0,.46,0,1.96,1.5,1.96s1.04-.2,1.24-.98h1.96c0,.33-.13.98-.72,1.57-.52.59-1.5.85-2.54.85s-1.76-.13-2.54-.91c-.65-.72-.91-1.63-.91-2.81s.26-2.54,1.5-3.39c.59-.39,1.24-.59,2.02-.59s2.28.39,2.94,1.76c.46.98.46,2.02.46,2.67h-4.83v-.13h-.07ZM16.81,63.85c0-.33,0-1.63-1.24-1.63s-1.3.78-1.37,1.63h2.61Z"/>
    <path d="M21.83,66.13c0,.46.33.98,1.17.98s1.11-.46,1.11-.85-.2-.59-.98-.78l-1.3-.33c-.59-.2-1.83-.52-1.83-2.02s1.3-2.28,3.13-2.28,2.67.72,2.74,2.15h-1.96c0-.78-.72-.85-1.04-.85-.59,0-.98.26-.98.72s.33.59.98.78l1.3.33c1.3.33,1.96,1.04,1.96,2.02s-1.04,2.48-3.33,2.48-1.83-.2-2.48-.91c-.46-.52-.52-1.04-.52-1.44,0,0,2.02,0,2.02,0Z"/>
    <path d="M27.44,57.91h2.28v1.83h-2.28v-1.83ZM27.51,61.04h2.09v7.24h-2.09v-7.24Z"/>
    <path d="M38.34,61.04c0,.59-.13,1.04-.13,1.76v5.35c0,2.67-2.22,2.94-3.59,2.94s-3.07-.13-3.2-2.35h2.02c0,.2.13.98,1.24.98s1.17-.33,1.3-.91c0-.33,0-.59.13-1.7-.65.91-1.44.98-1.96.98-2.09,0-3.07-1.83-3.07-3.52s1.04-3.59,3.07-3.59,1.83.72,2.02,1.04v-.98s2.15,0,2.15,0ZM34.68,66.65c1.5,0,1.5-1.76,1.5-2.09,0-.78-.13-2.22-1.44-2.22s-1.44.59-1.44,2.15,0,2.09,1.44,2.09h-.07v.07Z"/>
    <path d="M40.29,62.35v-1.3h2.02v1.11c.26-.33.85-1.24,2.41-1.24s2.02.85,2.22,1.37c.13.46.2.78.2,2.15v3.91h-2.15v-4.5c0-.33,0-.59-.13-.78-.13-.33-.46-.59-1.04-.59s-.85.2-1.11.59c-.13.2-.26.52-.26,1.11v4.24h-2.15s0-6.07,0-6.07Z"/>
  </g>
  <path d="M102.6,2h14.74v69.09h-14.74V2Z"/>
  <path d="M129.08,2h14.74v69.09h-14.74V2Z"/>
  <path d="M155.57,2h14.74v69.09h-14.74V2Z"/>
  <path d="M182.58,2h22.9c3.85.07,15.53.2,23.88,6.33,8.74,6.39,11.81,17.35,11.81,27.2,0,21.27-11.42,32.42-24.53,34.77-2.61.46-5.48.78-12.46.78h-21.59V2ZM197.58,59.67c1.63,0,4.11.2,5.87.2,6.33,0,11.81-.46,16.11-4.76s6.2-16.18,6.2-19.57c0-9.79-3.33-18.79-12.66-21.4-3.07-.85-6.98-1.37-15.53-.98v46.45h0v.07Z"/>
</svg>