<?xml version="1.0" encoding="UTF-8"?>
<svg id="Layer_1" xmlns="http://www.w3.org/2000/svg" version="1.1" viewBox="0 0 3510 477">
  <!-- Generator: Adobe Illustrator 29.4.0, SVG Export Plug-In . SVG Version: 2.1.0 Build 152)  -->
  <path d="M450,36.2v161.8h-162V36.2h162M477,9.1h-216v215.9h216V9.1h0Z"/>
  <rect x="153" y="9" width="72" height="216"/>
  <rect x="153" y="252" width="72" height="144"/>
  <rect x="9" y="252" width="72" height="144"/>
  <rect x="333" y="81" width="72" height="72"/>
  <rect x="9" y="189" width="144" height="36"/>
  <rect x="9" y="81" width="72" height="117"/>
  <rect x="81" y="396" width="72" height="72"/>
  <rect x="261" y="432" width="216" height="36"/>
  <rect x="261" y="252" width="216" height="36"/>
  <rect x="333" y="252" width="72" height="189"/>
  <g>
    <path d="M564.7,188.2l21.6-15.7c8.2,14.6,18.7,20.8,31.2,20.8,18.9,0,28.5-10.4,28.5-38.5V23.8h31.2v133.8c0,34.7-16.7,62.9-56.2,62.9-26.2,0-44.3-11-56.3-32.2Z"/>
    <path d="M713.5,144.9c0-48.1,32.3-75.9,68.1-75.9s68.1,27.8,68.1,75.9-32.3,75.6-68.1,75.6-68.1-27.8-68.1-75.6ZM818,144.9c0-30.2-14-50.6-36.3-50.6s-36.3,20.3-36.3,50.6,14,50.3,36.3,50.3c22.3,0,36.3-20,36.3-50.3Z"/>
    <path d="M882.9,163.4v-90.9h30.9v86.9c0,24.8,7.2,34.5,24,34.5s22.3-6.3,34.1-21.4v-100h30.9v144.4h-25.3l-2.4-21.7h-.9c-12.9,15.3-27,25.2-46.8,25.2-30.8,0-44.3-20.5-44.3-57.1Z"/>
    <path d="M1043.5,72.5h25.3l2.4,25.9h.9c10.2-18.7,25.3-29.5,41.1-29.5s11.6.9,16.1,2.9l-5.5,26.9c-5-1.5-8.6-2.4-14.6-2.4-11.7,0-25.8,8.2-34.9,30.9v89.6h-30.9V72.5h0Z"/>
    <path d="M1156,72.5h25.3l2.4,19.9h.9c13.2-12.9,27.9-23.5,47.7-23.5,30.8,0,44.3,20.5,44.3,57.1v90.9h-30.9v-86.9c0-24.8-7.2-34.5-24-34.5s-22.3,6.7-35,19.3v102.1h-30.9V72.5Z"/>
    <path d="M1307.5,178.5c0-31.1,26.1-47.1,86.1-53.6-.3-16.5-6.6-31-27.4-31s-29.1,6.9-41.4,14.6l-11.5-20.7c15.1-9.6,35.4-18.9,58.5-18.9,35.8,0,52.7,22.6,52.7,61.5v86.5h-25.3l-2.4-16.4h-.9c-13.2,11.2-28.4,19.9-45.8,19.9-24.9,0-42.6-16.5-42.6-41.9ZM1393.6,179.3v-34.9c-42.1,5.2-56.2,16-56.2,31.8s9.5,19.9,22.2,19.9c12.5,0,22.2-6.1,34-16.7Z"/>
    <path d="M1464.5,182.4V8h30.9v176.2c0,8.1,3.6,11,7.1,11s2.7,0,5.3-.6l3.9,23.2c-3.9,1.5-9.1,2.7-16.7,2.7-22.2,0-30.6-14.3-30.6-38.1Z"/>
    <path d="M1608.6,144.9c0-48.1,32.3-75.9,68.1-75.9s68.1,27.8,68.1,75.9-32.3,75.6-68.1,75.6-68.1-27.8-68.1-75.6ZM1713.1,144.9c0-30.2-14-50.6-36.3-50.6s-36.3,20.3-36.3,50.6,14,50.3,36.3,50.3c22.3,0,36.3-20,36.3-50.3Z"/>
    <path d="M1763.8,74l21-1.5h58.3v24.7h-79.3v-23.2h0ZM1783.3,55.1c0-29.8,13.6-50.6,46.1-50.6s19.2,2.4,25.7,5l-6.1,23.2c-5.3-2.3-10.9-3.5-15.9-3.5-12.5,0-19,8.2-19,25.6v162.2h-30.9V55.1Z"/>
    <path d="M1921.6,23.8h33l28.5,99.5c6.4,22.2,10.8,41,17.5,63.1h1.2c6.7-22.2,11.2-41,17.5-63.2l28.1-99.4h31.8l-60.3,193.1h-36.7l-60.5-193.1Z"/>
    <path d="M2102.9,27.7c0-10.8,8.4-18.1,19.6-18.1s19.6,7.3,19.6,18.1-8.4,18.1-19.6,18.1-19.6-7.5-19.6-18.1ZM2106.9,72.5h30.9v144.4h-30.9V72.5Z"/>
    <path d="M2166.3,200.4l14.6-19.8c12.7,10,25.2,16.4,40.8,16.4s24.8-8.3,24.8-18.9-16.1-18.8-31.7-24.7c-19.4-7.2-41.4-17.8-41.4-42s19.7-42.5,51.7-42.5,35.4,7.9,47,16.9l-14.3,19.2c-10.1-7.4-20.2-12.7-32.1-12.7s-23.1,7.8-23.1,17.5,14.9,16.8,30.8,22.6c19.9,7.5,42.2,16.6,42.2,43.7s-19.3,44.2-55,44.2c-20,0-40.5-8.5-54.4-20.1Z"/>
    <path d="M2304.9,163.4v-90.9h30.9v86.9c0,24.8,7.2,34.5,24,34.5s22.3-6.3,34.1-21.4v-100h30.9v144.4h-25.4l-2.4-21.7h-.9c-12.9,15.3-27.1,25.2-46.8,25.2-30.8,0-44.3-20.5-44.3-57.1Z"/>
    <path d="M2457.2,178.5c0-31.1,26.1-47.1,86.1-53.6-.3-16.5-6.6-31-27.4-31s-29.1,6.9-41.4,14.6l-11.5-20.7c15.1-9.6,35.5-18.9,58.5-18.9,35.8,0,52.7,22.6,52.7,61.5v86.5h-25.4l-2.4-16.4h-.9c-13.2,11.2-28.4,19.9-45.8,19.9-24.9,0-42.6-16.5-42.6-41.9ZM2543.4,179.3v-34.9c-42.1,5.2-56.2,16-56.2,31.8s9.5,19.9,22.2,19.9c12.5,0,22.2-6.1,34-16.7Z"/>
    <path d="M2614.2,182.4V8h30.9v176.2c0,8.1,3.6,11,7.1,11s2.7,0,5.3-.6l3.9,23.2c-3.9,1.5-9.1,2.7-16.7,2.7-22.2,0-30.6-14.3-30.6-38.1Z"/>
    <path d="M2683.7,27.7c0-10.8,8.4-18.1,19.6-18.1s19.6,7.3,19.6,18.1-8.4,18.1-19.6,18.1c-11.2,0-19.6-7.5-19.6-18.1ZM2687.7,72.5h30.9v144.4h-30.9V72.5Z"/>
    <path d="M2750.6,200.4l70.6-103.2h-62.7v-24.7h101.5v16.5l-70.6,103.2h72.9v24.7h-111.7v-16.5h0Z"/>
    <path d="M2886.3,178.5c0-31.1,26.1-47.1,86.1-53.6-.3-16.5-6.6-31-27.4-31s-29.1,6.9-41.4,14.6l-11.5-20.7c15.1-9.6,35.5-18.9,58.5-18.9,35.8,0,52.7,22.6,52.7,61.5v86.5h-25.4l-2.4-16.4h-.9c-13.2,11.2-28.4,19.9-45.8,19.9-24.9,0-42.6-16.5-42.6-41.9ZM2972.4,179.3v-34.9c-42.1,5.2-56.2,16-56.2,31.8s9.5,19.9,22.2,19.9c12.5,0,22.2-6.1,34-16.7Z"/>
    <path d="M3046.9,169.5v-72.3h-20.9v-23.2l22.4-1.5,3.7-39.8h25.7v39.8h37.6v24.7h-37.6v72.4c0,17.2,6.3,26.1,21.1,26.1s11.1-1.7,15.5-3.5l5.4,22.9c-7.9,2.6-17.9,5.3-28.6,5.3-32.5,0-44.2-20.6-44.2-50.9Z"/>
    <path d="M3145,27.7c0-10.8,8.4-18.1,19.6-18.1s19.6,7.3,19.6,18.1-8.4,18.1-19.6,18.1-19.6-7.5-19.6-18.1ZM3149.1,72.5h30.9v144.4h-30.9V72.5Z"/>
    <path d="M3212.8,144.9c0-48.1,32.3-75.9,68.1-75.9s68.1,27.8,68.1,75.9-32.3,75.6-68.1,75.6-68.1-27.8-68.1-75.6ZM3317.3,144.9c0-30.2-14-50.6-36.4-50.6s-36.4,20.3-36.4,50.6,14,50.3,36.4,50.3c22.3,0,36.4-20,36.4-50.3Z"/>
    <path d="M3383.2,72.5h25.4l2.4,19.9h.9c13.2-12.9,27.9-23.5,47.7-23.5,30.8,0,44.3,20.5,44.3,57.1v90.9h-30.9v-86.9c0-24.8-7.2-34.5-24-34.5s-22.3,6.7-35,19.3v102.1h-30.9V72.5h0Z"/>
  </g>
  <g>
    <path d="M590.3,430.5c0-31.1,26.1-47.1,86.1-53.5-.3-16.5-6.5-31-27.4-31s-29.1,6.9-41.4,14.6l-11.5-20.7c15-9.6,35.5-18.9,58.5-18.9,35.8,0,52.7,22.6,52.7,61.5v86.5h-25.3l-2.4-16.4h-.9c-13.2,11.2-28.4,19.9-45.8,19.9-24.9,0-42.6-16.5-42.6-41.9ZM676.4,431.3v-34.9c-42.1,5.2-56.2,16-56.2,31.8s9.5,19.9,22.2,19.9c12.5,0,22.2-6.1,34-16.7Z"/>
    <path d="M747.4,324.5h25.3l2.4,19.9h.9c13.2-12.9,28-23.5,47.7-23.5,30.8,0,44.3,20.5,44.3,57.1v90.9h-30.9v-86.9c0-24.8-7.2-34.5-24-34.5s-22.3,6.6-35,19.3v102.1h-30.9v-144.4h0Z"/>
    <path d="M902.3,396.9c0-47,29.5-75.9,61.6-75.9s27,6.2,38.7,16.1l-1.2-23.8v-53.4h30.9v209h-25.3l-2.4-16.1h-.9c-10.9,10.9-25.9,19.6-41.9,19.6-36,0-59.3-27.8-59.3-75.6ZM1001.3,429.5v-70c-10.7-9.5-20.8-13-31.2-13-19.8,0-36,19-36,50s12.7,50.3,35,50.3c11.9,0,22-5.4,32.3-17.3Z"/>
    <path d="M1155.3,275.8h31.2v193.1h-31.2v-193.1Z"/>
    <path d="M1230,324.5h25.3l2.4,19.9h.9c13.2-12.9,27.9-23.5,47.7-23.5,30.8,0,44.3,20.5,44.3,57.1v90.9h-30.9v-86.9c0-24.8-7.2-34.5-24-34.5s-22.3,6.6-35,19.3v102.1h-30.9v-144.4h0Z"/>
    <path d="M1394.4,421.5v-72.3h-20.9v-23.2l22.4-1.5,3.7-39.8h25.7v39.8h37.6v24.7h-37.6v72.4c0,17.2,6.3,26.1,21.1,26.1s11.1-1.7,15.5-3.5l5.4,22.9c-7.9,2.6-17.9,5.3-28.7,5.3-32.5,0-44.2-20.6-44.2-51Z"/>
    <path d="M1480.7,396.9c0-47,32.3-75.9,66-75.9s59,27.7,59,68.3-.6,12.1-1.4,15.6h-93.4c2.5,27.2,19.7,43.5,44.3,43.5s23.7-4.1,34.3-10.8l10.6,19.5c-13.4,9-30.2,15.4-48.9,15.4-39.4,0-70.5-28-70.5-75.6ZM1578.9,383.6c0-24.4-10.9-38.6-31.5-38.6s-33.8,13.8-36.8,38.6h68.3Z"/>
    <path d="M1639.7,324.5h25.3l2.4,25.9h.9c10.2-18.7,25.3-29.5,41.1-29.5s11.6.9,16.1,3l-5.5,26.9c-5-1.5-8.6-2.4-14.6-2.4-11.7,0-25.8,8.2-34.9,30.9v89.6h-30.9v-144.4h0Z"/>
    <path d="M1743.5,430.5c0-31.1,26.1-47.1,86.1-53.5-.3-16.5-6.6-31-27.4-31s-29.1,6.9-41.4,14.6l-11.5-20.7c15.1-9.6,35.5-18.9,58.5-18.9,35.8,0,52.7,22.6,52.7,61.5v86.5h-25.3l-2.4-16.4h-.9c-13.2,11.2-28.4,19.9-45.8,19.9-24.9,0-42.6-16.5-42.6-41.9ZM1829.6,431.3v-34.9c-42.1,5.2-56.2,16-56.2,31.8s9.5,19.9,22.2,19.9c12.5,0,22.2-6.1,34-16.7Z"/>
    <path d="M1893.5,396.9c0-48.1,33.5-75.9,71.5-75.9s31.9,7.3,42.2,16.5l-15.2,20.1c-7.9-7-15.7-11.3-25.5-11.3-24.2,0-41.3,20.3-41.3,50.6s16.6,50.3,40.3,50.3,22.7-5.8,31.2-13.1l12.8,20.5c-13.3,11.9-30.3,18-47,18-39.1,0-69-27.8-69-75.6Z"/>
    <path d="M2051.5,421.5v-72.3h-20.9v-23.2l22.4-1.5,3.7-39.8h25.7v39.8h37.6v24.7h-37.6v72.4c0,17.2,6.3,26.1,21.1,26.1s11.1-1.7,15.5-3.5l5.4,22.9c-7.9,2.6-17.9,5.3-28.6,5.3-32.5,0-44.2-20.6-44.2-51Z"/>
    <path d="M2149.7,279.7c0-10.8,8.4-18.1,19.6-18.1s19.6,7.3,19.6,18.1-8.4,18.1-19.6,18.1-19.6-7.5-19.6-18.1ZM2153.7,324.5h30.9v144.4h-30.9v-144.4Z"/>
    <path d="M2217.4,396.9c0-48.1,32.3-75.9,68.1-75.9s68.1,27.8,68.1,75.9-32.3,75.6-68.1,75.6-68.1-27.8-68.1-75.6ZM2321.9,396.9c0-30.2-14-50.6-36.4-50.6s-36.4,20.3-36.4,50.6,14,50.3,36.4,50.3,36.4-20,36.4-50.3Z"/>
    <path d="M2387.8,324.5h25.4l2.4,19.9h.9c13.2-12.9,27.9-23.5,47.7-23.5,30.8,0,44.3,20.5,44.3,57.1v90.9h-30.9v-86.9c0-24.8-7.2-34.5-24-34.5s-22.3,6.6-35,19.3v102.1h-30.9v-144.4h0Z"/>
  </g>
</svg>