<?xml version="1.0" encoding="UTF-8"?>
<svg id="Layer_1" xmlns="http://www.w3.org/2000/svg" version="1.1" viewBox="0 0 310.8 66.6">
  <!-- Generator: Adobe Illustrator 29.4.0, SVG Export Plug-In . SVG Version: 2.1.0 Build 152)  -->
  <defs>
    <style>
      .st0 {
        fill: #010101;
      }
    </style>
  </defs>
  <g>
    <path class="st0" d="M15.7,26.8v-12.8l51.2,48.5h1.6V19.2c0-9.7,3.3-12.9,9.8-15.4v-1.6h-21.4v1.6c6.5,2.5,9.8,5.7,9.8,15.4v28.6L21.4,4.3c-2.1-1.9-2.6-2.2-4-2.2H.4v1.6c3.7.4,6,1.4,11.4,6.7l2.1,2v14.3h1.8Z"/>
    <g>
      <path d="M11.6,31.3c.4,0,.6,0,1.1,0,.1,0,.2,0,.2.2,0,.1,0,.2,0,.3,0,.2,0,.2-.2.2-.6,0-1,0-1.6,0-.2,0-.2,0-.2-.2,0-1.1,0-1.7,0-2.8,0-.2,0-.2.2-.2.1,0,.2,0,.3,0,.1,0,.2,0,.2.2,0,.9,0,1.4,0,2.3Z"/>
      <path d="M15,32c-.1,0-.2,0-.3,0-.2,0-.2,0-.3-.2-.4-1.1-.6-1.7-1-2.8,0-.1,0-.2.1-.2.1,0,.2,0,.4,0,.2,0,.2,0,.3.2.3.8.4,1.2.7,2,.3-.8.4-1.2.7-2,0-.2.1-.2.3-.2.1,0,.2,0,.3,0,.1,0,.2.1.1.2-.4,1.1-.6,1.7-1,2.8,0,.2-.1.2-.3.2Z"/>
      <path d="M17.6,32c-.2,0-.3,0-.4,0-.1,0-.2-.1,0-.2.4-.6.6-.9,1-1.5-.3-.6-.5-.8-.8-1.4,0,0,0-.2.1-.2.2,0,.3,0,.4,0,.2,0,.2,0,.3.2.2.3.3.5.5.8.2-.3.3-.5.5-.8,0-.2.2-.2.3-.2.2,0,.2,0,.4,0,0,0,.2.1.1.2-.3.5-.5.8-.8,1.3.4.6.6.9.9,1.5,0,0,0,.2-.1.2-.2,0-.3,0-.5,0-.2,0-.3,0-.3-.2-.2-.4-.3-.6-.6-1-.2.4-.3.6-.6.9,0,.2-.2.2-.3.2Z"/>
      <path d="M5.6,38.5c-.1,0-.2,0-.3,0-.2,0-.3,0-.3-.2-.5-1.1-.7-1.6-1.2-2.7,0-.1,0-.2.1-.2.2,0,.2,0,.4,0,.2,0,.3,0,.3.2.3.8.5,1.1.8,1.9.3-.8.4-1.3.7-2.1,0-.2.1-.2.3-.3.1,0,.2,0,.3,0,.1,0,.2,0,.2.2-.4,1.2-.6,1.8-1,3,0,.2-.1.2-.3.3Z"/>
      <path d="M8.3,38.1c-.2,0-.2,0-.2-.2,0-1.1,0-1.7,0-2.8,0-.2,0-.2.2-.3.7,0,1.1,0,1.8-.2.2,0,.2,0,.2.2,0,0,0,.1,0,.2,0,.2,0,.2-.2.3-.5,0-.8,0-1.3.1,0,.2,0,.3,0,.6.4,0,.5,0,.9,0,.2,0,.2,0,.2.2,0,0,0,.1,0,.2,0,.2,0,.2-.2.3-.4,0-.5,0-.9,0,0,.3,0,.4,0,.6.5,0,.8,0,1.3-.1.2,0,.2,0,.2.2,0,0,0,.1,0,.2,0,.2,0,.2-.2.3-.8,0-1.1,0-1.9.2Z"/>
      <path d="M12.3,37.9c-.1,0-.2,0-.3,0-.2,0-.2,0-.2-.2,0-1.1,0-1.7,0-2.8,0-.2,0-.2.2-.2.4,0,.6,0,1.1,0,.7,0,1.1.4,1.1,1,0,.4-.2.7-.5.9.3.5.4.7.7,1.2,0,0,0,.2-.1.2-.2,0-.2,0-.4,0-.2,0-.3,0-.3-.2-.2-.4-.3-.6-.5-1-.1,0-.2,0-.4,0,0,.4,0,.6,0,1,0,.2,0,.2-.2.2ZM13,35.2c-.2,0-.3,0-.5,0,0,.3,0,.4,0,.7.2,0,.3,0,.5,0,.2,0,.4-.2.3-.4,0-.2-.2-.4-.4-.4Z"/>
      <path d="M15.7,37.8c-.2,0-.2,0-.2-.2,0-1.1,0-1.7,0-2.8,0-.2,0-.2.2-.2.1,0,.2,0,.3,0,.2,0,.2,0,.2.2,0,1.1,0,1.7,0,2.8,0,.2,0,.2-.2.2-.1,0-.2,0-.3,0Z"/>
      <path d="M18.5,37.9c-.2,0-.2,0-.2-.2,0-.9,0-1.4,0-2.3-.3,0-.4,0-.7,0-.2,0-.2,0-.2-.2,0-.1,0-.2,0-.3,0-.2,0-.2.2-.2.9,0,1.3,0,2.2.1.2,0,.2,0,.2.2,0,.1,0,.2,0,.3,0,.2,0,.2-.2.2-.3,0-.4,0-.7,0,0,.9,0,1.4,0,2.3,0,.2,0,.2-.2.2-.1,0-.2,0-.3,0Z"/>
      <path d="M20.9,38c-.1,0-.2,0-.3,0-.1,0-.2-.1-.1-.2.5-1.1.7-1.6,1.2-2.7,0-.2.1-.2.3-.2.1,0,.2,0,.3,0,.2,0,.2,0,.3.2.4,1.2.6,1.8,1.1,2.9,0,.1,0,.2-.2.2-.2,0-.2,0-.4,0-.2,0-.3,0-.3-.2,0-.2,0-.3-.1-.4-.5,0-.7,0-1.2-.1,0,.2,0,.2-.2.4,0,.2-.1.2-.3.2ZM22.4,36.9c-.1-.4-.2-.6-.4-1.1-.2.4-.2.6-.4,1,.3,0,.5,0,.8,0Z"/>
      <path d="M7.2,44.1c-.1,0-.2,0-.3,0-.2,0-.3,0-.3-.2-.5-1.1-.7-1.6-1.2-2.7,0-.1,0-.2.1-.2.2,0,.2,0,.4,0,.2,0,.3,0,.3.2.3.8.5,1.2.8,1.9.3-.8.4-1.3.7-2.1,0-.2.1-.2.3-.2.1,0,.2,0,.3,0,.1,0,.2,0,.2.2-.4,1.2-.6,1.8-1,2.9,0,.2-.1.2-.3.3Z"/>
      <path d="M10.1,43.8c-.2,0-.2,0-.2-.2,0-1.1,0-1.7,0-2.8,0-.2,0-.2.2-.2.1,0,.2,0,.3,0,.2,0,.2,0,.2.2,0,1.1,0,1.7,0,2.8,0,.2,0,.2-.2.2-.1,0-.2,0-.4,0Z"/>
      <path d="M12.6,43.7c-.1,0-.2,0-.4,0-.2,0-.2,0-.2-.2,0-1.1,0-1.7,0-2.8,0-.2,0-.2.2-.2.4,0,.7,0,1.1,0,.7,0,1.2.4,1.2,1,0,.4-.2.7-.5.9.3.5.4.7.7,1.2,0,0,0,.2-.1.2-.2,0-.3,0-.4,0-.2,0-.3,0-.4-.2-.2-.4-.3-.6-.5-1-.2,0-.2,0-.4,0,0,.4,0,.6,0,1,0,.2,0,.2-.2.2ZM13.4,41.1c-.2,0-.3,0-.5,0,0,.3,0,.4,0,.7.2,0,.3,0,.5,0,.2,0,.4-.2.4-.4,0-.2-.2-.4-.4-.4Z"/>
      <path d="M16.6,43.7c-.2,0-.2,0-.2-.2,0-.9,0-1.4,0-2.3-.3,0-.5,0-.8,0-.2,0-.2,0-.2-.2,0-.1,0-.2,0-.3,0-.2,0-.2.2-.2.9,0,1.4,0,2.3,0,.2,0,.2,0,.2.2,0,.1,0,.2,0,.3,0,.2,0,.2-.2.2-.3,0-.5,0-.8,0,0,.9,0,1.4,0,2.3,0,.2,0,.2-.2.2-.1,0-.2,0-.4,0Z"/>
      <path d="M20.7,43.9c-.1,0-.2,0-.3,0-.2,0-.3,0-.3-.2-.4-1.2-.6-1.7-1.1-2.9,0-.1,0-.2.2-.2.2,0,.2,0,.4,0,.2,0,.3,0,.3.2.3.8.4,1.2.7,2.1.3-.8.5-1.2.8-2,0-.2.1-.2.3-.2.1,0,.2,0,.3,0,.1,0,.2.1.2.2-.5,1.1-.7,1.7-1.2,2.8,0,.2-.2.2-.3.2Z"/>
      <g>
        <path d="M25.6,37.9c.2,0,.3,0,.3-.2,0-.1,0-.2-.2-.3-.1,0-.5-.4-.6-.4-.3-.2-.5-.5-.5-.9,0-.5.5-.9,1.1-.9.3,0,.6.2.8.4,0,0,0,.2,0,.3,0,0-.1.1-.1.2,0,.1-.2.1-.3,0-.1-.1-.3-.2-.4-.2-.2,0-.3,0-.3.2,0,.1,0,.2.2.3.1,0,.5.4.6.4.3.2.5.6.5.9,0,.6-.5.9-1.2.9-.4,0-.8-.2-1-.5-.1-.1-.1-.2,0-.3,0,0,.1-.1.2-.2.1-.1.2,0,.3,0,.2.2.4.3.6.3Z"/>
        <path d="M24,43.5c.2,0,.3,0,.3-.2,0-.1,0-.2-.2-.3-.1,0-.5-.4-.6-.4-.3-.2-.5-.5-.5-.9,0-.5.5-.9,1.1-.9.3,0,.6.1.8.4,0,0,0,.2,0,.3,0,0-.1.1-.1.2,0,.1-.2.1-.3,0-.1-.1-.3-.2-.4-.2-.2,0-.3,0-.3.2,0,.1,0,.2.2.3.1,0,.5.4.6.4.3.2.5.6.5.9,0,.6-.5.9-1.2.9-.4,0-.8-.2-1-.5-.1-.1-.1-.2,0-.3,0,0,.1-.1.2-.2.1-.1.2,0,.3,0,.2.2.4.3.6.3Z"/>
      </g>
    </g>
    <path class="st0" d="M15.7,46.2h-1.9c-.2,8.9-3.5,11.9-9.8,14.3v1.6h21.4v-1.6c-6.3-2.4-9.5-5.4-9.8-14.3Z"/>
  </g>
  <g>
    <path class="st0" d="M94.3,51.9l-3.4.9c-.6-1.4-1.4-2.1-2.9-2.1s-3.3,1.6-3.3,4.4,1.2,4.5,3.4,4.5,2.6-.9,3.2-2.4l3.3,1c-1.1,2.9-3.7,4.3-6.7,4.3s-6.9-2.1-6.9-7.4,3.3-7.3,6.9-7.3,5.2,1.1,6.3,4.2Z"/>
    <path class="st0" d="M106.2,57v.6h-7.3c.1,1.5,1,2.3,2.3,2.3s1.8-.6,2.3-1.3l2.6,1.3c-1,1.6-2.7,2.6-5.1,2.6-3.5,0-5.6-2.4-5.6-5.6s2-5.6,5.4-5.6,5.4,2.2,5.4,5.9ZM98.9,55.6h3.9c0-1.5-.8-2.1-2-2.1s-1.9.6-2,2.1Z"/>
    <path class="st0" d="M117.7,55.1v7h-3.4v-6c0-1.5-.4-2.2-1.5-2.2s-1.9.9-1.9,2.4v5.8h-3.4v-10.7h3.2v1.4c.8-1.2,2-1.7,3.4-1.7,2.2,0,3.5,1.4,3.5,4Z"/>
    <path class="st0" d="M123.4,51.7h2.5v2.4h-2.5v4.4c0,.9.3,1.3,1.2,1.3s1,0,1.5-.2v2.5c-.7.2-1.5.4-2.4.4-2.7,0-3.6-1.3-3.6-3.4v-4.9h-1.4v-2.4h1.4v-2.8h3.4v2.8Z"/>
    <path class="st0" d="M137.4,57v.6h-7.3c0,1.5,1,2.3,2.3,2.3s1.8-.6,2.3-1.3l2.6,1.3c-1,1.6-2.7,2.6-5.1,2.6-3.5,0-5.6-2.4-5.6-5.6s2-5.6,5.4-5.6,5.4,2.2,5.4,5.9ZM130.1,55.6h3.9c0-1.5-.8-2.1-2-2.1s-1.9.6-2,2.1Z"/>
    <path class="st0" d="M145.7,51.2v3.2c-.4,0-.5,0-.7,0-1.6,0-2.9.7-2.9,3.6v4.2h-3.4v-10.7h3.2v1.7c.7-1.5,1.8-2,2.9-2s.5,0,.8,0Z"/>
    <path class="st0" d="M157.6,48.2v2.3c-.5-.2-1.2-.3-1.9-.3s-1.1.2-1.1.9v.6h2.5v2.4h-2.5v8.1h-3.4v-8.1h-1.4v-2.4h1.4v-.9c0-1.8,1.1-3.1,3.7-3.1s1.9.2,2.6.4Z"/>
    <path class="st0" d="M169.1,56.8c0,3.4-2.2,5.6-5.8,5.6s-5.8-2.3-5.8-5.6,2.2-5.6,5.8-5.6,5.8,2.4,5.8,5.6ZM161,56.7c0,2,.8,3.1,2.3,3.1s2.2-1,2.2-3.1-.9-3-2.2-3-2.3.9-2.3,3Z"/>
    <path class="st0" d="M177.3,51.2v3.2c-.4,0-.5,0-.7,0-1.6,0-2.9.7-2.9,3.6v4.2h-3.4v-10.7h3.2v1.7c.7-1.5,1.8-2,2.9-2s.5,0,.8,0Z"/>
    <path class="st0" d="M194.9,54.9c0,5.5-3.6,7.2-7,7.2h-5.3v-14h4.7c4,0,7.6,1.8,7.6,6.8ZM186.1,50.9v8.4h1.8c1.6,0,3.4-.8,3.4-4.4s-1.1-4-3.9-4h-1.3Z"/>
    <path class="st0" d="M206.6,57v.6h-7.3c.1,1.5,1,2.3,2.3,2.3s1.8-.6,2.3-1.3l2.6,1.3c-1,1.6-2.7,2.6-5.1,2.6-3.5,0-5.6-2.4-5.6-5.6s2-5.6,5.4-5.6,5.4,2.2,5.4,5.9ZM199.3,55.6h3.9c0-1.5-.8-2.1-2-2.1s-1.9.6-2,2.1Z"/>
    <path class="st0" d="M217.2,52.7l-1.6,1.8c-.9-.7-1.8-1.1-2.9-1.1s-1.5.3-1.5.8.3.7,2.5,1.2c2.5.5,3.7,1.5,3.7,3.5s-1.8,3.5-5,3.5-4-.7-5.3-1.8l1.6-1.9c1.1,1,2.2,1.3,3.3,1.3s1.9-.3,1.9-.9-.2-.8-2.4-1.2c-2.5-.5-3.8-1.5-3.8-3.3s2.1-3.4,4.8-3.4,3.6.7,4.7,1.6Z"/>
    <path class="st0" d="M222.2,48.2c0,1-.9,1.8-1.9,1.8s-1.9-.8-1.9-1.8.9-1.8,1.9-1.8,1.9.8,1.9,1.8ZM222,62.1h-3.4v-10.7h3.4v10.7Z"/>
    <path class="st0" d="M234.5,53c-.7,0-1.1,0-1.5.2.4.5.5,1,.5,1.6,0,1.9-1.6,3.5-4.8,3.5s-1.5-.1-2.1-.3c-.2.2-.3.4-.3.6,0,.4.3.7,1.3.7h1.7c3.2,0,4.7,1.4,4.7,3.3s-1.9,3.4-5.6,3.4-5.3-1.2-5.3-2.7.5-1.6,1.5-2.1c-.8-.4-1.1-1.1-1.1-1.8s.5-1.5,1.4-2c-.9-.6-1.5-1.5-1.5-2.6,0-2,1.6-3.6,4.9-3.6s2.1.2,2.9.6c.7-.8,1.7-1.4,3.2-1.4v2.7ZM226.5,61.8c-.4.3-.5.6-.5.9,0,.6.4,1,2.4,1s2.3-.4,2.3-1-.5-.9-1.8-.9h-2.3ZM226.9,54.7c0,.8.6,1.4,1.7,1.4s1.7-.5,1.7-1.4-.6-1.4-1.7-1.4-1.7.6-1.7,1.4Z"/>
    <path class="st0" d="M245.6,55.1v7h-3.4v-6c0-1.5-.4-2.2-1.5-2.2s-1.9.9-1.9,2.4v5.8h-3.4v-10.7h3.2v1.4c.8-1.2,2-1.7,3.4-1.7,2.2,0,3.5,1.4,3.5,4Z"/>
  </g>
  <g>
    <path class="st0" d="M302.6,39.6l3.7-8.3c.7-1.6,1-2,1.7-2.2v-.6s-3.9,0-3.9,0v.6c1.3.3,1.4.9.8,2.3l-1.5,3.6-1.9-4.2c-.4-.9-.3-1.5,1-1.6v-.6s-5.2,0-5.2,0v.6c.6.2.9.4,1.4,1.5l3.3,7.1-.6,1.2c-.3.7-.6,1.2-.9,1.5-.2-.8-.7-1.2-1.4-1.2s-1.3.5-1.3,1.4c0,.9.8,1.6,1.6,1.6,1.3,0,2.1-.6,3-2.8M297.3,37.1l-.3-.6c-.5.2-1,.4-1.4.4-.9,0-1.2-.5-1.2-1.1v-6s2.5,0,2.5,0v-1.1s-2.5,0-2.5,0v-1.8s-.4,0-.4,0l-3.6,2.3v.6s1.4,0,1.4,0v6.5c0,1.3.7,2,2.2,2,1.1,0,2.2-.4,3.2-1.1M289.8,37.4c-1.2-.2-1.4-.4-1.4-1.5v-7.6s-1,0-1,0l-2.9,1.9v.4s1.4,0,1.4,0v5.3c0,1.1-.2,1.3-1.4,1.5v.6s5.3,0,5.3,0v-.6ZM287,26.8c.8,0,1.5-.7,1.5-1.5s-.6-1.4-1.4-1.4-1.5.7-1.5,1.5c0,.8.6,1.4,1.4,1.4M283.5,35.1c0-1.8-1.5-2.4-3-2.9-1.4-.5-2.4-.7-2.4-1.8s.4-1.1,1.2-1.1,1.9.6,3,1.8l.5-.2-.8-2.5h-.3s-.4.3-.4.3c-.6-.2-1.2-.4-1.9-.4-2.1,0-3.5,1.2-3.5,3s1.5,2.4,3,2.8c1.4.5,2.4.7,2.4,1.8s-.5,1.2-1.4,1.2-2.3-.9-3.6-2.4l-.5.2.8,3.1h.3s.6-.4.6-.4c.7.3,1.4.5,2.2.5,2,0,3.7-1.2,3.7-3.1M273.2,37.5c-1.3-.2-1.5-.5-1.5-1.7v-4.1c.4-.7.8-1.2,1.2-1.6,0,.8.5,1.3,1.2,1.3s1.3-.5,1.3-1.6-.5-1.4-1.4-1.4-1.7.8-2.4,2v-2s-.9,0-.9,0l-2.9,1.9v.4s1.4,0,1.4,0v5.3c0,1.1-.2,1.4-1.3,1.5v.6s5.3,0,5.3,0v-.6ZM260.8,32.1c0-1.6.7-2.6,2-2.6s1.5.7,1.7,1.9l-3.7,1.3c0-.2,0-.4,0-.7M267,36.3l-.5-.4c-.5.6-1.3,1-2.3,1-1.8,0-2.9-1.4-3.2-3.2l5.9-2c-.1-2.1-1.7-3.2-3.6-3.2-2.8,0-4.8,2.2-4.8,5s1.8,4.8,4.8,4.8,3-.8,3.7-2M256.6,31.4c.7-1.6,1-2,1.7-2.2v-.6s-3.9,0-3.9,0v.6c1.3.3,1.4.9.8,2.3l-1.5,3.6-1.9-4.2c-.4-.9-.3-1.5,1-1.6v-.6s-5.2,0-5.2,0v.6c.6.2.9.4,1.4,1.5l3.4,7.3h1s3.1-6.8,3.1-6.8ZM247.5,37.5c-1.2-.2-1.4-.4-1.4-1.5v-7.6s-1,0-1,0l-2.9,1.9v.4s1.4,0,1.4,0v5.3c0,1.1-.2,1.3-1.4,1.5v.6s5.3,0,5.3,0v-.6ZM244.7,26.9c.8,0,1.5-.7,1.5-1.5s-.6-1.4-1.4-1.4-1.5.7-1.5,1.5.6,1.4,1.4,1.4M234.7,37.5c-1.1-.2-1.3-.4-1.3-1.5v-4.6c1-.9,1.8-1.3,2.5-1.3,1,0,1.2.5,1.3,1.4v4.5c0,1.1-.2,1.4-1.3,1.5v.6s5.1,0,5.1,0v-.6c-1.1-.2-1.3-.4-1.3-1.5v-4.7c0-1.6-.7-2.7-2.7-2.7-1.2,0-2.4.8-3.6,1.8v-1.9s-.9,0-.9,0l-2.9,1.9v.4s1.4,0,1.4,0v5.3c0,1.1-.2,1.4-1.3,1.5v.6s5.1,0,5.1,0v-.6ZM213.1,25.9v5.9c0,3.8,2,6.5,7.1,6.5,5.1,0,7.1-2.7,7-6.5v-4.8c0-2.3.6-2.9,1.8-3.2v-.6s-4.8,0-4.8,0v.6c1.1.3,1.8.9,1.8,3.2v4.8c0,3.4-1.7,4.9-5.1,4.9-3.3,0-5.1-1.5-5.1-4.9v-6c0-1.5.4-1.8,1.7-1.9v-.7s-6,0-6,0v.7c1.3.2,1.6.4,1.6,1.9"/>
    <path class="st0" d="M197.2,37.6c-1.1-.2-1.3-.4-1.3-1.5v-4.6c1-.9,1.8-1.3,2.5-1.3s1.2.5,1.3,1.4v4.5c0,1.1-.2,1.4-1.3,1.5v.6s5.1,0,5.1,0v-.6c-1.1-.2-1.3-.4-1.3-1.5v-4.7c0-1.6-.7-2.7-2.7-2.7-1.2,0-2.4.8-3.6,1.8v-1.9s-.9,0-.9,0l-2.9,1.9v.4s1.4,0,1.4,0v5.3c0,1.1-.2,1.4-1.3,1.5v.6s5.1,0,5.1,0v-.6ZM189.3,37.6c-1.3-.2-1.5-.5-1.5-1.7v-4.1c.4-.7.8-1.2,1.2-1.6,0,.8.5,1.3,1.2,1.3s1.3-.5,1.3-1.6-.5-1.4-1.4-1.4-1.7.8-2.4,2v-2s-.9,0-.9,0l-2.9,1.9v.4s1.4,0,1.4,0v5.3c0,1.1-.2,1.4-1.3,1.5v.6s5.3,0,5.3,0v-.6ZM176.9,32.2c0-1.6.7-2.6,2-2.6s1.5.7,1.7,1.9l-3.7,1.3c0-.2,0-.4,0-.7M183.1,36.4l-.5-.4c-.5.6-1.3,1-2.3,1-1.8,0-2.9-1.4-3.2-3.2l5.9-2c-.1-2.1-1.7-3.2-3.6-3.2-2.8,0-4.8,2.2-4.8,5,0,2.7,1.8,4.8,4.8,4.8s3-.8,3.7-2M173.9,37.4l-.3-.6c-.5.2-1,.4-1.4.4-.9,0-1.2-.5-1.2-1.1v-6s2.5,0,2.5,0v-1.1s-2.5,0-2.5,0v-1.8s-.4,0-.4,0l-3.6,2.3v.6s1.4,0,1.4,0v6.5c0,1.3.7,2,2.2,2,1.1,0,2.2-.4,3.2-1.1M166.4,35.3c0-1.8-1.5-2.4-3-2.9-1.4-.5-2.4-.7-2.4-1.8s.4-1.1,1.2-1.1,1.9.6,3,1.8l.5-.2-.8-2.5h-.3s-.4.3-.4.3c-.6-.2-1.2-.4-1.9-.4-2.1,0-3.5,1.2-3.5,3,0,1.8,1.5,2.4,3,2.8,1.4.5,2.4.7,2.4,1.8,0,.7-.5,1.2-1.4,1.2-1.3,0-2.3-.9-3.6-2.4l-.5.2.8,3.1h.3s.6-.4.6-.4c.7.3,1.4.5,2.2.5,2,0,3.7-1.2,3.7-3.1M151.2,35.8c0-1,.5-1.5,2.8-2.1v2.9c-.5.4-1,.6-1.5.6-.8,0-1.2-.4-1.2-1.4M155.5,38.4c.9,0,1.8-.4,2.4-.8l-.2-.6c-1,.2-1.3,0-1.3-.6v-5.3c0-1.6-.7-2.4-2.9-2.4-2.5,0-4.4,1.4-4.4,2.6,0,.6.4,1.1,1.1,1.1s1.2-.5,1.3-1.1c.1-.6,0-1.1-.4-1.3.5-.2,1-.4,1.5-.4.9,0,1.3.3,1.3,1.1v2c-3.5.9-5.2,1.7-5.2,3.5,0,1.4.9,2.2,2.4,2.2s2-.4,2.9-1.1c.1.7.6,1,1.4,1M141.5,32.3c0-1.6.7-2.6,2-2.6.9,0,1.5.7,1.7,1.9l-3.7,1.3c0-.2,0-.4,0-.7M147.7,36.5l-.5-.4c-.5.6-1.3,1-2.3,1-1.8,0-2.9-1.4-3.2-3.2l5.9-2c-.1-2.1-1.7-3.2-3.6-3.2-2.8,0-4.8,2.2-4.8,5s1.8,4.8,4.8,4.8c1.9,0,3-.8,3.7-2M131.9,37.7c-1.1-.2-1.3-.4-1.3-1.5v-4.6c.9-.9,1.7-1.3,2.5-1.3s1.2.5,1.3,1.4v4.5c0,1.1-.2,1.4-1.3,1.5v.6s5.1,0,5.1,0v-.6c-1.1-.2-1.3-.4-1.3-1.5v-4.7c0-1.6-.7-2.7-2.7-2.7-1.2,0-2.4.7-3.6,1.7v-7.9s-.7,0-.7,0l-3.2,2.1v.4s1.4,0,1.4,0v11.1c0,1.1-.2,1.4-1.3,1.5v.6s5.1,0,5.1,0v-.6ZM126.2,37.4l-.3-.6c-.5.2-1,.4-1.4.4-.9,0-1.2-.5-1.2-1.1v-6s2.5,0,2.5,0v-1.1s-2.5,0-2.5,0v-1.8s-.4,0-.4,0l-3.6,2.3v.6s1.4,0,1.4,0v6.5c0,1.3.7,2,2.2,2,1.1,0,2.2-.4,3.2-1.1M116.5,37.7c-1.3-.2-1.5-.5-1.5-1.7v-4.1c.4-.7.8-1.2,1.2-1.6,0,.8.5,1.3,1.2,1.3s1.3-.5,1.3-1.6-.5-1.4-1.4-1.4-1.7.8-2.4,2v-2s-.9,0-.9,0l-2.9,1.9v.4s1.4,0,1.4,0v5.3c0,1.1-.2,1.4-1.3,1.5v.6s5.3,0,5.3,0v-.6ZM102.2,32.7c0-1.8.8-2.9,2.4-2.9,2.1,0,2.7,2.6,2.7,4.9s-.8,2.9-2.4,2.9c-2.1,0-2.7-2.6-2.7-4.9M109.8,33.5c0-2.6-1.8-4.8-4.9-4.8-3.2,0-5.1,2.3-5.1,5,0,2.6,1.8,4.8,4.9,4.8,3.2,0,5.1-2.3,5.1-5M96.8,27.4c0-2.3.6-2.9,1.8-3.2v-.6s-4.8,0-4.8,0v.6c1.1.3,1.8.9,1.8,3.2v7s-10.1-10.2-10.1-10.2c-.6-.6-.8-.6-1.1-.6h-3.7s0,.6,0,.6c.8,0,1.3.4,2.2,1.3.3.3.6.6.6,1.2v7.9c0,2.3-.6,2.9-1.8,3.2v.6s4.8,0,4.8,0v-.6c-1.1-.3-1.8-.9-1.8-3.2v-7.5s11.4,11.4,11.4,11.4h.8s0-11.1,0-11.1Z"/>
  </g>
</svg>