<?xml version="1.0" encoding="UTF-8"?>
<svg id="Layer_1" xmlns="http://www.w3.org/2000/svg" version="1.1" viewBox="0 0 376.3 135.6">
  <!-- Generator: Adobe Illustrator 29.1.0, SVG Export Plug-In . SVG Version: 2.1.0 Build 142)  -->
  <defs>
    <style>
      .st0 {
        fill: #010101;
      }
    </style>
  </defs>
  <g>
    <path d="M49.8,2.8C23.5,2.8,2.2,24.1,2.2,50.3s21.3,47.6,47.6,47.6,47.6-21.3,47.6-47.6S76,2.8,49.8,2.8ZM82.5,83.1c-8.7,8.7-20.4,13.6-32.8,13.6s-24-4.8-32.8-13.6c-8.7-8.7-13.6-20.4-13.6-32.8s4.8-24,13.6-32.8C25.7,8.8,37.4,4,49.8,4s24,4.8,32.8,13.6c8.7,8.7,13.6,20.4,13.6,32.8s-4.8,24-13.6,32.8Z"/>
    <path d="M49.8,5.6C25.1,5.6,5.1,25.6,5.1,50.3s20,44.7,44.7,44.7,44.7-20,44.7-44.7S74.4,5.6,49.8,5.6ZM81,81.6c-8.3,8.3-19.4,12.9-31.2,12.9s-22.9-4.6-31.2-12.9c-8.3-8.3-12.9-19.4-12.9-31.2s4.6-22.9,12.9-31.2c8.3-8.3,19.4-12.9,31.2-12.9s22.9,4.6,31.2,12.9c8.3,8.3,12.9,19.4,12.9,31.2s-4.6,22.9-12.9,31.2Z"/>
    <path d="M49.8,16.2c-18.8,0-34.1,15.3-34.1,34.1s15.3,34.1,34.1,34.1,34.1-15.3,34.1-34.1-15.3-34.1-34.1-34.1ZM49.8,83.9c-18.6,0-33.6-15-33.6-33.6S31.2,16.7,49.8,16.7s33.6,15,33.6,33.6-15,33.6-33.6,33.6Z"/>
    <path d="M49.8,18.4c-17.6,0-32,14.3-32,32s14.3,32,32,32,32-14.3,32-32-14.3-32-32-32ZM53.8,25.3c.3.6.6,1.3.6,2s0,.2,0,.3c0,0,0,0,0,.1,0,0,0,.1,0,.2,0,.2-.1.3-.3.5,0,0,0,0,0,0-.2.3-.6.4-1,.4s-.7,0-.9-.2c0,0,0-.1,0-.2,0,0,0-.1,0-.2,0,0,0,0,0,0,0,0,0,0,0-.1,0,0,0,0,0-.1,0,0,0,0,0-.1,0,0,0-.2,0-.3,0-.6-.3-1.2-.6-1.8.3-1.1.9-2.2,1.5-3,0,1.1.2,1.9.6,2.6ZM54.6,26.1c.1-.4.2-.8.2-1.2.7.8,1,1.5,1,2.3s0,.2,0,.4c0,0,0,0,0,0,0,0,0,.2,0,.3,0,0,0,0,0,.1,0,0,0,.1,0,.2,0,0,0,0,0,.1,0,0,0,0,0,0,0,0-.1.1-.2.2,0,0,0,0,0,0-.2.2-.5.3-.9.3s-.1,0-.2,0c.1-.1.2-.3.3-.5,0-.1,0-.2.1-.4,0,0,0,0,0-.1,0,0,0-.1,0-.2,0-.1,0-.3,0-.4,0-.5-.1-.9-.3-1.3ZM66.9,67.9c1.1,0,2.1-.4,2.8-1.1.5-.5.7-1,.8-1.6.1,0,.2.1.3.2,0,0,0,0,0,0,0,0,0,0,0,0,.2-.7,0-1.3-.5-2.1-.6-.8-1.7-1.3-3.1-1.3,0,0,0,0,0,0-1.6,0-2.4.7-2.8,1.3-.5.8-.5,1.8-.3,2.3,0,0,0,0,0,0,0,0,0,0,0,0,.1-.1.3-.3.5-.4.9.8,2.3.9,3.3.7.5,0,.9-.3,1.1-.6.1-.2.2-.4,0-.7-.2-.5-1.1-.7-1.7-.6-.6,0-1,.3-1.9,1.1,0,0,0,0,0,0,0,0,0,0,0,0,0-.5,0-1.1,0-1.4.3-.4,1.1-.9,1.9-.9h0c.7,0,1.3.1,1.6.4.2.2.5.7.7,1.2.3.7.2,1.1-.2,1.7-.4.5-1.4,1.1-2.6,1.1s-2.1-.3-2.9-.9c0,0,0,0,0,0-.5-.6-.6-1.2-.3-3.4.4-2.8.3-6.1,0-8.4-.2-2.3-.7-4.9-1-6.4-.1-.6-.2-1.1-.3-1.2,0-.7.3-1.3.8-1.8.6-.5,1.3-.8,2.2-.8,1.6,0,2.5.5,2.8,1.5,0,.1,0,.7,0,1.4,0,1.7.1,4.5.6,7.8.7,5.2,1.6,7.1,2.1,8.3.3.7.6,1.2.6,2.1,0,.8-.2,1.5-.7,2.1-1,1-3,1.6-5.4,1.6-.6,0-1.2,0-1.7,0,0-.3.1-.6.1-.9,0,0,0-.2,0-.3,0,0-.2,0-.3,0-.8.3-1.5.6-2.1,1-1.3-.1-2.4-.3-3.5-.5-2.3-.4-4.5-.7-7.5-.7-4.3,0-8,.5-11,1-1-.8-2.2-1.2-3.4-1.5.3-.4.5-.9.6-1.4.1-.7,0-1.6-.1-3-.2-2.1-.3-4.6.1-8.1.4-3.3.7-5.4.9-6.4,0-.2,0-.4.1-.5,1.6-.2,3.1-.4,4.6-.6,2.4-.4,4.7-.7,6.7-.7,3.7,0,6.5.4,9,.8,1.5.2,2.8.4,4.1.5,0,.2,0,.4.1.6.4,1.4.8,4.1,1,6.4.2,2.3.2,5.6-.2,8.3-.4,2.8-.2,3.2.5,3.9.8.9,2.2,1.1,3.2,1.2h.3ZM73.7,38.9c1.9,1.6,3,3.7,3,5.7,0,1.4-.5,2.5-1,3.2-.3.2-.5.5-.7.7.3-1.9.4-4.8,0-6.2,0,0,0,0,0,0,0,0,0,0,0,0,.2,1.2.3,3.3-.5,6.7-.3-1-.7-1.9-1.1-2.6-.3-1.6,0-3,.3-4.3.2-1.1.4-2.3.3-3.2ZM76,55.4s0,0-.1,0c-1.4.9-3,2.9-4.1,4.5.5-1,.8-2.2.8-3.4,0,0,0-.1,0-.2.2-.2.4-.5.6-.7.4-.4,1.3-.9,2.2-1.5,1.1-.6,2.3-1.3,3.1-2.1-.2,1.6-.9,4.9-2.9,6.9,0,0-.1,0-.2,0-1.1.3-2.1.6-2.9,1,1.4-2.1,2.3-3.1,3.6-4.4,0,0,0,0,0-.1ZM76.9,52.6c-.6.4-1.1.7-1.7,1.1-.1,0-.2.1-.3.2-.1,0-.2,0-.4.1.7-1.6,1.4-3,2.3-4.5,0,0,0,0,0-.1,0,0,0,0-.1,0-.7.9-1.6,2-2.6,4.3,0,0,0,0,0,0,.4-1.2.5-2.5.3-3.7.5-1.1,1.5-1.8,2.6-2.7.5-.4,1.1-1.1,1.6-1.5.2,2.7.1,5.1-1.8,6.8ZM72.9,55.2s0,0,0,0c0,0-.1.1-.2.2,0-1.9-.2-5-.8-6.8,0,0,0,0,0,0,0,0,0,0,0,0,.3,1.8.4,3.3.5,5.3-.4-.9-.9-1.9-1.7-2.7-.2-1.6,0-3.2.2-4.7.1-.9.2-1.7.3-2.5,1.7,2,4.8,6.9,2,11.1ZM72.2,56.5c0,1.8-.7,3.4-1.5,4.4-.1-.4-.2-.8-.4-1.2.2-1.9.2-4,0-4.9,0,0,0,0,0,0,0,0,0,0,0,0,0,1.4,0,2.5,0,3.5-.2-1-.4-2.1-.6-3.6,0-.6-.2-1.2-.2-1.8.2-.7.3-1.4.3-2.1,1.7,1.5,2.7,3.6,2.7,5.6ZM61.9,70s0,0-.1,0c-.8.8-2.3,2.5-3.7,4.2.4-.9.7-1.9.8-3.1,1.1-1.3,2.6-2.3,4.5-3-.4,2.9-1.5,5.1-3.4,6.7-.6,0-1.3,0-1.9,0,.6-.8,1.3-1.6,1.9-2.4.7-.8,1.3-1.6,1.8-2.3,0,0,0,0,0-.1ZM56.1,73.1s0,0-.1,0c-.7,1.5-1.7,3-3.1,4.3-.2-4.1,2-5.5,4.4-7,.5-.3.9-.6,1.4-1,0,2.9-.9,7.1-5.3,8.4,1.4-1.7,2.2-2.8,2.8-4.6,0,0,0,0,0-.1ZM53,68c1.3,0,2.4.2,3.5.4l.2,1.9c-1.4.9-2.7,1.8-3.5,3.3l-.2-5.5ZM63.6,69.3c.6,0,1.2,0,1.8,0,0,0,0,0,0,0-.7.6-1.5,1.1-2.4,1.7.2-.6.4-1.2.5-1.8ZM66.2,69.3c.9,0,1.6-.1,2.3-.3-.2.3-.5.7-.8,1-1.3.2-2.4.5-3.4.9.7-.5,1.4-1.1,1.9-1.6ZM48.9,67.9c.2,0,.5,0,.7,0v7.5c0,0,.1,0,.2,0s0,0,0,0v-7.5c.3,0,.4,0,.6,0s.1,0,.2,0l-.2,5.3s0,0,0,0h0s0,0,0,0l.3-5.3c.2,0,.4,0,.7,0l-.6,8.9h-2.5l-.6-8.9c.2,0,.4,0,.6,0l.3,5.5s0,0,0,0h0s0,0,0,0l-.2-5.5ZM48.8,77.2h1.9c.7,0,.8,0,.9.1.2.1.2.2.2.4s0,.3-.2.4c0,0-.2.1-.9.1h-2.1c-.6,0-.8,0-.9-.1-.2-.1-.2-.2-.2-.4s0-.3.2-.4c.1,0,.2-.1.9-.1ZM43.4,72.9c.5.7,1.8,3,2.7,4.8,0,0,0,0,0,0-.8-.8-1.7-1.4-2.5-1.8-2.1-2.1-2.2-4.9-2.2-6.4.5.5,1,.9,1.6,1.3,2.1,1.6,4.2,3,3.8,6.9-.1-.3-.3-.6-.6-1.1-.1-.2-.3-.5-.5-.9-.5-.9-1.4-2.5-2.1-3,0,0,0,0-.1,0,0,0,0,0,0,.1ZM37.4,73.1c.8.9,1.9,1.6,3.3,2.2-.5,0-1,0-1.5,0-.6,0-1.1,0-1.6,0-1.5-.7-2.6-1.8-3.5-3.3,2.6-.3,5-.1,7.3,1.4.3.8.6,1.5,1.1,2.1-2.2-.6-3.8-1.6-5-2.4,0,0,0,0-.1,0,0,0,0,0,0,.1ZM25.8,62.3c.5.4,1.1,1,1.8,1.8-.1.4-.2.9-.1,1.4,0,.3,0,.5.1.8-.1,0-.3,0-.4,0-.7-.4-1.4-1-2-1.9-.3-.5-.6-1-.9-1.5-.4-.8-.9-1.7-1.6-2.5.3,0,.7.1,1.1.2,1.6.2,3.5.5,4.7,1.5-.1.3-.2.6-.3.8-.1.3-.2.6-.3.9-.6-.6-1.2-1.1-1.8-1.5,0,0,0,0-.1,0,0,0,0,0,0,.1ZM29.1,55.1s0,0-.1,0c-.5,1.4-1,3.3-.9,6.1-2.6-4.1-.1-8,1.9-10.2,0,.7.2,1.4.4,2.2,0,.6-.2,1.2-.3,1.9-.6,2.9-1.1,4.8-1.6,6.1-.2-1.7,0-3.7.5-6,0,0,0,0,0,0ZM29.2,51.3c-.8.9-1.3,1.7-1.7,2.5,0,0,0,0,0,0,.3-2,.6-4.9.4-6,0,0,0,0,0,0,0,0,0,0,0,0,.1,1-.2,3.5-.7,5.7,0,0-.1-.2-.2-.3-.2-.7-.5-1.3-.9-1.9-.2-.8,0-1.6.3-2.6.2-.6.4-.8.6-1.7.3-1,.7-2.3.9-3.4,0,0,0,.2.1.3,1,2.2,2.2,4.8,1.4,7.3ZM25.7,48.7c-.2.7-.4,1.3-.4,1.9-.8-1.9-1.3-3.9-1.4-6.3,0,0,0,0,0,0,0,0,0,0,0,0-.2,2,.3,4.2.9,5.8-.3-.3-.7-.5-1.1-.7-2.3-3.4-.6-8.1.4-10.1.2.7.5,1.9.8,2.7.7,1.7,1.4,3.6,1.4,5.8-.1.3-.3.6-.4,1ZM26.7,56.3c-.9-1.7-2.7-4.4-4-5.5,0,0,0,0-.1,0,0,0,0,0,0,.1,1.3,1.6,2.3,3.2,3.6,5.4-.8-.9-1.8-1.6-2.7-2.1-.4-.3-.8-.5-1.2-.8-.9-1.2-1.2-2.6-1.2-4.6,4.2,1.3,6,3.7,5.7,7.5ZM23.1,54.6c1.2.8,2.6,1.7,3.5,3.2,0,.8.2,1.6.5,2.3,0,0,0,0,0,0-.9-1-1.7-2-3.8-3.8,0,0,0,0-.1,0,0,0,0,0,0,.1.3.3.7.8,1.2,1.3.8.9,1.8,2,2.5,2.9-.6-.2-1.3-.4-2-.5-.8-.4-1.6-.9-2.2-1.6-1.2-1.4-1.9-3.5-1.8-5.8.5.6,1.5,1.3,2.3,1.8ZM28.5,63c.5-1.3,1.4-3.3,2.2-7.8.7-3.5.7-6.3.6-8,0-.8,0-1.4,0-1.7.5-1.3,2.1-1.8,3.3-1.6,2.1.4,2.6,2,2.7,2.6,0,.4,0,.7-.2,1.4-.2,1-.6,3.1-1,6.4-.4,3.5-.4,6-.2,8.1.1,1.2.2,2.2,0,2.8-.1.6-.4,1.1-.7,1.4-.6,0-1.2-.1-1.8-.2,0,0-.2,0-.2.1,0,0,0,.2,0,.3,0,.1.2.3.3.4-.2,0-.4,0-.7,0,0,0,0,0,0,0-1.1,0-2.3-.5-2.8-1.3-.4-.5-.4-.9-.2-1.7.1-.4.4-.9.7-1.1.3-.3.9-.4,1.6-.4,1,0,1.9.4,2.2.8,0,.4,0,.8-.1,1.3,0,0,0,0,0,0,0,0,0,0,0,0-.6-.5-1.6-.8-2.3-.8s0,0,0,0c-.5,0-1,.2-1.2.4-.1.1-.2.3-.2.5,0,.5.3,1.1,1.6,1.1s0,0,0,0c1.2,0,2.3-.4,2.7-.8.2,0,.4.2.6.4,0,0,0,0,0,0,0,0,0,0,0,0,.2-.6.2-1.5-.4-2.2-.4-.6-1.2-1.2-2.8-1.2s0,0-.1,0c-1.2,0-2.4.5-3.1,1.3-1,1-.7,3,0,3.5,0,0,0,0,0,0,0,0,0,0,0,0,0-.1.1-.3.2-.4.7,1,1.9,1.5,3.4,1.5s0,0,.1,0c.4,0,.8,0,1.1-.1,0,.1.2.3.2.5.1.2.3.5.4.8-.7.1-1.3.2-1.8.2-2.3,0-4.7-1.2-4.9-4,0-1,.2-1.5.6-2.5ZM33.9,67.1c2.5.2,5.2.7,6.9,3.7,0,.6.2,1.3.3,1.8-.2-.1-.4-.2-.6-.3-2.2-2.6-3.4-3.4-4.5-3.8,0,0,0,0,0,0,0,0,0,0,0,.1.8.5,2.2,1.4,3.5,3.1-1-.4-2.1-.5-3.1-.6-.8-1-1.4-2.1-1.8-3-.2-.4-.4-.8-.6-1.2ZM42.8,70.3l.2-1.9c1.1-.1,2.3-.3,3.5-.3l-.2,5.5c-.8-1.3-2-2.2-3.2-3-.1,0-.2-.2-.3-.2ZM47.2,40c0-.2.1-.4.4-.4.2,0,.3.1.4.4l.2,5.9c-.2,0-.4,0-.6,0l-.3-5.9ZM49.3,40.1c0-.4.2-.5.4-.5s.4.2.4.6v5.8c-.3,0-.5,0-.8,0v-5.8ZM51.4,45.9l.2-5.9c0-.3.1-.4.4-.4.2,0,.4.2.3.4l-.3,6c-.2,0-.4,0-.6,0ZM52.3,45.9l.3-6.2c0-.5-.1-.8-.7-.8s-.7.3-.8.8v6.1c-.3,0-.6,0-.8,0v-6.1c.1-.2,0-.5-.1-.6-.1-.1-.4-.2-.6-.2s-.5,0-.6.2c-.1.2-.2.4-.2.6v6.1c0,0,0,0,0,0-.2,0-.3,0-.5,0v-6.1c-.2-.6-.3-.8-.9-.8s-.4,0-.6.2c-.1.2-.2.4-.2.6l.3,6.1c-.2,0-.4,0-.6,0l-.5-7.8h7.4l-.5,7.8c-.2,0-.4,0-.6,0ZM53.4,37.5c-.3,0-.8,0-1.6,0h-4.1c-.8,0-1.3,0-1.6,0-.4,0-.5-.1-.6-.3-.1-.3-.2-.4-.2-.6h8.8c0,.1,0,.3-.2.6-.1.2-.2.3-.6.3ZM45.2,36.2c-.4,0-.4-.2-.4-.5h0c0-.3.2-.6.4-.6h9.1c.3,0,.4.2.4.5h0c0,.3-.2.5-.4.5h-9ZM44.7,32.5c.3,0,.6,0,.8,0v.3c.1.5,0,.7-.2.8h-.2c0,0-.4-1.1-.4-1.1ZM53.9,31.9c0,0-.2,0-.2.2v.6c-.2.5-.2,1,.4,1.3l.4.2s0,0,0,.2v.3c-.1,0-9.7,0-9.7,0v-.4c-.1-.1-.1-.1,0-.2l.5-.2c.6-.3.6-.9.6-1.3v-.6c-.2,0-.2-.2-.3-.2h-1.2c-.4,0-.4-.1-.5-.2v-.4c0,0,11.9,0,11.9,0v.4c-.1.1-.2.2-.5.2h-1.3ZM54.8,32.5l-.4,1.2h-.1c-.3-.2-.4-.4-.3-.9v-.4c.3,0,.5,0,.8,0ZM55.3,30.8h-11c-1.7,0-1.8,0-1.9-.1-.1,0-.2-.2-.2-.5s0-.4.2-.5c.2-.1.6-.2,2.8-.2h9.2c2.2,0,2.6,0,2.8.2.1,0,.2.2.2.5s0,.4-.2.5c-.2.1-.2.1-1.9.1ZM45,26.7c0,.3-.1.5-.1.8s0,.2,0,.3c0,0,0,0,0,.1,0,0,0,.2,0,.2,0,0,0,.1,0,.2,0,.2.2.4.3.5-.1.1-.3.2-.6.2s-.3,0-.5-.1h0c0,0-.2,0-.2-.2,0,0,0,0,0,0,0,0,0,0,0,0,0,0,0,0,0,0,0,0,0,0,0-.1,0,0,0,0,0,0,0,0,0-.1,0-.2,0,0,0,0,0,0,0,0,0-.1,0-.2,0,0,0,0,0,0,0,0,0-.1,0-.2,0,0,0,0,0,0,0,0,0-.2,0-.3,0-.9.4-2,1.1-2.8-.1.8.1,1.6.3,2ZM46.1,22.2c.6.3,1.2.9,1.6,1.6,0,.3-.2.5-.3.8-.2.6-.5,1.2-.5,2,0,.2,0,.3,0,.5,0,0,0,0,0,0,0,.1,0,.3,0,.4,0,0,0,0,0,0,0,.3.2.5.3.8,0,.1.1.2.2.3,0,0,0,0,0,0-.2,0-.4.1-.7.1-.8,0-1.2-.6-1.3-1.2,0,0,0-.2,0-.3,0-.6.1-.8.4-1.3h0c.8-1.7.9-2.9.2-3.8ZM51.8,27.5c0,.1,0,.2,0,.3,0,0,0,0,0,.1,0,0,0,.1,0,.2,0,0,0,0,0,.1,0,0,0,0,0,.1,0,0,0,0,0,0h0c-.2.4-.6.5-1.1.5s-.9-.2-1.1-.6c0,0,0-.1,0-.2,0,0,0,0,0,0,0,0,0-.1,0-.2,0,0,0,0,0-.1,0,0,0-.1,0-.2,0-.1,0-.2,0-.4,0-.6.2-1.3.4-2,.1-.4.3-.9.3-1.2.1.2.3.4.4.6.6.8,1.4,1.9,1.4,2.9ZM51.4,25.2c-.2-.3-.4-.6-.7-.9-.3-.4-.6-.8-1-1.3,0,0,0,0,0,0,0,0,0,0,0,0,0,.8-.2,1.5-.5,2.2-.2.6-.5,1.3-.5,2s0,.2,0,.4c0,0,0,0,0,.1,0,0,0,.1,0,.2,0,.1,0,.3.1.4,0,.1.1.2.2.3-.3,0-.6-.2-.8-.4h0c-.3-.3-.5-.7-.6-1.1,0,0,0,0,0,0,0,0,0-.2,0-.2,0,0,0,0,0,0,0,0,0-.1,0-.2,0,0,0,0,0,0,0,0,0-.1,0-.2,0-.6.2-1.2.4-1.8.3-.7.5-1.5.5-2.5s-.5-2-1-2.5c2.5.9,3.7,2.9,4.2,4.7-.1.2-.2.5-.3.7ZM23.7,34l17.3-5.7s0,0,0,0c0,0,0,0,0,0l-15.2,2.9c.9-1.2,1.9-2.3,3-3.3l12.7-1.6s0,0,0,0c0,0,0,0,0,0l-9.8-.6c1.1-.8,2.3-1.6,3.5-2.2l7.2,1s0,0,0,0c0,0,0,0,0,0,0,0,0,0,0,0l-4.7-2c1.1-.5,2.2-.9,3.4-1.2l2.8,1.7s0,0,0,0c0,0,0,0,0,0,0,0,0,0,0-.1l-1.5-2c1.4-.3,2.9-.6,4.4-.7.7.6,1.1,1.5,1.1,2.3s0,.8-.1,1.2c-.8-1.1-1.8-1.7-2.7-1.9,0,0,0,0,0,0,0,0,0,0,0,0,.8.8,1.1,1.5.9,2.4,0,.7-.4,1.2-.6,1.8,0,0,0,.2-.1.2-.3-.6-.4-1.2,0-2.2,0,0,0,0,0,0,0,0,0,0,0,0-1.2.7-2.1,2.8-2.1,4.2s.2,1.1.5,1.3c-1.1,0-1.3,0-1.5.2-.3.2-.4.4-.4.8s0,.6.4.8c.2.1.3.2,1.2.2l.2.7c.1.4.4.5.7.5l.5,1.5c-.1,0-.3.3-.2.6,0,0,0,0,0,0l.2.5s0,0,0,0c-.1.2-.2.4-.2.6h0c0,.5.2.8.5.9,0,.3,0,.6.2.9.1.2.3.3.5.4l.5,8.1c-.6,0-1.2.1-1.8.2l.4-5.2s0,0,0,0c0,0,0,0,0,0l-1.4,5.5c-.3,0-.7,0-1,.1-.6,0-1.2.2-1.9.3l3.2-9.4s0,0,0-.1c0,0,0,0-.1,0l-5.5,9.4s0,0,0,0c0-.6-.4-1.8-1.8-2.6l6.4-9.6s0,0,0-.1c0,0,0,0-.1,0l-8.7,9.2c-1.2,0-2.3.7-2.8,1.9,0,.2-.1.6-.1,1.1l-1.1,1.2c-.3-1-.7-2-1.1-2.9l12.5-12.2s0,0,0-.1c0,0,0,0-.1,0l-15.3,10.8c-.2-.6-.4-1.1-.6-1.7-.2-.4-.3-.9-.5-1.3l15.8-9.7s0,0,0-.1c0,0,0,0-.1,0l-18.9,7.9c.6-1.5,1.4-3,2.3-4.4ZM19.8,43.4l2.7-1.7c-.4,1.3-.7,2.8-.6,4.4l-2.8,2c.1-1.6.3-3.2.7-4.7ZM20,58.1c-.3-1.3-.6-2.7-.8-4l1.3-1.2c-.1,1.5,0,2.9.6,4.1l-1.1,1.1ZM25.1,68.6c-1-1.3-1.9-2.8-2.6-4.2l1.1-1.7c0,.1.1.2.2.3.3.6.6,1.1.9,1.6.4.6.9,1.1,1.4,1.5-.2,0-.5,0-.7-.1,0,0-.2,0-.3,0,0,0,0,.2,0,.3.2.4.4.8.7,1.2l-.6,1.1ZM25.5,66.5c.7.1,1.4.2,2.1.3.4,1.3,1.3,2.4,2.9,2.9-.1,0-.2,0-.3,0-.4,0-.8,0-1.2.1-1.5-.8-2.8-2-3.4-3.3ZM28.6,70.2c.5,0,.9,0,1.4-.1.5,0,1.1-.1,1.6-.1.3,0,.7,0,1,0s0,0,.1,0c.3,0,.6,0,1,0,.4,0,.8,0,1.2.2.2.4.5.8.8,1.2-.5,0-1,0-1.5.1-.7-.1-1.4-.2-2.3-.2,0,0,0,0,0,0,0,0,0,0,0,0h0c.5.1,1,.2,1.4.3,0,0,0,0,0,0,.4.7.8,1.4,1.3,1.9-2.2-.1-4.4-1-6.3-3.5ZM35,77.2c-1.5-.8-2.9-1.7-4.2-2.8l.5-1.4c1.1.6,2.4,1,4,1,.1.1.3.2.4.3l-.7,2.8ZM40.8,79.5c-2-.4-3.6-1.9-4.8-4.1.9.3,2,.4,3.1.4,2.1,0,4.4,0,6.6,2.4h0c-1.6.2-4.2,0-6.1-.9,0,0,0,0-.1,0,0,0,0,0,0,.1,1.3,1.2,3.6,1.4,5.4,1.4s.4,0,.5,0c-1,.6-2.7,1.1-4.6.7ZM47.8,80.3c-.3.1-1.4.5-1.9.6-.6.2-.9,0-1-.2-.1-.3,0-.5.5-.7.3-.1,2.2-.9,2.7-1-.1.3-.2.5-.2.8s0,.3,0,.4ZM49.8,81.4c-1,0-1.6-.6-1.6-1.7s0-.6.2-.9c.5,0,2-.1,2.7,0,.2.3.2.6.2.9,0,1.1-.6,1.7-1.6,1.7ZM54.7,80.7c0,.2-.4.3-1,.2-.5-.1-1.6-.5-1.9-.6,0-.1,0-.3,0-.4,0-.3,0-.6-.2-.8.5.2,2.4.9,2.7,1,.5.2.6.4.5.7ZM54.4,78.6c1.7-.9,3.8-1.5,6.2-1.6,0,0,0,0,0,0,0,0,0,0,0,0-1.7-.2-3.6,0-5.5.7.8-.5,1.6-1.1,2.2-2.1,1.5-.5,3.1-.3,4.6,0,.7.1,1.6.1,2.3.2-1.9,2.2-5.6,5.1-9.8,3ZM65.9,76.4l-.4-1.3c1.8-.5,3.2-1.4,4.2-2.5l.3.8c-1.3,1.1-2.7,2.2-4.1,3.1ZM61.9,75c-.4,0-.8-.1-1.2-.2,1.7-1.2,4.6-2.3,7.1-2.9,0,0,0,0,0,0,0,0,0,0,0,0-2,.2-4.2,1-6.1,2,.3-.4.6-.8.8-1.3,2.1-1.5,5-2.3,8.5-2.2-2.2,3.4-5.3,5-9.1,4.7ZM70.4,69.9c-.7,0-1.4,0-2,0,.2-.3.5-.6.7-.9,2-.8,3.4-1.7,4.4-2.9,0,0,0,0,0-.1,0,0,0,0-.1,0-.4.4-1,.8-1.8,1.3.5-.6.7-1.3.6-2.1,0,0,0,0,0,0,.4,0,.9-.1,1.3-.2.7,0,1.4-.3,2.1-.5-.8,2.4-2.4,4.8-5.1,5.4ZM75.1,67.7l-.3-.6c.5-.8.9-1.7,1.3-2.9,0,0,0-.2,0-.2,0,0-.2,0-.2,0-.5.1-.9.2-1.5.3.8-.5,1.6-1.1,2.2-1.8l.9,1.3c-.7,1.4-1.4,2.7-2.3,3.9ZM72.6,64.6c-.2,0-.3,0-.5,0,0-.5-.2-.9-.4-1.3,1.2-.7,2.7-1.7,3.4-2.5,0,0,0,0,0-.1,0,0,0,0-.1,0-.8.7-1.9,1.4-3.5,2.2-.2-.4-.4-.8-.6-1.4.4-.4.9-.8,1.6-1.2.8-.4,1.9-.8,3-1.1.8-.2,1.8-.6,2.6-.8-.4,2.1-2.4,5.1-5.5,6.1ZM79.6,57.6l-1.6-1.7c.5-1.2.8-2.4.9-3.7l1.4,1.3c-.1,1.4-.4,2.8-.7,4.1ZM80.3,47.6l-1.4-.9c0-.4,0-.7-.1-1.1,0,0,0-.2-.1-.2,0,0-.1,0-.2,0-.2.2-.4.4-.6.6l-.9-.6c0-.2,0-.4,0-.7,0-1-.2-2.4-1.1-3.8l3.6,2.1c.4,1.5.6,3,.7,4.5ZM58.6,28.8l17.5,5.7c.8,1.3,1.4,2.6,2,3.9l-18.9-7.6s0,0-.1,0c0,0,0,0,0,.1l14.2,8.3c0,.9-.1,1.8-.3,2.8,0,.1,0,.3,0,.4l-14.1-9.5s0,0-.1,0c0,0,0,0,0,.1l11.9,11.2c0,.7-.1,1.5-.2,2.2,0,.4-.1.8-.2,1.2l-1.4-1.5c0-.4,0-.6,0-.7-.2-1-1-1.6-2.4-1.8l-8.9-9.3s0,0-.1,0c0,0,0,0,0,.1l6.6,9.5c-.3.1-.6.3-.8.6-.5.5-.8,1.1-.9,1.8l-5.6-9.2s0,0-.1,0c0,0,0,0,0,.1l3.7,9.5c-.6,0-1.2-.2-1.9-.3-.4,0-.8-.1-1.2-.2l-1.8-6s0,0,0,0c0,0,0,0,0,0l.5,5.7c-.6,0-1.3-.2-2-.2l.5-8.2c.2,0,.4-.2.5-.4.1-.3.2-.6.2-.9.3-.1.5-.4.5-.8h0c0-.4,0-.6-.2-.7l.2-.5s0,0,0,0c0-.3,0-.5-.2-.6l.5-1.5c.4,0,.6-.1.7-.5l.2-.7c.9,0,1,0,1.2-.2.3-.2.4-.5.4-.8s-.1-.6-.4-.8c-.2-.1-.4-.2-1.5-.2.4-.3.5-.8.5-1.6,0-1.3-.7-2.6-1.7-3.4,0,0,0,0,0,0,0,0,0,0,0,0,0,.4,0,.8-.2,1.3,0,0,0-.2-.1-.2-.4-.9-.9-1.9-.5-3.4,0,0,0,0,0,0,0,0,0,0,0,0-.5.5-1.1,1.1-1.5,1.9-.7-1.7-2-3.2-4.1-4,.6,0,1.2,0,1.8,0,.9,0,1.8,0,2.7.1l-.4,1.5s0,0,0,0c0,0,0,0,0,0,0,0,0,0,0,0l1.2-1.5c.7,0,1.5.2,2.2.3l-1.1,1.6s0,0,0,.1c0,0,0,0,0,0s0,0,0,0l2-1.5c.8.2,1.5.4,2.2.6l-2.5,2.1s0,0,0,.1c0,0,0,0,0,0s0,0,0,0l3.9-1.7c1,.4,1.9.8,2.8,1.2l-5.8,2.3s0,0,0,.1c0,0,0,0,0,0s0,0,0,0l7.7-1.5s0,0,0,0c1.2.7,2.4,1.5,3.5,2.3l-10.1.7s0,0,0,0,0,0,0,0l12.1.8c1.2,1.1,2.3,2.3,3.3,3.5l-15.2-2.5s0,0,0,0c0,0,0,0,0,0Z"/>
    <g>
      <path d="M46.2,52c.4,0,.6,0,1,0,.1,0,.2,0,.2.2,0,0,0,.1,0,.2,0,.1,0,.2-.2.2-.6,0-.9,0-1.5,0-.1,0-.2,0-.2-.2,0-1,0-1.6,0-2.6,0-.1,0-.2.2-.2.1,0,.2,0,.3,0,.1,0,.2,0,.2.2,0,.9,0,1.3,0,2.2Z"/>
      <path d="M49.4,52.6c-.1,0-.2,0-.3,0-.2,0-.2,0-.3-.2-.4-1.1-.6-1.6-1-2.7,0-.1,0-.2.1-.2.1,0,.2,0,.3,0,.2,0,.2,0,.3.2.3.8.4,1.1.7,1.9.3-.8.4-1.1.7-1.9,0-.2.1-.2.3-.2.1,0,.2,0,.3,0,.1,0,.2,0,.1.2-.4,1.1-.6,1.6-1,2.7,0,.2-.1.2-.3.2Z"/>
      <path d="M51.8,52.6c-.2,0-.2,0-.4,0,0,0-.1-.1,0-.2.4-.5.5-.8.9-1.4-.3-.5-.5-.8-.8-1.3,0,0,0-.2,0-.2.2,0,.2,0,.4,0,.2,0,.2,0,.3.2.2.3.3.5.4.8.2-.3.3-.4.4-.7,0-.1.1-.2.3-.2.2,0,.2,0,.4,0,0,0,.1.1,0,.2-.3.5-.5.7-.8,1.2.3.6.5.9.9,1.5,0,0,0,.2,0,.2-.2,0-.3,0-.4,0-.2,0-.2,0-.3-.2-.2-.4-.3-.6-.5-.9-.2.3-.3.5-.5.9,0,.1-.2.2-.3.2Z"/>
      <path d="M40.5,58.8c-.1,0-.2,0-.3,0-.2,0-.2,0-.3-.2-.5-1-.7-1.5-1.1-2.5,0-.1,0-.2.1-.2.1,0,.2,0,.4,0,.2,0,.2,0,.3.2.3.7.5,1.1.8,1.8.3-.8.4-1.2.6-2,0-.2.1-.2.3-.2.1,0,.2,0,.3,0,.1,0,.2,0,.1.2-.4,1.1-.5,1.7-.9,2.8,0,.2-.1.2-.3.2Z"/>
      <path d="M43.1,58.4c-.1,0-.2,0-.2-.2,0-1,0-1.6,0-2.6,0-.1,0-.2.2-.2.7,0,1,0,1.7-.1.1,0,.2,0,.2.2,0,0,0,.1,0,.2,0,.1,0,.2-.2.2-.5,0-.7,0-1.2.1,0,.2,0,.3,0,.5.3,0,.5,0,.8,0,.1,0,.2,0,.2.2,0,0,0,.1,0,.2,0,.1,0,.2-.2.2-.3,0-.5,0-.8,0,0,.2,0,.4,0,.6.5,0,.7,0,1.2-.1.1,0,.2,0,.2.2,0,0,0,.1,0,.2,0,.1,0,.2-.2.2-.7,0-1.1,0-1.8.1Z"/>
      <path d="M46.8,58.2c-.1,0-.2,0-.3,0-.1,0-.2,0-.2-.2,0-1,0-1.6,0-2.6,0-.1,0-.2.2-.2.4,0,.6,0,1,0,.6,0,1.1.3,1.1.9,0,.4-.2.7-.5.8.2.4.4.7.6,1.1,0,0,0,.2-.1.2-.2,0-.2,0-.4,0-.2,0-.2,0-.3-.2-.2-.4-.3-.6-.5-.9-.1,0-.2,0-.3,0,0,.4,0,.6,0,.9,0,.1,0,.2-.2.2ZM47.5,55.7c-.2,0-.3,0-.5,0,0,.3,0,.4,0,.7.2,0,.3,0,.5,0,.2,0,.3-.2.3-.4,0-.2-.1-.3-.3-.3Z"/>
      <path d="M50,58.1c-.1,0-.2,0-.2-.2,0-1.1,0-1.6,0-2.6,0-.1,0-.2.2-.2.1,0,.2,0,.3,0,.1,0,.2,0,.2.2,0,1,0,1.6,0,2.6,0,.1,0,.2-.2.2-.1,0-.2,0-.3,0Z"/>
      <path d="M52.7,58.2c-.1,0-.2,0-.2-.2,0-.9,0-1.3,0-2.2-.3,0-.4,0-.7,0-.1,0-.2,0-.2-.2,0,0,0-.1,0-.2,0-.1,0-.2.2-.2.8,0,1.3,0,2.1,0,.1,0,.2,0,.2.2,0,0,0,.1,0,.2,0,.1,0,.2-.2.2-.3,0-.4,0-.7,0,0,.9,0,1.3,0,2.2,0,.1,0,.2-.2.2-.1,0-.2,0-.3,0Z"/>
      <path d="M55,58.3c-.1,0-.2,0-.3,0-.1,0-.2-.1-.1-.2.5-1,.7-1.5,1.1-2.6,0-.2.1-.2.3-.2.1,0,.2,0,.3,0,.2,0,.2,0,.3.2.4,1.1.6,1.7,1,2.8,0,.1,0,.2-.1.2-.1,0-.2,0-.4,0-.2,0-.2,0-.3-.2,0-.2,0-.2-.1-.4-.5,0-.7,0-1.2-.1,0,.1,0,.2-.2.4,0,.2-.1.2-.3.2ZM56.4,57.3c-.1-.4-.2-.6-.3-1-.2.4-.2.6-.4,1,.3,0,.4,0,.7,0Z"/>
      <path d="M42.1,64c-.1,0-.2,0-.3,0-.2,0-.3,0-.3-.2-.5-1-.7-1.5-1.1-2.5,0-.1,0-.2.1-.2.1,0,.2,0,.4,0,.2,0,.2,0,.3.2.3.7.5,1.1.8,1.8.3-.8.4-1.2.7-2,0-.2.1-.2.3-.2.1,0,.2,0,.3,0,.1,0,.2,0,.2.2-.4,1.1-.6,1.7-1,2.8,0,.2-.1.2-.3.2Z"/>
      <path d="M44.8,63.8c-.2,0-.2,0-.2-.2,0-1,0-1.6,0-2.6,0-.1,0-.2.2-.2.1,0,.2,0,.3,0,.1,0,.2,0,.2.2,0,1,0,1.6,0,2.6,0,.1,0,.2-.2.2-.1,0-.2,0-.3,0Z"/>
      <path d="M47.2,63.7c-.1,0-.2,0-.3,0-.2,0-.2,0-.2-.2,0-1,0-1.6,0-2.6,0-.1,0-.2.2-.2.4,0,.6,0,1,0,.7,0,1.1.4,1.1.9,0,.4-.2.7-.5.8.2.4.4.7.6,1.1,0,0,0,.2-.1.2-.2,0-.2,0-.4,0-.2,0-.2,0-.3-.2-.2-.4-.3-.6-.5-.9-.1,0-.2,0-.4,0,0,.4,0,.6,0,.9,0,.1,0,.2-.2.2ZM47.9,61.2c-.2,0-.3,0-.5,0,0,.3,0,.4,0,.7.2,0,.3,0,.5,0,.2,0,.3-.1.3-.3,0-.2-.1-.3-.3-.3Z"/>
      <path d="M50.9,63.7c-.2,0-.2,0-.2-.2,0-.9,0-1.3,0-2.2-.3,0-.4,0-.7,0-.1,0-.2,0-.2-.2,0,0,0-.1,0-.2,0-.1,0-.2.2-.2.9,0,1.3,0,2.2,0,.1,0,.2,0,.2.2,0,0,0,.1,0,.2,0,.1,0,.2-.2.2-.3,0-.4,0-.7,0,0,.9,0,1.3,0,2.2,0,.1,0,.2-.2.2h-.3Z"/>
      <path d="M54.7,63.8c-.1,0-.2,0-.3,0-.2,0-.2,0-.3-.2-.4-1.1-.6-1.6-1-2.7,0-.1,0-.2.1-.2.1,0,.2,0,.4,0,.2,0,.2,0,.3.2.3.8.4,1.2.7,1.9.3-.7.5-1.1.7-1.8,0-.2.1-.2.3-.2.1,0,.2,0,.3,0,.1,0,.2.1.1.2-.4,1-.6,1.6-1.1,2.6,0,.2-.1.2-.3.2Z"/>
      <g>
        <path d="M59.4,58.3c.2,0,.3,0,.3-.2,0-.1,0-.2-.2-.3-.1,0-.5-.3-.6-.4-.3-.2-.5-.5-.5-.8,0-.5.5-.9,1-.8.3,0,.6.1.8.3,0,0,0,.2,0,.3,0,0-.1.1-.1.2,0,.1-.2.1-.3,0-.1-.1-.2-.2-.4-.2-.2,0-.3,0-.3.2,0,.1,0,.2.2.3.1,0,.5.3.6.4.3.2.5.5.5.8,0,.6-.5.9-1.1.8-.4,0-.7-.2-1-.5-.1-.1-.1-.2,0-.3,0,0,.1-.1.2-.2,0,0,.2,0,.3,0,.2.2.4.3.5.3Z"/>
        <path d="M57.9,63.5c.2,0,.3,0,.3-.2,0-.1,0-.2-.2-.3-.1,0-.5-.3-.6-.4-.3-.2-.5-.5-.4-.8,0-.5.5-.9,1-.8.3,0,.6.1.8.3,0,0,0,.2,0,.3,0,0-.1.1-.1.2,0,.1-.2.1-.3,0-.1,0-.2-.2-.4-.2-.2,0-.3,0-.3.2,0,.1,0,.2.2.3.1,0,.5.3.6.4.3.2.5.5.5.8,0,.6-.5.9-1.1.8-.4,0-.7-.2-.9-.4-.1-.1-.1-.2,0-.3,0,0,.1-.1.2-.2,0-.1.2,0,.3,0,.2.2.4.3.5.3Z"/>
      </g>
    </g>
    <g>
      <path d="M9.6,54.7c0,.2,0,.2-.2.2h-.4c-.2,0-.2,0-.2-.2v-2.3h-.3c-.1.1-.2,0-.2,0v-.3c0-.2,0-.3.2-.3h.3c.1-.1.3-.2.4-.2h.2c.2,0,.2,0,.2.2v2.9Z"/>
      <path d="M12,55.1c-.8,0-1.3-.5-1.3-1s.2-.6.5-.8c-.3-.2-.5-.4-.5-.8,0-.5.5-1,1.3-1s1.3.4,1.3,1-.2.6-.5.8c.3.2.5.5.5.8,0,.5-.5,1-1.3,1ZM12,53.6c-.3,0-.5.2-.5.4s.2.4.5.4.5-.2.5-.4-.2-.4-.5-.4ZM11.5,52.6c0,.2.2.4.5.4s.5-.2.5-.4-.2-.4-.5-.4-.5.2-.5.4Z"/>
    </g>
    <g>
      <path d="M86.5,55v-.3c-.2-.1-.2-.3,0-.3.5-.2.8-.5,1-.8-.2.1-.4.2-.6.2-.7,0-1.1-.5-1.1-1.1s.5-1.2,1.4-1.2,1.3.5,1.3,1.3-.6,1.8-1.6,2.3c-.2,0-.3,0-.3-.1ZM86.5,52.7c0,.3.2.5.5.5s.5-.2.5-.5-.2-.5-.5-.5-.5.2-.5.5Z"/>
      <path d="M90.5,55.1c-.8,0-1.3-.5-1.3-1s.2-.6.5-.8c-.3-.2-.5-.4-.5-.8,0-.5.5-1,1.3-1s1.3.4,1.3,1-.2.6-.5.8c.3.2.5.5.5.8,0,.5-.5,1-1.3,1ZM90.5,53.6c-.3,0-.5.2-.5.4s.2.4.5.4.5-.2.5-.4-.2-.4-.5-.4ZM90,52.6c0,.2.2.4.5.4s.5-.2.5-.4-.2-.4-.5-.4-.5.2-.5.4Z"/>
    </g>
    <path d="M49.1,31.9h-2.1c0,0-.1,0-.1.1,0,0,0,0,0,.2,0,0,0,.7.1,1,.1.5.6.8,1.2.8s1-.3,1.1-.9c0-.4.1-1,.1-1,0,0,0-.1,0-.2,0,0,0,0-.2,0ZM48.8,33.1c0,.4-.3.5-.7.5s-.7-.2-.8-.5c0-.2,0-.4,0-.5.4-.2,1.2-.3,1.7,0,0,.2,0,.4,0,.6Z"/>
    <path d="M52.5,31.9h-2.2c0,0-.1,0-.2,0,0,0,0,.1,0,.2v.2c0,.4,0,.5.1.9,0,.6.5.9,1.1.9s0,0,0,0c.6,0,1-.3,1.2-.9.1-.4.1-1,.1-1.1,0,0,0-.1,0-.2,0,0,0,0-.2,0ZM52.2,33.1c0,.4-.4.5-.8.6-.4,0-.7-.2-.7-.5,0-.3,0-.4,0-.6.5-.2,1.3-.2,1.7,0,0,.2,0,.4,0,.6Z"/>
    <path d="M26.5,78.3l.2-.2c-.4-.4-.9-.8-1.4-1.2l-.2.2c.2.4.2.8-.5,1.5l-1.3,1.4c-.8.9-1.9,1-2.8.1-.8-.8-.7-1.8.2-2.7l1.6-1.5c.6-.6.8-.6,1.2-.3l.2-.2c-.6-.6-1.1-1.2-1.6-1.8l-.2.2c.2.4.2.5-.4,1.2l-1.7,1.6c-1,1-1.4,2.5,0,4,1.5,1.5,3,1.1,4,0l1.3-1.4c.7-.7,1.1-.8,1.5-.7Z"/>
    <path d="M32.9,82.6v-.3c-.4-.3-.9-.6-1.5-.9v.2c.1.3.2.7-.3,1.6l-1.1,1.9-1.1-5c0-.4-.2-.5-.3-.6-.3-.2-.8-.6-1.3-.9l-.2.2c.2.2.2.4.3,1,0,.2,0,.4-.1.6l-1.7,2.5c-.6.8-.9.9-1.3.8l-.2.2c.5.4,1,.8,1.5,1.1l.2-.2c-.3-.3-.3-.6.3-1.5l1.5-2.2,1.3,6.1.4.2,2.3-3.8c.5-.9.9-1,1.3-1Z"/>
    <path d="M34.2,83.2c.4.3.4.4,0,1.2l-1.4,3.1c-.4.8-.5.9-.9.8v.3c.6.4,1.4.7,2.2,1v-.3c-.3-.3-.3-.4,0-1.2l1.3-3.2c.3-.8.5-.9.9-.8v-.3c-.6-.3-1.4-.6-2.1-1v.3Z"/>
    <path d="M42.1,85.9c.5.2.6.5.2,1l-2.4,2.9-.7-3.7c0-.5,0-.8.5-.8v-.3c-.7-.2-1.5-.5-2.4-.8v.3c.2.2.3.5.4,1.3l1.2,5.6h.4c0,0,3.6-4.2,3.6-4.2.5-.6.9-.9,1.2-.9v-.3c-.6,0-1.3-.2-1.9-.4v.3Z"/>
    <path d="M49.4,91.7c-.4.2-1,.3-2.1.2-.8,0-.8,0-.9-.1,0,0,0-.2,0-.3,0-.6.1-1.4.2-2.2,1.2,0,1.5.1,1.7.2.3.1.4.3.4.5h.3s0-1.8,0-1.8h-.3c0,.2-.2.4-.4.5-.3,0-.7,0-1.6,0,0-.6.1-1.2.1-1.4,0-.2,0-.3.1-.4,0,0,.2,0,.9,0,1.3,0,1.6.2,2.3.8l.2-.2-.4-1.1c-.7,0-1.5,0-2.3,0-1,0-1.9-.1-2.6-.3v.3c.4.1.5.3.4,1.2l-.3,3.4c0,.9-.2,1-.7,1v.3c.7,0,2,.2,2.8.3.9,0,2.4,0,3,0l.4-1.6h-.3c-.3.2-.5.5-.9.7Z"/>
    <path d="M58.4,91.3c-.6.1-1.2-.8-2.2-1.9,1-.4,1.6-1.1,1.5-1.9-.1-1.1-1-1.7-2.9-1.4-1.1.2-2.3.3-3,.3v.3c.5,0,.6.2.7,1l.3,3.4c0,.9,0,1-.4,1.1v.3c.6,0,1.7-.1,2.5-.2v-.3c-.5,0-.6-.1-.7-1v-1.1c0,0,.3,0,.5,0,1.5,1.6,2.2,2.4,3.4,2.2.5,0,.9-.4,1-.8l-.2-.2c-.1.1-.2.2-.4.2ZM55,89.2c-.4,0-.8,0-1.1.1l-.3-2.5c.3,0,.5,0,.8-.1,1.1-.1,1.7.3,1.8,1.1.1.8-.3,1.3-1.2,1.4Z"/>
    <path d="M62.3,86.7c-1.3.2-2.1.3-2.3-.5-.1-.4.1-.9.9-1.2,1-.3,1.8,0,2.6.5l.2-.2-.9-1.3h-.2c0,0-.1.1-.2.2-.5.2-.8,0-1.7.3-1.2.4-2,1.4-1.7,2.6.4,1.4,1.8,1.2,3,1.1,1.3-.2,2-.3,2.2.5.1.4-.1,1-1,1.3-1.3.4-2.3.2-3.3-.6l-.2.2.9,1.5h.2c0-.1.2-.2.3-.2.6-.2,1,0,2.3-.4,1.1-.4,2.1-1.4,1.7-2.7-.4-1.3-1.7-1.2-2.9-1.1Z"/>
    <path d="M68.4,86.7l-1.5-3.1c-.4-.8-.4-.9,0-1.2v-.3c-.8.4-1.6.7-2.3,1.1v.3c.6-.1.7,0,1.1.7l1.5,3.1c.4.8.4.9,0,1.2v.3c.9-.3,1.6-.7,2.4-1.1v-.3c-.6.1-.7,0-1.1-.7Z"/>
    <path d="M73.5,83.6l-2.1-3c-.3-.4-.2-.5,0-.7.5-.3,1.2-.4,2.1-.2l.2-.2-1.3-1c-.6.5-1.3,1-2.2,1.6-.9.6-1.6,1-2.3,1.5l.4,1.6h.3c.1-1,.5-1.7.9-2,.3-.2.4-.2.7.2l2.1,3.1c.5.7.5.9.2,1.2l.2.2c.7-.5,1.4-.9,2.1-1.4l-.2-.2c-.4.2-.6.1-1.1-.6Z"/>
    <path d="M79.3,78.5l-1-1-.3-2.6c-.1-.9-.1-1.4,0-1.7l-.2-.2c-.4.5-.9,1.1-1.4,1.6l.2.2c.4-.3.7,0,.8.5l.2,2-2.1-.3c-.5,0-.7-.3-.5-.6l-.2-.2c-.6.6-1.3,1.2-2,1.8l.2.2c.4,0,.6,0,1.2,0l3.2.4.9.9c.6.6.7.8.4,1.2l.2.2c.6-.6,1.2-1.2,1.8-1.8l-.2-.2c-.4.3-.5.2-1.2-.4Z"/>
    <path d="M12.5,32.4c.2,0,.4,0,.6,0l2.6,1.4c.9.5,1.1.8,1,1.2h.3c.3-.4.5-1,.8-1.5h-.3c-.3.1-.7.2-1.6-.3l-2.4-1.3,6-1.5.2-.3-3.8-2.4c-.9-.5-1-.9-.9-1.3l-.2-.2c-.4.5-.7,1-1,1.6l.2.2c.3-.3.6-.3,1.5.3l2,1.2-5,1.2c-.4,0-.5.2-.5.3-.1.3-.6,1.2-.8,1.6h.3c.1,0,.3-.2.9-.3Z"/>
    <path d="M18.3,26.7c1.3,1.2,3.3,1.2,4.7-.3,1.3-1.5,1.1-3.5-.2-4.7-1.3-1.2-3.3-1.2-4.7.3-1.3,1.5-1.1,3.5.2,4.7ZM18.6,22.4c.8-.8,2.1-.8,3.4.4,1.3,1.1,1.4,2.4.7,3.2-.8.8-2.1.8-3.4-.4-1.3-1.1-1.4-2.4-.7-3.2Z"/>
    <path d="M23.5,19l2.1,2.7c.6.7.6.9.3,1.2l.2.2c.5-.5,1.2-1,1.9-1.5l-.2-.2c-.4.2-.5.2-1.1-.5l-.7-.9c.2-.1.3-.3.5-.4,2.1.7,3.1,1.1,4.1.4.4-.3.6-.8.6-1.2h-.3c0,.1-.1.3-.3.4-.6.4-1.6-.2-3-.6.7-.8.9-1.6.4-2.3-.6-.8-1.7-1.1-3.5.2-.7.5-1.9,1.5-2.4,1.9l.2.2c.4-.2.6-.2,1.1.5ZM24.8,16.9c.9-.7,1.6-.6,2.1,0,.5.6.4,1.3-.4,1.8-.3.2-.6.4-.9.6l-1.5-2c.2-.2.4-.4.7-.6Z"/>
    <path d="M29.2,15.3c.2-1,.6-1.6,1.1-1.9.3-.2.4-.2.7.2.6,1.1,1.6,3.2,1.8,3.6.2.5.2.8-.2,1v.3c.9-.4,1.7-.8,2.5-1.1v-.3c-.5.1-.7,0-1-.5-.2-.4-1.2-2.4-1.8-3.6-.2-.4-.2-.5.2-.7.6-.2,1.2-.1,2.1.3l.2-.2-1.1-1.2c-.9.4-1.7.7-2.6,1.2-.9.4-1.7.9-2.5,1.3l.3,1.6h.3Z"/>
    <path d="M36.2,11.8l1,3.3c.3.9.2,1-.2,1.2v.3c.8-.3,1.7-.5,2.4-.8v-.3c-.5,0-.7,0-.9-.9l-.5-1.6c.9-.3,2-.6,2.9-.8l.4,1.6c.2.9.1,1-.3,1.2v.3c.8-.2,1.7-.4,2.4-.5v-.3c-.5,0-.6,0-.8-1l-.7-3.3c-.2-.9-.1-1,.3-1.2v-.3c-.8.1-1.7.3-2.5.5v.3c.5,0,.6,0,.8.9l.3,1.1c-1,.3-1.9.5-2.9.8l-.3-1.1c-.3-.9-.2-1,.2-1.2v-.3c-.9.2-1.8.5-2.5.8v.3c.5,0,.7,0,.9.9Z"/>
    <path d="M45.1,9.8l.3,3.4c0,.9,0,1-.4,1.2v.3c.8,0,1.7-.2,2.7-.2.9,0,1.7,0,2.6,0l.5-1.6h-.3c-.3.2-.6.5-.9.7-.3.2-.7.3-1.7.3-.7,0-.8,0-.9,0,0,0-.1-.2-.1-.4,0-.3-.1-1.2-.2-2.2.9,0,1.3,0,1.7,0,.3,0,.4.3.4.5h.3s0-1.8,0-1.8h-.3c0,.2-.1.4-.4.5-.2,0-.5.1-1.7.2,0-.5,0-1-.1-1.4,0-.2,0-.3,0-.3,0,0,.1,0,.7-.1,1.4,0,2,0,2.8.6l.2-.2-.5-1.1c-.8,0-1.6,0-2.5,0-.8,0-2.1.2-2.9.3v.3c.5,0,.6.2.7,1Z"/>
    <path d="M53.1,14.2c-.5-.2-.6-.5-.3-1l.5-.8c.4,0,.8,0,1.2.1.4,0,.8.1,1.3.2l.3.9c.1.4,0,.8-.4.8v.3c.7.1,1.6.3,2.5.5v-.3c-.3-.2-.4-.4-.6-1.2l-1.6-4.8c-.1-.3-.2-.4-.4-.4-.6,0-1.1-.1-1.6-.2v.3c.2,0,.3.1.5.3.2.2.2.3.1.5l-2.4,3.6c-.4.7-.8,1-1.1,1v.3c.6,0,1.3,0,2,.1v-.3ZM54.8,10l.7,2.2c-.3,0-.6,0-1-.1-.3,0-.6,0-.9-.1l1.2-1.9Z"/>
    <path d="M59.6,15.4c.6.2.8.6,1.9,1,1.1.4,2.5.2,3-1.1.4-1.3-.7-2-1.8-2.6-1.1-.7-1.8-1-1.5-1.7.1-.4.7-.7,1.5-.4,1,.3,1.4,1,1.8,2h.3s0-1.6,0-1.6h-.1c0,0-.2,0-.3,0-.5-.2-.6-.5-1.5-.8-1.2-.4-2.5,0-2.9,1.1-.4,1.3.7,2,1.7,2.6,1.1.7,1.8,1,1.6,1.7-.1.4-.7.7-1.6.5-1.2-.4-1.8-1.2-2.2-2.4h-.3s-.2,1.8-.2,1.8h.1c.1,0,.3,0,.4.1Z"/>
    <path d="M67.8,18.8c-.3-.3-.4-.5-.2-1,.2-.4,1.3-2.4,1.9-3.5.2-.4.3-.4.7-.2.5.3.8.9,1,1.9h.3s.4-1.6.4-1.6c-.8-.5-1.6-1-2.5-1.4-.8-.4-1.7-.9-2.5-1.2l-1.1,1.2.2.2c.9-.4,1.6-.4,2.2-.2.4.2.4.3.2.7-.6,1.2-1.6,3.1-1.9,3.5-.3.5-.5.6-.9.4v.3c.6.4,1.5.8,2.2,1.2v-.3Z"/>
    <path d="M71,19.6c-.5.7-.7.8-1.1.6l-.2.2c.6.4,1.4,1,2.1,1.6.7.5,1.3,1,2,1.6l1.5-.8v-.2c-.6,0-1,0-1.4,0-.4,0-.7-.2-1.5-.9-.6-.4-.6-.5-.6-.6,0,0,0-.2.2-.4.1-.2.7-1,1.3-1.8.8.5,1.1.8,1.2,1.1.1.3.1.4,0,.7l.2.2,1.2-1.4-.2-.2c-.2.1-.3.2-.7.1-.2,0-.5-.2-1.4-.9.3-.4.6-.8.9-1.1.1-.1.2-.2.3-.2,0,0,.1,0,.6.4,1.1.9,1.5,1.3,1.7,2.3h.3s.3-1.2.3-1.2c-.6-.5-1.2-1-1.9-1.6-.7-.5-1.7-1.3-2.3-1.7l-.2.2c.3.3.3.5-.2,1.2l-2,2.7Z"/>
    <path d="M75.2,24.5l-.2.2c.5.5,1.1,1.1,1.7,1.8l.2-.2c-.2-.4-.2-.5.4-1.1l.8-.7c.1.1.3.3.4.5-.6,2.2-.9,3.1,0,4.1.3.4.8.6,1.2.5v-.3c-.2,0-.3,0-.4-.2-.4-.5,0-1.5.4-2.9.9.7,1.7.8,2.4.2.8-.7,1-1.8-.5-3.4-.6-.7-1.6-1.7-2.1-2.2l-.2.2c.2.4.2.5-.4,1.1l-2.5,2.3c-.7.6-.8.6-1.2.3ZM80.5,22.3c.2.2.4.4.6.7.7.8.7,1.6,0,2.1-.6.5-1.2.5-1.9-.3-.3-.3-.5-.6-.7-.8l1.9-1.7Z"/>
    <path d="M79.8,30l-.2.2c.3.5.7,1,1,1.6h.2c0-.5,0-.9.9-1.4l2.3-1.4-1.8,5.9.2.4,4-2c.9-.5,1.3-.4,1.6,0h.3c-.3-.7-.5-1.3-.8-1.8h-.3c0,.5,0,.8-1,1.3l-2.1,1.1,1.6-4.9c.1-.4,0-.5,0-.6-.2-.3-.7-1.1-1-1.5l-.2.2c0,.2,0,.4,0,1,0,.2-.1.3-.4.5l-2.6,1.6c-.9.5-1.3.5-1.6.2Z"/>
  </g>
  <g>
    <path class="st0" d="M129,78.8l-5.4,1.4c-.9-2.3-2.3-3.4-4.7-3.4s-5.3,2.5-5.3,7.1,1.9,7.2,5.4,7.2,4.2-1.4,5.2-3.9l5.3,1.6c-1.8,4.6-5.9,6.9-10.7,6.9s-11-3.4-11-11.8,5.3-11.7,11.1-11.7,8.3,1.8,10.1,6.7Z"/>
    <path class="st0" d="M149.4,86.5c0,5.4-3.6,9-9.2,9s-9.2-3.7-9.2-9,3.5-9,9.2-9,9.2,3.9,9.2,9ZM136.5,86.5c0,3.3,1.3,4.9,3.6,4.9s3.6-1.6,3.6-4.9-1.4-4.8-3.6-4.8-3.6,1.4-3.6,4.8Z"/>
    <path class="st0" d="M157,95.1h-5.4v-22.4h5.4v22.4Z"/>
    <path class="st0" d="M165.5,95.1h-5.4v-22.4h5.4v22.4Z"/>
    <path class="st0" d="M185,86.9v1h-11.7c.2,2.5,1.6,3.7,3.7,3.7s2.8-.9,3.6-2.1l4.2,2c-1.7,2.6-4.3,4.1-8.1,4.1-5.6,0-9-3.8-9-9s3.2-9,8.7-9,8.6,3.6,8.6,9.4ZM173.3,84.6h6.3c-.1-2.4-1.3-3.4-3.2-3.4s-3,1-3.1,3.4Z"/>
    <path class="st0" d="M204.1,80.5c-1.2,0-1.7,0-2.4.3.6.8.8,1.7.8,2.6,0,3.1-2.5,5.6-7.7,5.6s-2.3-.2-3.3-.5c-.3.3-.4.6-.4,1,0,.7.5,1.1,2.1,1.1h2.8c5.1,0,7.5,2.2,7.5,5.2s-3,5.5-9,5.5-8.4-1.9-8.4-4.4.9-2.6,2.5-3.3c-1.2-.7-1.7-1.8-1.7-2.9s.9-2.4,2.2-3.2c-1.5-.9-2.4-2.4-2.4-4.2,0-3.2,2.6-5.8,7.9-5.8s3.4.4,4.6.9c1.1-1.3,2.7-2.2,5.1-2.2v4.3ZM191.4,94.6c-.6.4-.9.9-.9,1.5,0,1,.7,1.6,3.8,1.6s3.7-.6,3.7-1.7-.8-1.4-2.9-1.4h-3.7ZM191.9,83.2c0,1.3,1,2.2,2.7,2.2s2.7-.8,2.7-2.2-1-2.2-2.7-2.2-2.7.9-2.7,2.3Z"/>
    <path class="st0" d="M221.9,86.9v1h-11.7c.2,2.5,1.6,3.7,3.7,3.7s2.8-.9,3.6-2.1l4.2,2c-1.7,2.6-4.3,4.1-8.1,4.1-5.6,0-9-3.8-9-9s3.2-9,8.7-9,8.6,3.6,8.6,9.4ZM210.2,84.6h6.3c-.1-2.4-1.3-3.4-3.2-3.4s-3,1-3.1,3.4Z"/>
    <path class="st0" d="M248.5,86.5c0,5.4-3.6,9-9.2,9s-9.2-3.7-9.2-9,3.5-9,9.2-9,9.2,3.9,9.2,9ZM235.6,86.5c0,3.3,1.3,4.9,3.6,4.9s3.6-1.6,3.6-4.9-1.4-4.8-3.6-4.8-3.6,1.4-3.6,4.8Z"/>
    <path class="st0" d="M261.5,72.8v3.7c-.9-.3-2-.5-3-.5s-1.8.3-1.8,1.4v1h4.1v3.8h-4.1v12.9h-5.4v-12.9h-2.3v-3.8h2.3v-1.4c0-2.9,1.8-4.9,6-4.9s3,.3,4.2.7Z"/>
    <path class="st0" d="M281.6,91.8h-7.9l-.9,3.3h-5.7l7.1-22.4h7.1l7.2,22.4h-6l-.9-3.3ZM277.7,76.9l-2.8,10.5h5.5l-2.7-10.5Z"/>
    <path class="st0" d="M300.9,77.6v5.1c-.6,0-.8,0-1.1,0-2.6,0-4.6,1.1-4.6,5.8v6.7h-5.4v-17.1h5.2v2.8c1.2-2.4,2.8-3.2,4.6-3.2s.9,0,1.3,0Z"/>
    <path class="st0" d="M309.3,78.4h4v3.8h-4v7c0,1.4.4,2,1.9,2s1.5-.1,2.3-.3v4c-1.1.4-2.4.6-3.9.6-4.3,0-5.8-2-5.8-5.5v-7.9h-2.3v-3.8h2.3v-4.4h5.4v4.4Z"/>
    <path class="st0" d="M330.5,80.1l-2.6,2.9c-1.5-1.2-2.9-1.7-4.6-1.7s-2.4.5-2.4,1.3.5,1.2,4,1.9c4.1.8,6,2.4,6,5.5s-2.9,5.5-8,5.5-6.5-1.2-8.5-2.9l2.6-3.1c1.8,1.5,3.6,2.1,5.3,2.1s3-.5,3-1.4-.3-1.2-3.8-1.9c-4.1-.8-6-2.3-6-5.3s3.4-5.5,7.7-5.5,5.8,1.1,7.5,2.6Z"/>
    <path class="st0" d="M339.8,92.4c0,3-1.7,6-4,8.3l-2.8-1.5c.9-1.5,1.5-2.7,1.6-4.4-1-.7-1.7-1.4-1.7-2.8s1.4-3,3.3-3,3.4,1.5,3.4,3.5Z"/>
    <path class="st0" d="M133.3,128.1h-5.4v-16l-4.2,16h-5.2l-4.6-15.7v15.7h-5.1v-22.4h7.8l4.5,16,4-16h8.2v22.4Z"/>
    <path class="st0" d="M153.1,119.9v1h-11.7c.2,2.5,1.6,3.7,3.7,3.7s2.8-.9,3.6-2.1l4.2,2c-1.7,2.6-4.3,4.1-8.1,4.1-5.6,0-9-3.8-9-9s3.2-9,8.7-9,8.6,3.6,8.6,9.4ZM141.4,117.6h6.3c-.1-2.4-1.3-3.4-3.2-3.4s-3,1-3.1,3.4Z"/>
    <path class="st0" d="M172.2,128.1h-5.2v-1.8c-1.2,1.5-3,2.2-5,2.2-4.5,0-7.5-3.7-7.5-9s3.4-9,7.7-9,3.5.6,4.5,1.8v-6.6h5.4v22.4ZM160.3,119.6c0,3.2,1.3,4.8,3.5,4.8s3.4-1.5,3.4-4.8-1.4-4.9-3.4-4.9-3.5,1.7-3.5,4.9Z"/>
    <path class="st0" d="M181.2,105.8c0,1.6-1.4,2.9-3.1,2.9s-3.1-1.3-3.1-2.9,1.4-2.9,3.1-2.9,3.1,1.3,3.1,2.9ZM180.8,128.1h-5.4v-17.1h5.4v17.1Z"/>
    <path class="st0" d="M198.8,115.9v8.4c0,1.4,0,2.6.6,3.8h-5.2c-.3-.5-.5-1.1-.6-1.7-1.2,1.6-2.9,2.1-4.9,2.1-3.6,0-5.7-2.2-5.7-5.2s2-5.2,7.2-5.9l3.2-.4v-.8c0-1.5-.4-2.1-2.1-2.1s-2.3.6-2.3,2h-5.3c.1-3.7,2.9-5.6,7.7-5.6s7.4,2,7.4,5.4ZM191.5,120.5c-2.2.3-3,1-3,2.2s.7,1.8,2,1.8,3-1.2,3-2.8v-1.5l-2,.3Z"/>
    <path class="st0" d="M223.4,115.9v8.4c0,1.4,0,2.6.6,3.8h-5.2c-.3-.5-.5-1.1-.6-1.7-1.2,1.6-2.9,2.1-4.9,2.1-3.6,0-5.7-2.2-5.7-5.2s2-5.2,7.2-5.9l3.2-.4v-.8c0-1.5-.4-2.1-2.1-2.1s-2.3.6-2.3,2h-5.3c.1-3.7,2.9-5.6,7.7-5.6s7.4,2,7.4,5.4ZM216.1,120.5c-2.2.3-3,1-3,2.2s.7,1.8,2,1.8,3-1.2,3-2.8v-1.5l-2,.3Z"/>
    <path class="st0" d="M242.7,116.9v11.2h-5.4v-9.6c0-2.3-.6-3.5-2.4-3.5s-3.1,1.5-3.1,3.8v9.3h-5.4v-17.1h5.2v2.3c1.3-2,3.1-2.8,5.4-2.8,3.6,0,5.6,2.3,5.6,6.4Z"/>
    <path class="st0" d="M262.4,128.1h-5.2v-1.8c-1.2,1.5-3,2.2-5,2.2-4.5,0-7.5-3.7-7.5-9s3.4-9,7.7-9,3.5.6,4.5,1.8v-6.6h5.4v22.4ZM250.5,119.6c0,3.2,1.3,4.8,3.5,4.8s3.4-1.5,3.4-4.8-1.4-4.9-3.4-4.9-3.5,1.7-3.5,4.9Z"/>
    <path class="st0" d="M292.3,116.6c0,8.8-5.8,11.5-11.2,11.5h-8.5v-22.4h7.6c6.4,0,12.2,2.8,12.2,10.9ZM278.1,110.2v13.4h2.9c2.6,0,5.4-1.2,5.4-7s-1.8-6.4-6.2-6.4h-2.1Z"/>
    <path class="st0" d="M311.1,119.9v1h-11.7c.2,2.5,1.6,3.7,3.7,3.7s2.8-.9,3.6-2.1l4.2,2c-1.7,2.6-4.3,4.1-8.1,4.1-5.6,0-9-3.8-9-9s3.2-9,8.7-9,8.6,3.6,8.6,9.4ZM299.4,117.6h6.3c-.1-2.4-1.3-3.4-3.2-3.4s-3,1-3.1,3.4Z"/>
    <path class="st0" d="M328,113.1l-2.6,2.9c-1.5-1.2-2.9-1.7-4.6-1.7s-2.4.5-2.4,1.3.5,1.2,4,1.9c4.1.8,6,2.4,6,5.5s-2.9,5.5-8,5.5-6.5-1.2-8.5-2.9l2.6-3.1c1.8,1.5,3.6,2.1,5.3,2.1s3-.5,3-1.4-.3-1.2-3.8-1.9c-4.1-.8-6-2.3-6-5.3s3.4-5.5,7.7-5.5,5.8,1.1,7.5,2.6Z"/>
    <path class="st0" d="M336.2,105.8c0,1.6-1.4,2.9-3.1,2.9s-3.1-1.3-3.1-2.9,1.4-2.9,3.1-2.9,3.1,1.3,3.1,2.9ZM335.9,128.1h-5.4v-17.1h5.4v17.1Z"/>
    <path class="st0" d="M355.9,113.5c-1.2,0-1.7,0-2.4.3.6.8.8,1.7.8,2.6,0,3.1-2.5,5.6-7.7,5.6s-2.3-.2-3.3-.5c-.3.3-.4.6-.4,1,0,.7.5,1.1,2.1,1.1h2.8c5.1,0,7.5,2.2,7.5,5.2s-3,5.5-9,5.5-8.4-1.9-8.4-4.4.9-2.6,2.5-3.3c-1.2-.7-1.7-1.8-1.7-2.9s.9-2.4,2.2-3.2c-1.5-.9-2.4-2.4-2.4-4.2,0-3.2,2.6-5.8,7.9-5.8s3.4.4,4.6.9c1.1-1.3,2.7-2.2,5.1-2.2v4.3ZM343.2,127.6c-.6.4-.9.9-.9,1.5,0,1,.7,1.6,3.8,1.6s3.7-.6,3.7-1.7-.8-1.4-2.9-1.4h-3.7ZM343.7,116.2c0,1.3,1,2.2,2.7,2.2s2.7-.8,2.7-2.2-1-2.2-2.7-2.2-2.7.9-2.7,2.3Z"/>
    <path class="st0" d="M373.8,116.9v11.2h-5.4v-9.6c0-2.3-.6-3.5-2.4-3.5s-3.1,1.5-3.1,3.8v9.3h-5.4v-17.1h5.2v2.3c1.3-2,3.1-2.8,5.4-2.8,3.6,0,5.6,2.3,5.6,6.4Z"/>
  </g>
  <g>
    <path class="st0" d="M329.7,58.9l3.7-8.3c.7-1.6,1-2,1.7-2.2v-.6s-3.9,0-3.9,0v.6c1.3.3,1.4.9.8,2.3l-1.5,3.6-1.9-4.2c-.4-.9-.3-1.5,1-1.6v-.6s-5.2,0-5.2,0v.6c.6.2.9.4,1.4,1.5l3.3,7.1-.6,1.2c-.3.7-.6,1.2-.9,1.5-.2-.8-.7-1.2-1.4-1.2s-1.3.5-1.3,1.4.8,1.6,1.6,1.6c1.3,0,2.1-.6,3-2.8M324.4,56.4l-.3-.6c-.5.2-1,.4-1.4.4-.9,0-1.2-.5-1.2-1.1v-6s2.5,0,2.5,0v-1.1s-2.5,0-2.5,0v-1.8s-.4,0-.4,0l-3.6,2.3v.6s1.4,0,1.4,0v6.5c0,1.3.7,2,2.2,2s2.2-.4,3.2-1.1M316.9,56.7c-1.2-.2-1.4-.4-1.4-1.5v-7.6s-1,0-1,0l-2.9,1.9v.4s1.4,0,1.4,0v5.3c0,1.1-.2,1.3-1.4,1.5v.6s5.3,0,5.3,0v-.6ZM314,46.1c.8,0,1.5-.7,1.5-1.5s-.6-1.4-1.4-1.4-1.5.7-1.5,1.5.6,1.4,1.4,1.4M310.6,54.4c0-1.8-1.5-2.4-3-2.9-1.4-.5-2.4-.7-2.4-1.8s.4-1.1,1.2-1.1,1.9.6,3,1.8l.5-.2-.8-2.5h-.3s-.4.3-.4.3c-.6-.2-1.2-.4-1.9-.4-2.1,0-3.5,1.2-3.5,3,0,1.8,1.5,2.4,3,2.8,1.4.5,2.4.7,2.4,1.8s-.5,1.2-1.4,1.2-2.3-.9-3.6-2.4l-.5.2.8,3.1h.3s.6-.4.6-.4c.7.3,1.4.5,2.2.5,2,0,3.7-1.2,3.7-3.1M300.2,56.7c-1.3-.2-1.5-.5-1.5-1.7v-4.1c.4-.7.8-1.2,1.2-1.6,0,.8.5,1.3,1.2,1.3s1.3-.5,1.3-1.6-.5-1.4-1.4-1.4-1.7.8-2.4,2v-2s-.9,0-.9,0l-2.9,1.9v.4s1.4,0,1.4,0v5.3c0,1.1-.2,1.4-1.3,1.5v.6s5.3,0,5.3,0v-.6ZM287.8,51.3c0-1.6.7-2.6,2-2.6s1.5.7,1.7,1.9l-3.7,1.3c0-.2,0-.4,0-.7M294,55.5l-.5-.4c-.5.6-1.3,1-2.3,1-1.8,0-2.9-1.4-3.2-3.2l5.9-2c-.1-2.1-1.7-3.2-3.6-3.2s-4.8,2.2-4.8,5,1.8,4.8,4.8,4.8c1.9,0,3-.8,3.7-2M283.6,50.7c.7-1.6,1-2,1.7-2.2v-.6s-3.9,0-3.9,0v.6c1.3.3,1.4.9.8,2.3l-1.5,3.6-1.9-4.2c-.4-.9-.3-1.5,1-1.6v-.6s-5.2,0-5.2,0v.6c.6.2.9.4,1.4,1.5l3.4,7.3h1s3.1-6.8,3.1-6.8ZM274.6,56.8c-1.2-.2-1.4-.4-1.4-1.5v-7.6s-1,0-1,0l-2.9,1.9v.4s1.4,0,1.4,0v5.3c0,1.1-.2,1.3-1.4,1.5v.6s5.3,0,5.3,0v-.6ZM271.8,46.2c.8,0,1.5-.7,1.5-1.5s-.6-1.4-1.4-1.4-1.5.7-1.5,1.5c0,.8.6,1.4,1.4,1.4M261.8,56.8c-1.1-.2-1.3-.4-1.3-1.5v-4.6c1-.9,1.8-1.3,2.5-1.3s1.2.5,1.3,1.4v4.5c0,1.1-.2,1.4-1.3,1.5v.6s5.1,0,5.1,0v-.6c-1.1-.2-1.3-.4-1.3-1.5v-4.7c0-1.6-.7-2.7-2.7-2.7s-2.4.8-3.6,1.8v-1.9s-.9,0-.9,0l-2.9,1.9v.4s1.4,0,1.4,0v5.3c0,1.1-.2,1.4-1.3,1.5v.6s5.1,0,5.1,0v-.6ZM240.1,45.2v5.9c0,3.8,2,6.5,7.1,6.5,5.1,0,7.1-2.7,7-6.5v-4.8c0-2.3.6-2.9,1.8-3.2v-.6s-4.8,0-4.8,0v.6c1.1.3,1.8.9,1.8,3.2v4.8c0,3.4-1.7,4.9-5.1,4.9-3.3,0-5.1-1.5-5.1-4.9v-6c0-1.5.4-1.8,1.7-1.9v-.7s-6,0-6,0v.7c1.3.2,1.6.4,1.6,1.9"/>
    <path class="st0" d="M224.3,56.8c-1.1-.2-1.3-.4-1.3-1.5v-4.6c1-.9,1.8-1.3,2.5-1.3s1.2.5,1.3,1.4v4.5c0,1.1-.2,1.4-1.3,1.5v.6s5.1,0,5.1,0v-.6c-1.1-.2-1.3-.4-1.3-1.5v-4.7c0-1.6-.7-2.7-2.7-2.7s-2.4.8-3.6,1.8v-1.9s-.9,0-.9,0l-2.9,1.9v.4s1.4,0,1.4,0v5.3c0,1.1-.2,1.4-1.3,1.5v.6s5.1,0,5.1,0v-.6ZM216.4,56.9c-1.3-.2-1.5-.5-1.5-1.7v-4.1c.4-.7.8-1.2,1.2-1.6,0,.8.5,1.3,1.2,1.3s1.3-.5,1.3-1.6-.5-1.4-1.4-1.4-1.7.8-2.4,2v-2s-.9,0-.9,0l-2.9,1.9v.4s1.4,0,1.4,0v5.3c0,1.1-.2,1.4-1.3,1.5v.6s5.3,0,5.3,0v-.6ZM203.9,51.5c0-1.6.7-2.6,2-2.6s1.5.7,1.7,1.9l-3.7,1.3c0-.2,0-.4,0-.7M210.2,55.7l-.5-.4c-.5.6-1.3,1-2.3,1-1.8,0-2.9-1.4-3.2-3.2l5.9-2c-.1-2.1-1.7-3.2-3.6-3.2-2.8,0-4.8,2.2-4.8,5s1.8,4.8,4.8,4.8c1.9,0,3-.8,3.7-2M201,56.6l-.3-.6c-.5.2-1,.4-1.4.4-.9,0-1.2-.5-1.2-1.1v-6s2.5,0,2.5,0v-1.1s-2.5,0-2.5,0v-1.8s-.4,0-.4,0l-3.6,2.3v.6s1.4,0,1.4,0v6.5c0,1.3.7,2,2.2,2s2.2-.4,3.2-1.1M193.5,54.6c0-1.8-1.5-2.4-3-2.9-1.4-.5-2.4-.7-2.4-1.8s.4-1.1,1.2-1.1,1.9.6,3,1.8l.5-.2-.8-2.5h-.3s-.4.3-.4.3c-.6-.2-1.2-.4-1.9-.4-2.1,0-3.5,1.2-3.5,3s1.5,2.4,3,2.8c1.4.5,2.4.7,2.4,1.8s-.5,1.2-1.4,1.2-2.3-.9-3.6-2.4l-.5.2.8,3.1h.3s.6-.4.6-.4c.7.3,1.4.5,2.2.5,2,0,3.7-1.2,3.7-3.1M178.2,55c0-1,.5-1.5,2.8-2.1v2.9c-.5.4-1,.6-1.5.6-.8,0-1.2-.4-1.2-1.4M182.6,57.7c.9,0,1.8-.4,2.4-.8l-.2-.6c-1,.2-1.3,0-1.3-.6v-5.3c0-1.6-.7-2.4-2.9-2.4s-4.4,1.4-4.4,2.6.4,1.1,1.1,1.1,1.2-.5,1.3-1.1c.1-.6,0-1.1-.4-1.3.5-.2,1-.4,1.5-.4.9,0,1.3.3,1.3,1.1v2c-3.5.9-5.2,1.7-5.2,3.5s.9,2.2,2.4,2.2,2-.4,2.9-1.1c.1.7.6,1,1.4,1M168.5,51.6c0-1.6.7-2.6,2-2.6s1.5.7,1.7,1.9l-3.7,1.3c0-.2,0-.4,0-.7M174.8,55.8l-.5-.4c-.5.6-1.3,1-2.3,1-1.8,0-2.9-1.4-3.2-3.2l5.9-2c-.1-2.1-1.7-3.2-3.6-3.2s-4.8,2.2-4.8,5,1.8,4.8,4.8,4.8c1.9,0,3-.8,3.7-2M159,57c-1.1-.2-1.3-.4-1.3-1.5v-4.6c.9-.9,1.7-1.3,2.5-1.3s1.2.5,1.3,1.4v4.5c0,1.1-.2,1.4-1.3,1.5v.6s5.1,0,5.1,0v-.6c-1.1-.2-1.3-.4-1.3-1.5v-4.7c0-1.6-.7-2.7-2.7-2.7s-2.4.7-3.6,1.7v-7.9s-.7,0-.7,0l-3.2,2.1v.4s1.4,0,1.4,0v11.1c0,1.1-.2,1.4-1.3,1.5v.6s5.1,0,5.1,0v-.6ZM153.3,56.7l-.3-.6c-.5.2-1,.4-1.4.4-.9,0-1.2-.5-1.2-1.1v-6s2.5,0,2.5,0v-1.1s-2.5,0-2.5,0v-1.8s-.4,0-.4,0l-3.6,2.3v.6s1.4,0,1.4,0v6.5c0,1.3.7,2,2.2,2s2.2-.4,3.2-1.1M143.6,57c-1.3-.2-1.5-.5-1.5-1.7v-4.1c.4-.7.8-1.2,1.2-1.6,0,.8.5,1.3,1.2,1.3s1.3-.5,1.3-1.6-.5-1.4-1.4-1.4-1.7.8-2.4,2v-2s-.9,0-.9,0l-2.9,1.9v.4s1.4,0,1.4,0v5.3c0,1.1-.2,1.4-1.3,1.5v.6s5.3,0,5.3,0v-.6ZM129.2,51.9c0-1.8.8-2.9,2.4-2.9s2.7,2.6,2.7,4.9c0,1.8-.8,2.9-2.4,2.9s-2.7-2.6-2.7-4.9M136.8,52.8c0-2.6-1.8-4.8-4.9-4.8s-5.1,2.3-5.1,5,1.8,4.8,4.9,4.8,5.1-2.3,5.1-5M123.9,46.6c0-2.3.6-2.9,1.8-3.2v-.6s-4.8,0-4.8,0v.6c1.1.3,1.8.9,1.8,3.2v7s-10.1-10.2-10.1-10.2c-.6-.6-.8-.6-1.1-.6h-3.7s0,.6,0,.6c.8,0,1.3.4,2.2,1.3.3.3.6.6.6,1.2v7.9c0,2.3-.6,2.9-1.8,3.2v.6s4.8,0,4.8,0v-.6c-1.1-.3-1.8-.9-1.8-3.2v-7.5s11.4,11.4,11.4,11.4h.8s0-11.1,0-11.1Z"/>
  </g>
</svg>