<?xml version="1.0" encoding="UTF-8"?>
<svg id="Layer_1" xmlns="http://www.w3.org/2000/svg" version="1.1" viewBox="0 0 528.5 164.6">
  <!-- Generator: Adobe Illustrator 29.4.0, SVG Export Plug-In . SVG Version: 2.1.0 Build 152)  -->
  <defs>
    <style>
      .st0 {
        fill: #231f20;
      }
    </style>
  </defs>
  <g>
    <g>
      <polygon class="st0" points="241.9 17.2 238.2 5.3 234.6 5.3 234.6 21.3 237 21.3 237 9.3 240.7 21.3 243 21.3 246.8 9.2 246.8 21.3 249.2 21.3 249.2 5.3 245.5 5.3 241.9 17.2"/>
      <rect class="st0" x="253.2" y="5.3" width="2.4" height="16"/>
      <polygon class="st0" points="257.9 5.3 257.9 7.5 262.4 7.5 262.4 21.3 264.8 21.3 264.8 7.5 269.3 7.5 269.3 5.3 257.9 5.3"/>
    </g>
    <path class="st0" d="M234.6,36h6l7.7,24.9,7.5-24.9h6.1v30h-3.5v-27.4l-8.4,27.4h-3.5l-8.4-27.2v27.2h-3.5v-30Z"/>
    <path class="st0" d="M280.8,35.3c2.1,0,3.9.4,5.6,1.1,1.6.7,3,1.8,4.2,3.1,1.1,1.3,2,3,2.6,5s.9,4.1.9,6.6-.3,4.6-.9,6.5-1.5,3.6-2.6,4.9c-1.1,1.3-2.5,2.4-4.2,3.1-1.7.7-3.5,1.1-5.6,1.1s-3.9-.4-5.6-1.1c-1.6-.7-3-1.8-4.2-3.1-1.2-1.4-2-3-2.6-4.9-.6-1.9-.9-4.1-.9-6.5s.3-4.6.9-6.6c.6-2,1.5-3.6,2.6-5,1.2-1.4,2.5-2.4,4.2-3.1,1.6-.7,3.5-1.1,5.6-1.1ZM280.8,63.3c3.1,0,5.5-1.1,7.1-3.2,1.6-2.1,2.5-5.2,2.5-9.1s-.8-7-2.5-9.1c-1.7-2.1-4-3.2-7.1-3.2s-5.4,1.1-7.1,3.2c-1.7,2.1-2.5,5.2-2.5,9.1s.8,7,2.5,9.1c1.6,2.1,4,3.2,7.1,3.2Z"/>
    <path class="st0" d="M300.2,36h11.9c1.7,0,3,0,4.1.3s2,.5,2.8.9c1.1.6,2,1.4,2.7,2.5s1,2.4,1,3.7c0,2.2-.7,3.9-2.1,5.1s-3.4,2-5.9,2.1l8.5,15.4h-3.9l-8.5-15.3h-7.1v15.3h-3.5v-30ZM311.9,47.6c1.3,0,2.4,0,3.3-.2.9-.2,1.6-.4,2.2-.7.6-.3,1-.8,1.2-1.3.2-.6.4-1.2.4-2,0-1.6-.5-2.7-1.6-3.3-1-.6-2.9-1-5.5-1h-8.2v8.6h8.2Z"/>
    <path class="st0" d="M329,36h4.9l14.5,26.5v-26.5h3.5v30h-5.2l-14.3-25.9v25.9h-3.5v-30Z"/>
    <path class="st0" d="M360.9,36h3.5v30h-3.5v-30Z"/>
    <path class="st0" d="M372,36h4.9l14.5,26.5v-26.5h3.5v30h-5.2l-14.3-25.9v25.9h-3.5v-30Z"/>
    <path class="st0" d="M424,50.5h-12.6v-3.1h16.1v12.8c-1,2-2.5,3.6-4.5,4.7-2,1.1-4.3,1.7-6.9,1.7s-4.1-.4-5.9-1.1c-1.7-.7-3.2-1.8-4.4-3.2-1.2-1.4-2.1-3.1-2.8-5.1-.6-2-1-4.2-1-6.7s.3-4.5.9-6.3c.6-1.9,1.5-3.5,2.7-4.8s2.6-2.3,4.3-3c1.7-.7,3.5-1.1,5.6-1.1s4.2.5,5.9,1.3c1.6.9,3.1,2.3,4.5,4.2l-2.5,3c-1.4-3.7-4.1-5.5-8-5.5s-5.4,1.1-7.2,3.2c-1.7,2.1-2.6,5.1-2.6,8.9s.3,3.8.8,5.4c.5,1.6,1.2,3,2.2,4.2.9,1.2,2.1,2,3.4,2.7s2.8.9,4.4.9,3-.3,4.2-.9c1.2-.6,2.4-1.6,3.4-2.9v-9.3Z"/>
    <path class="st0" d="M436.2,55.5c.2,2.6,1.1,4.6,2.5,6,1.5,1.4,3.5,2,6.1,2s2.1-.1,3-.4c.9-.3,1.7-.7,2.3-1.2.6-.5,1.1-1.1,1.5-1.8.4-.7.5-1.5.5-2.4s-.2-1.6-.5-2.3c-.3-.7-.8-1.3-1.5-1.7-.3-.2-.6-.4-.9-.6-.3-.2-.6-.3-1-.5-.4-.1-.8-.3-1.3-.4-.5-.1-1.1-.3-1.8-.5l-3.4-.9c-1.6-.4-2.8-.8-3.6-1.2-.8-.4-1.6-.9-2.2-1.6-1.2-1.3-1.8-2.9-1.8-4.9s.9-4.5,2.6-5.9c1.8-1.4,4.2-2.1,7.4-2.1,5.4,0,9,2,10.8,6.1l-3,2.6c-.4-1.2-.9-2.1-1.3-2.7-.5-.6-1.1-1.2-1.8-1.7-.6-.4-1.4-.7-2.2-.9-.9-.2-1.8-.3-2.7-.3-1.9,0-3.4.4-4.5,1.2-1.1.8-1.6,1.9-1.6,3.3s0,1.2.2,1.6c.2.4.5.8.9,1.2.4.3,1,.6,1.8.9.8.3,1.7.6,2.9.9l3.3.8c1.6.4,2.8.8,3.7,1.2.9.4,1.7.9,2.4,1.4,1.9,1.6,2.8,3.8,2.8,6.5s-.3,2.7-.8,3.8c-.5,1.1-1.2,2.1-2.2,2.9s-2.1,1.4-3.4,1.8c-1.4.4-2.9.6-4.5.6-3.3,0-5.9-.7-8-2.2-2-1.5-3.4-3.6-4-6.4l3.3-2.4Z"/>
    <path class="st0" d="M462.7,36h3.5v30h-3.5v-30Z"/>
    <path class="st0" d="M475,36h7.4c1.3,0,2.5,0,3.5.1,1,0,2,.2,2.8.4s1.6.4,2.3.8,1.3.7,2,1.1c1.8,1.3,3.2,3,4.1,5.3.9,2.2,1.4,4.8,1.4,7.8s-.3,4.3-.8,6.1c-.6,1.8-1.4,3.3-2.4,4.5-1.1,1.2-2.4,2.2-3.9,2.9-1.5.7-3.3,1-5.2,1h-11v-30ZM483,62.9c1.2,0,2.2,0,3.2-.1.9,0,1.7-.2,2.4-.4s1.3-.4,1.8-.7c.5-.3,1-.6,1.4-1.1,1-1,1.8-2.3,2.4-3.9.5-1.6.8-3.4.8-5.5s-.4-4.4-1.1-6.2-1.7-3.2-3-4.2c-.9-.7-2-1.2-3.2-1.5-1.2-.3-2.7-.5-4.6-.5h-4.5v23.9h4.5Z"/>
    <path class="st0" d="M504.4,36h18.8v3.1h-15.3v7.7h13.4v3.1h-13.4v13.2h15.3v3.1h-18.8v-30Z"/>
    <path class="st0" d="M242.1,81h4.3l10.9,30h-3.8l-2.8-7.8h-13l-2.7,7.8h-3.8l10.9-30ZM249.6,100.1l-5.4-15.2-5.4,15.2h10.8Z"/>
    <path class="st0" d="M284.8,104.2c-2.1,5-5.8,7.5-11.2,7.5s-7.4-1.3-9.6-4c-2.2-2.7-3.3-6.5-3.3-11.5s1.1-9,3.3-11.8c2.2-2.7,5.4-4.1,9.5-4.1s4.6.6,6.5,1.7c1.9,1.1,3.3,2.7,4.2,4.7l-2.7,2.9c-1.3-4.1-4-6.2-8.1-6.2s-5.2,1.1-6.8,3.3c-1.6,2.2-2.4,5.3-2.4,9.2s.8,7.1,2.5,9.3c1.7,2.2,4,3.3,7,3.3s6.8-2.3,8.2-6.8l2.8,2.5Z"/>
    <path class="st0" d="M298.1,81h4.3l10.9,30h-3.8l-2.8-7.8h-13l-2.7,7.8h-3.8l10.9-30ZM305.6,100.1l-5.4-15.2-5.4,15.2h10.8Z"/>
    <path class="st0" d="M318.2,81h7.4c1.3,0,2.5,0,3.5.1,1,0,2,.2,2.8.4s1.6.4,2.3.8,1.3.7,2,1.1c1.8,1.3,3.2,3,4.1,5.3.9,2.2,1.4,4.8,1.4,7.8s-.3,4.3-.8,6.1c-.6,1.8-1.4,3.3-2.4,4.5-1.1,1.2-2.4,2.2-3.9,2.9-1.5.7-3.3,1-5.2,1h-11v-30ZM326.2,107.9c1.2,0,2.2,0,3.2-.1.9,0,1.7-.2,2.4-.4s1.3-.4,1.8-.7c.5-.3,1-.6,1.4-1.1,1-1,1.8-2.3,2.4-3.9.5-1.6.8-3.4.8-5.5s-.4-4.4-1.1-6.2-1.7-3.2-3-4.2c-.9-.7-2-1.2-3.2-1.5-1.2-.3-2.7-.5-4.6-.5h-4.5v23.9h4.5Z"/>
    <path class="st0" d="M347.5,81h18.8v3.1h-15.3v7.7h13.4v3.1h-13.4v13.2h15.3v3.1h-18.8v-30Z"/>
    <path class="st0" d="M371.9,81h6l7.7,24.9,7.5-24.9h6.1v30h-3.5v-27.4l-8.4,27.4h-3.5l-8.4-27.2v27.2h-3.5v-30Z"/>
    <path class="st0" d="M414.1,98.8l-10.3-17.8h4.2l8,14,7.7-14h4.1l-10.4,18.1v11.9h-3.5v-12.2Z"/>
    <g>
      <polygon class="st0" points="437.7 97 440.1 97 440.1 88.8 445.9 88.8 445.9 86.5 440.1 86.5 440.1 83.2 447.3 83.2 447.3 81 437.7 81 437.7 97"/>
      <path class="st0" d="M461.4,82.9c-.6-.7-1.4-1.3-2.3-1.7-.9-.4-1.9-.6-3-.6s-2.1.2-3,.6c-.9.4-1.6,1-2.3,1.7-.6.7-1.1,1.6-1.4,2.6-.3,1-.5,2.2-.5,3.5s.2,2.4.5,3.4c.3,1,.8,1.9,1.4,2.6.6.7,1.4,1.3,2.3,1.7.9.4,1.9.6,3,.6s2.1-.2,3-.6c.9-.4,1.6-1,2.3-1.7.6-.7,1.1-1.6,1.4-2.6.3-1,.5-2.2.5-3.4s-.2-2.4-.5-3.5c-.3-1-.8-1.9-1.4-2.6ZM460.7,89c0,1.9-.4,3.4-1.2,4.4-.8,1-1.9,1.5-3.4,1.5s-2.6-.5-3.4-1.5c-.8-1-1.2-2.5-1.2-4.4s.4-3.4,1.2-4.5c.8-1,1.9-1.5,3.3-1.5s2.6.5,3.4,1.5c.8,1,1.2,2.5,1.2,4.5Z"/>
      <path class="st0" d="M474.3,89.1c1.1-.1,2-.5,2.7-1.1.8-.7,1.2-1.7,1.2-2.9s-.2-1.4-.6-2.1c-.4-.6-.9-1.1-1.5-1.4-.5-.2-1-.4-1.5-.5-.5,0-1.3-.1-2.1-.1h-6.4v16h2.4v-7.8h3.1l4.3,7.8h2.8l-4.4-7.9ZM468.5,83.2h3.9c1.3,0,2.2.1,2.6.4.4.3.6.7.6,1.4s0,.7-.2.9c0,.2-.3.4-.5.5-.3.1-.6.3-1,.3-.4,0-1,.1-1.6.1h-3.9v-3.7Z"/>
    </g>
    <path class="st0" d="M234.7,126h7.4c1.3,0,2.5,0,3.5.1,1,0,2,.2,2.8.4s1.6.4,2.3.8,1.3.7,2,1.1c1.8,1.3,3.2,3,4.1,5.3.9,2.2,1.4,4.8,1.4,7.8s-.3,4.3-.8,6.1c-.6,1.8-1.4,3.3-2.4,4.5-1.1,1.2-2.4,2.2-3.9,2.9-1.5.7-3.3,1-5.2,1h-11v-30ZM242.7,152.9c1.2,0,2.2,0,3.2-.1.9,0,1.7-.2,2.4-.4s1.3-.4,1.8-.7c.5-.3,1-.6,1.4-1.1,1-1,1.8-2.3,2.4-3.9.5-1.6.8-3.4.8-5.5s-.4-4.4-1.1-6.2-1.7-3.2-3-4.2c-.9-.7-2-1.2-3.2-1.5-1.2-.3-2.7-.5-4.6-.5h-4.5v23.9h4.5Z"/>
    <path class="st0" d="M264,126h18.8v3.1h-15.3v7.7h13.4v3.1h-13.4v13.2h15.3v3.1h-18.8v-30Z"/>
    <path class="st0" d="M289.6,145.5c.2,2.6,1.1,4.6,2.5,6,1.5,1.4,3.5,2,6.1,2s2.1-.1,3-.4c.9-.3,1.7-.7,2.3-1.2.6-.5,1.1-1.1,1.5-1.8.4-.7.5-1.5.5-2.4s-.2-1.6-.5-2.3c-.3-.7-.8-1.3-1.5-1.7-.3-.2-.6-.4-.9-.6-.3-.2-.6-.3-1-.5-.4-.1-.8-.3-1.3-.4-.5-.1-1.1-.3-1.8-.5l-3.4-.9c-1.6-.4-2.8-.8-3.6-1.2-.8-.4-1.6-.9-2.2-1.6-1.2-1.3-1.8-2.9-1.8-4.9s.9-4.5,2.6-5.9c1.8-1.4,4.2-2.1,7.4-2.1,5.4,0,9,2,10.8,6.1l-3,2.6c-.4-1.2-.9-2.1-1.3-2.7-.5-.6-1.1-1.2-1.8-1.7-.6-.4-1.4-.7-2.2-.9-.9-.2-1.8-.3-2.7-.3-1.9,0-3.4.4-4.5,1.2-1.1.8-1.6,1.9-1.6,3.3s0,1.2.2,1.6c.2.4.5.8.9,1.2.4.3,1,.6,1.8.9.8.3,1.7.6,2.9.9l3.3.8c1.6.4,2.8.8,3.7,1.2.9.4,1.7.9,2.4,1.4,1.9,1.6,2.8,3.8,2.8,6.5s-.3,2.7-.8,3.8c-.5,1.1-1.2,2.1-2.2,2.9s-2.1,1.4-3.4,1.8c-1.4.4-2.9.6-4.5.6-3.3,0-5.9-.7-8-2.2-2-1.5-3.4-3.6-4-6.4l3.3-2.4Z"/>
    <path class="st0" d="M316,126h3.5v30h-3.5v-30Z"/>
    <path class="st0" d="M348.6,140.5h-12.6v-3.1h16.1v12.8c-1,2-2.5,3.6-4.5,4.7-2,1.1-4.3,1.7-6.9,1.7s-4.1-.4-5.9-1.1c-1.7-.7-3.2-1.8-4.4-3.2-1.2-1.4-2.1-3.1-2.8-5.1-.6-2-1-4.2-1-6.7s.3-4.5.9-6.3c.6-1.9,1.5-3.5,2.7-4.8s2.6-2.3,4.3-3c1.7-.7,3.5-1.1,5.6-1.1s4.2.5,5.9,1.3c1.6.9,3.1,2.3,4.5,4.2l-2.5,3c-1.4-3.7-4.1-5.5-8-5.5s-5.4,1.1-7.2,3.2c-1.7,2.1-2.6,5.1-2.6,8.9s.3,3.8.8,5.4c.5,1.6,1.2,3,2.2,4.2.9,1.2,2.1,2,3.4,2.7s2.8.9,4.4.9,3-.3,4.2-.9c1.2-.6,2.4-1.6,3.4-2.9v-9.3Z"/>
    <path class="st0" d="M358.7,126h4.9l14.5,26.5v-26.5h3.5v30h-5.2l-14.3-25.9v25.9h-3.5v-30Z"/>
  </g>
  <g>
    <path class="st0" d="M69.5,3.4h-23l-10,44.1L26.3,3.4H3.1v154.7h66.3V3.4ZM34.8,58.1h3.4L49.6,7.4h15.8v60.3H7.2V7.4h16l11.6,50.7ZM7.2,71.7h58.2v18.2h-19l-10,44.1-10.1-44.1H7.2v-18.2ZM65.5,154.2H7.1v-60.3h16l11.6,50.7h3.4l11.5-50.7h15.8v60.3Z"/>
    <path class="st0" d="M117,69.5V3.4h-19.5v66l-22.9,86.1-.9,2.6h66.7l-.9-2.6-22.5-86.1ZM116.9,85l6.6,25.5-6.7-18.9v-6.6ZM101.5,7.4h11.5v60.3h-11.5V7.4ZM101,71.7h11.9v18.2h-14.9l-7.1,19.8,10.1-38ZM79.3,154.2l21.5-60.3h12.7l21.2,60.3h-55.4Z"/>
    <path class="st0" d="M203.6,108V3.4h-56.3v154.7h30.3c17.2,0,28.2-14,28.2-35.7s-.8-10.3-2.2-14.5ZM178.2,89.9h-11.8l4.1-18.2h13.7V18.8h15.4v81.4c-4.8-6.6-12.2-10.3-21.5-10.3ZM199.6,14.8h-19.4v52.9h-9.4V14.8h-19.4v-7.4h48.3v7.4ZM151.3,18.8h15.4v51.1l-4.5,19.9h-10.9V18.8ZM177.6,154.2h-26.3v-60.3h26.8c14.8,0,23.7,10.7,23.7,28.6s-9.3,31.7-24.2,31.7Z"/>
  </g>
</svg>