<?xml version="1.0" encoding="UTF-8"?>
<svg id="_x3C_Layer_x3E_" xmlns="http://www.w3.org/2000/svg" version="1.1" viewBox="0 0 419 228.1">
  <!-- Generator: Adobe Illustrator 29.1.0, SVG Export Plug-In . SVG Version: 2.1.0 Build 142)  -->
  <g>
    <path d="M123.8,1.4h13c0,.9.1,1.7.1,2.6v114.9c0,2.9-.2,5.9-.6,8.8-.8,5.2-3.3,8.1-8.2,8.4-5.1.4-10.4.5-15.5,0-5.2-.5-7.8-3.6-8.4-9.1-.3-2.4-.5-4.9-.5-7.4V1.4h14v118.4c0,2.2,1.2,3,3.1,3s2.8-1,2.8-3V1.4h.2Z"/>
    <path d="M61.4,120.1c0,2.5-.2,4.9-.5,7.3-.6,5.2-3.3,8.4-8.2,8.7-5.1.4-10.4.5-15.5,0-5.2-.5-7.7-3.6-8.4-9.2-.2-1.8-.4-3.6-.4-5.4V15.2c0-1.8.2-3.6.4-5.4.7-5.9,3.7-9,9.8-9.4,4.7-.3,9.4,0,14.1.3,4.6.4,7.2,3.3,8,8.1.3,1.8.5,3.6.5,5.4v39.6h-12.9V17.8c0-1.6,0-3.2-2-3.7-2.5-.6-3.9.4-4.1,3.1v102.4c0,2.1,1.1,3.1,3.1,3.1s2.9-1.1,2.9-3.2v-33.6c0-1,0,.8,0-.3h12.9"/>
    <path d="M100.8,135.7h-14c-.4-6-.8-11.9-1.1-18h-7.9c-.3,5.9-.6,11.8-1,17.9h-12.5c2.9-44.7,5.8-89.4,8.7-134.2h19.1c2.9,44.8,5.8,89.4,8.7,134.3ZM81.8,21.8c-1,24.3-2.1,57.3-3,81.6h6.1c-1.1-24.4-2-57.3-3.1-81.6Z"/>
    <path d="M15.1,121.9h10.3v13.7H1.3V1.4h13.8v120.5Z"/>
  </g>
  <rect x=".9" y="146.5" width="136.1" height="13.9"/>
  <g>
    <path d="M154.2,17.3l-4.6-13.5v10.7c.1,0,.1,2.8.1,2.8h-.9V1.6h1l4.5,13.5V4.4c-.1,0-.1-2.8-.1-2.8h.9v15.7h-.9Z"/>
    <path d="M160.3,17.4h-.8c-1.8,0-2.8-.9-2.8-2.6V4c0-1.7.9-2.5,2.8-2.5h.8c1.8,0,2.8.9,2.8,2.5v10.8c0,1.7-.9,2.6-2.8,2.6ZM160.3,2.3h-.8c-1.2,0-1.9.6-1.9,1.7v10.9c0,1.1.6,1.7,1.9,1.7h.8c1.2,0,1.9-.6,1.9-1.7V4c0-1.1-.6-1.7-1.9-1.7Z"/>
    <path d="M170.6,12v5.3h-.9v-5.2c0-1.3-.7-2-2.1-2h-1.9v7.2h-.9V1.6h3.1c1.8,0,2.7.9,2.7,2.6v3.1c0,1.5-.7,2.2-1.7,2.5,1,.1,1.7.8,1.7,2.2h0ZM167.8,2.4h-2.1v6.9h1.9c1.4,0,2.1-.7,2.1-2v-3.2c0-1.1-.7-1.7-1.9-1.7Z"/>
    <path d="M173.2,3.6v10.4c.1,0,.1,3.3.1,3.3h-.9V1.6h1.2l3.4,14.1,3.4-14.1h1.2v15.7h-.9V3.7c.1,0-3.4,13.6-3.4,13.6h-.8s-3.3-13.7-3.3-13.7Z"/>
    <path d="M189.6,17.3h-.9l-.6-3.3h-4l-.6,3.3h-.9l3-15.8h1l3,15.8ZM184.3,13.1h3.6l-1.8-10-1.8,10Z"/>
    <path d="M196.2,17.3l-4.6-13.5v10.7c.1,0,.1,2.8.1,2.8h-.9V1.6h1l4.5,13.5V4.4c-.1,0-.1-2.8-.1-2.8h.9v15.7h-.9Z"/>
    <path d="M207,11.8v3c0,1.7-.9,2.6-2.8,2.6h-3.2V1.6h3.2c1.8,0,2.7.9,2.7,2.6v2.7c0,1.5-.6,2.2-1.7,2.5,1.1.2,1.8.9,1.8,2.4ZM204.2,2.4h-2.2v6.5h1.9c1.4,0,2.2-.6,2.2-1.9v-2.9c0-1.1-.7-1.7-1.9-1.7ZM202,16.4h2.3c1.2,0,1.8-.6,1.8-1.7v-3.1c0-1.3-.8-2-2.2-2h-1.9v6.8h0Z"/>
    <path d="M209.1,17.3h-1v-1.8h1v1.8Z"/>
    <path d="M149.8,25.2v14.9h3.7v.8h-4.6v-15.7h.9Z"/>
    <path d="M159.2,25.2v.8h-3.8v6.5h3.7v.8h-3.7v6.8h3.9v.8h-4.8v-15.7h4.7Z"/>
    <path d="M162.9,41l-2.9-15.8h.9l2.4,14.1,2.5-14.1h.9l-2.9,15.8s-.9,0-.9,0Z"/>
    <path d="M172.7,25.2v.8h-3.8v6.5h3.7v.8h-3.7v6.8h3.9v.8h-4.8v-15.7h4.7Z"/>
    <path d="M179.6,40.9l-4.6-13.5v10.7c.1,0,.1,2.8.1,2.8h-.9v-15.7h1l4.5,13.5v-10.7c-.1,0-.1-2.8-.1-2.8h.9v15.7h-.9Z"/>
    <path d="M184.1,40.9v-14.9h-2.7v-.8h6.4v.8h-2.8v14.9h-.9Z"/>
    <path d="M193.8,32.5v-7.3h.9v15.7h-.9v-7.6h-4.3v7.6h-.9v-15.7h.9v7.3h4.3Z"/>
    <path d="M202.9,40.9h-.9l-.6-3.3h-4l-.6,3.3h-.8l3-15.8h1l2.9,15.8h0ZM197.6,36.7h3.6l-1.8-10-1.8,10Z"/>
    <path d="M205.1,25.2v14.9h3.7v.8h-4.6v-15.7h.9Z"/>
    <path d="M155.7,58.1v3.4c0,2.1-1.1,3.1-3.3,3.1h-.7c-2.2,0-3.3-1-3.3-3.1v-10.7c0-2.1,1.1-3.1,3.3-3.1h.7c2.2,0,3.2,1,3.2,3v3h-2v-3c0-.9-.4-1.3-1.3-1.3h-.5c-.9,0-1.3.4-1.3,1.3v10.9c0,.9.4,1.3,1.3,1.3h.6c.9,0,1.3-.4,1.3-1.3v-3.5h2Z"/>
    <path d="M163,47.9v1.8h-3.5v5.5h3.4v1.7h-3.4v5.9h3.6v1.8h-5.6v-16.7s5.5,0,5.5,0Z"/>
    <path d="M166.6,51.5v13h-1.9v-16.6h2.8l2.9,12v-12h1.9v16.7h-2.5s-3.2-13.1-3.2-13.1Z"/>
    <path d="M176.2,64.5v-14.9h-2.6v-1.8h7.3v1.8h-2.6v14.9h-2.1,0Z"/>
    <path d="M187.6,47.9v1.8h-3.5v5.5h3.4v1.7h-3.4v5.9h3.6v1.8h-5.7v-16.7h5.6,0Z"/>
    <path d="M196.4,58.9v5.6h-2v-5.5c0-1-.5-1.5-1.5-1.5h-1.5v7h-2v-16.6h3.8c2.2,0,3.3,1,3.3,3.1v3.1c0,1.5-.6,2.2-1.6,2.6,1,.3,1.5.9,1.5,2.2ZM193,49.6h-1.7v6.2h1.5c1,0,1.5-.5,1.5-1.4v-3.6c0-.8-.4-1.2-1.3-1.2Z"/>
    <path d="M153.9,71.5v1.8h-3.4v5.6h3.3v1.7h-3.3v7.6h-2v-16.7h5.4Z"/>
    <path d="M159.5,88.3h-.8c-2.2,0-3.3-1-3.3-3.1v-10.8c0-2.1,1.1-3.1,3.3-3.1h.8c2.2,0,3.3,1,3.3,3.1v10.8c0,2.1-1.1,3.1-3.3,3.1ZM159.5,73.1h-.6c-.9,0-1.3.4-1.3,1.3v10.9c0,.9.4,1.3,1.3,1.3h.6c.9,0,1.3-.4,1.3-1.3v-11c0-.8-.4-1.2-1.3-1.2Z"/>
    <path d="M171.7,82.5v5.6h-2v-5.5c0-1-.5-1.5-1.5-1.5h-1.5v7h-2v-16.6h3.8c2.2,0,3.3,1,3.3,3.1v3.1c0,1.5-.6,2.2-1.6,2.6,1.1.3,1.5.9,1.5,2.2ZM168.4,73.2h-1.7v6.2h1.5c1,0,1.5-.5,1.5-1.4v-3.6c0-.8-.4-1.2-1.3-1.2Z"/>
    <path d="M154,111.8l-.4-2.8h-3.3l-.4,2.8h-1.9l2.7-16.7h2.6l2.7,16.7h-2ZM150.6,107.3h2.7l-1.4-9.2-1.3,9.2Z"/>
    <path d="M157.4,95.1h3.3c2.6,0,3.9,1.2,3.9,3.7v9.3c0,2.5-1.3,3.7-3.9,3.7h-3.3s0-16.7,0-16.7ZM159.4,110h1.2c1.4,0,2-.6,2-1.9v-9.3c0-1.3-.6-1.9-2-1.9h-1.2v13.1Z"/>
    <path d="M168.5,111.8l-2.8-16.7h2l1.9,12.7,1.9-12.7h2l-2.8,16.7h-2.2,0Z"/>
    <path d="M179.6,111.8l-.4-2.8h-3.2l-.4,2.8h-1.9l2.7-16.7h2.6l2.7,16.7h-2.1ZM176.2,107.3h2.7l-1.4-9.2-1.3,9.2Z"/>
    <path d="M184.9,98.7v13h-1.9v-16.6h2.8l2.9,12v-12h1.9v16.7h-2.5s-3.2-13.1-3.2-13.1Z"/>
    <path d="M199.7,105.4v3.4c0,2.1-1.1,3.1-3.3,3.1h-.7c-2.2,0-3.3-1-3.3-3.1v-10.7c0-2.1,1.1-3.1,3.3-3.1h.7c2.2,0,3.2,1,3.2,3v3h-2v-3c0-.9-.4-1.3-1.3-1.3h-.5c-.9,0-1.3.4-1.3,1.3v10.9c0,.9.4,1.3,1.3,1.3h.6c.9,0,1.3-.4,1.3-1.3v-3.5s2,0,2,0Z"/>
    <path d="M207,95.1v1.8h-3.5v5.5h3.4v1.7h-3.4v5.9h3.6v1.8h-5.6v-16.7s5.5,0,5.5,0Z"/>
    <path d="M208.7,95.1h3.3c2.6,0,3.9,1.2,3.9,3.7v9.3c0,2.5-1.3,3.7-3.9,3.7h-3.3s0-16.7,0-16.7ZM210.8,110h1.2c1.4,0,2-.6,2-1.9v-9.3c0-1.3-.6-1.9-2-1.9h-1.2v13.1Z"/>
    <path d="M155.7,132.4c0,2.1-1.1,3.1-3.3,3.1h-.6c-2.2,0-3.3-1-3.3-3.1v-13.7h2v13.8c0,.9.4,1.3,1.3,1.3h.5c.9,0,1.3-.4,1.3-1.3v-13.8h2v13.7h.1Z"/>
    <path d="M164.6,129.8v5.6h-2v-5.5c0-1-.5-1.5-1.5-1.5h-1.5v7h-2v-16.7h3.8c2.2,0,3.3,1,3.3,3.1v3.1c0,1.5-.6,2.2-1.6,2.6,1,.3,1.5,1,1.5,2.3ZM161.2,120.5h-1.7v6.2h1.5c1,0,1.5-.5,1.5-1.4v-3.6c.1-.8-.3-1.2-1.3-1.2Z"/>
    <path d="M173.5,129.5v2.8c0,2.1-1.1,3.1-3.3,3.1h-3.7v-16.7h3.7c2.2,0,3.3,1,3.3,3.1v2.5c0,1.5-.5,2.2-1.5,2.6.9.3,1.5,1.1,1.5,2.6h0ZM170.1,120.4h-1.6v5.6h1.5c1,0,1.5-.5,1.5-1.4v-2.9c0-.8-.5-1.3-1.4-1.3ZM168.5,133.7h1.7c.9,0,1.3-.4,1.3-1.3v-3.3c0-1-.5-1.4-1.5-1.4h-1.5v6h0Z"/>
    <path d="M180.6,135.4l-.4-2.8h-3.3l-.4,2.8h-1.9l2.7-16.7h2.6l2.7,16.7h-2ZM177.2,130.9h2.7l-1.4-9.2-1.3,9.2Z"/>
    <path d="M185.9,122.3v13h-1.9v-16.7h2.8l2.9,12v-12h1.9v16.7h-2.5l-3.2-13Z"/>
    <path d="M195.5,135.4h-2v-16.7h2v16.7Z"/>
    <path d="M204.5,130v2.4c0,2.1-1.1,3.1-3.3,3.1h-.6c-2.2,0-3.2-1-3.2-3v-3.5h2v3.6c0,.9.4,1.3,1.3,1.3h.4c.9,0,1.3-.4,1.3-1.3v-2.5c0-.8-.3-1.2-.9-1.6l-2.5-1.7c-1.3-.9-1.7-1.7-1.7-3.1v-2c0-2.1,1.1-3.1,3.3-3.1h.5c2.2,0,3.2,1,3.2,3v3h-2v-3.1c0-.9-.4-1.3-1.3-1.3h-.4c-.9,0-1.3.4-1.3,1.3v2.1c0,.8.3,1.2.9,1.6l2.4,1.7c1.4.9,1.9,1.7,1.9,3.1h0Z"/>
    <path d="M217,118.7v16.7h-2v-13.8l-2.4,13.8h-2.1l-2.4-13.8v13.8h-1.9v-16.7h3.2l2.2,13.1,2.2-13.1s3.2,0,3.2,0Z"/>
  </g>
  <path d="M23.9,206.6h4.9v-14.7h-4.9v14.7ZM31.2,189.5h12.2v-4.9h-12.2v4.9ZM23.9,184.6h4.9v4.9h-4.9v-4.9ZM16.5,206.6h4.9v-22h-4.9v22ZM9.2,201.7h4.9v-17.1h-4.9s0,17.1,0,17.1ZM1.9,206.6h4.9v-22H1.9v22ZM31.2,206.6h4.9v-14.7h-4.9s0,14.7,0,14.7Z"/>
  <g id="Group_66">
    <g id="Group_61">
      <path id="Path_14" d="M69.2,189.8c-.5-2.1-2.3-3.6-4.5-3.5-1.9-.2-3.6,1.3-3.8,3.2v.4c0,2.3,2.2,3.2,3.2,3.6.8.3,2.2.8,3,1.2,3,1.3,4.7,2.6,4.7,6s-.8,3.4-2.2,4.5c-1.4.9-3,1.4-4.7,1.3-3.4,0-5.5-2.2-6.7-4.9l1.9-.9c.4,1.4,1.3,2.5,2.5,3.3.9.5,2,.7,3,.7,2.1.1,3.9-1.5,4-3.6v-.4c0-1.5-.8-2.9-2.2-3.5l-1-.5c-1.3-.7-2.7-1.1-4-1.7-1.3-.5-2.3-1.4-3-2.7-.4-.8-.6-1.6-.6-2.5,0-3.1,2-5.4,6-5.4s4.5,1,6.2,4.3l-1.9,1h0Z"/>
      <path id="Path_15" d="M75.1,205.8l8.1-21.1h2.2l8,21.1h-2.3l-1.9-5.1h-9.9l-1.9,5.1h-2.3,0ZM88.6,199l-4.1-11.3h-.2s0,0-.2.2l-4.2,11.2h8.7,0Z"/>
    </g>
    <g id="Group_62">
      <path id="Path_16" d="M117.9,185h6.1c2.4,0,4.2.3,5.5,1.4,1.4,1.2,2.1,2.9,2.1,4.7s-.7,3.4-1.9,4.6c-1.5,1.4-3.5,1.4-5.2,1.4h-4.3v8.7h-2.2v-20.8h-.1ZM120.1,186.7v8.6h3.6c3.9,0,5.6-1.1,5.6-4.1s-2.4-4.5-5.5-4.5h-3.7Z"/>
    </g>
    <g id="Group_63">
      <path id="Path_17" d="M140.5,204.8l-2.2-8.4h0s-.1,0-.1.1v8.3h-1v-9.2h1.9l1.9,7.1s0,.1.1.1c0,0,.1,0,.2-.1l1.9-7.1h1.9v9.2h-1v-8.3h0c0-.1-.1-.1-.1-.1l-2.2,8.3h-1.3Z"/>
      <path id="Path_18" d="M147.6,204h.8v-7.5h-.8v-.8h2.9v.8h-.8v7.5h.8v.8h-2.9v-.8Z"/>
      <path id="Path_19" d="M158.6,195.6v1.2h-2.7v8h-1.3v-8h-2.7v-1.2h6.7Z"/>
      <path id="Path_20" d="M168.1,198c-.4-.8-.8-1.5-1.9-1.5s-1.3.5-1.4,1.2h0c0,.6.4,1.2,1,1.3l1.8.8c.6.3,1,.7,1.4,1.2.2.4.3.8.3,1.2,0,.8-.3,1.6-.9,2.1-.6.5-1.3.7-2,.6-.8,0-1.5-.3-2.1-.7-.5-.4-.8-.8-1-1.4l1.1-.7c.3,1,1.1,1.6,2.1,1.7.8,0,1.6-.6,1.6-1.4h0c0-.5-.2-1.1-1.1-1.5l-1.6-.7c-.6-.3-1.1-.7-1.5-1.2-.2-.4-.3-.8-.3-1.3,0-1.4,1.2-2.4,2.5-2.4h0c1.3,0,2.5.7,3,1.9l-1.1.6v.2Z"/>
      <path id="Path_21" d="M175.6,198.3c0-.9-.5-1.7-1.5-1.7s-1.3.5-1.5,1.2-.4,1.5-.4,2.2c0,2,.4,4,1.9,4s1-.3,1.2-.7.3-.8.3-1.3l1.3.2c0,.8-.3,1.5-.9,2.1-.5.5-1.3.8-2,.8s-3-.4-3-4.8.5-4.8,3.1-4.8,1.4.3,1.9.7c.5.5.7,1.1.8,1.8l-1.2.2h0Z"/>
      <path id="Path_22" d="M179.5,195.6h1.3v3.9h3.3v-3.9h1.3v9.2h-1.3v-4.2h-3.3v4.2h-1.3v-9.2Z"/>
      <path id="Path_23" d="M193.5,197.7c.2.8.4,1.7.4,2.5,0,2.2-.6,4.8-3.1,4.8s-3.1-2.3-3.1-4.7.2-2.4.7-3.5c.5-.9,1.4-1.4,2.4-1.4s2.4,1,2.7,2.2h0ZM190.7,196.6c-.8,0-1.3.6-1.5,1.4-.2.8-.3,1.5-.3,2.3,0,1.2.2,3.6,1.8,3.6s1.8-1.3,1.8-3.7-.1-3.7-1.8-3.7h0Z"/>
      <path id="Path_24" d="M201.1,197.7c.2.8.4,1.7.4,2.5,0,2.2-.6,4.8-3.1,4.8s-3.1-2.3-3.1-4.7.2-2.4.7-3.5c.5-.9,1.4-1.4,2.4-1.4s2.4,1,2.7,2.2h0ZM198.4,196.6c-.8,0-1.3.6-1.5,1.4-.2.8-.3,1.5-.3,2.3,0,1.2.2,3.6,1.8,3.6s1.8-1.3,1.8-3.7-.1-3.7-1.8-3.7h0Z"/>
      <path id="Path_25" d="M203.7,195.6h1.3v8h4.3v1.2h-5.5v-9.2h-.1Z"/>
      <path id="Path_26" d="M219.9,197.7c.2.8.4,1.7.4,2.5,0,2.2-.6,4.8-3.1,4.8s-3.1-2.3-3.1-4.7.2-2.4.7-3.5c.5-.9,1.4-1.4,2.4-1.4s2.4,1,2.7,2.2h0ZM217.2,196.6c-.8,0-1.3.6-1.5,1.4-.2.8-.3,1.5-.3,2.3,0,1.2.2,3.6,1.8,3.6s1.8-1.3,1.8-3.7-.1-3.7-1.8-3.7h0Z"/>
      <path id="Path_27" d="M222.3,195.6h5.7v1.2h-4.4v2.8h3.1v1.2h-3.1v4.1h-1.3v-9.2h0Z"/>
      <path id="Path_28" d="M237.3,202.9h-3.6l-.6,1.9h-1.3l3-9.2h1.4l3.1,9.2h-1.3l-.6-1.9h0ZM236.9,201.8l-1.5-4.7h0l-1.4,4.7h3-.1Z"/>
      <path id="Path_29" d="M241.2,195.6h2.8c2.6,0,3.1,1.6,3.1,2.5s-.8,2.3-2,2.5l2.4,4.3h-1.5l-2.2-4.1h-1.4v4.1h-1.3v-9.2h0ZM242.4,196.7v3h2.1c.7,0,1.3-.7,1.3-1.4,0-1.1-.7-1.6-2.1-1.6h-1.3Z"/>
      <path id="Path_30" d="M253.5,198.3c0-.9-.5-1.7-1.5-1.7s-1.3.5-1.5,1.2-.4,1.5-.4,2.2c0,2,.4,4,1.9,4s1-.3,1.2-.7.3-.8.3-1.3l1.3.2c0,.8-.3,1.5-.9,2.1-.5.5-1.3.8-2,.8s-3-.4-3-4.8.5-4.8,3.1-4.8,1.4.3,1.9.7c.5.5.7,1.1.8,1.8l-1.2.2h0Z"/>
      <path id="Path_31" d="M257.3,195.6h1.3v3.9h3.3v-3.9h1.3v9.2h-1.3v-4.2h-3.3v4.2h-1.3v-9.2Z"/>
      <path id="Path_32" d="M265.7,204h.8v-7.5h-.8v-.8h2.9v.8h-.8v7.5h.8v.8h-2.9v-.8Z"/>
      <path id="Path_33" d="M276.7,195.6v1.2h-2.7v8h-1.3v-8h-2.7v-1.2h6.7Z"/>
      <path id="Path_34" d="M278.7,195.6h5.7v1.1h-4.4v2.7h3.2v1.2h-3.2v3.1h4.6v1.2h-5.9v-9.2h0Z"/>
      <path id="Path_35" d="M291,198.3c0-.9-.5-1.7-1.5-1.7s-1.3.5-1.5,1.2-.4,1.5-.4,2.2c0,2,.4,4,1.9,4s1-.3,1.2-.7.3-.8.3-1.3l1.3.2c0,.8-.3,1.5-.9,2.1s-1.3.8-2,.8-3-.4-3-4.8.5-4.8,3.1-4.8,1.4.3,1.9.7c.5.5.7,1.1.8,1.8l-1.2.2h0Z"/>
      <path id="Path_36" d="M300.4,195.6v1.2h-2.7v8h-1.3v-8h-2.7v-1.2h6.7Z"/>
      <path id="Path_37" d="M303.8,195.6v6.1c0,1,.2,2.2,1.7,2.2s1.1-.3,1.4-.8c.2-.5.3-1.1.3-1.7v-5.8h1.2v6.2c0,.9-.2,1.8-.8,2.5-.6.6-1.5.9-2.3.8-.8,0-1.6-.4-2.1-1.1-.4-.7-.6-1.5-.6-2.3v-6.1h1.3-.1Z"/>
      <path id="Path_38" d="M311,195.6h2.8c2.6,0,3.1,1.6,3.1,2.5s-.8,2.3-2,2.5l2.4,4.3h-1.5l-2.2-4.1h-1.4v4.1h-1.3v-9.2h.1ZM312.2,196.7v3h2.1c.7,0,1.3-.7,1.3-1.4,0-1.1-.7-1.6-2.1-1.6h-1.3Z"/>
      <path id="Path_39" d="M319.3,195.6h5.7v1.1h-4.4v2.7h3.2v1.2h-3.2v3.1h4.6v1.2h-5.9v-9.2h0Z"/>
    </g>
    <g id="Group_64">
      <path id="Path_40" d="M332.2,197h1v2.7h2.6v1h-2.6v2.7h-1v-2.6h-2.6v-1h2.6v-2.7h0Z"/>
    </g>
    <g id="Group_65">
      <path id="Path_41" d="M340.2,195.6h2c1,0,2,.1,2.8.6.7.5,1.2,1.3,1.1,2.2,0,.8-.3,1.6-.9,2-.8.5-1.7.8-2.6.7h-1.1v3.7h-1.3v-9.2ZM341.5,196.7v3.4h.5c1.5,0,2.8-.2,2.8-1.7s-1.9-1.7-2.5-1.7h-.8Z"/>
      <path id="Path_42" d="M348.6,195.6h1.3v8h4.2v1.2h-5.5v-9.2Z"/>
      <path id="Path_43" d="M360.7,202.9h-3.6l-.6,1.9h-1.3l3-9.2h1.4l3.1,9.2h-1.3l-.6-1.9h-.1ZM360.3,201.8l-1.5-4.7h0l-1.4,4.7h2.9Z"/>
      <path id="Path_44" d="M364.5,195.6h1.6l2.7,5.9.4.9c0,.2.3.9.4,1h0v-7.9h1v9.2h-1.6l-2.7-6c-.3-.8-.7-1.8-.7-1.9h0v7.9h-1v-9.2h0Z"/>
      <path id="Path_45" d="M373.5,195.6h1.6l2.7,5.9.4.9c0,.2.3.9.4,1h0v-7.9h1v9.2h-1.6l-2.7-6c-.3-.8-.7-1.8-.7-1.9h0v7.9h-1.1v-9.2h0Z"/>
      <path id="Path_46" d="M382.1,204h.8v-7.5h-.8v-.8h2.9v.8h-.8v7.5h.8v.8h-2.9v-.8Z"/>
      <path id="Path_47" d="M387.5,195.6h1.6l2.7,5.9.4.9c0,.2.3.9.4,1h0v-7.9h1.1v9.2h-1.6l-2.7-6c-.3-.8-.7-1.8-.7-1.9h0v7.9h-1.1v-9.2h0Z"/>
      <path id="Path_48" d="M400.6,197.9c-.1-.4-.5-1.4-1.5-1.4s-1.3.1-1.7,1.6c-.2.7-.2,1.4-.2,2.1s.1,1.9.5,2.7c.2.6.8,1,1.5,1s.9-.2,1.3-.5c.4-.5.6-1.1.5-1.7h-1.8v-1.2h3v4.4h-.5l-.3-.6c-.1-.2-.2-.3-.3-.3h-.2s-.1.1-.2.2c-.5.5-1.2.7-1.8.7s-1.5-.3-2-1c-.7-1.1-1.1-2.5-1.1-3.8s.2-2.3.7-3.4c.5-.9,1.4-1.5,2.4-1.5s2.5.9,2.8,2.2l-1.2.3v.2Z"/>
    </g>
    <path id="Path_49" d="M102.9,197.6h-7.7l2.8-2.9h4.9v-5.7l2.9-2.9v8.5h7.7v2.9h-7.7v7.7h-2.9v-7.7h0Z"/>
  </g>
</svg>