<?xml version="1.0" encoding="UTF-8"?>
<svg id="Layer_1" data-name="Layer 1" xmlns="http://www.w3.org/2000/svg" viewBox="0 0 230 120">
  <defs>
    <style>
      .cls-1 {
        fill: #fff;
      }
    </style>
  </defs>
  <path class="cls-1" d="M52.78.08h-.08v-.08l-.08.08h-13.05v-.08l-.06.06-.06-.06v.08h-13.01v-.08l-.06.06-.06-.06v.08h-13.01v-.08l-.06.06-.06-.06v.08H.16l-.08-.08v.08h-.08l.08.08v13.09l-.08.08h.08v.08l.08-.08h13.05v13.01h-.08l.06.06-.06.06h.08v13.01H.16l-.08-.08v.08h-.08l.08.08v13.09l-.08.08h.08v.08l.08-.08h13.05v.08l.06-.06.06.06v-.08h13.01v.08l.06-.06.06.06v-.08h13.01v.08l.06-.06.06.06v-.08h.08l-.06-.06,6.48-6.48h.01s6.62,6.61,6.62,6.61v-13.24l.08-.08h-.08v-.08l-.08.08h-13.05v-13.01h.08l-.06-.06.06-.06h-.08v-13.01h13.05l.08.08v-.08h.08l-.08-.08V.16l.08-.08ZM26.33,26.53v12.85l-6.42-6.42h-.01s6.41-6.42,6.41-6.42l.02-.02Z"/>
  <polygon class="cls-1" points="111.86 105.1 111.78 105.1 111.78 105.02 111.7 105.1 98.73 105.1 98.65 105.1 98.65 105.02 98.59 105.08 98.53 105.02 98.53 105.1 98.45 105.1 85.6 105.1 85.52 105.1 85.52 105.02 85.52 92.09 85.6 92.09 85.54 92.03 85.6 91.97 85.52 91.97 85.52 91.89 85.46 91.95 78.99 85.47 78.98 85.46 85.46 78.98 85.52 79.04 85.52 78.96 85.6 78.96 85.54 78.9 85.6 78.84 85.52 78.84 85.52 65.79 85.6 65.71 85.52 65.71 85.52 65.64 85.44 65.71 72.47 65.71 72.4 65.71 72.4 65.64 72.34 65.69 72.28 65.64 72.28 65.71 72.2 65.71 59.23 65.71 59.15 65.64 59.15 65.71 59.07 65.71 59.15 65.79 59.15 78.76 59.15 78.84 59.07 78.84 59.13 78.9 59.07 78.96 59.15 78.96 59.15 79.04 59.15 91.89 59.15 91.97 59.07 91.97 59.13 92.03 59.07 92.09 59.15 92.09 59.15 92.16 59.15 105.02 59.15 105.1 59.07 105.1 59.13 105.15 59.07 105.21 59.15 105.21 59.15 105.29 59.15 118.26 59.07 118.34 59.15 118.34 59.15 118.42 59.23 118.34 72.2 118.34 72.28 118.34 72.28 118.42 72.34 118.36 72.4 118.42 72.4 118.34 72.47 118.34 85.33 118.34 85.4 118.34 85.4 118.42 85.46 118.36 85.52 118.42 85.52 118.34 85.6 118.34 98.45 118.34 98.53 118.34 98.53 118.42 98.59 118.36 98.65 118.42 98.65 118.34 98.73 118.34 111.7 118.34 111.78 118.42 111.78 118.34 111.86 118.34 111.78 118.26 111.78 105.17 111.86 105.1"/>
  <path class="cls-1" d="M170.85,65.79l.08-.08h-.08v-.08l-.08.08h-13.09l-.08-.08v.08h-.08l.08.08v13.09l-.08.08h.08v13.01h-.08l.06.06-.06.06h.08v13.01h-13.01v-13.01h.08l-.06-.06.06-.06h-.08v-13.01h.08l-.06-.06.06-.06h-.08v-13.05l.08-.08h-.08v-.08l-.08.08h-13.05v-.08l-.06.06-.06-.06v.08h-13.05l-.08-.08v.08h-.08l.08.08v13.05h-.08l.06.06-.06.06h.08v13.01h-.08l.06.06-.06.06h.08v13.01h-.08l.06.06-.06.06h.08v.08l.06-.06,6.47,6.48.09.09,6.41,6.41.08.08-.06.06h.08v.08l.06-.06.06.06v-.08h13.01v.08l.06-.06.06.06v-.08h13.01v.08l.06-.06.06.06v-.08h.08l-.06-.06,6.48-6.48.09-.09,6.41-6.41.08-.08.06.06v-.08h.08l-.06-.06.06-.06h-.08v-13.01h.08l-.06-.06.06-.06h-.08v-13.01h.08l-.08-.08v-13.09ZM137.98,111.63h-.01s-6.41-6.4-6.41-6.4l-.02-.02h12.85l-6.42,6.42ZM164.24,85.37h-.01s-6.41-6.4-6.41-6.4l-.02-.02h12.85l-6.42,6.42Z"/>
  <path class="cls-1" d="M216.74,78.98l.06.06v-.08h13.05l.08.08v-.08h.08l-.08-.08v-13.25l-6.61,6.61h-.01s-6.41-6.4-6.41-6.4l-.08-.08.06-.06h-.08v-.08l-.06.06-.06-.06v.08h-13.01v-.08l-.06.06-.06-.06v.08h-13.01v-.08l-.06.06-.06-.06v.08h-.08l.06.06-6.48,6.47-.09.09h0l-6.5,6.51h-.04v.04l-.08.08h.08v6.45h-.08l.08.08v13.09l-.08.08h.08v.08l.08-.08h13.05v.08l.06-.06.06.06v-.08h13.01v.08l.06-.06.06.06v-.08h13.01v6.45h-13.05l-.08-.08v.08h-13.01v-.08l-.06.06-.06-.06v.08h-13.05l-.08-.08v.08h-.08l.08.08v13.09l-.08.08h.08v.08l.08-.08h13.05v.08l.06-.06.06.06v-.08h13.01v.08l.08-.08h13.05v.08l.06-.06.06.06v-.08h.08l-.06-.06,6.48-6.48.09-.09,6.51-6.51h.03v-.03l.08-.08h-.08v-6.37h0s0-13.24,0-13.24l.08-.08h-.08v-.08l-.08.08h-13.05v-.08l-.06.06-.06-.06v.08h-13.01v-.08l-.06.06-.06-.06v.08h-13.01v-.08h0s0-6.3,0-6.3h0s0-.07,0-.07h13.01v.08l.06-.06.06.06v-.08h13.01v.08l.06-.06ZM197.13,111.73h-.01s6.43-6.44,6.43-6.44v12.85l-6.42-6.42ZM216.87,98.53l6.42-6.42h.01s6.41,6.4,6.41,6.4l.02.02h-12.85Z"/>
  <path class="cls-1" d="M52.7,78.84v-.08l-.06.06-6.47-6.48-.09-.09h0l-6.49-6.49.06-.06h-.08v-.08l-.06.06-.06-.06v.08h-13.01v-.08l-.06.06-.06-.06v.08h-13.01v-.08l-.06.06-.06-.06v.08H.16l-.08-.08v.08h-.08l.08.08v13.05h-.08l.08.08v13.09l-.08.08h.08v.08l.08-.08h12.97l-6.42,6.42-.09.09L.21,105l-.08.08-.06-.06v.08h-.08l.06.06-.06.06h.08v13.21l6.61-6.61.09-.09,6.41-6.41.02-.02v12.97l-.08.08h.08v.08l.08-.08h13.09l.08.08v-.08h.08l-.08-.08v-13.05h13.01v.08l.06-.06.06.06v-.08h.08l-.06-.06,6.48-6.48.09-.09,6.41-6.41.08-.08.06.06v-.08h.08l-.06-.06.06-.06h-.08v-13.01h.08l-.06-.06.06-.06h-.08ZM6.69,72.42h.01s6.43,6.42,6.43,6.42H.27l6.42-6.42ZM26.53,91.97h-.08v-12.93l6.42,6.42.09.09,6.43,6.43h-12.85Z"/>
  <path class="cls-1" d="M170.93.08h-.08v-.08l-.08.08h-13.05v-.08l-.06.06-.06-.06v.08h-13.01v-.08l-.06.06-.06-.06v.08h-13.01v-.08l-.06.06-.06-.06v.08h-13.05l-.08-.08v.08h-.08l.08.08v13.05h-.08l.08.08v13.05h-.08l.06.06-.06.06h.08v.08l.06-.06,6.47,6.48h.01s-6.48,6.5-6.48,6.5l-.06-.06v.08h-.08l.06.06-.06.06h.08v13.05l-.08.08h.08v.08l.08-.08h13.05v.08l.06-.06.06.06v-.08h13.05l.08.08v-.08h.08l-.08-.08v-13.05h13.01v.08l.06-.06.06.06v-.08h13.05l.08.08v-.08h.08l-.08-.08v-13.09l.08-.08h-.08v-.08l-.08.08h-13.05v-.08l-.06.06-.06-.06v.08h-13.01v-13.01h13.01v.08l.06-.06.06.06v-.08h13.05l.08.08v-.08h.08l-.08-.08V.16l.08-.08ZM124.84,6.79h.01s6.41,6.4,6.41,6.4l.02.02h-12.85l6.42-6.42Z"/>
  <path class="cls-1" d="M229.92,13.32h.08l-.06-.06.06-.06h-.08v-.08l-.06.06-6.48-6.48-.09-.09-6.41-6.41-.08-.08.06-.06h-.08v-.08l-.06.06-.06-.06v.08h-13.01v-.08l-.06.06-.06-.06v.08h-13.01v-.08l-.06.06-.06-.06v.08h-.08l.06.06-6.48,6.47-.09.09h0l-6.49,6.49-.06-.06v.08h-.08l.06.06-.06.06h.08v13.01h-.08l.06.06-.06.06h.08v13.01h-.08l.06.06-.06.06h.08v.08l.06-.06,6.47,6.48.09.09,6.41,6.41.08.08-.06.06h.08v.08l.06-.06.06.06v-.08h13.01v.08l.06-.06.06.06v-.08h13.01v.08l.06-.06.06.06v-.08h.08l-.06-.06,6.48-6.48.09-.09,6.49-6.49.06.06v-.08h.08l-.06-.06.06-.06h-.08v-13.01h.08l-.06-.06.06-.06h-.08v-13.01ZM203.61,13.34l.05.05,6.42,6.42.09.09,6.41,6.41.08.08-6.48,6.47-.09.09h0l-6.49,6.49-.05-.05-6.42-6.42-.09-.09-6.41-6.41-.08-.08,6.48-6.48.09-.09,6.43-6.43h0l.06-.06Z"/>
  <polygon class="cls-1" points="111.78 .16 111.86 .08 111.78 .08 111.78 0 111.7 .08 98.61 .08 98.53 0 98.53 .08 98.45 .08 98.53 .16 98.53 13.13 98.53 13.21 98.45 13.21 98.51 13.26 98.45 13.32 98.53 13.32 98.53 13.4 98.53 26.25 92.12 19.84 92.03 19.75 85.62 13.34 85.54 13.26 85.6 13.21 85.52 13.21 85.52 13.13 85.46 13.19 85.41 13.13 78.99 6.71 78.9 6.62 72.49 .21 72.41 .14 72.47 .08 72.4 .08 72.4 0 72.34 .06 72.28 0 72.28 .08 59.23 .08 59.15 0 59.15 .08 59.07 .08 59.15 .16 59.15 13.13 59.15 13.21 59.07 13.21 59.13 13.26 59.07 13.32 59.15 13.32 59.15 13.4 59.15 26.33 59.07 26.33 59.13 26.39 59.07 26.45 59.15 26.45 59.15 26.53 59.21 26.47 65.68 32.94 65.77 33.03 72.18 39.44 72.2 39.46 59.23 39.46 59.15 39.38 59.15 39.46 59.07 39.46 59.15 39.54 59.15 52.63 59.07 52.7 59.15 52.7 59.15 52.78 59.23 52.7 72.32 52.7 72.4 52.78 72.4 52.7 72.47 52.7 72.4 52.63 72.4 39.66 72.4 39.54 72.47 39.46 72.4 39.46 72.4 39.38 72.4 26.53 78.81 32.94 78.9 33.03 85.31 39.44 85.39 39.52 85.33 39.58 85.4 39.58 85.4 39.66 85.46 39.6 85.52 39.65 91.94 46.07 92.03 46.16 98.44 52.57 98.51 52.65 98.45 52.7 98.53 52.7 98.53 52.78 98.59 52.72 98.65 52.78 98.65 52.7 111.7 52.7 111.78 52.78 111.78 52.7 111.86 52.7 111.78 52.63 111.78 39.58 111.86 39.58 111.8 39.52 111.86 39.46 111.78 39.46 111.78 39.38 111.72 39.44 105.24 32.96 105.23 32.95 111.72 26.47 111.78 26.53 111.78 26.45 111.86 26.45 111.8 26.39 111.86 26.33 111.78 26.33 111.78 13.4 111.78 13.32 111.86 13.32 111.8 13.26 111.86 13.21 111.78 13.21 111.78 13.13 111.78 .16"/>
</svg>