<?xml version="1.0" encoding="UTF-8"?>
<svg id="Layer_1" data-name="Layer 1" xmlns="http://www.w3.org/2000/svg" viewBox="0 0 230 120">
  <defs>
    <style>
      .cls-1 {
        fill: #fff;
      }
    </style>
  </defs>
  <polygon class="cls-1" points="56.92 2.81 56.84 2.81 56.84 2.74 56.77 2.81 43.79 2.81 43.72 2.81 43.72 2.74 43.66 2.8 43.6 2.74 43.6 2.81 43.52 2.81 30.67 2.81 30.59 2.81 30.59 2.74 30.53 2.8 30.47 2.74 30.47 2.81 30.39 2.81 17.54 2.81 17.46 2.81 17.46 2.74 17.4 2.8 17.34 2.74 17.34 2.81 17.27 2.81 4.29 2.81 4.22 2.74 4.22 2.81 4.14 2.81 4.22 2.89 4.22 16.14 10.84 9.51 10.84 9.51 17.27 15.94 17.32 16 17.27 16.06 17.34 16.06 17.34 16.14 17.34 28.99 17.34 29.07 17.27 29.07 17.32 29.13 17.27 29.19 17.34 29.19 17.34 29.26 17.34 42.12 17.34 42.2 17.27 42.2 4.29 42.2 4.22 42.12 4.22 42.2 4.14 42.2 4.22 42.27 4.22 55.36 4.14 55.44 4.22 55.44 4.22 55.52 4.29 55.44 17.27 55.44 17.34 55.44 17.34 55.52 17.4 55.46 17.46 55.52 17.46 55.44 17.54 55.44 30.39 55.44 30.47 55.44 30.47 55.52 30.53 55.46 30.59 55.52 30.59 55.44 30.67 55.44 43.6 55.44 43.6 55.52 43.66 55.46 43.72 55.52 43.72 55.44 43.79 55.44 43.73 55.38 50.22 48.9 50.22 48.9 56.84 55.52 56.84 42.27 56.92 42.2 56.84 42.2 56.84 42.12 56.77 42.2 43.79 42.2 43.72 42.2 43.72 42.12 43.72 29.26 43.72 29.19 43.79 29.19 43.73 29.13 43.79 29.07 43.72 29.07 43.72 28.99 43.72 16.14 43.72 16.06 43.79 16.06 56.77 16.06 56.84 16.14 56.84 16.06 56.92 16.06 56.84 15.98 56.84 2.89 56.92 2.81"/>
  <path class="cls-1" d="M115.99,107.83h-.08v-.08l-.08.08h-13.05v-.08l-.06.06-.06-.06v.08h-13.01v-13.01h.08l-.06-.06.06-.06h-.08v-13.01h.08l-.06-.06.06-.06h-.08v-13.05l.08-.08h-.08v-.08l-.08.08h-13.05v-.08l-.06.06-.06-.06v.08h-13.05l-.08-.08v.08h-.08l.08.08v13.05h-.08l.06.06-.06.06h.08v13.01h-.08l.06.06-.06.06h.08v13.01h-.08l.06.06-.06.06h.08v13.05l-.08.08h.08v.08l.08-.08h13.05v.08l.06-.06.06.06v-.08h13.01v.08l.06-.06.06.06v-.08h13.01v.08l.06-.06.06.06v-.08h13.05l.08.08v-.08h.08l-.08-.08v-13.09l.08-.08ZM76.42,81.77v12.85l-6.43-6.43h0l6.43-6.43Z"/>
  <path class="cls-1" d="M174.99,68.53l.08-.08h-.08v-.08l-.08.08h-13.09l-.08-.08v.08h-.08l.08.08v13.05h-.08l.06.06-.06.06h.08v13.01h-.08l.06.06-.06.06h.08v13.01h-13.01v-13.01h.08l-.06-.06.06-.06h-.08v-13.01h.08l-.06-.06.06-.06h-.08v-13.05l.08-.08h-.08v-.08l-.08.08h-13.05v-.08l-.06.06-.06-.06v.08h-13.05l-.08-.08v.08h-.08l.08.08v13.09l-.08.08h.08v13.01h-.08l.06.06-.06.06h.08v13.01h-.08l.06.06-.06.06h.08v.08l.06-.06,6.49,6.49h0l.04.04.04.04h0l6.49,6.49-.06.06h.08v.08l.06-.06.06.06v-.08h13.01v.08l.08-.08h13.05v.08l.06-.06.06.06v-.08h.08l-.06-.06,6.49-6.49.08-.08,6.49-6.49.06.06v-.08h.08l-.06-.06.06-.06h-.08v-13.01h.08l-.06-.06.06-.06h-.08v-13.01h.08l-.06-.06.06-.06h-.08v-13.05ZM135.41,81.7l-6.43,6.43-6.43-6.43h12.85ZM142.19,114.45l6.43-6.43v12.85l-6.43-6.43Z"/>
  <path class="cls-1" d="M234.14,68.45h-.08v-.08l-.08.08h-13.09l-.08-.08v.08h-13.01v-.08l-.06.06-.06-.06v.08h-13.01v-.08l-.06.06-.06-.06v.08h-.08l.06.06-6.49,6.49-.08.08-6.5,6.5h-.04v.04l-.08.08h.08v6.45h-.08l.08.08v13.09l-.08.08h.08v.08l.08-.08h13.05v.08l.06-.06.06.06v-.08h13.01v.08l.06-.06.06.06v-.08h13.01v6.45h-13.01v-.08l-.06.06-.06-.06v.08h-13.01v-.08l-.06.06-.06-.06v.08h-13.05l-.08-.08v.08h-.08l.08.08v13.09l-.08.08h.08v.08l.08-.08h13.05v.08l.06-.06.06.06v-.08h13.01v.08l.06-.06.06.06v-.08h13.01v.08l.06-.06.06.06v-.08h.08l-.06-.06,6.49-6.49.08-.08,6.51-6.51h.03v-.03l.08-.08h-.08v-6.37h0s0-.07,0-.07h.08l-.08-.08v-13.09l.08-.08h-.08v-.08l-.08.08h-13.05v-.08l-.06.06-.06-.06v.08h-13.01v-.08l-.06.06-.06-.06v.08h-13.01v-.08h0s0-6.3,0-6.3h0s0-.07,0-.07h13.01v.08l.06-.06.06.06v-.08h13.01v.08l.08-.08h13.09l.08.08v-.08h.08l-.08-.08v-13.09l.08-.08ZM214.39,75.07l6.43-6.43v12.85l-6.43-6.43Z"/>
  <path class="cls-1" d="M56.84,81.58v-.08l-.06.06-6.49-6.49-.08-.08-6.49-6.49.06-.06h-.08v-.08l-.06.06-.06-.06v.08h-13.01v-.08l-.06.06-.06-.06v.08h-13.01v-.08l-.06.06-.06-.06v.08H4.29l-.08-.08v.08h-.08l.08.08v13.05h-.08l.06.06-.06.06h.08v13.01h-.08l.08.08v13.05h-.08l.06.06-.06.06h.08v13.21l6.62-6.62h0l6.49,6.49-.06.06h.08v.08l.06-.06.06.06v-.08h13.05l.08.08v-.08h.08l-.08-.08v-13.05h13.01v.08l.06-.06.06.06v-.08h.08l-.06-.06,6.49-6.49h0l.04-.04.04-.04h0l6.49-6.49.06.06v-.08h.08l-.06-.06.06-.06h-.08v-13.01h.08l-.06-.06.06-.06h-.08ZM30.67,94.7h-.08v-12.93l6.43,6.43.08.08,6.43,6.43h-12.85ZM17.34,94.9v12.85l-6.43-6.43h0l6.43-6.43ZM10.84,88.28h0l6.43,6.43H4.41l6.43-6.43Z"/>
  <polygon class="cls-1" points="175.07 2.81 174.99 2.81 174.99 2.74 174.91 2.81 161.94 2.81 161.86 2.81 161.86 2.74 161.8 2.8 161.74 2.74 161.74 2.81 161.66 2.81 148.81 2.81 148.73 2.81 148.73 2.74 148.67 2.8 148.61 2.74 148.61 2.81 148.54 2.81 135.68 2.81 135.61 2.81 135.61 2.74 135.55 2.8 135.49 2.74 135.49 2.81 135.41 2.81 122.44 2.81 122.36 2.74 122.36 2.81 122.28 2.81 122.36 2.89 122.36 15.86 122.36 15.94 122.28 15.94 122.34 16 122.28 16.06 122.36 16.06 122.36 16.14 122.36 29.07 122.28 29.07 122.34 29.13 122.28 29.19 122.36 29.19 122.36 29.26 122.42 29.21 128.91 35.69 128.91 35.69 122.42 42.18 122.36 42.12 122.36 42.2 122.28 42.2 122.34 42.25 122.28 42.31 122.36 42.31 122.36 55.36 122.28 55.44 122.36 55.44 122.36 55.52 122.44 55.44 135.41 55.44 135.49 55.44 135.49 55.52 135.55 55.46 135.61 55.52 135.61 55.44 135.68 55.44 148.66 55.44 148.73 55.52 148.73 55.44 148.81 55.44 148.73 55.36 148.73 42.39 148.73 42.31 148.81 42.31 161.66 42.31 161.74 42.31 161.74 42.39 161.8 42.33 161.86 42.39 161.86 42.31 161.94 42.31 174.91 42.31 174.99 42.39 174.99 42.31 175.07 42.31 174.99 42.24 174.99 29.15 175.07 29.07 174.99 29.07 174.99 28.99 174.91 29.07 161.94 29.07 161.86 29.07 161.86 28.99 161.8 29.05 161.74 28.99 161.74 29.07 161.66 29.07 148.81 29.07 148.73 29.07 148.73 28.99 148.73 16.14 148.73 16.06 148.81 16.06 161.66 16.06 161.74 16.06 161.74 16.14 161.8 16.08 161.86 16.14 161.86 16.06 161.94 16.06 174.91 16.06 174.99 16.14 174.99 16.06 175.07 16.06 174.99 15.98 174.99 2.89 175.07 2.81"/>
  <path class="cls-1" d="M234.14,16.06l-.06-.06.06-.06h-.08v-.08l-.06.06-6.56-6.56-6.49-6.49.06-.06h-.08v-.08l-.06.06-.06-.06v.08h-13.01v-.08l-.06.06-.06-.06v.08h-13.01v-.08l-.06.06-.06-.06v.08h-.08l.06.06-6.49,6.49h0l-6.56,6.56-.06-.06v.08h-.08l.06.06-.06.06h.08v13.01h-.08l.06.06-.06.06h.08v13.01h-.08l.06.06-.06.06h.08v.08l.06-.06,6.49,6.49h0l.04.04.04.04h0l6.49,6.49-.06.06h.08v.08l.06-.06.06.06v-.08h13.01v.08l.06-.06.06.06v-.08h13.01v.08l.06-.06.06.06v-.08h.08l-.06-.06,6.49-6.49.08-.08,6.5-6.5h.12l-.06-.06.06-.06h-.12l-6.5-6.5,6.49-6.49.06.06v-.08h.08l-.06-.06.06-.06h-.08v-13.01h.08ZM201.18,48.74l-6.43-6.43h12.85l-6.43,6.43ZM214.31,35.61l-.08.08-6.43,6.43-.06.06-.06-.06h0l-6.47-6.47-6.47-6.47h0l-.06-.06.06-.06,6.43-6.43.08-.08,6.43-6.43.06-.06,6.49,6.49h0l.04.04.04.04h0l6.49,6.49-.06.06-6.43,6.43Z"/>
  <polygon class="cls-1" points="115.92 2.89 115.99 2.81 115.92 2.81 115.92 2.74 115.84 2.81 102.75 2.81 102.67 2.74 102.67 2.81 102.59 2.81 102.67 2.89 102.67 15.86 102.67 15.94 102.59 15.94 102.65 16 102.59 16.06 102.67 16.06 102.67 16.14 102.67 28.99 102.67 29.07 102.59 29.07 102.65 29.13 102.59 29.19 102.59 29.19 96.17 35.61 89.74 29.19 89.68 29.13 96.24 22.56 89.74 16.06 89.68 16 89.74 15.94 89.66 15.94 89.66 15.86 89.6 15.92 89.54 15.86 83.04 9.36 83.04 9.36 76.55 2.87 76.61 2.81 76.53 2.81 76.53 2.74 76.47 2.8 76.42 2.74 76.42 2.81 63.37 2.81 63.29 2.74 63.29 2.81 63.21 2.81 63.29 2.89 63.29 15.86 63.29 15.94 63.21 15.94 63.27 16 63.21 16.06 63.29 16.06 63.29 16.14 63.29 29.07 63.21 29.07 63.27 29.13 63.21 29.19 63.29 29.19 63.29 29.26 63.29 42.2 63.21 42.2 63.27 42.25 63.21 42.31 63.29 42.31 63.29 42.49 63.4 42.38 69.83 48.82 63.21 55.44 76.61 55.44 69.99 48.82 76.47 42.33 76.53 42.39 76.53 42.31 76.61 42.31 76.55 42.25 76.61 42.2 76.53 42.2 76.53 29.26 82.96 35.69 83.04 35.77 89.46 42.2 89.52 42.25 89.46 42.31 89.54 42.31 89.54 42.39 89.6 42.33 89.66 42.39 96.09 48.82 96.17 48.9 102.65 55.38 102.59 55.44 102.67 55.44 102.67 55.52 102.73 55.46 102.79 55.52 102.79 55.44 115.84 55.44 115.92 55.52 115.92 55.44 115.99 55.44 115.92 55.36 115.92 42.39 115.92 42.31 115.99 42.31 115.93 42.25 115.99 42.2 115.92 42.2 115.92 42.12 115.92 29.26 115.92 29.19 115.99 29.19 115.93 29.13 115.99 29.07 115.92 29.07 115.92 28.99 115.92 16.14 115.92 16.06 115.99 16.06 115.93 16 115.99 15.94 115.92 15.94 115.92 15.86 115.92 2.89"/>
</svg>