<?xml version="1.0" encoding="UTF-8"?>
<svg id="Layer_1" data-name="Layer 1" xmlns="http://www.w3.org/2000/svg" viewBox="0 0 230 120">
  <defs>
    <style>
      .cls-1 {
        fill: #fff;
      }
    </style>
  </defs>
  <polygon class="cls-1" points="52.78 .08 52.7 .08 52.7 0 52.63 .08 39.66 .08 39.58 .08 39.58 0 39.52 .06 39.46 0 39.46 .08 39.38 .08 26.53 .08 26.45 .08 26.45 0 26.39 .06 26.33 0 26.33 .08 26.25 .08 13.4 .08 13.32 .08 13.32 0 13.26 .06 13.21 0 13.21 .08 13.13 .08 .16 .08 .08 0 .08 .08 0 .08 .08 .16 .08 13.25 0 13.32 .08 13.32 .08 13.4 .16 13.32 13.13 13.32 13.21 13.32 13.21 13.4 13.21 26.25 13.21 26.33 13.13 26.33 13.19 26.39 13.13 26.45 13.21 26.45 13.21 26.53 13.21 39.38 13.21 39.46 13.13 39.46 .16 39.46 .08 39.38 .08 39.46 0 39.46 .08 39.54 .08 52.63 0 52.71 .08 52.71 .08 52.78 .16 52.71 13.13 52.71 13.21 52.71 13.21 52.78 13.26 52.72 13.32 52.78 13.32 52.71 13.4 52.71 26.25 52.71 26.33 52.71 26.33 52.78 26.39 52.72 26.45 52.78 26.45 52.71 26.53 52.71 39.46 52.71 39.46 52.78 39.52 52.72 39.58 52.78 39.58 52.71 39.66 52.71 39.6 52.65 46.07 46.17 46.08 46.16 52.49 52.57 52.7 52.78 52.7 39.54 52.78 39.46 52.7 39.46 52.7 39.38 52.63 39.46 39.66 39.46 39.58 39.46 39.58 39.38 39.58 26.53 39.58 26.45 39.66 26.45 39.6 26.39 39.66 26.33 39.58 26.33 39.58 26.25 39.58 13.4 39.58 13.32 39.66 13.32 52.63 13.32 52.7 13.4 52.7 13.32 52.78 13.32 52.7 13.25 52.7 .16 52.78 .08"/>
  <path class="cls-1" d="M111.86,105.1h-.08v-.08l-.08.08h-13.05v-.08l-.06.06-.06-.06v.08h-13.01v-13.01h.08l-.08-.08v-13.05h.08l-.06-.06.06-.06h-.08v-13.05l.08-.08h-.08v-.08l-.08.08h-13.05v-.08l-.06.06-.06-.06v.08h-13.05l-.08-.08v.08h-.08l.08.08v13.05h-.08l.06.06-.06.06h.08v13.01h-.08l.06.06-.06.06h.08v13.05l-.08.08h.08v13.05l-.08.08h.08v.08l.08-.08h13.05v.08l.06-.06.06.06v-.08h13.01v.08l.06-.06.06.06v-.08h13.01v.08l.06-.06.06.06v-.08h13.05l.08.08v-.08h.08l-.08-.08v-13.09l.08-.08ZM78.91,98.5h-.01s-6.42-6.42-6.42-6.42h12.85l-6.42,6.42ZM72.2,105.21l-6.42,6.42h-.01s-6.42-6.42-6.42-6.42h12.85Z"/>
  <path class="cls-1" d="M170.93,65.71h-13.25l-.08-.08v.08h-.08l.08.08v13.05h-.08l.06.06-.06.06h.08v13.01h-.08l.06.06-.06.06h.08v13.01h-13.01v-13.05l.08-.08h-.08v-13.01h.08l-.06-.06.06-.06h-.08v-13.05l.08-.08h-.08v-.08l-.08.08h-13.05v-.08l-.06.06-.06-.06v.08h-13.05l-.08-.08v.08h-.08l.08.08v13.05h-.08l.06.06-.06.06h.08v13.01h-.08l.06.06-.06.06h.08v13.01h-.08l.06.06-.06.06h.08v.08l.06-.06,6.47,6.48.09.09,6.41,6.41.08.08-.06.06h.08v.08l.06-.06.06.06v-.08h13.01v.08l.06-.06.06.06v-.08h13.01v.08l.06-.06.06.06v-.08h.08l-.06-.06,6.48-6.48.09-.09,6.41-6.41.08-.08.06.06v-.08h.08l-.06-.06.06-.06h-.08v-13.01h.08l-.06-.06.06-.06h-.08v-13.01h.08l-.06-.06.06-.06h-.08v-.08l-.06.06-6.47-6.48h-.01s6.41-6.42,6.41-6.42l.21-.21ZM124.93,98.6h-.01s6.41-6.42,6.41-6.42l.02-.02h0v12.85h0s-6.42-6.42-6.42-6.42ZM131.55,91.97l6.42-6.42h.01s6.41,6.4,6.41,6.4l.02.02h-12.85Z"/>
  <path class="cls-1" d="M230,65.71h-.08v-.08l-.08.08h-13.05v-.08l-.06.06-.06-.06v.08h-13.01v-.08l-.06.06-.06-.06v.08h-13.01v-.08l-.06.06-.06-.06v.08h-.08l.06.06-6.48,6.48-.09.09-6.41,6.41-.09.09h-.04v.04l-.08.08h.08v6.44h-.08l.08.08v13.09l-.08.08h.08v.08l.08-.08h13.05v.08l.06-.06.06.06v-.08h13.01v.08l.06-.06.06.06v-.08h13.01v6.44h-13.01v-.08l-.08.08h-13.05v-.08l-.06.06-.06-.06v.08h-13.05l-.08-.08v.08h-.08l.08.08v13.09l-.08.08h.08v.08l.08-.08h13.05v.08l.06-.06.06.06v-.08h13.05l.08.08v-.08h13.01v.08l.06-.06.06.06v-.08h.08l-.06-.06,6.48-6.47.09-.09,6.41-6.41.1-.1h.03v-.03l.08-.08h-.08v-6.37h0s0-.07,0-.07h.08l-.08-.08v-13.09l.08-.08h-.08v-.08l-.08.08h-13.05v-.08l-.06.06-.06-.06v.08h-13.01v-.08l-.06.06-.06-.06v.08h-13.01v-.08h0s0-6.29,0-6.29h0s0-.07,0-.07h13.01v.08l.06-.06.06.06v-.08h13.01v.08l.06-.06.06.06v-.08h13.05l.08.08v-.08h.08l-.08-.08v-13.09l.08-.08ZM203.68,118.13l-.02.02v-12.85l6.42,6.42h.01s-6.41,6.42-6.41,6.42Z"/>
  <path class="cls-1" d="M52.7,78.84v-.08l-.06.06-6.47-6.48-.09-.09-6.49-6.49.06-.06h-.08v-.08l-.06.06-.06-.06v.08h-13.01v-.08l-.06.06-.06-.06v.08h-13.01v-.08l-.06.06-.06-.06v.08H.16l-.08-.08v.08h-.08l.08.08v13.05h-.08l.06.06-.06.06h.08v13.01h-.08l.06.06-.06.06h.08v13.01h-.08l.06.06-.06.06h.08v13.21l6.61-6.61h.01s6.41,6.4,6.41,6.4l.08.08-.06.06h.08v.08l.06-.06.06.06v-.08h13.05l.08.08v-.08h.08l-.08-.08v-13.05h.08l-.06-.06,6.48-6.48h.01s6.41,6.4,6.41,6.4l.1.1v.12l.06-.06.06.06v-.12l6.49-6.49.09-.09,6.41-6.41.08-.08.06.06v-.08h.08l-.06-.06.06-.06h-.08v-13.01h.08l-.06-.06.06-.06h-.08ZM19.84,111.63h-.01s-6.42-6.42-6.42-6.42h12.85l-6.42,6.42ZM19.92,98.6h-.01s6.41-6.42,6.41-6.42l.02-.02v12.85l-6.42-6.42ZM26.45,79.04h0s6.42,6.42,6.42,6.42l.09.09,6.41,6.41.02.02h-12.93v-12.93Z"/>
  <path class="cls-1" d="M170.93.08h-.08v-.08l-.08.08h-13.05v-.08l-.06.06-.06-.06v.08h-13.01v-.08l-.06.06-.06-.06v.08h-13.01v-.08l-.06.06-.06-.06v.08h-13.05l-.08-.08v.08h-.08l.08.08v13.05h-.08l.06.06-.06.06h.08v13.01h-.08l.06.06-.06.06h.08v13.01h-.08l.06.06-.06.06h.08v13.05l-.08.08h.08v.08l.08-.08h13.05v.08l.08-.08h13.09l.08.08v-.08h.08l-.08-.08v-13.05h13.01v.08l.06-.06.06.06v-.08h13.05l.08.08v-.08h.08l-.08-.08v-13.09l.08-.08h-.08v-.08l-.08.08h-13.05v-.08l-.06.06-.06-.06v.08h-13.01v-13.01h13.01v.08l.06-.06.06.06v-.08h13.05l.08.08v-.08h.08l-.08-.08V.16l.08-.08ZM137.97,19.75l-6.42-6.43h12.85l-6.42,6.42h-.01ZM124.93,46.09h-.01s6.41-6.42,6.41-6.42l.02-.02h0v12.85l-6.42-6.42Z"/>
  <path class="cls-1" d="M229.92,13.32h.08l-.06-.06.06-.06h-.08v-.08l-.06.06-6.47-6.48-.09-.09-6.41-6.41-.08-.08.06-.06h-.08v-.08l-.06.06-.06-.06v.08h-13.05l-.08-.08v.08h-13.01v-.08l-.06.06-.06-.06v.08h-.08l.06.06-6.48,6.48-.09.09-6.41,6.41-.08.08-.06-.06v.08h-.08l.06.06-.06.06h.08v13.01h-.08l.08.08v13.05h-.08l.06.06-.06.06h.08v.08l.06-.06,6.47,6.48.09.09,6.41,6.41.08.08-.06.06h.08v.08l.06-.06.06.06v-.08h13.01v.08l.06-.06.06.06v-.08h13.01v.08l.06-.06.06.06v-.08h.08l-.06-.06,6.48-6.47.09-.09,6.41-6.41.08-.08.06.06v-.08h.08l-.06-.06.06-.06h-.08v-13.01h.08l-.06-.06.06-.06h-.08v-13.01ZM203.55,13.4h0s.06-.06.06-.06l6.47,6.48.09.09,6.41,6.41.08.08-.05.05-6.42,6.42-.09.09-6.41,6.41-.07.08-.06-.06h0s-6.42-6.42-6.42-6.42l-.09-.09-6.49-6.49,6.47-6.47.09-.09,6.41-6.41.02-.02ZM183.91,19.92h.01s6.41,6.4,6.41,6.4l.02.02h-12.85l6.42-6.42ZM203.53.29l.02-.02v12.85l-6.42-6.42h-.01s6.41-6.42,6.41-6.42Z"/>
  <path class="cls-1" d="M111.86.08h-13.25l-.08-.08v.08h-.08l.08.08v13.05h-.08l.06.06-.06.06h.08v12.93h0s-6.42-6.42-6.42-6.42l-.09-.09-6.49-6.49.06-.06h-.08v-.08l-.06.06-.06-.06h0s-6.42-6.42-6.42-6.42l-.09-.09L72.41.14l.06-.06h-.08v-.08l-.06.06-.06-.06v.08h-13.05l-.08-.08v.08h-.08l.08.08v13.05h-.08l.06.06-.06.06h.08v13.05l-.08.08h.08v13.01h-.08l.06.06-.06.06h.08v13.21l6.61-6.61h.01s6.41,6.4,6.41,6.4l.21.21v-13.21h.08l-.06-.06.06-.06h-.08v-12.93h0s6.42,6.42,6.42,6.42l.09.09,6.41,6.41.08.08-.06.06h.08v.08l.06-.06.06.06h0s6.42,6.42,6.42,6.42l.09.09,6.41,6.41.08.08-.06.06h.08v.08l.06-.06.06.06v-.08h13.05l.08.08v-.08h.08l-.08-.08v-13.05h.08l-.06-.06.06-.06h-.08v-13.01h.08l-.06-.06.06-.06h-.08v-13.01h.08l-.06-.06.06-.06h-.08v-.08l-.06.06-6.47-6.48h-.01s6.41-6.42,6.41-6.42l.21-.21ZM72.2,26.45l-6.42,6.42h-.01s-6.42-6.42-6.42-6.42h12.85Z"/>
</svg>