<?xml version="1.0" encoding="UTF-8"?>
<svg id="Layer_1" data-name="Layer 1" xmlns="http://www.w3.org/2000/svg" viewBox="0 0 230 120">
  <defs>
    <style>
      .cls-1 {
        fill: #fff;
      }
    </style>
  </defs>
  <path class="cls-1" d="M52.81.09h-.09v-.09l-.09.09h-13.08l-.09-.09v.09h-12.99v-.09l-.07.07-.07-.07v.09h-12.99v-.09l-.07.07-.07-.07v.09H.18l-.09-.09v.09h-.09l.09.09v13.08l-.09.09h.09v.09l.09-.09h13.04v12.99h-.09l.07.07-.07.07h.09v12.99H.18l-.09-.09v.09h-.09l.09.09v13.08l-.09.09h.09v.09l.09-.09h13.04v.09l.07-.07.07.07v-.09h12.99v.09l.07-.07.07.07v-.09h12.99v.09l.07-.07.07.07v-.09h13.04l.09.09v-.09h.09l-.09-.09v-13.08l.09-.09h-.09v-.09l-.09.09h-13.04v-12.99h.09l-.07-.07.07-.07h-.09v-12.99h13.04l.09.09v-.09h.09l-.09-.09V.18l.09-.09ZM26.56,39.46l6.4-6.4h0s6.4,6.4,6.4,6.4h0s-12.82,0-12.82,0ZM39.46.31v12.82l-6.4-6.4h0S39.46.31,39.46.31Z"/>
  <polygon class="cls-1" points="111.87 105.09 111.78 105.09 111.78 105 111.7 105.09 98.75 105.09 98.66 105.09 98.66 105 98.59 105.07 98.53 105 98.53 105.09 98.44 105.09 85.62 105.09 85.53 105.09 85.53 105 85.53 92.18 85.53 92.1 85.62 92.1 85.56 92.03 85.62 91.96 85.53 91.96 85.53 91.88 85.53 79.06 85.53 78.97 85.62 78.97 85.56 78.91 85.62 78.84 85.53 78.84 85.53 78.75 85.53 65.8 85.62 65.71 85.53 65.71 85.53 65.63 85.45 65.71 72.5 65.71 72.41 65.71 72.41 65.63 72.34 65.69 72.28 65.63 72.28 65.71 72.19 65.71 59.24 65.71 59.15 65.63 59.15 65.71 59.06 65.71 59.15 65.8 59.15 78.75 59.15 78.84 59.06 78.84 59.13 78.91 59.06 78.97 59.15 78.97 59.15 79.06 59.15 91.88 59.15 91.96 59.06 91.96 59.13 92.03 59.06 92.1 59.15 92.1 59.15 92.18 59.15 105 59.15 105.09 59.06 105.09 59.13 105.16 59.06 105.22 59.15 105.22 59.15 105.31 59.15 118.26 59.06 118.35 59.15 118.35 59.15 118.44 59.24 118.35 72.28 118.35 72.28 118.44 72.34 118.37 72.41 118.44 72.41 118.35 72.5 118.35 72.43 118.28 78.9 111.81 78.91 111.81 85.31 118.21 85.38 118.28 85.31 118.35 85.4 118.35 85.4 118.44 85.47 118.37 85.53 118.44 85.53 118.35 98.44 118.35 98.53 118.35 98.53 118.44 98.59 118.37 98.66 118.44 98.66 118.35 98.75 118.35 111.7 118.35 111.78 118.44 111.78 118.35 111.87 118.35 111.78 118.26 111.78 105.18 111.87 105.09"/>
  <path class="cls-1" d="M170.85,78.84v-13.21l-6.63,6.63-6.4-6.4-.23-.22v13.21h-.09l.07.07-.07.07h.09v12.99h-.09l.07.07-.07.07h.09v12.99h-12.99v-12.99h.09l-.07-.07.07-.07h-.09v-12.99h.09l-.07-.07.07-.07h-.09v-13.04l.09-.09h-.09v-.09l-.09.09h-13.04v-.09l-.07.07-.07-.07v.09h-13.04l-.09-.09v.09h-.09l.09.09v13.04h-.09l.07.07-.07.07h.09v13.04l-.09.09h.09v12.99h-.09l.07.07-.07.07h.09v.09l.07-.07,6.47,6.47h0s6.49,6.5,6.49,6.5l.07.07-.07.07h.09v.09l.07-.07.07.07v-.09h12.99v.09l.07-.07.07.07v-.09h12.99v.09l.07-.07.07.07v-.09h.09l-.07-.07,6.47-6.47.09-.09h0s6.4-6.4,6.4-6.4l.07-.07.07.07v-.13l.09-.09h-.09v-12.99h.09l-.07-.07.07-.07h-.09v-12.99h.09l-.07-.07.07-.07h-.09ZM131.25,92.1l-6.4,6.4h0s-6.4-6.4-6.4-6.4h0s12.82,0,12.82,0ZM157.81,105.09l6.4-6.4h0s6.41,6.4,6.41,6.4h-12.82Z"/>
  <polygon class="cls-1" points="229.91 65.63 223.28 72.26 216.88 65.85 216.81 65.78 216.88 65.71 216.79 65.71 216.79 65.63 216.72 65.69 216.65 65.63 216.65 65.71 203.75 65.71 203.66 65.71 203.66 65.63 203.6 65.69 203.53 65.63 203.53 65.71 203.44 65.71 190.54 65.71 190.54 65.63 190.47 65.69 190.4 65.63 190.4 65.71 190.32 65.71 190.38 65.78 183.91 72.26 183.91 72.25 177.19 78.97 190.32 78.97 190.4 78.97 190.4 79.06 190.47 78.99 190.54 79.06 190.54 78.97 190.62 78.97 203.44 78.97 203.53 78.97 203.53 79.06 203.6 78.99 203.66 79.06 203.66 78.97 203.75 78.97 216.57 78.97 216.65 78.97 216.65 79.06 216.72 78.99 216.79 79.06 216.79 78.97 216.88 78.97 229.82 78.97 229.91 79.06 229.91 78.97 230 78.97 229.91 78.88 229.91 65.63"/>
  <path class="cls-1" d="M230,85.4h-.09v-.09l-.09.09h-13.04v-.09l-.07.07-.07-.07v.09h-12.99v-.09l-.07.07-.07-.07v.09h-13.04l-.09-.09v.09h-13.04l-.09-.09v.09h-.09l.09.09v13.08l-.09.09h.09v.09l.09-.09h13.04v.09l.09-.09h13.04v.09l.07-.07.07.07v-.09h12.99v6.43h-12.99v-.09l-.07.07-.07-.07v.09h-12.99v-.09l-.07.07-.07-.07v.09h-13.04l-.09-.09v.09h-.09l.09.09v13.08l-.09.09h.09v.09l.09-.09h13.04v.09l.07-.07.07.07v-.09h12.99v.09l.07-.07.07.07v-.09h12.99v.09l.07-.07.07.07v-.09h.09l-.07-.07,6.56-6.56h0s6.5-6.5,6.5-6.5h.03v-.03l.09-.09h-.09v-6.35h0s0-.08,0-.08h.09l-.09-.09v-13.08l.09-.09ZM184,92.04h0s6.41-6.41,6.41-6.41v12.82l-6.4-6.4Z"/>
  <path class="cls-1" d="M52.72,78.84v-.09l-.07.07-6.47-6.47-.09-.09-6.4-6.41-.07-.07.07-.07h-.09v-.09l-.07.07-.07-.07v.09h-12.99v-.09l-.07.07-.07-.07v.09h-12.99v-.09l-.09.09H.18l-.09-.09v.09h-.09l.09.09v13.04h-.09l.07.07-.07.07h.09v13.04l-.09.09h.09v12.99h-.09l.07.07-.07.07h.09v13.04l-.09.09h.09v.09l.09-.09h13.04v.09l.07-.07.07.07v-.09h13.04l.09.09v-.09h.09l-.09-.09v-13.04h12.99v.09l.07-.07.07.07v-.09h.09l-.07-.07,6.47-6.47.09-.09,6.41-6.4.07-.07.07.07v-.09h.09l-.07-.07.07-.07h-.09v-12.99h.09l-.07-.07.07-.07h-.09ZM26.56,91.96h-.09v-12.9l6.4,6.4h0s6.49,6.5,6.49,6.5h0s-12.82,0-12.82,0ZM13.12,92.1l-6.4,6.4h0s-6.41-6.4-6.41-6.4h12.82ZM19.75,72.34h0s-6.41,6.41-6.41,6.41v-12.82l6.4,6.4Z"/>
  <path class="cls-1" d="M170.94.09h-.09v-.09l-.09.09h-13.04v-.09l-.07.07-.07-.07v.09h-12.99v-.09l-.07.07-.07-.07v.09h-12.99v-.09l-.07.07-.07-.07v.09h-13.04l-.09-.09v.09h-.09l.09.09v13.04h-.09l.07.07-.07.07h.09v12.99h-.09l.07.07-.07.07h.09v12.99h-.09l.07.07-.07.07h.09v13.04l-.09.09h.09v.09l.09-.09h13.04v.09l.07-.07.07.07v-.09h13.04l.09.09v-.09h.09l-.09-.09v-13.04h12.99v.09l.07-.07.07.07v-.09h13.04l.09.09v-.09h.09l-.09-.09v-13.08l.09-.09h-.09v-.09l-.09.09h-13.04v-.09l-.07.07-.07-.07v.09h-12.99v-12.99h12.99v.09l.07-.07.07.07v-.09h13.04l.09.09v-.09h.09l-.09-.09V.18l.09-.09ZM144.37,26.33h0s-12.82,0-12.82,0l6.41-6.41,6.4,6.4ZM131.34,26.56v12.82l-6.4-6.4h0s6.4-6.41,6.4-6.41h0Z"/>
  <path class="cls-1" d="M229.91,13.35h.09l-.07-.07.07-.07h-.09v-.09l-.07.07-6.47-6.47h0s-6.56-6.57-6.56-6.57l.07-.07h-.09v-.09l-.07.07-.07-.07v.09h-12.99v-.09l-.07.07-.07-.07v.09h-12.99v-.09l-.07.07-.07-.07v.09h-.09l.07.07-6.47,6.47-.09.09-6.4,6.4-.07.07-.07-.07v.09h-.09l.07.07-.07.07h.09v12.99h-.09l.07.07-.07.07h.09v12.99h-.09l.07.07-.07.07h.09v.09l.07-.07,6.47,6.47.09.09,6.4,6.41.07.07-.07.07h.09v.09l.07-.07.07.07v-.09h12.99v.09l.07-.07.07.07v-.09h.09l-.07-.07,6.47-6.47.09-.09h0s6.4-6.4,6.4-6.4h0s0,13.12,0,13.12l6.72-6.72h0s6.47-6.47,6.47-6.47l.07.07v-.09h.09l-.07-.07.07-.07h-.09v-12.99h.09l-.07-.07.07-.07h-.09v-12.99ZM210.07,32.97l-6.41,6.4-.07.07-.06-.06-6.41-6.41-.09-.09-6.4-6.41-.07-.07.06-.06,6.41-6.41.09-.09,6.41-6.4.07-.07.06.06,6.41,6.41.09.09,6.4,6.41.07.07-6.47,6.47-.09.09ZM203.44,13.21h0s-12.82,0-12.82,0h0l6.41-6.41,6.4,6.4Z"/>
  <polygon class="cls-1" points="111.78 .18 111.87 .09 111.78 .09 111.78 0 111.7 .09 98.44 .09 105.06 6.71 105.15 6.8 111.56 13.21 111.56 13.21 98.62 13.21 98.53 13.12 98.53 13.21 98.44 13.21 98.53 13.3 98.53 26.25 92.12 19.85 92.03 19.75 85.63 13.35 85.56 13.28 85.62 13.21 85.53 13.21 85.53 13.12 85.47 13.19 85.4 13.12 85.4 13.13 79 6.72 78.91 6.63 72.5 .22 72.43 .15 72.5 .09 72.41 .09 72.41 0 72.34 .07 72.28 0 72.28 .09 59.24 .09 59.15 0 59.15 .09 59.06 .09 59.15 .18 59.15 13.12 59.15 13.21 59.06 13.21 59.13 13.28 59.06 13.35 59.15 13.35 59.15 13.43 59.15 26.25 59.15 26.34 59.06 26.34 59.13 26.4 59.06 26.47 59.15 26.47 59.15 26.56 59.15 39.38 59.15 39.46 59.06 39.46 59.13 39.53 59.06 39.6 59.15 39.6 59.15 39.68 59.15 52.63 59.06 52.72 59.15 52.72 59.15 52.81 59.24 52.72 72.32 52.72 72.41 52.81 72.41 52.72 72.5 52.72 72.41 52.63 72.41 39.68 72.41 39.6 72.5 39.6 72.43 39.53 72.5 39.46 72.41 39.46 72.41 39.38 72.41 26.56 78.81 32.96 78.9 33.05 85.31 39.46 85.38 39.53 85.31 39.6 85.4 39.6 85.4 39.68 85.47 39.62 85.53 39.68 91.94 46.09 92.03 46.18 98.43 52.58 98.5 52.66 98.44 52.72 98.53 52.72 98.53 52.81 98.59 52.74 98.66 52.81 98.66 52.72 111.7 52.72 111.78 52.81 111.78 52.72 111.87 52.72 111.78 52.63 111.78 39.68 111.78 39.6 111.87 39.6 111.81 39.53 111.87 39.46 111.78 39.46 111.78 39.38 111.78 26.56 111.78 26.47 111.87 26.47 111.81 26.4 111.87 26.34 111.78 26.34 111.78 26.25 111.78 13.43 111.78 13.3 111.87 13.21 111.78 13.21 111.78 13.12 111.78 .18"/>
</svg>