<?xml version="1.0" encoding="UTF-8"?>
<svg id="Layer_1" data-name="Layer 1" xmlns="http://www.w3.org/2000/svg" viewBox="0 0 230 120">
  <defs>
    <style>
      .cls-1 {
        fill: #fff;
      }
    </style>
  </defs>
  <path class="cls-1" d="M52.88.25h-.08v-.08l-.05.05-.09-.22h-12.95l-.08.2-.08-.2h-12.95l-.08.19-.08-.19h-12.95l-.08.19-.08-.19H.39l-.1.25h-.11l.08.08-.1.25,6.28,6.28L.15,13.14l.1.25-.08.08h.11l.1.25h12.72v12.72l.2.08-.2.08v12.72H.39l-.09.22-.05-.05v.08h-.08l.05.05-.22.09v12.95l.22.09-.05.05h.08v.08l.05-.05.09.22h12.95l.08-.19.08.19h12.95l.08-.19.08.19h12.95l.08-.2.08.2h12.95l.1-.25h.11l-.08-.08.1-.25-6.28-6.28,6.28-6.28-.1-.25.08-.08h-.11l-.1-.25h-12.72v-12.72l-.2-.08.2-.08v-12.72h12.72l.09-.22.05.05v-.08h.08l-.05-.05.22-.09V.39l-.22-.09.05-.05ZM26.22,12.68l-5.82-5.82,5.82-5.82v11.63ZM13.11,12.68l-5.82-5.82L13.11,1.05v11.63Z"/>
  <polygon class="cls-1" points="111.86 105.11 111.78 105.11 111.78 105.03 111.73 105.08 111.64 104.86 98.7 104.86 98.62 105.06 98.53 104.86 85.82 104.86 85.82 92.14 85.62 92.06 85.82 91.98 85.82 79.03 85.62 78.95 85.82 78.87 85.82 65.93 85.6 65.84 85.64 65.79 85.57 65.79 85.57 65.71 85.52 65.76 85.43 65.54 72.48 65.54 72.4 65.73 72.32 65.54 59.37 65.54 59.28 65.76 59.23 65.71 59.23 65.79 59.16 65.79 59.2 65.84 58.98 65.93 58.98 78.87 59.18 78.95 58.98 79.03 58.98 91.98 59.18 92.06 58.98 92.14 58.98 105.09 59.18 105.17 58.98 105.25 58.98 118.2 59.2 118.29 59.16 118.34 59.23 118.34 59.23 118.41 59.31 118.34 59.32 118.34 59.56 118.44 59.66 118.34 72.03 118.34 72.07 118.38 72.13 118.44 72.34 118.35 72.34 118.41 72.4 118.35 72.46 118.41 72.46 118.35 72.67 118.44 78.95 112.15 85.18 118.38 85.24 118.44 85.45 118.35 85.45 118.41 85.51 118.35 85.57 118.41 85.57 118.35 85.78 118.44 85.88 118.34 98.24 118.34 98.29 118.38 98.34 118.44 98.56 118.35 98.56 118.41 98.62 118.35 98.67 118.41 98.67 118.35 98.89 118.44 98.99 118.34 111.35 118.34 111.39 118.38 111.45 118.44 111.69 118.34 111.7 118.34 111.78 118.41 111.78 118.34 111.86 118.34 111.81 118.29 112.03 118.2 112.03 105.25 111.81 105.16 111.86 105.11"/>
  <path class="cls-1" d="M170.84,65.79h-.08v-.08l-.05.05-.09-.22h-12.95l-.09.22-.05-.05v.08h-.08l.05.05-.22.09v12.95l.19.08-.19.08v12.95l.19.08-.19.08v12.72h-12.49v-12.72l-.19-.08.19-.08v-12.95l-.19-.08.19-.08v-12.95l-.22-.09.05-.05h-.08v-.08l-.05.05-.09-.22h-12.95l-.08.19-.08-.19h-12.95l-.09.22-.05-.05v.08h-.08l.05.05-.22.09v12.95l.19.08-.19.08v12.95l.19.08-.19.08v12.95l.22.09-.05.05h.07l-.09.21,6.45,6.45.04.04h.03v.03l6.43,6.43.06.06.21-.09v.07l.06-.06.06.06v-.07l.21.09.1-.1h12.36l.04.04.06.06.21-.09v.07l.06-.06.06.06v-.07l.21.09.1-.1h12.36l.04.04.06.06.21-.09v.07l.06-.06.06.06v-.07l.21.09,6.45-6.45.04-.04v-.03h.03l6.43-6.43.06-.06-.09-.21h.07l-.05-.05.22-.09v-12.95l-.19-.08.19-.08v-12.95l-.19-.08.19-.08v-12.95l-.22-.09.05-.05ZM124.83,72.83l5.81,5.82h-11.63l5.82-5.82ZM124.83,85.94l5.81,5.82h-11.63l5.82-5.82Z"/>
  <polygon class="cls-1" points="229.83 65.79 229.75 65.79 229.75 65.71 229.7 65.76 229.61 65.54 216.66 65.54 216.58 65.73 216.5 65.54 203.56 65.54 203.48 65.73 203.4 65.54 190.45 65.54 190.36 65.76 190.31 65.71 190.31 65.77 190.1 65.69 183.65 72.13 183.61 72.17 183.61 72.2 183.59 72.2 177.1 78.68 177.14 78.78 176.95 78.97 176.95 85.49 177.02 85.56 176.95 85.59 176.95 98.54 177.17 98.63 177.12 98.67 177.2 98.67 177.2 98.75 177.25 98.7 177.34 98.92 190.29 98.92 190.37 98.73 190.45 98.92 203.4 98.92 203.48 98.73 203.56 98.92 216.5 98.92 216.58 98.73 216.66 98.92 229.61 98.92 229.7 98.7 229.75 98.75 229.75 98.67 229.83 98.67 229.78 98.63 230 98.54 230 85.59 229.78 85.5 229.83 85.45 229.75 85.45 229.75 85.37 229.7 85.42 229.61 85.2 216.66 85.2 216.58 85.39 216.5 85.2 203.56 85.2 203.48 85.39 203.4 85.2 190.67 85.2 190.67 79.26 203.4 79.26 203.48 79.07 203.56 79.26 216.5 79.26 216.58 79.07 216.66 79.26 229.61 79.26 229.7 79.04 229.75 79.09 229.75 79.01 229.83 79.01 229.78 78.96 230 78.87 230 65.93 229.78 65.84 229.83 65.79"/>
  <polygon class="cls-1" points="229.83 105.11 229.71 105.11 229.61 104.86 216.66 104.86 216.58 105.06 216.5 104.86 203.56 104.86 203.48 105.06 203.4 104.86 190.45 104.86 190.37 105.06 190.29 104.86 177.34 104.86 177.25 105.08 177.2 105.03 177.2 105.11 177.12 105.11 177.17 105.16 176.95 105.25 176.95 118.2 177.17 118.29 177.12 118.34 177.2 118.34 177.2 118.41 177.28 118.34 177.29 118.34 177.53 118.44 177.63 118.34 190 118.34 190.04 118.38 190.1 118.44 190.31 118.35 190.31 118.41 190.37 118.35 190.43 118.41 190.43 118.35 190.64 118.44 190.74 118.34 203.1 118.34 203.15 118.38 203.21 118.44 203.42 118.35 203.42 118.41 203.48 118.35 203.54 118.41 203.54 118.35 203.75 118.44 203.85 118.34 216.21 118.34 216.25 118.38 216.31 118.44 216.53 118.35 216.53 118.41 216.58 118.35 216.64 118.41 216.64 118.35 216.86 118.44 223.3 111.99 223.34 111.95 223.34 111.93 223.37 111.93 229.79 105.5 229.85 105.44 229.75 105.19 229.83 105.11"/>
  <path class="cls-1" d="M52.88,78.9h-.07l.09-.21-6.45-6.45-.04-.04h-.03v-.03l-6.43-6.43-.06-.06-.21.09v-.07l-.05.05-.09-.22h-12.95l-.08.19-.08-.19h-12.95l-.08.19-.08-.19H.39l-.09.22-.05-.05v.08h-.08l.05.05-.22.09v12.95l.19.08-.19.08v12.95l.19.08-.19.08v12.95l.19.08-.19.08v12.95l.25.1v.11l.08-.08.25.1,6.28-6.28,6.22,6.22.06.06.21-.09v.07l.06-.06.06.06v-.07l.21.09.1-.1h12.36l.04.04.06.06.24-.1h0l.08.08v-.08h.08l-.05-.05.22-.09v-12.72h12.72l.09-.22.05.05v-.07l.21.09,6.45-6.45.04-.04v-.03h.03l6.43-6.43.06-.06-.09-.21h.07l-.05-.05.22-.09v-12.95l-.22-.09.05-.05ZM26.83,79.26h12.06l-5.98,5.98-.04.04v.46l6.02,6.02h-12.06v-12.49ZM13.11,78.22l-5.82-5.82,5.82-5.81v11.63Z"/>
  <path class="cls-1" d="M170.84.25h-.08v-.08l-.05.05-.09-.22h-12.95l-.08.19-.08-.19h-12.95l-.08.19-.08-.19h-12.95l-.08.19-.08-.19h-12.95l-.1.25h-.11l.08.08-.1.25,6.28,6.28-6.22,6.22-.06.06.09.21h-.07l.05.05-.22.09v12.95l.22.09-.05.05h.08v.08l.05-.05.09.22h12.29l-5.98,5.98-.04.04v.03h-.03l-6.43,6.43-.06.06.09.21h-.07l.05.05-.22.09v12.95l.25.1v.11l.08-.08.25.1,6.28-6.28,6.22,6.22.06.06.21-.09v.07l.05-.05.09.22h12.95l.09-.22.05.05v-.08h.08l-.05-.05.22-.09v-12.72h12.72l.08-.19.08.19h12.95l.09-.22.05.05v-.08h.08l-.05-.05.22-.09v-12.95l-.22-.09.05-.05h-.08v-.08l-.05.05-.09-.22h-12.95l-.08.19-.08-.19h-12.72v-12.49h12.72l.09-.22.05.05v-.07l.21.09,6.28-6.28,6.22,6.22.06.06.25-.1.08.08v-.11l.25-.1V.39l-.22-.09.05-.05ZM137.51,33.08l-5.81,5.81v-11.63l5.81,5.82Z"/>
  <path class="cls-1" d="M230,13.5l-.22-.09.05-.05h-.07l.09-.21-6.45-6.45-.04-.04h-.03v-.03l-6.43-6.43-.06-.06-.21.09v-.07l-.05.05-.09-.22h-12.95l-.08.19-.08-.19h-12.95l-.09.22-.05-.05v.07l-.21-.09-6.45,6.45-.04.04v.03h-.03l-6.43,6.43-.06.06.09.21h-.07l.05.05-.22.09v12.95l.2.08-.2.08v12.95l.22.09-.05.05h.07l-.09.21,6.45,6.45.04.04h.03v.03l6.43,6.43.06.06.21-.09v.07l.05-.05.09.22h12.95l.08-.19.08.19h12.95l.09-.22.05.05v-.07l.21.09,6.45-6.45.04-.04v-.03h.03l6.43-6.43.06-.06-.09-.21h.07l-.05-.05.22-.09v-12.95l-.2-.08.2-.08v-12.95ZM197.09,20.23l.04-.04v-.03h.03l6.33-6.33,6.29,6.29.04.04h.03v.03l6.33,6.33-6.29,6.29-.04.04v.03h-.03l-6.33,6.33-6.29-6.29-.04-.04h-.03v-.03l-6.33-6.33,6.29-6.29Z"/>
  <path class="cls-1" d="M111.86.25h-.08v-.08l-.05.05-.09-.22h-12.95l-.09.22-.05-.05v.08h-.08l.05.05-.22.09v12.95l.2.08-.2.08v12.29l-6.02-6.02h-.03v-.03l-6.49-6.49-.19.08.08-.19-6.49-6.49h-.03v-.03L72.67.15l-.21.09v-.07l-.05.05-.09-.22h-12.95l-.09.22-.05-.05v.08h-.08l.05.05-.22.09v12.95l.2.08-.2.08v12.95l.2.08-.2.08v12.95l.2.08-.2.08v12.95l.22.09-.05.05h.08v.08l.05-.05.09.22h12.95l.09-.22.05.05v-.08h.08l-.05-.05.22-.09v-12.95l-.2-.08.2-.08v-12.29l6.02,6.02h.03v.03l6.49,6.49.19-.08-.08.19,6.49,6.49h.03v.03l6.49,6.49.21-.09v.07l.05-.05.09.22h12.95l.09-.22.05.05v-.08h.08l-.05-.05.22-.09v-12.95l-.2-.08.2-.08v-12.95l-.2-.08.2-.08v-12.95l-.2-.08.2-.08V.39l-.22-.09.05-.05ZM92.06,33.51l5.82,5.82h-11.63l5.82-5.82Z"/>
</svg>