<?xml version="1.0" encoding="UTF-8"?>
<svg id="Layer_1" data-name="Layer 1" xmlns="http://www.w3.org/2000/svg" viewBox="0 0 230 120">
  <defs>
    <style>
      .cls-1 {
        fill: #fff;
      }
    </style>
  </defs>
  <path class="cls-1" d="M52.78.08h-.08v-.08l-.08.08h-13.05v-.08l-.06.06-.06-.06v.08h-13.01v-.08l-.06.06-.06-.06v.08h-13.01v-.08l-.08.08H.16l-.08-.08v.08h-.08l.08.08v13.09l-.08.08h.08v.08l.08-.08h13.05v13.01h-.08l.06.06-.06.06h.08v13.01H.16l-.08-.08v.08h-.08l.08.08v13.09l-.08.08h.08v.08l.08-.08h13.05v.08l.06-.06.06.06v-.08h13.01v.08l.06-.06.06.06v-.08h13.01v.08l.06-.06.06.06v-.08h13.05l.08.08v-.08h.08l-.08-.08v-13.25l-6.61,6.61h0s-6.43-6.42-6.43-6.42h0l-.06-.06.06-.06h-.08v-13.01h.08l-.06-.06.06-.06h-.08v-13.01h13.05l.08.08v-.08h.08l-.08-.08V.16l.08-.08ZM19.83,46l-6.43-6.43h12.85l-6.42,6.42h0ZM19.74,6.69h.01s-6.43,6.44-6.43,6.44V.27l6.42,6.42Z"/>
  <polygon class="cls-1" points="111.86 105.1 111.78 105.1 111.78 105.02 111.7 105.1 98.73 105.1 98.65 105.1 98.65 105.02 98.59 105.08 98.53 105.02 98.53 105.1 98.45 105.1 85.6 105.1 85.52 105.1 85.52 105.02 85.52 92.16 85.52 92.09 85.6 92.09 85.54 92.03 85.6 91.97 85.52 91.97 85.52 91.89 85.52 78.96 85.6 78.96 85.54 78.9 85.6 78.84 85.52 78.84 85.52 78.76 85.46 78.82 78.99 72.35 78.98 72.34 85.6 65.71 72.47 65.71 72.4 65.71 72.4 65.64 72.34 65.7 72.28 65.64 72.28 65.71 72.2 65.71 59.23 65.71 59.15 65.64 59.15 65.71 59.07 65.71 59.15 65.79 59.15 78.76 59.15 78.84 59.07 78.84 59.13 78.9 59.07 78.96 59.15 78.96 59.15 79.04 59.15 91.89 59.15 91.97 59.07 91.97 59.13 92.03 59.07 92.09 59.15 92.09 59.15 92.16 59.15 105.02 59.15 105.1 59.07 105.1 59.13 105.15 59.07 105.21 59.15 105.21 59.15 105.29 59.15 118.26 59.07 118.34 59.15 118.34 59.15 118.42 59.23 118.34 72.2 118.34 72.28 118.34 72.28 118.42 72.34 118.36 72.4 118.42 72.4 118.34 72.47 118.34 85.33 118.34 85.4 118.34 85.4 118.42 85.46 118.36 85.52 118.42 85.52 118.34 85.6 118.34 98.45 118.34 98.53 118.34 98.53 118.42 98.59 118.36 98.65 118.42 98.65 118.34 98.73 118.34 111.7 118.34 111.78 118.42 111.78 118.34 111.86 118.34 111.78 118.26 111.78 105.17 111.86 105.1"/>
  <path class="cls-1" d="M170.85,65.79l.08-.08h-.08v-.08l-.08.08h-13.09l-.08-.08v.08h-.08l.08.08v13.05h-.08l.06.06-.06.06h.08v13.01h-.08l.06.06-.06.06h.08v13.01h-13.01v-13.05l.08-.08h-.08v-13.01h.08l-.06-.06.06-.06h-.08v-13.05l.08-.08h-.08v-.08l-.08.08h-13.05v-.08l-.06.06-.06-.06v.08h-13.05l-.08-.08v.08h-.08l.08.08v13.05h-.08l.06.06-.06.06h.08v13.01h-.08l.06.06-.06.06h.08v13.01h-.08l.06.06-.06.06h.08v.08l.06-.06,6.48,6.48.09.09h0l6.49,6.49-.06.06h.08v.08l.06-.06.06.06v-.08h13.01v.08l.06-.06.06.06v-.08h.08l-.06-.06,6.48-6.47h0s6.62,6.61,6.62,6.61v-13.13l6.42,6.42.09.09,6.56-6.56.06.06v-.08h.08l-.06-.06.06-.06h-.08v-13.01h.08l-.06-.06.06-.06h-.08v-13.01h.08l-.06-.06.06-.06h-.08v-13.05ZM131.55,91.97h0l6.42-6.42h0s6.43,6.42,6.43,6.42h-12.85Z"/>
  <polygon class="cls-1" points="230 65.71 229.92 65.71 229.92 65.64 229.84 65.71 216.87 65.71 216.79 65.71 216.79 65.64 216.74 65.7 216.68 65.64 216.68 65.71 216.6 65.71 203.75 65.71 203.67 65.71 203.67 65.64 203.61 65.7 203.55 65.64 203.55 65.71 203.47 65.71 190.54 65.71 190.54 65.64 190.48 65.7 190.42 65.64 190.42 65.71 190.34 65.71 190.4 65.77 183.93 72.25 183.84 72.34 177.33 78.84 177.29 78.84 177.29 78.88 177.22 78.96 177.29 78.96 177.29 85.33 177.29 85.4 177.22 85.4 177.29 85.48 177.29 85.52 177.29 98.57 177.22 98.65 177.29 98.65 177.29 98.73 177.37 98.65 190.42 98.65 190.42 98.73 190.48 98.67 190.54 98.73 190.54 98.65 190.62 98.65 190.56 98.59 197.03 92.12 197.04 92.11 203.53 98.59 203.47 98.65 203.55 98.65 203.55 98.73 203.61 98.67 203.67 98.73 203.67 98.65 216.6 98.65 216.68 98.65 216.68 98.73 216.68 105.02 216.68 105.1 216.6 105.1 203.75 105.1 203.67 105.1 203.67 105.02 203.61 105.08 203.55 105.02 203.55 105.1 203.47 105.1 190.62 105.1 190.54 105.1 190.54 105.02 190.48 105.08 190.42 105.02 190.42 105.1 190.34 105.1 177.37 105.1 177.29 105.02 177.29 105.1 177.22 105.1 177.29 105.17 177.29 118.26 177.22 118.34 177.29 118.34 177.29 118.42 177.37 118.34 190.34 118.34 190.42 118.34 190.42 118.42 190.48 118.36 190.54 118.42 190.54 118.34 190.62 118.34 203.47 118.34 203.55 118.34 203.55 118.42 203.61 118.36 203.67 118.42 203.67 118.34 203.75 118.34 216.68 118.34 216.68 118.42 216.74 118.36 216.79 118.42 216.79 118.34 216.87 118.34 216.81 118.28 223.29 111.81 223.38 111.72 229.89 105.21 229.92 105.21 229.92 105.18 230 105.1 229.92 105.1 229.92 98.72 229.92 98.73 229.92 98.65 230 98.65 229.92 98.57 229.92 85.48 230 85.4 229.92 85.4 229.92 85.33 229.84 85.4 216.87 85.4 216.79 85.4 216.79 85.33 216.74 85.39 216.68 85.33 216.68 85.4 216.6 85.4 203.75 85.4 203.67 85.4 203.67 85.33 203.61 85.39 203.55 85.33 203.55 85.4 203.47 85.4 190.62 85.4 190.54 85.4 190.54 85.33 190.53 85.33 190.53 79.03 190.54 79.04 190.54 78.96 190.62 78.96 203.47 78.96 203.55 78.96 203.55 79.04 203.61 78.98 203.67 79.04 203.67 78.96 203.75 78.96 216.6 78.96 216.68 78.96 216.68 79.04 216.74 78.98 216.79 79.04 216.79 78.96 216.87 78.96 229.84 78.96 229.92 79.04 229.92 78.96 230 78.96 229.92 78.88 229.92 65.79 230 65.71"/>
  <path class="cls-1" d="M52.7,78.84v-.08l-.06.06-6.48-6.48-.09-.09h0l-6.49-6.49.06-.06h-.08v-.08l-.06.06-.06-.06v.08h-13.01v-.08l-.06.06-.06-.06v.08h-13.01v-.08l-.08.08H.16l-.08-.08v.08h-.08l.08.08v13.09l-.08.08h.08v13.01h-.08l.06.06-.06.06h.08v13.01h-.08l.06.06-.06.06h.08v13.05l-.08.08h.08v.08l.08-.08h13.05v.08l.06-.06.06.06v-.08h13.05l.08.08v-.08h.08l-.08-.08v-13.05h13.01v.08l.06-.06.06.06v-.08h.08l-.06-.06,6.48-6.47.09-.09,6.49-6.49.06.06v-.08h.08l-.06-.06.06-.06h-.08v-13.01h.08l-.06-.06.06-.06h-.08ZM26.53,91.97h-.08v-12.93l6.42,6.42.09.09h0l6.43,6.43h-12.85ZM13.13,78.96l-6.42,6.42h0s-6.43-6.42-6.43-6.42h12.85ZM19.74,72.33h.01s-6.43,6.44-6.43,6.44v-12.85l6.42,6.42Z"/>
  <path class="cls-1" d="M170.93.08h-.08v-.08l-.08.08h-13.09l-.08-.08v.08h-13.01v-.08l-.06.06-.06-.06v.08h-13.01v-.08l-.06.06-.06-.06v.08h-13.05l-.08-.08v.08h-.08l.08.08v13.05h-.08l.06.06-.06.06h.08v13.01h-.08l.06.06-.06.06h.08v13.01h-.08l.06.06-.06.06h.08v13.05l-.08.08h.08v.08l.08-.08h13.05v.08l.06-.06.06.06v-.08h13.05l.08.08v-.08h.08l-.08-.08v-13.05h13.01v.08l.06-.06.06.06v-.08h13.05l.08.08v-.08h.08l-.08-.08v-13.09l.08-.08h-.08v-.08l-.08.08h-13.05v-.08l-.06.06-.06-.06v.08h-13.01v-13.01h13.01v.08l.08-.08h13.09l.08.08v-.08h.08l-.08-.08V.16l.08-.08ZM144.4,26.33h-12.85l6.42-6.42h0s6.43,6.42,6.43,6.42ZM151.19,6.71h-.01s6.43-6.44,6.43-6.44v12.85l-6.42-6.42Z"/>
  <path class="cls-1" d="M229.92,13.32h.08l-.06-.06.06-.06h-.08v-.08l-.06.06-6.48-6.48-.09-.09h0l-6.49-6.49.06-.06h-.08v-.08l-.06.06-.06-.06v.08h-13.01v-.08l-.08.08h-13.05v-.08l-.08.08h-.12l.06.06-6.48,6.47-.09.09-6.49,6.49-.06-.06v.08h-.08l.06.06-.06.06h.08v13.01h-.08l.06.06-.06.06h.08v13.01h-.08l.06.06-.06.06h.08v.08l.06-.06,6.48,6.48.09.09h0l6.49,6.49-.06.06h.08v.08l.06-.06.06.06v-.08h13.01v.08l.06-.06.06.06v-.08h13.01v.08l.06-.06.06.06v-.08h.08l-.06-.06,6.48-6.47.09-.09,6.49-6.49.06.06v-.08h.08l-.06-.06.06-.06h-.08v-13.01h.08l-.06-.06.06-.06h-.08v-13.01ZM210.08,19.82l.09.09h0l6.43,6.43h0l.06.06-.06.06h0l-6.42,6.42-.09.09-6.49,6.49-6.47-6.47-.09-.09h0l-6.43-6.43h0l-.06-.06.06-.06h0l6.42-6.42.09-.09,6.49-6.49,6.47,6.47ZM210.08,6.69h.01s-6.43,6.44-6.43,6.44V.27l6.42,6.42ZM196.96,6.69h.01s-6.43,6.44-6.43,6.44V.27l6.42,6.42Z"/>
  <path class="cls-1" d="M111.86.08h-.08v-.08l-.08.08h-13.25l6.61,6.61h.01s-6.49,6.5-6.49,6.5l-.06-.06v.08h-.08l.06.06-.06.06h.08v12.93l-6.42-6.42-.09-.09h0l-6.43-6.43h0l-.06-.06.06-.06h-.08v-.08l-.06.06-6.48-6.48-.09-.09h0L72.41.14l.06-.06h-.08v-.08l-.06.06-.06-.06v.08h-13.05l-.08-.08v.08h-.08l.08.08v13.05h-.08l.08.08v13.05h-.08l.08.08v13.05h-.08l.06.06-.06.06h.08v13.05l-.08.08h.08v.08l.08-.08h13.09l.08.08v-.08h.08l-.08-.08v-13.05h.08l-.06-.06.06-.06h-.08v-12.93l6.42,6.42.09.09h0l6.43,6.43h0l.06.06-.06.06h.08v.08l.06-.06,6.48,6.48.09.09h0l6.49,6.49-.06.06h.08v.08l.06-.06.06.06v-.08h13.05l.08.08v-.08h.08l-.08-.08v-13.05h.08l-.06-.06.06-.06h-.08v-13.01h.08l-.06-.06.06-.06h-.08v-.08l-.06.06-6.48-6.48h-.01s6.49-6.5,6.49-6.5l.06.06v-.08h.08l-.06-.06.06-.06h-.08V.16l.08-.08ZM65.76,6.79h0s6.43,6.42,6.43,6.42h-12.85l6.42-6.42ZM65.76,19.92h0s6.43,6.42,6.43,6.42h-12.85l6.42-6.42Z"/>
</svg>