<?xml version="1.0" encoding="UTF-8"?>
<svg id="Layer_1" data-name="Layer 1" xmlns="http://www.w3.org/2000/svg" viewBox="0 0 230 120">
  <defs>
    <style>
      .cls-1 {
        fill: #fff;
      }
    </style>
  </defs>
  <path class="cls-1" d="M39.58,13.4v-.08h13.05l.08.08v-.08h.08l-.08-.08V0l-6.61,6.61h0S39.6.14,39.6.14l.06-.06h-.08v-.08l-.06.06-.06-.06v.08h-13.01v-.08l-.06.06-.06-.06v.08h-13.01v-.08l-.06.06-.06-.06v.08H.16l-.08-.08v.08h-.08l.08.08v13.09l-.08.08h.08v.08l.08-.08h13.05v13.01h-.08l.06.06-.06.06h.08v13.01H.16l-.08-.08v.08h-.08l.08.08v13.09l-.08.08h.08v.08l.08-.08h13.05v.08l.06-.06.06.06v-.08h13.01v.08l.06-.06.06.06v-.08h13.01v.08l.06-.06.06.06v-.08h13.05l.08.08v-.08h.08l-.08-.08v-13.09l.08-.08h-.08v-.08l-.08.08h-13.05v-13.01h.08l-.06-.06.06-.06h-.08v-12.93ZM26.33,26.53h0v12.85h0s-6.42-6.42-6.42-6.42h-.01s6.43-6.44,6.43-6.44Z"/>
  <path class="cls-1" d="M111.86,105.1h-.08v-.08l-.08.08h-13.05v-.08l-.08.08h-13.05v-13.01h.08l-.06-.06.06-.06h-.08v-13.01h.08l-.06-.06.06-.06h-.08v-13.05l.08-.08h-.08v-.08l-.08.08h-13.05v-.08l-.06.06-.06-.06v.08h-13.05l-.08-.08v.08h-.08l.08.08v13.05h-.08l.06.06-.06.06h.08v13.01h-.08l.06.06-.06.06h.08v13.05l-.08.08h.08v13.05l-.08.08h.08v.08l.08-.08h13.05v.08l.06-.06.06.06v-.08h13.01v.08l.06-.06.06.06v-.08h13.05l.08.08v-.08h13.05l.08.08v-.08h.08l-.08-.08v-13.09l.08-.08ZM72.2,105.21l-6.42,6.42h-.01s-6.42-6.42-6.42-6.42h12.85ZM98.67,118.13l-.02.02v-12.85l6.42,6.42h.01s-6.41,6.42-6.41,6.42Z"/>
  <polygon class="cls-1" points="170.85 65.79 170.93 65.71 170.85 65.71 170.85 65.64 170.77 65.71 157.68 65.71 157.6 65.64 157.6 65.71 157.53 65.71 157.6 65.79 157.6 78.76 157.6 78.84 157.53 78.84 157.58 78.9 157.53 78.96 157.6 78.96 157.6 79.04 157.6 91.89 157.6 91.97 157.53 91.97 157.58 92.03 157.53 92.09 157.6 92.09 157.6 92.16 157.6 105.02 157.6 105.1 157.53 105.1 144.67 105.1 144.6 105.1 144.6 105.02 144.6 92.16 144.6 92.09 144.67 92.09 144.61 92.03 144.67 91.97 144.6 91.97 144.6 91.89 144.6 79.04 144.6 78.96 144.67 78.96 144.61 78.9 144.67 78.84 144.6 78.84 144.6 78.76 144.6 65.79 144.67 65.71 144.6 65.71 144.6 65.64 144.52 65.71 131.47 65.71 131.47 65.64 131.41 65.69 131.35 65.64 131.35 65.71 131.27 65.71 131.33 65.77 124.85 72.25 124.84 72.26 118.22 65.64 118.22 78.76 118.22 78.84 118.14 78.84 118.2 78.9 118.14 78.96 118.22 78.96 118.22 79.04 118.22 91.89 118.22 91.97 118.14 91.97 118.2 92.03 118.14 92.09 118.22 92.09 118.22 92.16 118.22 105.1 118.14 105.1 118.2 105.15 118.14 105.21 118.22 105.21 118.22 105.29 118.28 105.23 124.76 111.71 124.84 111.8 131.25 118.21 131.33 118.28 131.27 118.34 131.35 118.34 131.35 118.42 131.41 118.36 131.47 118.42 131.47 118.34 144.4 118.34 144.48 118.34 144.48 118.42 144.54 118.36 144.6 118.42 144.6 118.34 144.67 118.34 157.6 118.34 157.6 118.42 157.66 118.36 157.72 118.42 157.72 118.34 157.8 118.34 157.74 118.28 164.22 111.81 164.3 111.72 170.72 105.31 170.79 105.23 170.85 105.29 170.85 105.21 170.93 105.21 170.87 105.15 170.93 105.1 170.85 105.1 170.85 92.16 170.85 92.09 170.93 92.09 170.87 92.03 170.93 91.97 170.85 91.97 170.85 91.89 170.85 79.04 170.85 78.96 170.93 78.96 170.87 78.9 170.93 78.84 170.85 78.84 170.85 78.76 170.85 65.79"/>
  <polygon class="cls-1" points="230 65.71 229.92 65.71 229.92 65.64 229.84 65.71 216.87 65.71 216.79 65.71 216.79 65.64 216.74 65.69 216.68 65.64 216.68 65.71 216.6 65.71 203.75 65.71 203.67 65.71 203.67 65.64 203.61 65.69 203.55 65.64 203.55 65.71 203.47 65.71 190.54 65.71 190.54 65.64 190.48 65.69 190.42 65.64 190.42 65.71 190.34 65.71 190.4 65.77 183.93 72.25 183.84 72.34 177.43 78.75 177.33 78.84 177.29 78.84 177.29 78.88 177.22 78.96 177.29 78.96 177.29 85.4 177.22 85.4 177.29 85.48 177.29 85.52 177.33 85.52 183.83 92.02 183.84 92.03 177.43 98.44 177.22 98.65 190.42 98.65 190.42 98.73 190.48 98.67 190.54 98.73 190.54 98.65 190.62 98.65 190.56 98.59 197.03 92.12 197.05 92.11 203.45 98.52 203.53 98.59 203.47 98.65 203.55 98.65 203.55 98.73 203.61 98.67 203.67 98.73 203.67 98.65 216.6 98.65 216.68 98.65 216.68 98.73 216.68 105.02 216.68 105.14 210.18 111.63 210.17 111.64 203.76 105.23 203.69 105.15 203.75 105.1 203.67 105.1 203.67 105.02 203.61 105.08 203.55 105.02 203.55 105.1 190.62 105.1 190.54 105.1 190.54 105.02 190.48 105.08 190.42 105.02 190.42 105.1 190.34 105.1 177.37 105.1 177.29 105.02 177.29 105.1 177.22 105.1 177.29 105.17 177.29 118.26 177.22 118.34 177.29 118.34 177.29 118.42 177.37 118.34 190.34 118.34 190.42 118.34 190.42 118.42 190.48 118.36 190.54 118.42 190.54 118.34 190.62 118.34 203.47 118.34 203.55 118.34 203.55 118.42 203.61 118.36 203.67 118.42 203.67 118.34 203.75 118.34 216.68 118.34 216.68 118.42 216.74 118.36 216.79 118.42 216.79 118.34 216.87 118.34 216.81 118.28 223.29 111.81 223.38 111.72 216.89 105.23 216.87 105.21 229.92 105.21 229.92 98.72 229.92 98.73 229.92 98.65 230 98.65 229.92 98.57 229.92 85.48 230 85.4 229.92 85.4 229.92 85.33 229.84 85.4 216.87 85.4 216.79 85.4 216.79 85.33 216.74 85.39 216.68 85.33 216.68 85.4 216.6 85.4 203.75 85.4 203.67 85.4 203.67 85.33 203.61 85.39 203.55 85.33 203.55 85.4 203.47 85.4 190.62 85.4 190.54 85.4 190.54 85.33 190.53 85.33 190.53 79.03 190.54 79.04 190.54 78.96 190.62 78.96 203.47 78.96 203.55 78.96 203.55 79.04 203.61 78.98 203.67 79.04 203.67 78.96 203.75 78.96 216.6 78.96 216.68 78.96 216.68 79.04 216.74 78.98 216.79 79.04 216.79 78.96 216.87 78.96 229.84 78.96 229.92 79.04 229.92 78.96 230 78.96 229.92 78.88 229.92 65.79 230 65.71"/>
  <path class="cls-1" d="M52.7,78.84v-.08l-.06.06-6.47-6.48-.09-.09-6.49-6.49.06-.06h-.08v-.08l-.06.06-.06-.06v.08h-13.01v-.08l-.06.06-.06-.06v.08h-13.01v-.08l-.06.06-.06-.06v.08H.16l-.08-.08v.08h-.08l.08.08v13.05h-.08l.06.06-.06.06h.08v13.01h-.08l.06.06-.06.06h.08v.08l.06-.06,6.47,6.48h.01S.21,105,.21,105l-.08.08-.06-.06v.08h-.08l.06.06-.06.06h.08v13.05l-.08.08h.08v.08l.08-.08h13.05v.08l.06-.06.06.06v-.08h13.05l.08.08v-.08h.08l-.08-.08v-13.05h13.01v.08l.06-.06.06.06v-.08h.08l-.06-.06,6.48-6.48.09-.09,6.41-6.41.08-.08.06.06v-.12l.08-.08h-.08v-13.01h.08l-.06-.06.06-.06h-.08ZM39.46,91.89v.08h-13.01v-12.93h0s6.42,6.42,6.42,6.42l.09.09,6.49-6.49.02-.02h0v12.85ZM39.66,91.97l6.42-6.42h.01s6.41,6.4,6.41,6.4l.02.02h-12.85Z"/>
  <path class="cls-1" d="M170.93.08h-.08v-.08l-.08.08h-13.05v-.08l-.06.06-.06-.06v.08h-13.01v-.08l-.06.06-.06-.06v.08h-13.01v-.08l-.06.06-.06-.06v.08h-.08l.06.06-6.48,6.48h0s-6.62-6.61-6.62-6.61v13.21h-.08l.08.08v13.05h-.08l.06.06-.06.06h.08v13.01h-.08l.06.06-.06.06h.08v13.05l-.08.08h.08v.08l.08-.08h13.05v.08l.06-.06.06.06v-.08h13.05l.08.08v-.08h.08l-.08-.08v-13.05h13.01v.08l.06-.06.06.06v-.08h13.05l.08.08v-.08h.08l-.08-.08v-13.09l.08-.08h-.08v-.08l-.08.08h-13.05v-.08l-.06.06-.06-.06v.08h-13.01v-13.01h13.01v.08l.06-.06.06.06v-.08h13.05l.08.08v-.08h.08l-.08-.08V.16l.08-.08ZM124.85,6.78l6.43,6.43h-12.85l6.42-6.42h0ZM137.97,46l-6.43-6.43h12.85l-6.42,6.42h0Z"/>
  <path class="cls-1" d="M229.92,13.32h.08l-.06-.06.06-.06h-.08v-.08l-.06.06-6.48-6.48-.09-.09h0l-6.49-6.49.06-.06h-.08v-.08l-.06.06-.06-.06v.08h-13.01v-.08l-.06.06-.06-.06v.08h-13.01v-.08l-.06.06-.06-.06v.08h-.08l.06.06-6.48,6.47-.09.09-6.49,6.49-.06-.06v.08h-.08l.06.06-.06.06h.08v13.01h-.08l.06.06-.06.06h.08v13.01h-.08l.06.06-.06.06h.08v.08l.06-.06,6.48,6.48.09.09,6.49,6.49-.06.06h.08v.08l.06-.06.06.06v-.08h13.01v.08l.06-.06.06.06v-.08h13.01v.08l.06-.06.06.06v-.08h.08l-.06-.06,6.48-6.48.09-.09,6.49-6.49.06.06v-.08h.08l-.06-.06.06-.06h-.08v-13.01h.08l-.06-.06.06-.06h-.08v-13.01ZM197.03,6.79h0s6.43,6.42,6.43,6.42h-12.85l6.42-6.42ZM203.61,13.34l6.47,6.47.09.09,6.43,6.43h0l.06.06-.06.06h0l-6.42,6.42-.09.09-6.49,6.49-6.47-6.48-.09-.09h0l-6.43-6.43h0l-.06-.06.06-.06h0l6.42-6.42.09-.09,6.49-6.49Z"/>
  <polygon class="cls-1" points="111.78 .16 111.86 .08 111.78 .08 111.78 0 111.7 .08 98.61 .08 98.53 0 98.53 .08 98.45 .08 98.53 .16 98.53 13.13 98.53 13.21 98.45 13.21 98.51 13.26 98.45 13.32 98.53 13.32 98.53 13.4 98.53 26.25 98.53 26.25 92.12 19.84 92.03 19.75 85.54 13.26 85.6 13.21 85.52 13.21 85.52 13.13 85.46 13.19 85.4 13.13 85.4 13.13 78.99 6.71 78.9 6.62 72.41 .14 72.47 .08 72.4 .08 72.4 0 72.34 .06 72.28 0 72.28 .08 59.23 .08 59.15 0 59.15 .08 59.07 .08 59.15 .16 59.15 13.13 59.15 13.21 59.07 13.21 59.13 13.26 59.07 13.32 59.15 13.32 59.15 13.4 59.15 26.25 59.15 26.33 59.07 26.33 59.13 26.39 59.07 26.45 59.15 26.45 59.15 26.53 59.15 39.38 59.15 39.46 59.07 39.46 59.15 39.54 59.15 39.66 59.15 52.63 59.07 52.71 59.15 52.71 59.15 52.78 59.23 52.71 72.32 52.71 72.4 52.78 72.4 52.71 72.47 52.71 72.4 52.63 72.4 39.54 72.47 39.46 72.4 39.46 72.4 39.38 72.32 39.46 59.35 39.46 65.76 33.04 65.85 32.96 72.28 26.53 72.28 26.53 72.34 26.47 72.4 26.53 72.4 26.53 78.81 32.94 78.9 33.03 85.39 39.52 85.33 39.58 85.4 39.58 85.4 39.66 85.46 39.6 85.52 39.66 85.52 39.66 91.94 46.07 92.03 46.16 98.51 52.65 98.45 52.71 98.53 52.71 98.53 52.78 98.59 52.72 98.65 52.78 98.65 52.71 111.7 52.71 111.78 52.78 111.78 52.71 111.86 52.71 111.78 52.63 111.78 39.66 111.78 39.58 111.86 39.58 111.8 39.52 111.86 39.46 111.78 39.46 111.78 39.38 111.78 26.53 111.78 26.45 111.86 26.45 111.8 26.39 111.86 26.33 111.78 26.33 111.78 26.25 111.78 13.4 111.78 13.32 111.86 13.32 111.8 13.26 111.86 13.21 111.78 13.21 111.78 13.13 111.78 .16"/>
</svg>