<?xml version="1.0" encoding="UTF-8"?>
<svg id="Layer_1" data-name="Layer 1" xmlns="http://www.w3.org/2000/svg" viewBox="0 0 34 34">
  <path d="M25.55,21.46c-2.41,2.35-9.49,1.55-12.67,1.26.79,4.27,4.68,2.87,7.9,2.63l-.22,1.93c-7.51,1.94-13.02.23-13.7-8.14-.32-3.91-.87-10.28,3.23-12.18,2.28-1.05,9.01-1.1,11.59-.76,2.83.37,5.23,2.09,5.51,5.03.26,2.78.42,8.22-1.65,10.24ZM10.25,12.74c-.33,2.04.24,4.83,0,6.96.9-.05,2.16.35,2.58-.62.7-2.13-1.64-9.31,2.88-6.16l.18,4.52h2.26c-.03-1.76-.46-6.18,2.38-5.21.32.11,1,1.05,1,1.26v6.21h2.26v-7.34c0-.11-.95-1.73-1.11-1.9-2.64-2.6-5.35,1.09-5.84.96-1.63-3.06-6.04-2-6.59,1.32Z"/>
</svg>