<?xml version="1.0" encoding="UTF-8"?>
<svg width="117px" height="14px" viewBox="0 0 117 14" version="1.1" xmlns="http://www.w3.org/2000/svg" xmlns:xlink="http://www.w3.org/1999/xlink">
    <!-- Generator: Sketch 51.2 (57519) - http://www.bohemiancoding.com/sketch -->
    <title>Group 2</title>
    <desc>Created with Sketch.</desc>
    <defs></defs>
    <g id="Page-1" stroke="none" stroke-width="1" fill="none" fill-rule="evenodd">
        <g id="schedule-v4" transform="translate(-295.000000, -837.000000)" fill="#FF0000">
            <g id="Group-2" transform="translate(295.000000, 837.000000)">
                <g id="lightning-talk">
                    <polygon id="Path-2-Copy" points="7.06757699 0.409666524 0.227939874 7.79977578 3.73912233 7.79977578 2.39875767 13.3051743 9.41360998 5.61270789 5.65884261 5.61270789"></polygon>
                </g>
                <path d="M18.2,2.70664063 L18.2,9.05664063 L21.76,9.05664063 L21.76,9.95664063 L17.25,9.95664063 L17.25,2.70664063 L18.2,2.70664063 Z M23.68,3.60664063 L23.68,2.70664063 L28.29,2.70664063 L28.29,3.60664063 L26.46,3.60664063 L26.46,9.05664063 L28.29,9.05664063 L28.29,9.95664063 L23.68,9.95664063 L23.68,9.05664063 L25.51,9.05664063 L25.51,3.60664063 L23.68,3.60664063 Z M32.77,3.45664063 C31.6,3.45664063 31.02,4.43664063 31.02,6.31664063 C31.02,8.10664063 31.57,9.20664063 32.77,9.20664063 C33.65,9.20664063 34.46,8.81664063 34.46,7.32664063 L34.46,7.09664063 L32.79,7.09664063 L32.79,6.19664063 L35.33,6.19664063 L35.33,9.95664063 L34.61,9.95664063 L34.57,9.04664063 C34.14,9.79664063 33.61,10.0866406 32.73,10.0866406 C30.85,10.0866406 30.04,8.51664063 30.04,6.31664063 C30.04,4.07664063 30.98,2.57664063 32.82,2.57664063 C34.19,2.57664063 35.08,3.45664063 35.31,4.94664063 L34.33,4.94664063 C34.19,4.10664063 33.81,3.45664063 32.77,3.45664063 Z M40.91,2.69664063 L41.86,2.69664063 L41.86,9.95664063 L40.91,9.95664063 L40.91,6.66664063 L38.11,6.66664063 L38.11,9.95664063 L37.16,9.95664063 L37.16,2.69664063 L38.11,2.69664063 L38.11,5.76664063 L40.91,5.76664063 L40.91,2.69664063 Z M45.79,9.95664063 L45.79,3.60664063 L43.61,3.60664063 L43.61,2.70664063 L48.92,2.70664063 L48.92,3.60664063 L46.74,3.60664063 L46.74,9.95664063 L45.79,9.95664063 Z M55.3700001,9.95664063 L53.9500001,9.95664063 L51.6300001,3.76664063 L51.6300001,9.95664063 L50.6800001,9.95664063 L50.6800001,2.70664063 L52.1000001,2.70664063 L54.4200001,8.87664063 L54.4200001,2.70664063 L55.3700001,2.70664063 L55.3700001,9.95664063 Z M57.4800001,3.60664063 L57.4800001,2.70664063 L62.0900001,2.70664063 L62.0900001,3.60664063 L60.2600001,3.60664063 L60.2600001,9.05664063 L62.0900001,9.05664063 L62.0900001,9.95664063 L57.4800001,9.95664063 L57.4800001,9.05664063 L59.3100001,9.05664063 L59.3100001,3.60664063 L57.4800001,3.60664063 Z M68.8900001,9.95664063 L67.4700001,9.95664063 L65.1500001,3.76664063 L65.1500001,9.95664063 L64.2000001,9.95664063 L64.2000001,2.70664063 L65.6200001,2.70664063 L67.9400001,8.87664063 L67.9400001,2.70664063 L68.8900001,2.70664063 L68.8900001,9.95664063 Z M73.3300001,3.45664063 C72.1600001,3.45664063 71.5800001,4.43664063 71.5800001,6.31664063 C71.5800001,8.10664063 72.1300001,9.20664063 73.3300001,9.20664063 C74.2100001,9.20664063 75.0200001,8.81664063 75.0200001,7.32664063 L75.0200001,7.09664063 L73.3500001,7.09664063 L73.3500001,6.19664063 L75.8900001,6.19664063 L75.8900001,9.95664063 L75.1700001,9.95664063 L75.1300001,9.04664063 C74.7000001,9.79664063 74.1700001,10.0866406 73.2900001,10.0866406 C71.4100001,10.0866406 70.6000001,8.51664063 70.6000001,6.31664063 C70.6000001,4.07664063 71.5400001,2.57664063 73.3800001,2.57664063 C74.7500001,2.57664063 75.6400001,3.45664063 75.8700001,4.94664063 L74.8900001,4.94664063 C74.7500001,4.10664063 74.3700001,3.45664063 73.3300001,3.45664063 Z M86.3500001,9.95664063 L86.3500001,3.60664063 L84.1700001,3.60664063 L84.1700001,2.70664063 L89.4800001,2.70664063 L89.4800001,3.60664063 L87.3000001,3.60664063 L87.3000001,9.95664063 L86.3500001,9.95664063 Z M94.1000001,2.70664063 L96.4800001,9.95664063 L95.4600001,9.95664063 L94.9700001,8.40664063 L92.2000001,8.40664063 L91.7200001,9.95664063 L90.7000001,9.95664063 L93.0800001,2.70664063 L94.1000001,2.70664063 Z M93.5900001,3.97664063 L92.4800001,7.51664063 L94.6900001,7.51664063 L93.5900001,3.97664063 Z M99.3200001,2.70664063 L99.3200001,9.05664063 L102.88,9.05664063 L102.88,9.95664063 L98.3700001,9.95664063 L98.3700001,2.70664063 L99.3200001,2.70664063 Z M105.91,2.70664063 L105.91,6.17664063 L108.5,2.70664063 L109.62,2.70664063 L107.43,5.53664063 L109.9,9.95664063 L108.81,9.95664063 L106.81,6.33664063 L105.91,7.49664063 L105.91,9.95664063 L104.96,9.95664063 L104.96,2.70664063 L105.91,2.70664063 Z M114.08,6.72664063 L113.29,6.53664063 C112.33,6.32664063 111.46,5.72664063 111.46,4.56664063 C111.46,3.31664063 112.54,2.57664063 113.84,2.57664063 C114.96,2.57664063 116.09,3.17664063 116.25,4.61664063 L115.31,4.61664063 C115.2,3.74664063 114.45,3.45664063 113.79,3.45664063 C113.13,3.45664063 112.44,3.78664063 112.44,4.53664063 C112.44,5.17664063 112.9,5.48664063 113.49,5.61664063 L114.21,5.77664063 C115.37,6.03664063 116.4,6.53664063 116.4,7.92664063 C116.4,9.28664063 115.35,10.0866406 113.95,10.0866406 C112.47,10.0866406 111.41,9.13664063 111.33,7.69664063 L112.27,7.69664063 C112.38,8.66664063 113.05,9.20664063 113.98,9.20664063 C114.7,9.20664063 115.44,8.83664063 115.44,7.99664063 C115.44,7.23664063 114.88,6.91664063 114.08,6.72664063 Z" id="LIGHTNING-TALKS"></path>
            </g>
        </g>
    </g>
</svg>