<?xml version="1.0" encoding="UTF-8"?>
<svg width="169px" height="17px" viewBox="0 0 169 17" version="1.1" xmlns="http://www.w3.org/2000/svg" xmlns:xlink="http://www.w3.org/1999/xlink">
    <!-- Generator: Sketch 52.5 (67469) - http://www.bohemiancoding.com/sketch -->
    <title>program</title>
    <desc>Created with Sketch.</desc>
    <g id="Page-1" stroke="none" stroke-width="1" fill="none" fill-rule="evenodd">
        <g id="program" transform="translate(0.000000, -1.000000)">
            <g id="Group-Copy-2" transform="translate(0.000000, 0.962357)">
                <rect id="Rectangle-9" fill="#FF0000" x="0.006734638" y="0.336986276" width="12" height="16"></rect>
                <path d="M2.40673464,3.23698628 L5.57315352,3.23698628" id="Line-3" stroke="#FFFFFF" stroke-width="0.8" stroke-linecap="square"></path>
                <path d="M2.40673464,5.3544076 L9.8067346,5.3544076" id="Line-3-Copy" stroke="#FFFFFF" stroke-width="0.8" stroke-linecap="square"></path>
                <path d="M2.40673464,7.3544076 L9.8067346,7.3544076" id="Line-3-Copy-2" stroke="#FFFFFF" stroke-width="0.8" stroke-linecap="square"></path>
                <path d="M2.40673464,9.3544076 L7.97315352,9.3544076" id="Line-3-Copy-3" stroke="#FFFFFF" stroke-width="0.8" stroke-linecap="square"></path>
                <path d="M2.40673464,11.3544076 L9.8067346,11.3544076" id="Line-3-Copy-4" stroke="#FFFFFF" stroke-width="0.8" stroke-linecap="square"></path>
                <path d="M2.40673464,13.3544076 L8.77315352,13.3544076" id="Line-3-Copy-5" stroke="#FFFFFF" stroke-width="0.8" stroke-linecap="square"></path>
            </g>
            <path d="M21.475544,5.94832589 L23.255544,5.94832589 C24.845544,5.94832589 26.065544,6.37832589 26.065544,8.17832589 C26.065544,9.97832589 24.845544,10.4083259 23.255544,10.4083259 L22.425544,10.4083259 L22.425544,13.1983259 L21.475544,13.1983259 L21.475544,5.94832589 Z M23.375544,6.84832589 L22.425544,6.84832589 L22.425544,9.50832589 L23.375544,9.50832589 C24.345544,9.50832589 25.085544,9.35832589 25.085544,8.17832589 C25.085544,6.99832589 24.345544,6.84832589 23.375544,6.84832589 Z M31.935544,13.1983259 L30.515544,10.1383259 C30.345544,10.1483259 30.175544,10.1483259 29.985544,10.1483259 L29.165544,10.1483259 L29.165544,13.1983259 L28.215544,13.1983259 L28.215544,5.94832589 L29.985544,5.94832589 C31.565544,5.94832589 32.785544,6.28832589 32.785544,8.01832589 C32.785544,9.14832589 32.275544,9.70832589 31.475544,9.95832589 L33.015544,13.1983259 L31.935544,13.1983259 Z M30.095544,6.84832589 L29.165544,6.84832589 L29.165544,9.24832589 L30.095544,9.24832589 C31.055544,9.24832589 31.805544,9.15832589 31.805544,8.03832589 C31.805544,6.91832589 31.055544,6.84832589 30.095544,6.84832589 Z M37.215544,5.81832589 C39.025544,5.81832589 39.925544,7.37832589 39.925544,9.56832589 C39.925544,11.7583259 39.025544,13.3283259 37.215544,13.3283259 C35.405544,13.3283259 34.505544,11.7583259 34.505544,9.56832589 C34.505544,7.37832589 35.405544,5.81832589 37.215544,5.81832589 Z M37.215544,6.69832589 C36.005544,6.69832589 35.485544,7.71832589 35.485544,9.56832589 C35.485544,11.4183259 36.005544,12.4483259 37.215544,12.4483259 C38.425544,12.4483259 38.945544,11.4083259 38.945544,9.56832589 C38.945544,7.72832589 38.425544,6.69832589 37.215544,6.69832589 Z M44.095544,6.69832589 C42.925544,6.69832589 42.345544,7.67832589 42.345544,9.55832589 C42.345544,11.3483259 42.895544,12.4483259 44.095544,12.4483259 C44.975544,12.4483259 45.785544,12.0583259 45.785544,10.5683259 L45.785544,10.3383259 L44.115544,10.3383259 L44.115544,9.43832589 L46.655544,9.43832589 L46.655544,13.1983259 L45.935544,13.1983259 L45.895544,12.2883259 C45.465544,13.0383259 44.935544,13.3283259 44.055544,13.3283259 C42.175544,13.3283259 41.365544,11.7583259 41.365544,9.55832589 C41.365544,7.31832589 42.305544,5.81832589 44.145544,5.81832589 C45.515544,5.81832589 46.405544,6.69832589 46.635544,8.18832589 L45.655544,8.18832589 C45.515544,7.34832589 45.135544,6.69832589 44.095544,6.69832589 Z M52.515544,13.1983259 L51.095544,10.1383259 C50.925544,10.1483259 50.755544,10.1483259 50.565544,10.1483259 L49.745544,10.1483259 L49.745544,13.1983259 L48.795544,13.1983259 L48.795544,5.94832589 L50.565544,5.94832589 C52.145544,5.94832589 53.365544,6.28832589 53.365544,8.01832589 C53.365544,9.14832589 52.855544,9.70832589 52.055544,9.95832589 L53.595544,13.1983259 L52.515544,13.1983259 Z M50.675544,6.84832589 L49.745544,6.84832589 L49.745544,9.24832589 L50.675544,9.24832589 C51.635544,9.24832589 52.385544,9.15832589 52.385544,8.03832589 C52.385544,6.91832589 51.635544,6.84832589 50.675544,6.84832589 Z M58.3055441,5.94832589 L60.6855441,13.1983259 L59.6655441,13.1983259 L59.1755441,11.6483259 L56.4055441,11.6483259 L55.9255441,13.1983259 L54.9055441,13.1983259 L57.2855441,5.94832589 L58.3055441,5.94832589 Z M57.7955441,7.21832589 L56.6855441,10.7583259 L58.8955441,10.7583259 L57.7955441,7.21832589 Z M65.1355441,10.6983259 L64.1755441,10.6983259 L63.1155441,6.87832589 L63.1155441,13.1983259 L62.1655441,13.1983259 L62.1655441,5.94832589 L63.6555441,5.94832589 L64.6555441,9.65832589 L65.6555441,5.94832589 L67.1455441,5.94832589 L67.1455441,13.1983259 L66.1955441,13.1983259 L66.1955441,6.87832589 L65.1355441,10.6983259 Z M77.3055441,10.4483259 C77.3055441,8.42832589 78.0655441,6.81832589 78.6755441,5.94832589 L79.4355441,5.94832589 C78.7655441,7.01832589 78.2355441,8.56832589 78.2355441,10.4483259 C78.2355441,12.3383259 78.7655441,13.8783259 79.4355441,14.9483259 L78.6755441,14.9483259 C78.0655441,14.0783259 77.3055441,12.4683259 77.3055441,10.4483259 Z M83.2155441,5.94832589 L84.9955441,5.94832589 C86.5855441,5.94832589 87.8055441,6.37832589 87.8055441,8.17832589 C87.8055441,9.97832589 86.5855441,10.4083259 84.9955441,10.4083259 L84.1655441,10.4083259 L84.1655441,13.1983259 L83.2155441,13.1983259 L83.2155441,5.94832589 Z M85.1155441,6.84832589 L84.1655441,6.84832589 L84.1655441,9.50832589 L85.1155441,9.50832589 C86.0855441,9.50832589 86.8255441,9.35832589 86.8255441,8.17832589 C86.8255441,6.99832589 86.0855441,6.84832589 85.1155441,6.84832589 Z M93.7955441,9.56832589 C93.7955441,7.08832589 92.3655441,6.84832589 91.0155441,6.84832589 L90.7555441,6.84832589 L90.7555441,12.2983259 L91.0155441,12.2983259 C92.3655441,12.2983259 93.7955441,12.0283259 93.7955441,9.56832589 Z M89.8055441,5.94832589 L91.0455441,5.94832589 C93.1055441,5.94832589 94.7655441,6.79832589 94.7655441,9.56832589 C94.7655441,12.3283259 93.1055441,13.1983259 91.0455441,13.1983259 L89.8055441,13.1983259 L89.8055441,5.94832589 Z M97.0255441,13.1983259 L97.0255441,5.94832589 L101.485544,5.94832589 L101.485544,6.84832589 L97.9755441,6.84832589 L97.9755441,9.00832589 L101.295544,9.00832589 L101.295544,9.90832589 L97.9755441,9.90832589 L97.9755441,13.1983259 L97.0255441,13.1983259 Z M114.375544,9.56832589 C114.375544,7.08832589 112.945544,6.84832589 111.595544,6.84832589 L111.335544,6.84832589 L111.335544,12.2983259 L111.595544,12.2983259 C112.945544,12.2983259 114.375544,12.0283259 114.375544,9.56832589 Z M110.385544,5.94832589 L111.625544,5.94832589 C113.685544,5.94832589 115.345544,6.79832589 115.345544,9.56832589 C115.345544,12.3283259 113.685544,13.1983259 111.625544,13.1983259 L110.385544,13.1983259 L110.385544,5.94832589 Z M119.535544,5.81832589 C121.345544,5.81832589 122.245544,7.37832589 122.245544,9.56832589 C122.245544,11.7583259 121.345544,13.3283259 119.535544,13.3283259 C117.725544,13.3283259 116.825544,11.7583259 116.825544,9.56832589 C116.825544,7.37832589 117.725544,5.81832589 119.535544,5.81832589 Z M119.535544,6.69832589 C118.325544,6.69832589 117.805544,7.71832589 117.805544,9.56832589 C117.805544,11.4183259 118.325544,12.4483259 119.535544,12.4483259 C120.745544,12.4483259 121.265544,11.4083259 121.265544,9.56832589 C121.265544,7.72832589 120.745544,6.69832589 119.535544,6.69832589 Z M126.905544,8.15832589 L127.705544,11.8183259 L128.245544,5.94832589 L129.195544,5.94832589 L128.465544,13.1983259 L127.235544,13.1983259 L126.395544,9.41832589 L125.555544,13.1983259 L124.315544,13.1983259 L123.595544,5.94832589 L124.545544,5.94832589 L125.075544,11.8183259 L125.875544,8.15832589 L126.905544,8.15832589 Z M135.595544,13.1983259 L134.175544,13.1983259 L131.855544,7.00832589 L131.855544,13.1983259 L130.905544,13.1983259 L130.905544,5.94832589 L132.325544,5.94832589 L134.645544,12.1183259 L134.645544,5.94832589 L135.595544,5.94832589 L135.595544,13.1983259 Z M139.085544,5.94832589 L139.085544,12.2983259 L142.645544,12.2983259 L142.645544,13.1983259 L138.135544,13.1983259 L138.135544,5.94832589 L139.085544,5.94832589 Z M146.975544,5.81832589 C148.785544,5.81832589 149.685544,7.37832589 149.685544,9.56832589 C149.685544,11.7583259 148.785544,13.3283259 146.975544,13.3283259 C145.165544,13.3283259 144.265544,11.7583259 144.265544,9.56832589 C144.265544,7.37832589 145.165544,5.81832589 146.975544,5.81832589 Z M146.975544,6.69832589 C145.765544,6.69832589 145.245544,7.71832589 145.245544,9.56832589 C145.245544,11.4183259 145.765544,12.4483259 146.975544,12.4483259 C148.185544,12.4483259 148.705544,11.4083259 148.705544,9.56832589 C148.705544,7.72832589 148.185544,6.69832589 146.975544,6.69832589 Z M154.345544,5.94832589 L156.725544,13.1983259 L155.705544,13.1983259 L155.215544,11.6483259 L152.445544,11.6483259 L151.965544,13.1983259 L150.945544,13.1983259 L153.325544,5.94832589 L154.345544,5.94832589 Z M153.835544,7.21832589 L152.725544,10.7583259 L154.935544,10.7583259 L153.835544,7.21832589 Z M162.395544,9.56832589 C162.395544,7.08832589 160.965544,6.84832589 159.615544,6.84832589 L159.355544,6.84832589 L159.355544,12.2983259 L159.615544,12.2983259 C160.965544,12.2983259 162.395544,12.0283259 162.395544,9.56832589 Z M158.405544,5.94832589 L159.645544,5.94832589 C161.705544,5.94832589 163.365544,6.79832589 163.365544,9.56832589 C163.365544,12.3283259 161.705544,13.1983259 159.645544,13.1983259 L158.405544,13.1983259 L158.405544,5.94832589 Z M168.625544,10.4483259 C168.625544,12.4783259 167.835544,14.0583259 167.245544,14.9483259 L166.495544,14.9483259 C167.145544,13.8683259 167.685544,12.3383259 167.685544,10.4483259 C167.685544,8.55832589 167.145544,7.02832589 166.495544,5.94832589 L167.245544,5.94832589 C167.835544,6.83832589 168.625544,8.41832589 168.625544,10.4483259 Z" id="PROGRAM-(PDF-DOWNLOA" fill="#FF0000"></path>
        </g>
    </g>
</svg>