<?xml version="1.0" encoding="UTF-8"?>
<svg width="154px" height="14px" viewBox="0 0 154 14" version="1.1" xmlns="http://www.w3.org/2000/svg" xmlns:xlink="http://www.w3.org/1999/xlink">
    <!-- Generator: Sketch 52.5 (67469) - http://www.bohemiancoding.com/sketch -->
    <title>photo</title>
    <desc>Created with Sketch.</desc>
    <g id="Page-1" stroke="none" stroke-width="1" fill="none" fill-rule="evenodd">
        <g id="photo">
            <g id="Group-6" transform="translate(0.000000, 0.314215)">
                <rect id="Rectangle-10-Copy-3" fill="#FF0000" x="0.122918983" y="1.40602913" width="17.7876" height="11.664"></rect>
                <g id="Group-Copy" transform="translate(5.553969, 3.957529)" fill="#FFFFFF">
                    <circle id="Oval-3" cx="3.36798" cy="3.60855" r="3.31087468"></circle>
                </g>
                <circle id="Oval-3-Copy-2" fill="#FFFFFF" cx="15.213409" cy="4.06864131" r="1"></circle>
                <rect id="Rectangle-11-Copy" fill="#FF0000" x="13.2760623" y="0.281460896" width="2.916" height="1.8225"></rect>
            </g>
            <path d="M26.1524696,3.63735556 L27.9324696,3.63735556 C29.5224696,3.63735556 30.7424696,4.06735556 30.7424696,5.86735556 C30.7424696,7.66735556 29.5224696,8.09735556 27.9324696,8.09735556 L27.1024696,8.09735556 L27.1024696,10.8873556 L26.1524696,10.8873556 L26.1524696,3.63735556 Z M28.0524696,4.53735556 L27.1024696,4.53735556 L27.1024696,7.19735556 L28.0524696,7.19735556 C29.0224696,7.19735556 29.7624696,7.04735556 29.7624696,5.86735556 C29.7624696,4.68735556 29.0224696,4.53735556 28.0524696,4.53735556 Z M36.4324696,3.62735556 L37.3824696,3.62735556 L37.3824696,10.8873556 L36.4324696,10.8873556 L36.4324696,7.59735556 L33.6324696,7.59735556 L33.6324696,10.8873556 L32.6824696,10.8873556 L32.6824696,3.62735556 L33.6324696,3.62735556 L33.6324696,6.69735556 L36.4324696,6.69735556 L36.4324696,3.62735556 Z M41.8924696,3.50735556 C43.7024696,3.50735556 44.6024696,5.06735556 44.6024696,7.25735556 C44.6024696,9.44735556 43.7024696,11.0173556 41.8924696,11.0173556 C40.0824696,11.0173556 39.1824696,9.44735556 39.1824696,7.25735556 C39.1824696,5.06735556 40.0824696,3.50735556 41.8924696,3.50735556 Z M41.8924696,4.38735556 C40.6824696,4.38735556 40.1624696,5.40735556 40.1624696,7.25735556 C40.1624696,9.10735556 40.6824696,10.1373556 41.8924696,10.1373556 C43.1024696,10.1373556 43.6224696,9.09735556 43.6224696,7.25735556 C43.6224696,5.41735556 43.1024696,4.38735556 41.8924696,4.38735556 Z M48.2724696,10.8873556 L48.2724696,4.53735556 L46.0924696,4.53735556 L46.0924696,3.63735556 L51.4024696,3.63735556 L51.4024696,4.53735556 L49.2224696,4.53735556 L49.2224696,10.8873556 L48.2724696,10.8873556 Z M55.6124696,3.50735556 C57.4224696,3.50735556 58.3224696,5.06735556 58.3224696,7.25735556 C58.3224696,9.44735556 57.4224696,11.0173556 55.6124696,11.0173556 C53.8024696,11.0173556 52.9024696,9.44735556 52.9024696,7.25735556 C52.9024696,5.06735556 53.8024696,3.50735556 55.6124696,3.50735556 Z M55.6124696,4.38735556 C54.4024696,4.38735556 53.8824696,5.40735556 53.8824696,7.25735556 C53.8824696,9.10735556 54.4024696,10.1373556 55.6124696,10.1373556 C56.8224696,10.1373556 57.3424696,9.09735556 57.3424696,7.25735556 C57.3424696,5.41735556 56.8224696,4.38735556 55.6124696,4.38735556 Z M71.0324696,7.25735556 C71.0324696,4.77735556 69.6024696,4.53735556 68.2524696,4.53735556 L67.9924696,4.53735556 L67.9924696,9.98735556 L68.2524696,9.98735556 C69.6024696,9.98735556 71.0324696,9.71735556 71.0324696,7.25735556 Z M67.0424696,3.63735556 L68.2824696,3.63735556 C70.3424696,3.63735556 72.0024696,4.48735556 72.0024696,7.25735556 C72.0024696,10.0173556 70.3424696,10.8873556 68.2824696,10.8873556 L67.0424696,10.8873556 L67.0424696,3.63735556 Z M76.1924696,3.50735556 C78.0024696,3.50735556 78.9024696,5.06735556 78.9024696,7.25735556 C78.9024696,9.44735556 78.0024696,11.0173556 76.1924696,11.0173556 C74.3824696,11.0173556 73.4824696,9.44735556 73.4824696,7.25735556 C73.4824696,5.06735556 74.3824696,3.50735556 76.1924696,3.50735556 Z M76.1924696,4.38735556 C74.9824696,4.38735556 74.4624696,5.40735556 74.4624696,7.25735556 C74.4624696,9.10735556 74.9824696,10.1373556 76.1924696,10.1373556 C77.4024696,10.1373556 77.9224696,9.09735556 77.9224696,7.25735556 C77.9224696,5.41735556 77.4024696,4.38735556 76.1924696,4.38735556 Z M84.6524696,8.63735556 L85.6024696,8.63735556 C85.3524696,10.2073556 84.4124696,11.0173556 83.0824696,11.0173556 C81.3224696,11.0173556 80.4824696,9.44735556 80.4824696,7.24735556 C80.4824696,4.99735556 81.4224696,3.49735556 83.1524696,3.49735556 C84.4024696,3.49735556 85.3424696,4.46735556 85.5824696,5.93735556 L84.6124696,5.93735556 C84.4824696,5.10735556 84.0424696,4.38735556 83.1224696,4.38735556 C82.0724696,4.38735556 81.4624696,5.36735556 81.4624696,7.24735556 C81.4624696,9.03735556 82.0224696,10.1373556 83.1424696,10.1373556 C84.0624696,10.1373556 84.5224696,9.51735556 84.6524696,8.63735556 Z M87.4724696,3.63735556 L88.4224696,3.63735556 L88.4224696,8.04735556 C88.4224696,9.46735556 88.6724696,10.1373556 89.9024696,10.1373556 C91.1424696,10.1373556 91.4024696,9.37735556 91.4024696,7.93735556 L91.4024696,3.63735556 L92.3524696,3.63735556 L92.3524696,7.85735556 C92.3524696,9.97735556 91.7924696,11.0173556 89.9024696,11.0173556 C88.0924696,11.0173556 87.4724696,10.1973556 87.4724696,7.93735556 L87.4724696,3.63735556 Z M97.2524696,8.38735556 L96.2924696,8.38735556 L95.2324696,4.56735556 L95.2324696,10.8873556 L94.2824696,10.8873556 L94.2824696,3.63735556 L95.7724696,3.63735556 L96.7724696,7.34735556 L97.7724696,3.63735556 L99.2624696,3.63735556 L99.2624696,10.8873556 L98.3124696,10.8873556 L98.3124696,4.56735556 L97.2524696,8.38735556 Z M101.52247,10.8873556 L101.52247,3.63735556 L105.84247,3.63735556 L105.84247,4.53735556 L102.47247,4.53735556 L102.47247,6.69735556 L105.64247,6.69735556 L105.64247,7.59735556 L102.47247,7.59735556 L102.47247,9.98735556 L105.84247,9.98735556 L105.84247,10.8873556 L101.52247,10.8873556 Z M112.83247,10.8873556 L111.41247,10.8873556 L109.09247,4.69735556 L109.09247,10.8873556 L108.14247,10.8873556 L108.14247,3.63735556 L109.56247,3.63735556 L111.88247,9.80735556 L111.88247,3.63735556 L112.83247,3.63735556 L112.83247,10.8873556 Z M116.87247,10.8873556 L116.87247,4.53735556 L114.69247,4.53735556 L114.69247,3.63735556 L120.00247,3.63735556 L120.00247,4.53735556 L117.82247,4.53735556 L117.82247,10.8873556 L116.87247,10.8873556 Z M124.72247,3.63735556 L127.10247,10.8873556 L126.08247,10.8873556 L125.59247,9.33735556 L122.82247,9.33735556 L122.34247,10.8873556 L121.32247,10.8873556 L123.70247,3.63735556 L124.72247,3.63735556 Z M124.21247,4.90735556 L123.10247,8.44735556 L125.31247,8.44735556 L124.21247,4.90735556 Z M130.59247,10.8873556 L130.59247,4.53735556 L128.41247,4.53735556 L128.41247,3.63735556 L133.72247,3.63735556 L133.72247,4.53735556 L131.54247,4.53735556 L131.54247,10.8873556 L130.59247,10.8873556 Z M135.62247,4.53735556 L135.62247,3.63735556 L140.23247,3.63735556 L140.23247,4.53735556 L138.40247,4.53735556 L138.40247,9.98735556 L140.23247,9.98735556 L140.23247,10.8873556 L135.62247,10.8873556 L135.62247,9.98735556 L137.45247,9.98735556 L137.45247,4.53735556 L135.62247,4.53735556 Z M144.79247,3.50735556 C146.60247,3.50735556 147.50247,5.06735556 147.50247,7.25735556 C147.50247,9.44735556 146.60247,11.0173556 144.79247,11.0173556 C142.98247,11.0173556 142.08247,9.44735556 142.08247,7.25735556 C142.08247,5.06735556 142.98247,3.50735556 144.79247,3.50735556 Z M144.79247,4.38735556 C143.58247,4.38735556 143.06247,5.40735556 143.06247,7.25735556 C143.06247,9.10735556 143.58247,10.1373556 144.79247,10.1373556 C146.00247,10.1373556 146.52247,9.09735556 146.52247,7.25735556 C146.52247,5.41735556 146.00247,4.38735556 144.79247,4.38735556 Z M153.99247,10.8873556 L152.57247,10.8873556 L150.25247,4.69735556 L150.25247,10.8873556 L149.30247,10.8873556 L149.30247,3.63735556 L150.72247,3.63735556 L153.04247,9.80735556 L153.04247,3.63735556 L153.99247,3.63735556 L153.99247,10.8873556 Z" id="PHOTO-DOCUMENTATION" fill="#FF0000"></path>
        </g>
    </g>
</svg>