<?xml version="1.0" encoding="UTF-8"?>
<svg width="130px" height="14px" viewBox="0 0 130 14" version="1.1" xmlns="http://www.w3.org/2000/svg" xmlns:xlink="http://www.w3.org/1999/xlink">
    <!-- Generator: Sketch 52.5 (67469) - http://www.bohemiancoding.com/sketch -->
    <title>videos</title>
    <desc>Created with Sketch.</desc>
    <g id="Page-1" stroke="none" stroke-width="1" fill="none" fill-rule="evenodd">
        <g id="videos" transform="translate(0.000000, -1.000000)">
            <g id="Group" transform="translate(0.000000, 0.701067)">
                <circle id="Oval-3" fill="#FF0000" cx="6.89563223" cy="7.36115536" r="6.87256081"></circle>
                <polygon id="Rectangle-13" fill="#FFFFFF" transform="translate(6.343466, 7.361155) rotate(-135.000000) translate(-6.343466, -7.361155) " points="4.916272 4.37284372 9.33177714 8.78834886 3.35515518 10.3494656"></polygon>
            </g>
            <path d="M23.79,11.5012722 L21.51,4.2512722 L22.53,4.2512722 L24.29,10.2312722 L26.06,4.2512722 L27.08,4.2512722 L24.8,11.5012722 L23.79,11.5012722 Z M28.85,5.1512722 L28.85,4.2512722 L33.46,4.2512722 L33.46,5.1512722 L31.63,5.1512722 L31.63,10.6012722 L33.46,10.6012722 L33.46,11.5012722 L28.85,11.5012722 L28.85,10.6012722 L30.68,10.6012722 L30.68,5.1512722 L28.85,5.1512722 Z M39.72,7.8712722 C39.72,5.3912722 38.29,5.1512722 36.94,5.1512722 L36.68,5.1512722 L36.68,10.6012722 L36.94,10.6012722 C38.29,10.6012722 39.72,10.3312722 39.72,7.8712722 Z M35.73,4.2512722 L36.97,4.2512722 C39.03,4.2512722 40.69,5.1012722 40.69,7.8712722 C40.69,10.6312722 39.03,11.5012722 36.97,11.5012722 L35.73,11.5012722 L35.73,4.2512722 Z M42.77,11.5012722 L42.77,4.2512722 L47.09,4.2512722 L47.09,5.1512722 L43.72,5.1512722 L43.72,7.3112722 L46.89,7.3112722 L46.89,8.2112722 L43.72,8.2112722 L43.72,10.6012722 L47.09,10.6012722 L47.09,11.5012722 L42.77,11.5012722 Z M51.74,4.1212722 C53.55,4.1212722 54.45,5.6812722 54.45,7.8712722 C54.45,10.0612722 53.55,11.6312722 51.74,11.6312722 C49.93,11.6312722 49.03,10.0612722 49.03,7.8712722 C49.03,5.6812722 49.93,4.1212722 51.74,4.1212722 Z M51.74,5.0012722 C50.53,5.0012722 50.01,6.0212722 50.01,7.8712722 C50.01,9.7212722 50.53,10.7512722 51.74,10.7512722 C52.95,10.7512722 53.47,9.7112722 53.47,7.8712722 C53.47,6.0312722 52.95,5.0012722 51.74,5.0012722 Z M67.04,11.5012722 L65.62,8.4412722 C65.45,8.4512722 65.28,8.4512722 65.09,8.4512722 L64.27,8.4512722 L64.27,11.5012722 L63.32,11.5012722 L63.32,4.2512722 L65.09,4.2512722 C66.67,4.2512722 67.89,4.5912722 67.89,6.3212722 C67.89,7.4512722 67.38,8.0112722 66.58,8.2612722 L68.12,11.5012722 L67.04,11.5012722 Z M65.2,5.1512722 L64.27,5.1512722 L64.27,7.5512722 L65.2,7.5512722 C66.16,7.5512722 66.91,7.4612722 66.91,6.3412722 C66.91,5.2212722 66.16,5.1512722 65.2,5.1512722 Z M70.21,11.5012722 L70.21,4.2512722 L74.53,4.2512722 L74.53,5.1512722 L71.16,5.1512722 L71.16,7.3112722 L74.33,7.3112722 L74.33,8.2112722 L71.16,8.2112722 L71.16,10.6012722 L74.53,10.6012722 L74.53,11.5012722 L70.21,11.5012722 Z M80.78,9.2512722 L81.73,9.2512722 C81.48,10.8212722 80.54,11.6312722 79.21,11.6312722 C77.45,11.6312722 76.61,10.0612722 76.61,7.8612722 C76.61,5.6112722 77.55,4.1112722 79.28,4.1112722 C80.53,4.1112722 81.47,5.0812722 81.71,6.5512722 L80.74,6.5512722 C80.61,5.7212722 80.17,5.0012722 79.25,5.0012722 C78.2,5.0012722 77.59,5.9812722 77.59,7.8612722 C77.59,9.6512722 78.15,10.7512722 79.27,10.7512722 C80.19,10.7512722 80.65,10.1312722 80.78,9.2512722 Z M86.04,4.1212722 C87.85,4.1212722 88.75,5.6812722 88.75,7.8712722 C88.75,10.0612722 87.85,11.6312722 86.04,11.6312722 C84.23,11.6312722 83.33,10.0612722 83.33,7.8712722 C83.33,5.6812722 84.23,4.1212722 86.04,4.1212722 Z M86.04,5.0012722 C84.83,5.0012722 84.31,6.0212722 84.31,7.8712722 C84.31,9.7212722 84.83,10.7512722 86.04,10.7512722 C87.25,10.7512722 87.77,9.7112722 87.77,7.8712722 C87.77,6.0312722 87.25,5.0012722 86.04,5.0012722 Z M94.48,11.5012722 L93.06,8.4412722 C92.89,8.4512722 92.72,8.4512722 92.53,8.4512722 L91.71,8.4512722 L91.71,11.5012722 L90.76,11.5012722 L90.76,4.2512722 L92.53,4.2512722 C94.11,4.2512722 95.33,4.5912722 95.33,6.3212722 C95.33,7.4512722 94.82,8.0112722 94.02,8.2612722 L95.56,11.5012722 L94.48,11.5012722 Z M92.64,5.1512722 L91.71,5.1512722 L91.71,7.5512722 L92.64,7.5512722 C93.6,7.5512722 94.35,7.4612722 94.35,6.3412722 C94.35,5.2212722 93.6,5.1512722 92.64,5.1512722 Z M101.46,7.8712722 C101.46,5.3912722 100.03,5.1512722 98.68,5.1512722 L98.42,5.1512722 L98.42,10.6012722 L98.68,10.6012722 C100.03,10.6012722 101.46,10.3312722 101.46,7.8712722 Z M97.47,4.2512722 L98.71,4.2512722 C100.77,4.2512722 102.43,5.1012722 102.43,7.8712722 C102.43,10.6312722 100.77,11.5012722 98.71,11.5012722 L97.47,11.5012722 L97.47,4.2512722 Z M104.31,5.1512722 L104.31,4.2512722 L108.92,4.2512722 L108.92,5.1512722 L107.09,5.1512722 L107.09,10.6012722 L108.92,10.6012722 L108.92,11.5012722 L104.31,11.5012722 L104.31,10.6012722 L106.14,10.6012722 L106.14,5.1512722 L104.31,5.1512722 Z M115.82,11.5012722 L114.4,11.5012722 L112.08,5.3112722 L112.08,11.5012722 L111.13,11.5012722 L111.13,4.2512722 L112.55,4.2512722 L114.87,10.4212722 L114.87,4.2512722 L115.82,4.2512722 L115.82,11.5012722 Z M120.36,5.0012722 C119.19,5.0012722 118.61,5.9812722 118.61,7.8612722 C118.61,9.6512722 119.16,10.7512722 120.36,10.7512722 C121.24,10.7512722 122.05,10.3612722 122.05,8.8712722 L122.05,8.6412722 L120.38,8.6412722 L120.38,7.7412722 L122.92,7.7412722 L122.92,11.5012722 L122.2,11.5012722 L122.16,10.5912722 C121.73,11.3412722 121.2,11.6312722 120.32,11.6312722 C118.44,11.6312722 117.63,10.0612722 117.63,7.8612722 C117.63,5.6212722 118.57,4.1212722 120.41,4.1212722 C121.78,4.1212722 122.67,5.0012722 122.9,6.4912722 L121.92,6.4912722 C121.78,5.6512722 121.4,5.0012722 120.36,5.0012722 Z M127.41,8.2712722 L126.62,8.0812722 C125.66,7.8712722 124.79,7.2712722 124.79,6.1112722 C124.79,4.8612722 125.87,4.1212722 127.17,4.1212722 C128.29,4.1212722 129.42,4.7212722 129.58,6.1612722 L128.64,6.1612722 C128.53,5.2912722 127.78,5.0012722 127.12,5.0012722 C126.46,5.0012722 125.77,5.3312722 125.77,6.0812722 C125.77,6.7212722 126.23,7.0312722 126.82,7.1612722 L127.54,7.3212722 C128.7,7.5812722 129.73,8.0812722 129.73,9.4712722 C129.73,10.8312722 128.68,11.6312722 127.28,11.6312722 C125.8,11.6312722 124.74,10.6812722 124.66,9.2412722 L125.6,9.2412722 C125.71,10.2112722 126.38,10.7512722 127.31,10.7512722 C128.03,10.7512722 128.77,10.3812722 128.77,9.5412722 C128.77,8.7812722 128.21,8.4612722 127.41,8.2712722 Z" id="VIDEO-RECORDINGS" fill="#FF0000"></path>
        </g>
    </g>
</svg>