<?xml version="1.0" encoding="UTF-8"?>
<svg width="124px" height="14px" viewBox="0 0 124 14" version="1.1" xmlns="http://www.w3.org/2000/svg" xmlns:xlink="http://www.w3.org/1999/xlink">
    <!-- Generator: Sketch 52.5 (67469) - http://www.bohemiancoding.com/sketch -->
    <title>Group 2</title>
    <desc>Created with Sketch.</desc>
    <g id="Page-1" stroke="none" stroke-width="1" fill="none" fill-rule="evenodd">
        <g id="Group-2" transform="translate(0.000000, -1.000000)">
            <g id="Group" transform="translate(0.000000, 0.701067)">
                <circle id="Oval-3" fill="#FF0000" cx="6.89563223" cy="7.36115536" r="6.87256081"></circle>
                <polygon id="Rectangle-13" fill="#FFFFFF" transform="translate(6.343466, 7.361155) rotate(-135.000000) translate(-6.343466, -7.361155) " points="4.916272 4.37284372 9.33177714 8.78834886 3.35515518 10.3494656"></polygon>
            </g>
            <path d="M24.0692075,11.5411101 L21.7892075,4.29111006 L22.8092075,4.29111006 L24.5692075,10.2711101 L26.3392075,4.29111006 L27.3592075,4.29111006 L25.0792075,11.5411101 L24.0692075,11.5411101 Z M29.1292075,5.19111006 L29.1292075,4.29111006 L33.7392075,4.29111006 L33.7392075,5.19111006 L31.9092075,5.19111006 L31.9092075,10.6411101 L33.7392075,10.6411101 L33.7392075,11.5411101 L29.1292075,11.5411101 L29.1292075,10.6411101 L30.9592075,10.6411101 L30.9592075,5.19111006 L29.1292075,5.19111006 Z M39.9992075,7.91111006 C39.9992075,5.43111006 38.5692075,5.19111006 37.2192075,5.19111006 L36.9592075,5.19111006 L36.9592075,10.6411101 L37.2192075,10.6411101 C38.5692075,10.6411101 39.9992075,10.3711101 39.9992075,7.91111006 Z M36.0092075,4.29111006 L37.2492075,4.29111006 C39.3092075,4.29111006 40.9692075,5.14111006 40.9692075,7.91111006 C40.9692075,10.6711101 39.3092075,11.5411101 37.2492075,11.5411101 L36.0092075,11.5411101 L36.0092075,4.29111006 Z M43.0492075,11.5411101 L43.0492075,4.29111006 L47.3692075,4.29111006 L47.3692075,5.19111006 L43.9992075,5.19111006 L43.9992075,7.35111006 L47.1692075,7.35111006 L47.1692075,8.25111006 L43.9992075,8.25111006 L43.9992075,10.6411101 L47.3692075,10.6411101 L47.3692075,11.5411101 L43.0492075,11.5411101 Z M52.0192075,4.16111006 C53.8292075,4.16111006 54.7292075,5.72111006 54.7292075,7.91111006 C54.7292075,10.1011101 53.8292075,11.6711101 52.0192075,11.6711101 C50.2092075,11.6711101 49.3092075,10.1011101 49.3092075,7.91111006 C49.3092075,5.72111006 50.2092075,4.16111006 52.0192075,4.16111006 Z M52.0192075,5.04111006 C50.8092075,5.04111006 50.2892075,6.06111006 50.2892075,7.91111006 C50.2892075,9.76111006 50.8092075,10.7911101 52.0192075,10.7911101 C53.2292075,10.7911101 53.7492075,9.75111006 53.7492075,7.91111006 C53.7492075,6.07111006 53.2292075,5.04111006 52.0192075,5.04111006 Z M67.3192075,11.5411101 L65.8992075,8.48111006 C65.7292075,8.49111006 65.5592075,8.49111006 65.3692075,8.49111006 L64.5492075,8.49111006 L64.5492075,11.5411101 L63.5992075,11.5411101 L63.5992075,4.29111006 L65.3692075,4.29111006 C66.9492075,4.29111006 68.1692075,4.63111006 68.1692075,6.36111006 C68.1692075,7.49111006 67.6592075,8.05111006 66.8592075,8.30111006 L68.3992075,11.5411101 L67.3192075,11.5411101 Z M65.4792075,5.19111006 L64.5492075,5.19111006 L64.5492075,7.59111006 L65.4792075,7.59111006 C66.4392075,7.59111006 67.1892075,7.50111006 67.1892075,6.38111006 C67.1892075,5.26111006 66.4392075,5.19111006 65.4792075,5.19111006 Z M70.4892075,11.5411101 L70.4892075,4.29111006 L74.8092075,4.29111006 L74.8092075,5.19111006 L71.4392075,5.19111006 L71.4392075,7.35111006 L74.6092075,7.35111006 L74.6092075,8.25111006 L71.4392075,8.25111006 L71.4392075,10.6411101 L74.8092075,10.6411101 L74.8092075,11.5411101 L70.4892075,11.5411101 Z M81.0592075,9.29111006 L82.0092075,9.29111006 C81.7592075,10.8611101 80.8192075,11.6711101 79.4892075,11.6711101 C77.7292075,11.6711101 76.8892075,10.1011101 76.8892075,7.90111006 C76.8892075,5.65111006 77.8292075,4.15111006 79.5592075,4.15111006 C80.8092075,4.15111006 81.7492075,5.12111006 81.9892075,6.59111006 L81.0192075,6.59111006 C80.8892075,5.76111006 80.4492075,5.04111006 79.5292075,5.04111006 C78.4792075,5.04111006 77.8692075,6.02111006 77.8692075,7.90111006 C77.8692075,9.69111006 78.4292075,10.7911101 79.5492075,10.7911101 C80.4692075,10.7911101 80.9292075,10.1711101 81.0592075,9.29111006 Z M86.3192075,4.16111006 C88.1292075,4.16111006 89.0292075,5.72111006 89.0292075,7.91111006 C89.0292075,10.1011101 88.1292075,11.6711101 86.3192075,11.6711101 C84.5092075,11.6711101 83.6092075,10.1011101 83.6092075,7.91111006 C83.6092075,5.72111006 84.5092075,4.16111006 86.3192075,4.16111006 Z M86.3192075,5.04111006 C85.1092075,5.04111006 84.5892075,6.06111006 84.5892075,7.91111006 C84.5892075,9.76111006 85.1092075,10.7911101 86.3192075,10.7911101 C87.5292075,10.7911101 88.0492075,9.75111006 88.0492075,7.91111006 C88.0492075,6.07111006 87.5292075,5.04111006 86.3192075,5.04111006 Z M94.7592075,11.5411101 L93.3392075,8.48111006 C93.1692075,8.49111006 92.9992075,8.49111006 92.8092075,8.49111006 L91.9892075,8.49111006 L91.9892075,11.5411101 L91.0392075,11.5411101 L91.0392075,4.29111006 L92.8092075,4.29111006 C94.3892075,4.29111006 95.6092075,4.63111006 95.6092075,6.36111006 C95.6092075,7.49111006 95.0992075,8.05111006 94.2992075,8.30111006 L95.8392075,11.5411101 L94.7592075,11.5411101 Z M92.9192075,5.19111006 L91.9892075,5.19111006 L91.9892075,7.59111006 L92.9192075,7.59111006 C93.8792075,7.59111006 94.6292075,7.50111006 94.6292075,6.38111006 C94.6292075,5.26111006 93.8792075,5.19111006 92.9192075,5.19111006 Z M101.739208,7.91111006 C101.739208,5.43111006 100.309208,5.19111006 98.9592075,5.19111006 L98.6992075,5.19111006 L98.6992075,10.6411101 L98.9592075,10.6411101 C100.309208,10.6411101 101.739208,10.3711101 101.739208,7.91111006 Z M97.7492075,4.29111006 L98.9892075,4.29111006 C101.049208,4.29111006 102.709208,5.14111006 102.709208,7.91111006 C102.709208,10.6711101 101.049208,11.5411101 98.9892075,11.5411101 L97.7492075,11.5411101 L97.7492075,4.29111006 Z M104.589208,5.19111006 L104.589208,4.29111006 L109.199208,4.29111006 L109.199208,5.19111006 L107.369208,5.19111006 L107.369208,10.6411101 L109.199208,10.6411101 L109.199208,11.5411101 L104.589208,11.5411101 L104.589208,10.6411101 L106.419208,10.6411101 L106.419208,5.19111006 L104.589208,5.19111006 Z M116.099208,11.5411101 L114.679208,11.5411101 L112.359208,5.35111006 L112.359208,11.5411101 L111.409208,11.5411101 L111.409208,4.29111006 L112.829208,4.29111006 L115.149208,10.4611101 L115.149208,4.29111006 L116.099208,4.29111006 L116.099208,11.5411101 Z M120.639208,5.04111006 C119.469208,5.04111006 118.889208,6.02111006 118.889208,7.90111006 C118.889208,9.69111006 119.439208,10.7911101 120.639208,10.7911101 C121.519208,10.7911101 122.329208,10.4011101 122.329208,8.91111006 L122.329208,8.68111006 L120.659208,8.68111006 L120.659208,7.78111006 L123.199208,7.78111006 L123.199208,11.5411101 L122.479208,11.5411101 L122.439208,10.6311101 C122.009208,11.3811101 121.479208,11.6711101 120.599208,11.6711101 C118.719208,11.6711101 117.909208,10.1011101 117.909208,7.90111006 C117.909208,5.66111006 118.849208,4.16111006 120.689208,4.16111006 C122.059208,4.16111006 122.949208,5.04111006 123.179208,6.53111006 L122.199208,6.53111006 C122.059208,5.69111006 121.679208,5.04111006 120.639208,5.04111006 Z" id="VIDEO-RECORDING" fill="#FF0000"></path>
        </g>
    </g>
</svg>